<svg id="Grupo_32686" data-name="Grupo 32686" xmlns="http://www.w3.org/2000/svg" width="123.325" height="74.438" viewBox="0 0 123.325 74.438">
  <rect id="Rectángulo_18532" data-name="Rectángulo 18532" width="123.325" height="74.438" rx="5" fill="none"/>
  <g id="Grupo_32685" data-name="Grupo 32685" transform="translate(22.588 15.059)">
    <path id="Trazado_43304" data-name="Trazado 43304" d="M9.586,18.383h4.888v13.2H9.586V30.4a4.3,4.3,0,0,1-3.537,1.558,5.458,5.458,0,0,1-4.357-1.975,7.436,7.436,0,0,1-1.691-5,7.416,7.416,0,0,1,1.691-4.992A5.457,5.457,0,0,1,6.049,18a4.3,4.3,0,0,1,3.537,1.558ZM5.533,26.755a2.2,2.2,0,0,0,1.7.713,2.2,2.2,0,0,0,1.7-.713,2.746,2.746,0,0,0,0-3.54,2.2,2.2,0,0,0-1.7-.713,2.2,2.2,0,0,0-1.7.713,2.746,2.746,0,0,0,0,3.54" transform="translate(2.002 -11.992)" fill="#fff"/>
    <path id="Trazado_43305" data-name="Trazado 43305" d="M58.1,18.007a4.406,4.406,0,0,1,3.473,1.481,6.543,6.543,0,0,1,1.309,4.444v7.653H58v-7.1q0-1.77-1.637-1.77a1.637,1.637,0,0,0-1.333.556,2.319,2.319,0,0,0-.457,1.531v6.781H49.678v-13.2h4.893v1.294A4.085,4.085,0,0,1,58.1,18.007" transform="translate(-31.091 -11.996)" fill="#fff"/>
    <path id="Trazado_43306" data-name="Trazado 43306" d="M97.1,5.387a2.622,2.622,0,0,1-1.916-.8,2.619,2.619,0,0,1-.073-3.7c.024-.025.048-.05.073-.074A2.612,2.612,0,0,1,97.1,0a2.585,2.585,0,0,1,1.889.8,2.619,2.619,0,0,1,.073,3.7c-.024.025-.049.049-.073.073a2.6,2.6,0,0,1-1.889.8m-2.456,1H99.53v13.2H94.645Z" transform="translate(-60.87 0)" fill="#fff"/>
    <path id="Trazado_43307" data-name="Trazado 43307" d="M131.718,18.007a4.577,4.577,0,0,1,3.592,1.439,6,6,0,0,1,1.3,4.115v8.023h-4.9V24.223q0-1.506-1.348-1.506-1.555,0-1.558,1.955v6.912h-4.886V24.223q0-1.506-1.348-1.506-1.56,0-1.558,1.955v6.912h-4.886v-13.2h4.886v1.234a4.352,4.352,0,0,1,3.592-1.614,3.578,3.578,0,0,1,3.3,1.637,4.792,4.792,0,0,1,3.8-1.637" transform="translate(-75.362 -11.996)" fill="#fff"/>
    <path id="Trazado_43308" data-name="Trazado 43308" d="M186.568,26.648a2.681,2.681,0,0,0,2.693,1.321,3.457,3.457,0,0,0,2.244-.827l3.2,2.693a7.231,7.231,0,0,1-5.6,2.138A7.5,7.5,0,0,1,183.672,30a6.573,6.573,0,0,1-2.047-4.952,6.864,6.864,0,0,1,7.029-7.038,6.645,6.645,0,0,1,4.952,1.975,6.774,6.774,0,0,1,1.938,4.955,7.034,7.034,0,0,1-.21,1.728Zm-.079-3.143h4.444a2.014,2.014,0,0,0-2.141-1.585,2.278,2.278,0,0,0-2.3,1.59Z" transform="translate(-118.985 -11.996)" fill="#fff"/>
    <g id="Polígono_5" data-name="Polígono 5" transform="matrix(0.719, -0.695, 0.695, 0.719, 0, 30.77)" fill="#fff">
      <path d="M 3.281702041625977 2.35448145866394 L 0.999996542930603 2.35448145866394 L 2.140849351882935 0.8333372473716736 L 3.281702041625977 2.35448145866394 Z" stroke="none"/>
      <path d="M 2.140849351882935 1.430511474609375e-06 L 4.281699180603027 2.85448145866394 L -4.76837158203125e-07 2.85448145866394 L 2.140849351882935 1.430511474609375e-06 Z" stroke="none" fill="#fff"/>
    </g>
    <g id="Polígono_6" data-name="Polígono 6" transform="translate(12.195 27.758) rotate(49)" fill="#fff">
      <path d="M 3.28165078163147 2.35442066192627 L 1.000006437301636 2.35442066192627 L 2.140825986862183 0.8333314061164856 L 3.28165078163147 2.35442066192627 Z" stroke="none"/>
      <path d="M 2.140825033187866 4.76837158203125e-07 L 4.281644821166992 2.85442066192627 L -4.76837158203125e-06 2.85442066192627 L 2.140825033187866 4.76837158203125e-07 Z" stroke="none" fill="#fff"/>
    </g>
    <path id="Trazado_43309" data-name="Trazado 43309" d="M287.082,18.11a4.443,4.443,0,0,0-4.049,2.125v-1.8h-2.172V30.921h2.172V24.308a4.262,4.262,0,0,1,1-3.111,3.529,3.529,0,0,1,2.625-1.018,3.046,3.046,0,0,1,2.272.838,3.213,3.213,0,0,1,.825,2.361v7.543h2.174V23.257A5.218,5.218,0,0,0,290.6,19.5a4.641,4.641,0,0,0-3.522-1.387" transform="translate(-263.979 9.686)" fill="#fff"/>
    <path id="Trazado_43310" data-name="Trazado 43310" d="M327.834,18.11a6.311,6.311,0,0,0-4.724,1.868,6.443,6.443,0,0,0-1.821,4.7,6.375,6.375,0,0,0,1.868,4.71,6.565,6.565,0,0,0,4.834,1.868,6.1,6.1,0,0,0,5.495-2.823l-1.847-1.051a3.908,3.908,0,0,1-3.6,1.826,4.779,4.779,0,0,1-2.985-.934,4.112,4.112,0,0,1-1.544-2.59h10.466a6.366,6.366,0,0,0,.075-.974,6.741,6.741,0,0,0-1.735-4.67,5.772,5.772,0,0,0-4.484-1.927m-4.323,5.672a4.147,4.147,0,0,1,4.323-3.622,4.007,4.007,0,0,1,2.622.934,4.209,4.209,0,0,1,1.4,2.7Z" transform="translate(-291.641 9.686)" fill="#fff"/>
    <path id="Trazado_43311" data-name="Trazado 43311" d="M376.493,20.583a5.3,5.3,0,0,0-4.7-2.476,6.093,6.093,0,0,0-4.521,1.887,6.339,6.339,0,0,0-1.85,4.619,6.377,6.377,0,0,0,1.85,4.621,6.071,6.071,0,0,0,4.521,1.9,5.324,5.324,0,0,0,4.7-2.5V30.41a3.628,3.628,0,0,1-1.114,2.8,4.315,4.315,0,0,1-3.059,1.025q-3.047,0-4.073-2.1l-1.9,1.074a5.23,5.23,0,0,0,2.3,2.249,7.787,7.787,0,0,0,3.622.787,6.862,6.862,0,0,0,4.5-1.536,5.264,5.264,0,0,0,1.868-4.309V18.435h-2.148Zm-1.275,7.195a4.481,4.481,0,1,1,1.275-3.164,4.31,4.31,0,0,1-1.275,3.164" transform="translate(-321.837 9.688)" fill="#fff"/>
    <path id="Trazado_43312" data-name="Trazado 43312" d="M424.568,20.585a5.3,5.3,0,0,0-4.722-2.475,5.992,5.992,0,0,0-4.472,1.912,6.445,6.445,0,0,0-1.847,4.671,6.444,6.444,0,0,0,1.847,4.67,5.993,5.993,0,0,0,4.472,1.912,5.3,5.3,0,0,0,4.722-2.473v2.118h2.174V18.437h-2.174ZM423.3,27.866a4.526,4.526,0,0,1-6.322,0,4.61,4.61,0,0,1,0-6.371,4.526,4.526,0,0,1,6.322,0,4.616,4.616,0,0,1,0,6.371" transform="translate(-354.749 9.686)" fill="#fff"/>
    <rect id="Rectángulo_18629" data-name="Rectángulo 18629" width="2.174" height="12.491" transform="translate(74.666 28.122)" fill="#fff"/>
    <path id="Trazado_43313" data-name="Trazado 43313" d="M464.151,5.608a1.443,1.443,0,0,0,1.441-1.445,1.442,1.442,0,0,0-.425-1.037,1.38,1.38,0,0,0-1.016-.441,1.4,1.4,0,0,0-1.051.437,1.442,1.442,0,0,0-.425,1.037,1.4,1.4,0,0,0,.418,1.03,1.43,1.43,0,0,0,1.058.42" transform="translate(-388.378 20.24)" fill="#fff"/>
    <path id="Trazado_43314" data-name="Trazado 43314" d="M244.534,19.582l-4.4.67a6.675,6.675,0,0,0-4.736,0l-4.486-.665.808,4.85a6.62,6.62,0,0,0-.189,1.607,6.16,6.16,0,0,0,6.1,6.221h.122a6.072,6.072,0,0,0,4.423-1.8A5.974,5.974,0,0,0,244,26.044a6.631,6.631,0,0,0-.189-1.6Zm-12.017,2.956-.329-1.712,1.735.245Zm8.22,6.5a4.176,4.176,0,0,1-7.144-3,4.08,4.08,0,0,1,1.207-3.005,4.257,4.257,0,0,1,5.936,0,4.341,4.341,0,0,1,0,6.008m2.2-6.462-1.424-1.448,1.721-.278Z" transform="translate(-229.809 8.678)" fill="#fff"/>
  </g>
</svg>
