<svg xmlns="http://www.w3.org/2000/svg" xmlns:xlink="http://www.w3.org/1999/xlink" width="129.226" height="78.002" viewBox="0 0 129.226 78.002">
  <defs>
    <clipPath id="clip-path">
      <rect id="Rectángulo_23782" data-name="Rectángulo 23782" width="116.069" height="49.119" fill="none"/>
    </clipPath>
  </defs>
  <g id="atresplayer" transform="translate(-870 -1736)">
    <g id="Grupo_38936" data-name="Grupo 38936" transform="translate(876 1750)">
      <g id="Grupo_38935" data-name="Grupo 38935" clip-path="url(#clip-path)">
        <path id="Trazado_94426" data-name="Trazado 94426" d="M169.585,2.505l15.78,13.054-15.78,13.054-8.26-5.862,8.254-6.191v-2l-8.232-6.214,8.237-5.84m-2.212,13.184-9.3,6.975a.162.162,0,0,0,0,.261l11.5,8.164a.161.161,0,0,0,.2-.008l18.613-15.4a.162.162,0,0,0,0-.25L169.776.038a.161.161,0,0,0-.2-.008L158.1,8.165a.16.16,0,0,0,0,.261l9.271,7a.161.161,0,0,1,0,.259Z" transform="translate(-113.602 0)" fill="#fff"/>
        <path id="Trazado_94427" data-name="Trazado 94427" d="M51.082,128.316a3.025,3.025,0,0,1-1.107.559,5.014,5.014,0,0,1-1.377.186,3.912,3.912,0,0,1-2.819-.953,3.666,3.666,0,0,1-.995-2.777v-5.326H42.96v-2.071h1.824V115.4h2.591v2.529H50.34v2.071H47.375v5.264a1.758,1.758,0,0,0,.393,1.234,1.476,1.476,0,0,0,1.141.424,2.281,2.281,0,0,0,1.45-.455l.725,1.844Z" transform="translate(-30.887 -82.972)" fill="#fff"/>
        <path id="Trazado_94428" data-name="Trazado 94428" d="M85.125,123.655v2.468a3.237,3.237,0,0,0-.6-.062,3.131,3.131,0,0,0-2.364.88,3.506,3.506,0,0,0-.849,2.538v5.368H78.72V123.779h2.465v1.616q1.121-1.741,3.937-1.74Z" transform="translate(-56.597 -88.903)" fill="#fff"/>
        <path id="Trazado_94429" data-name="Trazado 94429" d="M116.252,130.144h-8.684a3,3,0,0,0,1.192,1.936,3.9,3.9,0,0,0,2.394.714,4.032,4.032,0,0,0,3-1.2l1.388,1.6a4.69,4.69,0,0,1-1.886,1.346,7.477,7.477,0,0,1-5.781-.27,5.208,5.208,0,0,1-2.144-2.021,6.092,6.092,0,0,1-.02-5.843,5.223,5.223,0,0,1,2.04-2.021,5.961,5.961,0,0,1,2.942-.725,5.8,5.8,0,0,1,2.892.714,5.087,5.087,0,0,1,1.99,2.009,6.087,6.087,0,0,1,.714,3q0,.27-.042.767Zm-7.658-3.679a3.1,3.1,0,0,0-1.045,1.959h6.278a3.056,3.056,0,0,0-1.015-1.948,3.365,3.365,0,0,0-4.216-.011Z" transform="translate(-75.477 -88.903)" fill="#fff"/>
        <path id="Trazado_94430" data-name="Trazado 94430" d="M150.9,134.634a6.636,6.636,0,0,1-2.052-.891l.995-1.97a6.385,6.385,0,0,0,1.793.8,7.478,7.478,0,0,0,2.063.3q2.323,0,2.321-1.223a.819.819,0,0,0-.59-.809,10.161,10.161,0,0,0-1.9-.436,15.234,15.234,0,0,1-2.229-.478,3.42,3.42,0,0,1-1.492-.944,2.632,2.632,0,0,1-.632-1.875,2.949,2.949,0,0,1,1.315-2.518,5.985,5.985,0,0,1,3.555-.944,10.327,10.327,0,0,1,2.279.259,6.472,6.472,0,0,1,1.866.694l-.995,1.97a6.12,6.12,0,0,0-3.17-.829,3.522,3.522,0,0,0-1.731.343,1.02,1.02,0,0,0-.59.9.9.9,0,0,0,.632.88,9.916,9.916,0,0,0,1.959.486,14.99,14.99,0,0,1,2.175.478,3.41,3.41,0,0,1,1.461.911,2.541,2.541,0,0,1,.61,1.824,2.887,2.887,0,0,1-1.346,2.487,6.361,6.361,0,0,1-3.668.933,9.982,9.982,0,0,1-2.633-.351Z" transform="translate(-107.017 -88.896)" fill="#fff"/>
        <path id="Trazado_94431" data-name="Trazado 94431" d="M199.617,124.368a5.083,5.083,0,0,1,2,1.99,6.442,6.442,0,0,1,0,5.938,5.057,5.057,0,0,1-2,2,5.876,5.876,0,0,1-2.892.705,4.469,4.469,0,0,1-3.544-1.492v4.519H190.59v-14.24h2.465v1.45a3.975,3.975,0,0,1,1.585-1.18,5.38,5.38,0,0,1,2.083-.393,5.891,5.891,0,0,1,2.892.705Zm-.829,7.462a3.87,3.87,0,0,0,0-5.014,3.134,3.134,0,0,0-2.352-.953,3.353,3.353,0,0,0-1.678.424,3.079,3.079,0,0,0-1.18,1.211,4.036,4.036,0,0,0,0,3.648,3.043,3.043,0,0,0,1.18,1.211,3.324,3.324,0,0,0,1.678.424,3.134,3.134,0,0,0,2.352-.953" transform="translate(-137.027 -88.91)" fill="#fff"/>
        <rect id="Rectángulo_23781" data-name="Rectángulo 23781" width="2.591" height="14.586" transform="translate(67.573 31.36)" fill="#fff"/>
        <path id="Trazado_94432" data-name="Trazado 94432" d="M266.967,124.834a4.53,4.53,0,0,1,1.3,3.533v6.486h-2.445v-1.346a2.994,2.994,0,0,1-1.358,1.107,5.306,5.306,0,0,1-2.125.382,5.189,5.189,0,0,1-2.175-.424,3.391,3.391,0,0,1-1.442-1.18,3,3,0,0,1-.509-1.709,2.925,2.925,0,0,1,1.11-2.394,5.5,5.5,0,0,1,3.493-.9h2.861v-.166a2.264,2.264,0,0,0-.694-1.782,3.012,3.012,0,0,0-2.063-.621,5.949,5.949,0,0,0-1.835.289,4.494,4.494,0,0,0-1.523.809l-1.015-1.886a6.265,6.265,0,0,1,2.094-1.015,9.265,9.265,0,0,1,2.591-.351,5.392,5.392,0,0,1,3.741,1.172Zm-2.363,7.835a2.441,2.441,0,0,0,1.068-1.273v-1.284H263q-2.238,0-2.237,1.473a1.317,1.317,0,0,0,.559,1.119,2.572,2.572,0,0,0,1.554.413,3.309,3.309,0,0,0,1.731-.447Z" transform="translate(-185.643 -88.91)" fill="#fff"/>
        <path id="Trazado_94433" data-name="Trazado 94433" d="M8.757,124.834a4.53,4.53,0,0,1,1.3,3.533v6.486H7.608v-1.346a2.994,2.994,0,0,1-1.357,1.107A5.307,5.307,0,0,1,4.126,135a5.189,5.189,0,0,1-2.175-.424,3.391,3.391,0,0,1-1.442-1.18A3,3,0,0,1,0,131.683a2.926,2.926,0,0,1,1.11-2.394,5.5,5.5,0,0,1,3.493-.9H7.464v-.166a2.263,2.263,0,0,0-.694-1.782,3.011,3.011,0,0,0-2.063-.621,5.949,5.949,0,0,0-1.835.289,4.494,4.494,0,0,0-1.523.809L.334,125.031a6.264,6.264,0,0,1,2.094-1.015,9.265,9.265,0,0,1,2.591-.351,5.392,5.392,0,0,1,3.741,1.172Zm-2.364,7.835A2.441,2.441,0,0,0,7.462,131.4v-1.284H4.789q-2.238,0-2.237,1.473a1.317,1.317,0,0,0,.559,1.119,2.572,2.572,0,0,0,1.554.413,3.309,3.309,0,0,0,1.731-.447Z" transform="translate(0 -88.91)" fill="#fff"/>
        <path id="Trazado_94434" data-name="Trazado 94434" d="M353.122,130.144h-8.684a3,3,0,0,0,1.192,1.936,3.9,3.9,0,0,0,2.394.714,4.032,4.032,0,0,0,3-1.2l1.388,1.6a4.69,4.69,0,0,1-1.886,1.346,7.477,7.477,0,0,1-5.781-.27,5.207,5.207,0,0,1-2.144-2.021,6.092,6.092,0,0,1-.02-5.843,5.224,5.224,0,0,1,2.04-2.021,5.961,5.961,0,0,1,2.942-.725,5.8,5.8,0,0,1,2.892.714,5.087,5.087,0,0,1,1.99,2.009,6.087,6.087,0,0,1,.714,3q0,.27-.042.767Zm-7.658-3.679a3.1,3.1,0,0,0-1.045,1.959H350.7a3.056,3.056,0,0,0-1.015-1.948,3.365,3.365,0,0,0-4.216-.011Z" transform="translate(-245.777 -88.903)" fill="#fff"/>
        <path id="Trazado_94435" data-name="Trazado 94435" d="M396.615,123.655v2.468a3.236,3.236,0,0,0-.6-.062,3.131,3.131,0,0,0-2.364.88,3.506,3.506,0,0,0-.849,2.538v5.368H390.21V123.779h2.465v1.616q1.121-1.741,3.937-1.74Z" transform="translate(-280.546 -88.903)" fill="#fff"/>
        <path id="Trazado_94436" data-name="Trazado 94436" d="M306.915,124.625l-3.659,8.555-3.639-8.555H296.8l4.036,9.28h1.973l-.961,2.33-1.029,2.4,2.518.006,6.177-14.013Z" transform="translate(-213.388 -89.6)" fill="#fff"/>
      </g>
    </g>
    <rect id="Rectángulo_18532" data-name="Rectángulo 18532" width="129.226" height="78.002" rx="5" transform="translate(870 1736)" fill="none"/>
  </g>
</svg>
