<svg id="Grupo_32679" data-name="Grupo 32679" xmlns="http://www.w3.org/2000/svg" width="122.044" height="73.666" viewBox="0 0 122.044 73.666">
  <rect id="Rectángulo_18532" data-name="Rectángulo 18532" width="122.044" height="73.666" rx="5" transform="translate(0)" fill="none"/>
  <g id="EkzKVN" transform="translate(9.412 26.353)">
    <g id="Grupo_16319" data-name="Grupo 16319" transform="translate(0 0)">
      <path id="Trazado_22262" data-name="Trazado 22262" d="M1154.052,1050.434c0-1.244-.017-2.49.008-3.733a5.1,5.1,0,0,1,.183-1.449,1.738,1.738,0,0,1,1.977-1.323,1.706,1.706,0,0,1,1.664,1.691c.065.938.04,1.885.031,2.827-.006.58.169.692.748.507,3-.957,5.527-.239,7.05,1.947a6.772,6.772,0,0,1-.115,8.026,6.444,6.444,0,0,1-7.459,1.935c-2.859-1.17-3.981-3.527-4.076-6.47-.043-1.318-.008-2.639-.008-3.958Zm3.851,4.475a2.593,2.593,0,0,0,2.7,2.8,2.816,2.816,0,0,0-.021-5.618A2.591,2.591,0,0,0,1157.9,1054.909Z" transform="translate(-1125.899 -1043.415)" fill="#fff"/>
      <path id="Trazado_22263" data-name="Trazado 22263" d="M1029.689,1050.665c0-1.618-.017-3.238.008-4.856a1.8,1.8,0,0,1,1.727-1.981,1.839,1.839,0,0,1,2.042,1.676,15.246,15.246,0,0,1,.1,2.475c-.009.767.2.968,1,.733a5.9,5.9,0,0,1,7.728,4.38,6.453,6.453,0,1,1-12.5,3.21,17.751,17.751,0,0,1-.113-3.379C1029.673,1052.171,1029.688,1051.418,1029.689,1050.665Zm6.378,1.367a2.649,2.649,0,0,0-2.64,2.789,2.654,2.654,0,1,0,2.64-2.789Z" transform="translate(-1029.666 -1043.342)" fill="#fff"/>
      <path id="Trazado_22264" data-name="Trazado 22264" d="M1104.879,1072.509a21.11,21.11,0,0,1-.017,2.48,1.872,1.872,0,0,1-2.982,1.472,1.365,1.365,0,0,0-1.353-.089c-3.657,1.368-7.146-.272-8.2-3.826a6.45,6.45,0,0,1,4.41-8.28,6.373,6.373,0,0,1,8.025,5.092A15.8,15.8,0,0,1,1104.879,1072.509Zm-9.016-2.069a2.609,2.609,0,1,0,2.595-2.768A2.508,2.508,0,0,0,1095.863,1070.44Z" transform="translate(-1077.918 -1058.995)" fill="#fff"/>
      <path id="Trazado_22265" data-name="Trazado 22265" d="M1219.023,1070.427c.873-1.92,1.61-3.643,2.432-5.323a1.826,1.826,0,0,1,3.081-.562,1.957,1.957,0,0,1,.177,2.411c-1.055,2.375-2.122,4.743-3.181,7.116q-1.312,2.94-2.618,5.883c-.334.748-.742,1.407-1.692,1.447a1.841,1.841,0,0,1-1.885-2.573,23.075,23.075,0,0,1,1.284-2.888,2.2,2.2,0,0,0-.028-2.33c-1.072-1.9-2.07-3.846-3.1-5.774-.194-.365-.4-.728-.56-1.109a1.843,1.843,0,0,1,.812-2.6,1.794,1.794,0,0,1,2.455.949c.78,1.418,1.5,2.871,2.244,4.308C1218.586,1069.648,1218.735,1069.9,1219.023,1070.427Z" transform="translate(-1171.296 -1058.894)" fill="#fff"/>
      <path id="Trazado_22266" data-name="Trazado 22266" d="M1394.791,1076.819a6.139,6.139,0,0,1-3.791-1.4,1.839,1.839,0,0,1-.449-2.6,1.75,1.75,0,0,1,2.513-.316,3.4,3.4,0,0,0,2.448.637c.228-.036.482-.083.542-.331.083-.344-.2-.463-.459-.529-.656-.171-1.322-.3-1.978-.469a3.914,3.914,0,0,1-3.283-3.9,4.062,4.062,0,0,1,3.387-3.845,6.184,6.184,0,0,1,5.058,1,1.82,1.82,0,0,1,.663,2.471,1.713,1.713,0,0,1-2.443.607,3.81,3.81,0,0,0-2.143-.593c-.258.03-.591.016-.638.34s.274.412.526.476c.73.186,1.474.323,2.2.537a3.7,3.7,0,0,1,2.995,3.624,4.014,4.014,0,0,1-2.965,3.946A6.882,6.882,0,0,1,1394.791,1076.819Z" transform="translate(-1308.61 -1058.861)" fill="#fff"/>
      <path id="Trazado_22267" data-name="Trazado 22267" d="M1274.568,1054.339c0-.752-.032-1.507.008-2.258.051-.969,0-1.728-1.084-2.285a1.566,1.566,0,0,1,.185-2.772,2.2,2.2,0,0,0,1.148-1.532,5.074,5.074,0,0,1,5.242-3.775,1.777,1.777,0,0,1,.377,3.522c-.529.161-1.158.083-1.546.585a.98.98,0,0,0-.241.6c.024.268.317.263.542.285a5.079,5.079,0,0,1,.783.084,1.669,1.669,0,0,1,1.405,1.788,1.517,1.517,0,0,1-1.592,1.578c-1.158-.022-1.375.5-1.342,1.508.062,1.842.032,3.688.011,5.532-.016,1.49-.779,2.39-1.98,2.4-1.149.008-1.9-.944-1.915-2.435C1274.562,1056.222,1274.568,1055.28,1274.568,1054.339Z" transform="translate(-1217.734 -1041.706)" fill="#fff"/>
      <path id="Trazado_22268" data-name="Trazado 22268" d="M1444.524,1063.652a4.528,4.528,0,0,1-4.472-3.867,26.75,26.75,0,0,1-.165-4.4,1.279,1.279,0,0,0-.758-1.335,1.673,1.673,0,0,1,0-3.107,1.325,1.325,0,0,0,.757-1.356,4.637,4.637,0,0,1,.117-1.118,1.878,1.878,0,0,1,2.038-1.56,1.8,1.8,0,0,1,1.7,1.792,4.232,4.232,0,0,1,.014.79c-.075.806.16,1.232,1.083,1.3a1.7,1.7,0,0,1-.109,3.4c-.731.023-1,.317-.977,1.033.035,1.091.016,2.183.009,3.275a1.1,1.1,0,0,0,1.076,1.292c1.381.186,2.067.928,1.993,1.989A2.149,2.149,0,0,1,1444.524,1063.652Z" transform="translate(-1345.662 -1045.724)" fill="#fff"/>
      <path id="Trazado_22269" data-name="Trazado 22269" d="M1344.834,1070.359c0-1.393-.018-2.787.005-4.18.026-1.618,1.122-2.464,2.622-1.923a2.668,2.668,0,0,0,1.941-.044,4.62,4.62,0,0,1,3.731.19,1.635,1.635,0,0,1,.983,1.945,1.518,1.518,0,0,1-1.751,1.243c-.6-.023-1.206-.052-1.807-.029-1.409.055-1.973.6-2.007,2.031-.04,1.655,0,3.313-.02,4.969-.016,1.452-.67,2.215-1.847,2.2s-1.831-.8-1.846-2.221C1344.822,1073.146,1344.834,1071.753,1344.834,1070.359Z" transform="translate(-1273.512 -1058.885)" fill="#fff"/>
      <path id="Trazado_22270" data-name="Trazado 22270" d="M1321.45,1070.5c0,1.466.024,2.933-.006,4.4a1.852,1.852,0,1,1-3.695,0q-.039-4.454,0-8.909a1.776,1.776,0,0,1,1.774-1.917,1.8,1.8,0,0,1,1.915,1.913C1321.479,1067.491,1321.448,1069,1321.45,1070.5Z" transform="translate(-1252.548 -1059.014)" fill="#fff"/>
      <path id="Trazado_22271" data-name="Trazado 22271" d="M1321.518,1043.65a1.836,1.836,0,0,1-3.669.123,1.774,1.774,0,0,1,1.76-1.918A1.825,1.825,0,0,1,1321.518,1043.65Z" transform="translate(-1252.638 -1041.821)" fill="#fff"/>
    </g>
  </g>
</svg>
