<svg id="Grupo_32676" data-name="Grupo 32676" xmlns="http://www.w3.org/2000/svg" width="123.973" height="74.831" viewBox="0 0 123.973 74.831">
  <rect id="Rectángulo_18532" data-name="Rectángulo 18532" width="123.972" height="74.831" rx="5" transform="translate(0)" fill="none"/>
  <g id="Grupo_22160" data-name="Grupo 22160" transform="translate(15.059 25.902)">
    <path id="Trazado_42620" data-name="Trazado 42620" d="M0,14.523A8.237,8.237,0,0,1,8.46,6.132c4.611,0,7.285,2.9,7.907,5.417l-3.735.922A4.215,4.215,0,0,0,8.483,9.728,4.51,4.51,0,0,0,3.919,14.5a4.588,4.588,0,0,0,4.564,4.818,4.155,4.155,0,0,0,4.149-2.7l3.735.945c-.623,2.513-3.3,5.348-7.838,5.348A8.254,8.254,0,0,1,0,14.523" transform="translate(0 -4.963)" fill="#fff"/>
    <rect id="Rectángulo_18371" data-name="Rectángulo 18371" width="3.688" height="11.757" transform="translate(21.831 5.871)" fill="#fff"/>
    <path id="Trazado_42621" data-name="Trazado 42621" d="M180.893,7.827V23.964h-3.112L170.52,14.72v9.244h-3.827V7.827h3.112l7.261,9.244V7.827Z" transform="translate(-134.926 -6.336)" fill="#fff"/>
    <path id="Trazado_42622" data-name="Trazado 42622" d="M288.946,15.9c0,4.679-3.02,8.068-7.63,8.068H273.87V7.827h7.446c4.541,0,7.63,3.273,7.63,8.068m-3.872-.07c0-2.835-1.683-4.564-3.85-4.564h-3.573v9.267h3.573c2.167,0,3.85-1.867,3.85-4.7" transform="translate(-221.678 -6.335)" fill="#fff"/>
    <path id="Trazado_42623" data-name="Trazado 42623" d="M434.487,11.285V14.1h7.238V17.44h-7.238v3.066h8.391v3.458H430.753V7.827H442.9v3.458Z" transform="translate(-348.664 -6.335)" fill="#fff"/>
    <path id="Trazado_42624" data-name="Trazado 42624" d="M115.825,2.466A2.466,2.466,0,1,1,113.359,0a2.467,2.467,0,0,1,2.466,2.466" transform="translate(-89.759 0)" fill="#fff"/>
    <rect id="Rectángulo_18372" data-name="Rectángulo 18372" width="3.688" height="11.757" transform="translate(72.706 1.066)" fill="#fff"/>
    <path id="Trazado_42625" data-name="Trazado 42625" d="M380.489,72.1a2.466,2.466,0,1,0,2.466,2.467,2.467,2.467,0,0,0-2.466-2.467" transform="translate(-305.983 -58.356)" fill="#fff"/>
    <path id="Trazado_42626" data-name="Trazado 42626" d="M10.153,115.588v2.148h-.56v-.272a.838.838,0,0,1-.687.331c-.564,0-.849-.378-.849-.955v-1.252h.56v1.146c0,.327.149.539.458.539s.518-.246.518-.628v-1.057Z" transform="translate(-6.522 -93.56)" fill="#fff"/>
    <path id="Trazado_42627" data-name="Trazado 42627" d="M24.05,116.227v1.256h-.56v-1.15c0-.327-.148-.535-.458-.535s-.518.246-.518.624v1.061h-.56v-2.148h.56v.272a.853.853,0,0,1,.692-.331c.56,0,.845.378.845.951" transform="translate(-17.77 -93.308)" fill="#fff"/>
    <path id="Trazado_42628" data-name="Trazado 42628" d="M44.634,116.205v1.277h-.56v-1.159c0-.323-.119-.526-.412-.526s-.454.225-.454.59v1.095h-.564v-1.159c0-.318-.115-.526-.4-.526s-.463.229-.463.607v1.078h-.56v-2.147h.56v.255a.779.779,0,0,1,.637-.314.718.718,0,0,1,.645.322.893.893,0,0,1,.726-.322.82.82,0,0,1,.849.929" transform="translate(-33.363 -93.308)" fill="#fff"/>
    <path id="Trazado_42629" data-name="Trazado 42629" d="M63.8,115.588v2.148h-.56v-.272a.838.838,0,0,1-.687.331c-.564,0-.849-.378-.849-.955v-1.252h.56v1.146c0,.327.149.539.458.539s.518-.246.518-.628v-1.057Z" transform="translate(-49.947 -93.56)" fill="#fff"/>
    <path id="Trazado_42630" data-name="Trazado 42630" d="M77.7,116.227v1.256h-.56v-1.15c0-.327-.148-.535-.458-.535s-.518.246-.518.624v1.061H75.6v-2.148h.56v.272a.853.853,0,0,1,.692-.331c.56,0,.845.378.845.951" transform="translate(-61.196 -93.308)" fill="#fff"/>
    <path id="Trazado_42631" data-name="Trazado 42631" d="M91.015,110.6v3.1h-.565v-.263a.854.854,0,0,1-.692.322,1.136,1.136,0,0,1,0-2.266.85.85,0,0,1,.692.318V110.6Zm-.548,2.02a.6.6,0,0,0-.611-.628.633.633,0,0,0,0,1.265.609.609,0,0,0,.611-.637" transform="translate(-71.795 -89.522)" fill="#fff"/>
    <path id="Trazado_42632" data-name="Trazado 42632" d="M103.063,116.409a1.148,1.148,0,1,1,1.15,1.133,1.113,1.113,0,0,1-1.15-1.133m1.753,0a.6.6,0,1,0-.6.624.592.592,0,0,0,.6-.624" transform="translate(-83.422 -93.308)" fill="#fff"/>
    <path id="Trazado_42633" data-name="Trazado 42633" d="M124.443,110.6v3.1h-.564v-.263a.854.854,0,0,1-.692.322,1.136,1.136,0,0,1,0-2.266.851.851,0,0,1,.692.318V110.6Zm-.548,2.02a.6.6,0,0,0-.611-.628.633.633,0,0,0,0,1.265.609.609,0,0,0,.611-.637" transform="translate(-98.852 -89.522)" fill="#fff"/>
    <path id="Trazado_42634" data-name="Trazado 42634" d="M136.491,116.409a1.087,1.087,0,0,1,1.125-1.133,1.131,1.131,0,0,1,1.1,1.3h-1.668a.559.559,0,0,0,.624.488.548.548,0,0,0,.522-.284l.5.149a1.173,1.173,0,0,1-2.2-.522m1.685-.183a.527.527,0,0,0-.565-.475.552.552,0,0,0-.569.475Z" transform="translate(-110.48 -93.308)" fill="#fff"/>
    <path id="Trazado_42635" data-name="Trazado 42635" d="M155.22,116.409a1.087,1.087,0,0,1,1.125-1.133,1.131,1.131,0,0,1,1.1,1.3h-1.668a.559.559,0,0,0,.624.488.548.548,0,0,0,.522-.284l.505.149a1.173,1.173,0,0,1-2.2-.522m1.685-.183a.527.527,0,0,0-.565-.475.552.552,0,0,0-.569.475Z" transform="translate(-125.64 -93.308)" fill="#fff"/>
    <path id="Trazado_42636" data-name="Trazado 42636" d="M171.257,116.227v1.256h-.56v-1.15c0-.327-.149-.535-.458-.535s-.518.246-.518.624v1.061h-.56v-2.148h.56v.272a.853.853,0,0,1,.692-.331c.56,0,.845.378.845.951" transform="translate(-136.924 -93.308)" fill="#fff"/>
    <path id="Trazado_42637" data-name="Trazado 42637" d="M183.389,114.711a1.29,1.29,0,0,1-.5.1.672.672,0,0,1-.717-.768v-.921h-.361v-.492h.361v-.7h.564v.7h.628v.492h-.628v.921a.238.238,0,0,0,.263.272.523.523,0,0,0,.255-.059Z" transform="translate(-147.162 -90.604)" fill="#fff"/>
    <path id="Trazado_42638" data-name="Trazado 42638" d="M193.39,115.395v.526c-.458-.072-.709.14-.709.717v.934h-.56v-2.148h.56v.318a.646.646,0,0,1,.709-.348" transform="translate(-155.508 -93.397)" fill="#fff"/>
    <path id="Trazado_42639" data-name="Trazado 42639" d="M199.382,116.409a1.088,1.088,0,0,1,1.125-1.133,1.131,1.131,0,0,1,1.1,1.3h-1.668a.559.559,0,0,0,.624.488.548.548,0,0,0,.522-.284l.5.149a1.173,1.173,0,0,1-2.2-.522m1.685-.183a.526.526,0,0,0-.564-.475.552.552,0,0,0-.569.475Z" transform="translate(-161.385 -93.308)" fill="#fff"/>
    <path id="Trazado_42640" data-name="Trazado 42640" d="M213.433,114.711a1.289,1.289,0,0,1-.5.1.672.672,0,0,1-.717-.768v-.921h-.361v-.492h.361v-.7h.564v.7h.628v.492h-.628v.921a.238.238,0,0,0,.263.272.522.522,0,0,0,.255-.059Z" transform="translate(-171.481 -90.604)" fill="#fff"/>
    <path id="Trazado_42641" data-name="Trazado 42641" d="M220.94,116.409a1.087,1.087,0,0,1,1.125-1.133,1.131,1.131,0,0,1,1.1,1.3h-1.668a.559.559,0,0,0,.624.488.548.548,0,0,0,.522-.284l.505.149a1.173,1.173,0,0,1-2.2-.522m1.685-.183a.526.526,0,0,0-.564-.475.552.552,0,0,0-.569.475Z" transform="translate(-178.835 -93.308)" fill="#fff"/>
    <path id="Trazado_42642" data-name="Trazado 42642" d="M236.978,116.227v1.256h-.56v-1.15c0-.327-.148-.535-.458-.535s-.518.246-.518.624v1.061h-.56v-2.148h.56v.272a.853.853,0,0,1,.692-.331c.56,0,.845.378.845.951" transform="translate(-190.12 -93.308)" fill="#fff"/>
    <path id="Trazado_42643" data-name="Trazado 42643" d="M248.4,110.9a.335.335,0,1,1,.335.331.328.328,0,0,1-.335-.331m.047.632h.564v2.148h-.564Z" transform="translate(-201.061 -89.504)" fill="#fff"/>
    <path id="Trazado_42644" data-name="Trazado 42644" d="M257.962,116.205v1.277h-.56v-1.159c0-.323-.119-.526-.412-.526s-.454.225-.454.59v1.095h-.564v-1.159c0-.318-.115-.526-.4-.526s-.463.229-.463.607v1.078h-.56v-2.147h.56v.255a.779.779,0,0,1,.637-.314.718.718,0,0,1,.645.322.893.893,0,0,1,.726-.322.82.82,0,0,1,.849.929" transform="translate(-206.037 -93.308)" fill="#fff"/>
    <path id="Trazado_42645" data-name="Trazado 42645" d="M274.99,110.9a.335.335,0,1,1,.335.331.328.328,0,0,1-.335-.331m.047.632h.565v2.148h-.565Z" transform="translate(-222.585 -89.504)" fill="#fff"/>
    <path id="Trazado_42646" data-name="Trazado 42646" d="M280.446,116.409a1.088,1.088,0,0,1,1.125-1.133,1.048,1.048,0,0,1,1.108,1.1,1.032,1.032,0,0,1-.013.2H281a.559.559,0,0,0,.624.488.548.548,0,0,0,.522-.284l.5.149a1.173,1.173,0,0,1-2.2-.522m1.685-.183a.526.526,0,0,0-.564-.475.552.552,0,0,0-.569.475Z" transform="translate(-227.001 -93.308)" fill="#fff"/>
    <path id="Trazado_42647" data-name="Trazado 42647" d="M296.484,116.227v1.256h-.56v-1.15c0-.327-.149-.535-.458-.535s-.518.246-.518.624v1.061h-.56v-2.148h.56v.272a.853.853,0,0,1,.692-.331c.56,0,.845.378.845.951" transform="translate(-238.286 -93.308)" fill="#fff"/>
    <path id="Trazado_42648" data-name="Trazado 42648" d="M308.617,114.711a1.29,1.29,0,0,1-.5.1.672.672,0,0,1-.717-.768v-.921h-.361v-.492h.361v-.7h.564v.7h.628v.492h-.628v.921a.238.238,0,0,0,.263.272.522.522,0,0,0,.255-.059Z" transform="translate(-248.526 -90.604)" fill="#fff"/>
    <path id="Trazado_42649" data-name="Trazado 42649" d="M316.123,116.409a1.148,1.148,0,1,1,1.15,1.133,1.114,1.114,0,0,1-1.15-1.133m1.753,0a.6.6,0,1,0-.6.624.592.592,0,0,0,.6-.624" transform="translate(-255.879 -93.308)" fill="#fff"/>
    <path id="Trazado_42650" data-name="Trazado 42650" d="M335.61,110.9a.335.335,0,1,1,.335.331.328.328,0,0,1-.335-.331m.047.632h.564v2.148h-.564Z" transform="translate(-271.653 -89.504)" fill="#fff"/>
    <path id="Trazado_42651" data-name="Trazado 42651" d="M343.853,116.227v1.256h-.56v-1.15c0-.327-.148-.535-.458-.535s-.518.246-.518.624v1.061h-.56v-2.148h.56v.272a.853.853,0,0,1,.692-.331c.56,0,.845.378.845.951" transform="translate(-276.628 -93.308)" fill="#fff"/>
    <path id="Trazado_42652" data-name="Trazado 42652" d="M357.169,110.6v3.1H356.6v-.263a.854.854,0,0,1-.692.322,1.136,1.136,0,0,1,0-2.266.85.85,0,0,1,.692.318V110.6Zm-.548,2.02a.6.6,0,0,0-.611-.628.633.633,0,0,0,0,1.265.609.609,0,0,0,.611-.637" transform="translate(-287.228 -89.522)" fill="#fff"/>
    <path id="Trazado_42653" data-name="Trazado 42653" d="M369.216,116.409a1.087,1.087,0,0,1,1.124-1.133,1.131,1.131,0,0,1,1.095,1.3h-1.668a.559.559,0,0,0,.624.488.547.547,0,0,0,.522-.284l.505.149a1.173,1.173,0,0,1-2.2-.522m1.685-.183a.527.527,0,0,0-.565-.475.552.552,0,0,0-.569.475Z" transform="translate(-298.854 -93.308)" fill="#fff"/>
    <path id="Trazado_42654" data-name="Trazado 42654" d="M385.47,116.409a1.076,1.076,0,0,1-1.057,1.133.862.862,0,0,1-.7-.322v1.154h-.56v-3.039h.56v.259a.859.859,0,0,1,.7-.318,1.073,1.073,0,0,1,1.057,1.133m-.552,0a.591.591,0,0,0-.6-.628.633.633,0,0,0,0,1.265.6.6,0,0,0,.6-.636" transform="translate(-310.138 -93.308)" fill="#fff"/>
    <path id="Trazado_42655" data-name="Trazado 42655" d="M396.831,116.409a1.087,1.087,0,0,1,1.124-1.133,1.048,1.048,0,0,1,1.108,1.1,1.062,1.062,0,0,1-.013.2h-1.668a.559.559,0,0,0,.624.488.548.548,0,0,0,.522-.284l.505.149a1.173,1.173,0,0,1-2.2-.522m1.685-.183a.526.526,0,0,0-.564-.475.552.552,0,0,0-.569.475Z" transform="translate(-321.207 -93.308)" fill="#fff"/>
    <path id="Trazado_42656" data-name="Trazado 42656" d="M412.87,116.227v1.256h-.56v-1.15c0-.327-.148-.535-.458-.535s-.518.246-.518.624v1.061h-.56v-2.148h.56v.272a.853.853,0,0,1,.692-.331c.561,0,.845.378.845.951" transform="translate(-332.492 -93.308)" fill="#fff"/>
    <path id="Trazado_42657" data-name="Trazado 42657" d="M426.184,110.6v3.1h-.565v-.263a.853.853,0,0,1-.692.322,1.136,1.136,0,0,1,0-2.266.85.85,0,0,1,.692.318V110.6Zm-.547,2.02a.6.6,0,0,0-.611-.628.633.633,0,0,0,0,1.265.61.61,0,0,0,.611-.637" transform="translate(-343.091 -89.522)" fill="#fff"/>
    <path id="Trazado_42658" data-name="Trazado 42658" d="M438.655,110.9a.335.335,0,1,1,.335.331.328.328,0,0,1-.335-.331m.047.632h.564v2.148H438.7Z" transform="translate(-355.06 -89.504)" fill="#fff"/>
    <path id="Trazado_42659" data-name="Trazado 42659" d="M444.112,116.409a1.087,1.087,0,0,1,1.125-1.133,1.132,1.132,0,0,1,1.1,1.3h-1.668a.559.559,0,0,0,.624.488.548.548,0,0,0,.522-.284l.5.149a1.173,1.173,0,0,1-2.2-.522m1.685-.183a.527.527,0,0,0-.565-.475.552.552,0,0,0-.569.475Z" transform="translate(-359.477 -93.308)" fill="#fff"/>
    <path id="Trazado_42660" data-name="Trazado 42660" d="M460.149,116.227v1.256h-.56v-1.15c0-.327-.148-.535-.458-.535s-.518.246-.518.624v1.061h-.56v-2.148h.56v.272a.853.853,0,0,1,.692-.331c.56,0,.845.378.845.951" transform="translate(-370.762 -93.308)" fill="#fff"/>
    <path id="Trazado_42661" data-name="Trazado 42661" d="M472.282,114.711a1.289,1.289,0,0,1-.5.1.671.671,0,0,1-.717-.768v-.921H470.7v-.492h.361v-.7h.564v.7h.628v.492h-.628v.921a.238.238,0,0,0,.263.272.524.524,0,0,0,.255-.059Z" transform="translate(-381.001 -90.604)" fill="#fff"/>
    <path id="Trazado_42662" data-name="Trazado 42662" d="M479.789,116.409a1.087,1.087,0,0,1,1.125-1.133,1.131,1.131,0,0,1,1.095,1.3h-1.668a.559.559,0,0,0,.624.488.548.548,0,0,0,.522-.284l.5.149a1.173,1.173,0,0,1-2.2-.522m1.685-.183a.526.526,0,0,0-.564-.475.552.552,0,0,0-.569.475Z" transform="translate(-388.355 -93.308)" fill="#fff"/>
  </g>
</svg>
