<svg id="Grupo_32684" data-name="Grupo 32684" xmlns="http://www.w3.org/2000/svg" width="122.044" height="73.666" viewBox="0 0 122.044 73.666">
  <rect id="Rectángulo_18532" data-name="Rectángulo 18532" width="122.044" height="73.666" rx="5" transform="translate(0)" fill="none"/>
  <g id="edye_calado" data-name="edye calado" transform="translate(16.943 11.294)">
    <g id="Grupo_19717" data-name="Grupo 19717" transform="translate(0 0)">
      <path id="Trazado_42096" data-name="Trazado 42096" d="M53.7,55.2a2.1,2.1,0,0,0-2.193,2.258A2.4,2.4,0,0,0,53.9,59.988,2.362,2.362,0,0,0,56.4,57.576,2.485,2.485,0,0,0,53.7,55.2Z" transform="translate(-23.551 -25.24)" fill="#fff"/>
      <path id="Trazado_42097" data-name="Trazado 42097" d="M25.985,50.42c-.433-1.851-1.449-2.637-2.881-2.314-1.646.384-2.3,1.526-1.939,3.54Z" transform="translate(-9.634 -21.964)" fill="#fff"/>
      <path id="Trazado_42098" data-name="Trazado 42098" d="M141.7,50.995c-1.671-.295-2.706.526-3.154,2.523l4.923.721C143.779,52.364,143.143,51.247,141.7,50.995Z" transform="translate(-63.348 -23.29)" fill="#fff"/>
      <g id="Grupo_19716" data-name="Grupo 19716" transform="translate(0 9.789)">
        <path id="Trazado_42099" data-name="Trazado 42099" d="M137.7,64.942a10.254,10.254,0,0,0,4.769.625,10.652,10.652,0,0,0,1.135-.164.464.464,0,0,1,.542.265.465.465,0,0,0-.546-.276,10.809,10.809,0,0,1-1.135.162,10.26,10.26,0,0,1-4.769-.624,2.675,2.675,0,0,1-1.868-2.179A2.649,2.649,0,0,0,137.7,64.942Z" transform="translate(-62.107 -38.482)" fill="none"/>
        <path id="Trazado_42100" data-name="Trazado 42100" d="M141.7,50.995c-1.671-.295-2.708.515-3.154,2.523l4.923.721C143.779,52.364,143.143,51.246,141.7,50.995Z" transform="translate(-63.348 -33.079)" fill="none"/>
        <path id="Trazado_42101" data-name="Trazado 42101" d="M121.974,51.737a10.444,10.444,0,0,1,2.676-5.394c.116-.118.237-.23.359-.341a8.1,8.1,0,0,1,3.965-1.982c4.745-.89,8.39,1.275,9.708,4.748-1.315-3.473-4.962-5.641-9.712-4.759a8.1,8.1,0,0,0-3.965,1.981c-.123.118-.243.224-.359.342a10.435,10.435,0,0,0-2.676,5.395,10.1,10.1,0,0,0,.223,4.666A10.1,10.1,0,0,1,121.974,51.737Z" transform="translate(-55.691 -29.822)" fill="none"/>
        <path id="Trazado_42102" data-name="Trazado 42102" d="M56.251,24.672c-1.681.066-1.713.1-1.756,1.816-.059,2.6-.069,5.2-.1,7.92a3.13,3.13,0,0,1-.4-.143,7.865,7.865,0,0,0-10.249,2.341,8.925,8.925,0,0,0-1.671,5.55,13.983,13.983,0,0,0,.25,2.377c.018.095.04.188.06.282.883,4.056,4.091,6.708,7.988,6.469a26.963,26.963,0,0,0,4.41-1c-.27,1.221.682,1.379,1.7,1.395,1.585.013,3.171-.047,4.755,0,.85.026,1.039-.321,1.062-1.115q.024-.739.045-1.479.182-6.247.379-12.494.118-3.779.239-7.554c.009-.255.029-.506.029-.758,0-.1.012-.494.027-.993.009-.307.029-.613.029-.922.011-.368.021-.742.021-1.128V24.59c-1.824,0-3.651,0-5.478.04Q56.921,24.646,56.251,24.672Z" transform="translate(-19.234 -21.033)" fill="none"/>
        <path id="Trazado_42103" data-name="Trazado 42103" d="M22.877,52.578a10.613,10.613,0,0,1-5.63,1.845c-2.469-.007-2.777-1.8-2.82-2.051s.062-.3.224-.276a3.822,3.822,0,0,1,.646.205c2.534,1,7.225-.671,8.052-2.217a.909.909,0,0,0,.12-.567c-.991-6.37-7.2-9.375-13.073-5.523a8.129,8.129,0,0,0-3.1,3.82c-1.863,4.727.281,11.317,5.436,12.792a10.856,10.856,0,0,0,7.9-.815,9.233,9.233,0,0,0,3.4-2.554,3.973,3.973,0,0,0,.275-2.4C24.14,53.446,23.559,52.107,22.877,52.578Z" transform="translate(-3.036 -29.124)" fill="none"/>
        <path id="Trazado_42104" data-name="Trazado 42104" d="M96.829,40.423c-.158-.027-.492.331-.578.57-.4,1.116-.776,2.254-1.16,3.4-.174.515-.345,1.039-.519,1.561l-.339,1.026-.582,1.785c-.132-.562-.2-.839-.265-1.115l-.012-.047q-.446-1.877-.892-3.75-.323-1.34-.645-2.678c-.105-.445-.268-.765-.829-.669-1.847.313-3.7.617-5.6.926-.54.087-1.25.22-1.8.31a3.119,3.119,0,0,0,.272.893c.092.264.181.53.272.8q.547,1.591,1.089,3.183.944,2.754,1.9,5.5.7,2,1.43,3.991a2.7,2.7,0,0,1-.018,2.318c-.884,1.854-1.7,3.737-2.579,5.671a23.257,23.257,0,0,0,6.246,2.642c1.322.341,1.336.343,1.864-.862q3.371-7.655,6.7-15.326l1.115-2.56c.268-.623.524-1.252.781-1.89.341-.834.667-1.685,1.01-2.576l.185-.475.471-1.2C101.737,41.343,99.284,40.855,96.829,40.423Z" transform="translate(-38.231 -28.272)" fill="none"/>
        <path id="Trazado_42105" data-name="Trazado 42105" d="M86.788,37.036a11.294,11.294,0,0,0-2.8-5.132,12.269,12.269,0,0,0-11.472-3.216,11.6,11.6,0,0,0-1.488.392c-.192.065-.457-.081-.636-.141-.281-.093-.573-.154-.86-.223-2.652-.642-5.324-1.178-8-1.706-.686-.136-1.373-.307-2.068-.382a1.234,1.234,0,0,1-.224-.013,3.941,3.941,0,0,0-3.424,1.114,4.239,4.239,0,0,0-3.632-1.021c-1.61.272-3.2.533-4.869.807l.127-4.031c0-.384.014-.745.018-1.128v-.532L47.5,18.6s-8.778-.625-10.621-.561a5.249,5.249,0,0,0-3.957,1.388A5.341,5.341,0,0,0,31.639,23.4c-.024,1.081-.04,2.147-.053,3.227a11.237,11.237,0,0,0-3.4.354c-2.922.759-4.908,2.512-6.806,4.739a15.5,15.5,0,0,0-4.167-3.19c-5.13-2.276-11.548-.224-14.852,4.212A12.43,12.43,0,0,0,.016,39.567,14.273,14.273,0,0,0,4.893,51.184C9.985,55.267,18.4,54,23,49.732c.04-.037.48-.468.478-.47a11,11,0,0,0,6.62,2.645,11.48,11.48,0,0,0,2.312-.114,6.029,6.029,0,0,0,.912-.185c.138-.042.468-.223.611-.131a6.176,6.176,0,0,0,3.319.829c1.524.021,3.044,0,4.568,0,.669,0,2.7-.052,3.047-.834-.133.3-.268.6-.4.892L43.133,55.3c-.1.223,5.131,2.882,5.654,3.123,1.868.87,4.127,1.9,6.224,1.9a4.073,4.073,0,0,0,1.731-.376,4.914,4.914,0,0,0,2.365-2.676c1.338-2.965,2.587-5.968,3.919-8.937.079-.187.615-1.082.544-1.245a11.125,11.125,0,0,0,3.307,4.26A14.34,14.34,0,0,0,75.771,54.4c.422,0,.85-.019,1.276-.055a12.381,12.381,0,0,0,5.827-1.68A7.2,7.2,0,0,0,85.5,48.534a8.716,8.716,0,0,0,.3-3.4,5.231,5.231,0,0,0,.968-1.994A12.928,12.928,0,0,0,86.788,37.036ZM21.009,46.152a9.233,9.233,0,0,1-3.4,2.554,10.856,10.856,0,0,1-7.9.815c-5.155-1.475-7.3-8.064-5.436-12.792a8.129,8.129,0,0,1,3.1-3.82c5.875-3.853,12.083-.847,13.073,5.523a.909.909,0,0,1-.12.567c-.827,1.546-5.519,3.217-8.052,2.217a3.824,3.824,0,0,0-.646-.205c-.162-.027-.266.023-.224.276s.351,2.044,2.82,2.051a10.613,10.613,0,0,0,5.63-1.845c.681-.471,1.263.868,1.442,2.26A3.973,3.973,0,0,1,21.009,46.152ZM43.833,22.243c0,.386-.01.76-.021,1.128,0,.309-.021.614-.029.922-.014.5-.022.892-.027.993,0,.252-.021.5-.029.758q-.121,3.775-.239,7.554-.2,6.247-.379,12.494-.02.74-.045,1.479c-.022.794-.212,1.141-1.062,1.115-1.584-.047-3.17.013-4.755,0-1.02-.016-1.972-.174-1.7-1.395a26.961,26.961,0,0,1-4.41,1c-3.9.239-7.1-2.413-7.988-6.469-.021-.093-.042-.187-.06-.282a13.982,13.982,0,0,1-.25-2.377,8.925,8.925,0,0,1,1.671-5.55,7.865,7.865,0,0,1,10.249-2.341,3.128,3.128,0,0,0,.4.143c.031-2.715.041-5.319.1-7.92.043-1.719.074-1.75,1.756-1.816q.669-.026,1.338-.042c1.826-.044,3.653-.04,5.478-.04Zm21.82,10.572-.185.475c-.343.892-.669,1.743-1.01,2.576-.257.638-.513,1.267-.781,1.89l-1.115,2.56q-3.333,7.67-6.7,15.326c-.529,1.2-.542,1.2-1.864.862a23.258,23.258,0,0,1-6.246-2.642c.874-1.934,1.7-3.818,2.579-5.671a2.7,2.7,0,0,0,.018-2.318q-.729-1.99-1.43-3.991-.957-2.746-1.9-5.5-.542-1.593-1.089-3.183c-.092-.268-.181-.534-.272-.8a3.121,3.121,0,0,1-.272-.893c.549-.09,1.259-.223,1.8-.31,1.9-.31,3.749-.613,5.6-.926.562-.1.724.224.829.669q.322,1.339.645,2.678.447,1.873.892,3.75l.012.047c.066.276.133.554.265,1.115L56,36.746l.339-1.026c.174-.522.345-1.046.519-1.561.384-1.147.763-2.285,1.16-3.4.085-.239.42-.6.577-.57,2.454.432,4.908.921,7.526,1.432ZM83.23,42.37c-.175.719-1.443,1.1-2.993,1.131-1.97.033-4.393-.513-5.624-1.706a3.858,3.858,0,0,0-.517-.447c-.137-.087-.245-.1-.314.17a2.376,2.376,0,0,0-.059.789,2.675,2.675,0,0,0,1.868,2.179,10.26,10.26,0,0,0,4.769.624,10.813,10.813,0,0,0,1.135-.162.465.465,0,0,1,.546.276c.487.916-.248,3.818-1.251,4.478a9.27,9.27,0,0,1-4.127,1.043,10.829,10.829,0,0,1-7.606-2.288A7.654,7.654,0,0,1,66.5,44.606a10.1,10.1,0,0,1-.223-4.666,10.435,10.435,0,0,1,2.676-5.394c.116-.118.237-.224.359-.342a8.1,8.1,0,0,1,3.965-1.981c4.75-.883,8.4,1.286,9.712,4.759A9.042,9.042,0,0,1,83.23,42.37Z" transform="translate(0 -18.036)" fill="#fff"/>
        <path id="Trazado_42106" data-name="Trazado 42106" d="M145.322,58.32c-.176.718-1.443,1.115-2.993,1.131-1.97.033-4.393-.513-5.624-1.706a3.781,3.781,0,0,0-.517-.447c-.137-.087-.253-.08-.315.169a2.356,2.356,0,0,0-.054.8,2.377,2.377,0,0,1,.059-.789c.069-.272.178-.257.314-.17a3.853,3.853,0,0,1,.517.447c1.231,1.193,3.654,1.74,5.624,1.706,1.55-.027,2.817-.412,2.993-1.131a9.041,9.041,0,0,0-.238-5.387A9.013,9.013,0,0,1,145.322,58.32Z" transform="translate(-62.096 -33.998)" fill="#153188"/>
        <path id="Trazado_42107" data-name="Trazado 42107" d="M136.809,72.073a9.248,9.248,0,0,1-4.127,1.043,10.83,10.83,0,0,1-7.606-2.288,7.651,7.651,0,0,1-2.551-3.838,7.654,7.654,0,0,0,2.556,3.849,10.83,10.83,0,0,0,7.606,2.288,9.27,9.27,0,0,0,4.127-1.043c1-.661,1.737-3.563,1.25-4.478C138.54,68.533,137.808,71.415,136.809,72.073Z" transform="translate(-56.023 -40.42)" fill="#153188"/>
      </g>
      <path id="Trazado_42108" data-name="Trazado 42108" d="M38.1,33.168a1.44,1.44,0,1,0-1.44-1.44A1.44,1.44,0,0,0,38.1,33.168Z" transform="translate(-16.761 -13.848)" fill="#fff"/>
      <path id="Trazado_42109" data-name="Trazado 42109" d="M41.81,26.079a2.5,2.5,0,1,0-2.5-2.5A2.5,2.5,0,0,0,41.81,26.079Z" transform="translate(-17.975 -9.64)" fill="#fff"/>
      <path id="Trazado_42110" data-name="Trazado 42110" d="M34.3,15.049a3.579,3.579,0,1,0-3.58-3.58A3.579,3.579,0,0,0,34.3,15.049Z" transform="translate(-14.049 -3.608)" fill="#fff"/>
      <path id="Trazado_42111" data-name="Trazado 42111" d="M42.053,4.284a2.142,2.142,0,1,0-2.142-2.142A2.142,2.142,0,0,0,42.053,4.284Z" transform="translate(-18.249 0)" fill="#fff"/>
    </g>
  </g>
</svg>
