<svg id="Grupo_32678" data-name="Grupo 32678" xmlns="http://www.w3.org/2000/svg" width="123.973" height="74.128" viewBox="0 0 123.973 74.128">
  <rect id="Rectángulo_18534" data-name="Rectángulo 18534" width="123.972" height="74.129" rx="5" transform="translate(0)" fill="none"/>
  <g id="Grupo_32677" data-name="Grupo 32677" transform="translate(15.058 28.236)">
    <path id="Trazado_78" data-name="Trazado 78" d="M553.416,963.095h-2.981v-2.658a.515.515,0,0,0-.515-.515h-2.832a.515.515,0,0,0-.515.515v2.658h-1.6a1.926,1.926,0,0,0-1.926,1.926v1.5a.542.542,0,0,0,.542.542h2.986v2.74a.515.515,0,0,0,.515.515h2.832a.515.515,0,0,0,.515-.515v-2.74h1.648a1.8,1.8,0,0,0,1.8-1.8v-1.7A.471.471,0,0,0,553.416,963.095Z" transform="translate(-458.093 -959.922)" fill="#fff"/>
    <path id="Trazado_79" data-name="Trazado 79" d="M244.364,969.692a7.044,7.044,0,1,0,6.658,9.787.176.176,0,0,0-.162-.245h-3.7a.377.377,0,0,0-.269.115,3.889,3.889,0,0,1-2.437.768,2.707,2.707,0,0,1-2.722-2.134h9.434a.354.354,0,0,0,.352-.3,7.038,7.038,0,0,0-7.15-7.986ZM241.69,975.3a2.994,2.994,0,0,1,2.686-1.831c.076.007.388-.016.46-.009,2.262.216,2.446,1.84,2.446,1.84Z" transform="translate(-237.49 -966.974)" fill="#fff"/>
    <path id="Trazado_80" data-name="Trazado 80" d="M386.241,970.268a6.957,6.957,0,1,0,6.957,6.957A6.956,6.956,0,0,0,386.241,970.268Zm0,10.192a3.241,3.241,0,1,1,3.044-3.236A3.144,3.144,0,0,1,386.241,980.46Z" transform="translate(-339.862 -967.392)" fill="#fff"/>
    <path id="Trazado_81" data-name="Trazado 81" d="M504.488,976.354a6.957,6.957,0,1,0-9.319,7.793q.307.117.627.206c1.317.266,4.092.276,5.072-2.358a1.991,1.991,0,0,0,.583,1.482,2.024,2.024,0,0,0,1.169.518h1.9v-7.2a1.5,1.5,0,0,0-.007-.207C504.51,976.547,504.5,976.394,504.488,976.354Zm-6.853,4.412a3.241,3.241,0,1,1,3.044-3.235A3.144,3.144,0,0,1,497.635,980.766Z" transform="translate(-420.299 -967.698)" fill="#fff"/>
    <path id="Trazado_82" data-name="Trazado 82" d="M355,971.7a.228.228,0,0,0-.029-.363,6.55,6.55,0,0,0-4.368-.78,5.753,5.753,0,0,0-5.21,4.957c0,.012-.032.346-.032.359l.018,7.756a.227.227,0,0,0,.227.227h3.372a.228.228,0,0,0,.227-.228V976.6c0-.006,0-.011,0-.016a2.584,2.584,0,0,1,3.147-2.385l.032.006c.081.022.455.122.71.216a.226.226,0,0,0,.3-.149A5.657,5.657,0,0,1,355,971.7Z" transform="translate(-315.367 -967.55)" fill="#fff"/>
    <path id="Trazado_83" data-name="Trazado 83" d="M305.586,971h-1.558a1.748,1.748,0,0,0-.533.138,2.331,2.331,0,0,0-1.3,1.882c0,.014,0,.029,0,.042v5.045c0,.007,0,.014,0,.02a2.542,2.542,0,0,1-2.318,2.777,2.42,2.42,0,0,1-2.7-2.468c0-.01,0-.02,0-.03l.026-6.77a.436.436,0,0,0-.442-.438l-3.1.043a.436.436,0,0,0-.43.435v7.02s.138,5.366,5.077,5.794a10.716,10.716,0,0,0,3.159-.107l.025-.005c.236-.041,4.488-.847,4.514-6.427l.026-6.515A.436.436,0,0,0,305.586,971Z" transform="translate(-277.726 -967.922)" fill="#fff"/>
    <path id="Trazado_84" data-name="Trazado 84" d="M442.108,970.692a6.957,6.957,0,0,0-6.81,5.621c-.016.1-.032.22-.042.347,0,.051,0,.1,0,.119v11.547h1.9a2.023,2.023,0,0,0,1.169-.518,2.07,2.07,0,0,0,.59-1.314c.011-.124.008-3.351.007-4.306a3.088,3.088,0,0,0,2.85,2.192l-.012-.012a6.01,6.01,0,0,0,2.22-.016q.32-.088.627-.206a6.957,6.957,0,0,0-2.5-13.455Zm.035,10.074a3.241,3.241,0,1,1,3.044-3.235A3.144,3.144,0,0,1,442.142,980.766Z" transform="translate(-380.271 -967.698)" fill="#fff"/>
  </g>
</svg>
