<svg id="Grupo_32671" data-name="Grupo 32671" xmlns="http://www.w3.org/2000/svg" width="121.113" height="73.105" viewBox="0 0 121.113 73.105">
  <rect id="Rectángulo_18532" data-name="Rectángulo 18532" width="121.114" height="73.105" rx="5" transform="translate(0)" fill="none"/>
  <g id="Grupo_22155" data-name="Grupo 22155" transform="translate(10.914 28.369)">
    <path id="Trazado_42929" data-name="Trazado 42929" d="M67.808,27.829c0,.011,0,10.611,0,10.611a.271.271,0,0,1-.236.287h-1.44a1.573,1.573,0,0,1-1.544-1.571V27.868A3.006,3.006,0,0,0,61.382,24.8a3.041,3.041,0,0,0-3.2,3.12V38.454a.259.259,0,0,1-.24.274H56.5a1.6,1.6,0,0,1-1.544-1.6V27.882a3.2,3.2,0,0,0-6.4.01V38.467a.247.247,0,0,1-.24.261h-1.44a1.546,1.546,0,0,1-1.539-1.544V27.869a6.035,6.035,0,0,1,6.414-6.249,6.451,6.451,0,0,1,4.816,1.9,6.46,6.46,0,0,1,4.812-1.919,6.034,6.034,0,0,1,6.43,6.223" transform="translate(-2.235 -21.6)" fill="#fff"/>
    <path id="Trazado_42930" data-name="Trazado 42930" d="M93.9,38.473a.128.128,0,0,1-.111.2l-2.573.007a1.825,1.825,0,0,1-1.712-.8L86.866,33.99a.982.982,0,0,0-1.859,0l-2.632,3.884a1.824,1.824,0,0,1-1.712.8H78.089a.132.132,0,0,1-.108-.2l5.076-7.494a1.325,1.325,0,0,0,0-1.453l-5.076-7.494a.128.128,0,0,1,.108-.2h2.573a1.821,1.821,0,0,1,1.712.8l2.632,3.884a.983.983,0,0,0,1.859,0L89.5,22.632a1.822,1.822,0,0,1,1.712-.8h2.573a.13.13,0,0,1,.111.2l-5.077,7.494a1.332,1.332,0,0,0,0,1.453Z" transform="translate(4.864 -21.551)" fill="#fff"/>
    <path id="Trazado_42931" data-name="Trazado 42931" d="M79.918,21.882H78.9a1.556,1.556,0,0,0-1.347.776l-.375.654a7.753,7.753,0,0,0-4.909-1.706c-4.723,0-7.867,3.337-7.867,8.623,0,5.326,3.2,8.622,7.829,8.622a7.671,7.671,0,0,0,4.656-1.5,1.509,1.509,0,0,0,1.55,1.375h1.471c.142,0,.259-.062.259-.206l.006-16.382a.259.259,0,0,0-.259-.258M72.2,35.641c-2.686,0-4.654-2-4.654-5.412s1.968-5.413,4.654-5.413,4.654,2,4.654,5.413S74.89,35.641,72.2,35.641" transform="translate(1.914 -21.6)" fill="#fff"/>
    <path id="Trazado_42932" data-name="Trazado 42932" d="M17.624,28.1h-2.97V21.833H9.937V38.677h4.717V32.141h2.97v6.536H22.2V21.833H17.624Z" transform="translate(-9.937 -21.551)" fill="#fff"/>
    <path id="Trazado_42933" data-name="Trazado 42933" d="M40.809,21.6a8.481,8.481,0,0,0-7.718,4.868A4.885,4.885,0,0,0,28.6,21.881H20.79V38.728h7.281A5.07,5.07,0,0,0,33.1,34a8.582,8.582,0,1,0,7.709-12.4M27.461,34.8H25.145V31.958h2.316a1.443,1.443,0,0,1,0,2.847m.009-6.325H25.154V25.632H27.47a1.443,1.443,0,0,1,0,2.847m3.083,1.692a3.609,3.609,0,0,0,1.727-1.061,7.8,7.8,0,0,0,.01,2.35,3.242,3.242,0,0,0-1.736-1.289M40.811,34.46A4.288,4.288,0,1,1,45.1,30.172a4.289,4.289,0,0,1-4.288,4.288" transform="translate(-7.575 -21.601)" fill="#fff"/>
    <path id="Trazado_42934" data-name="Trazado 42934" d="M37.835,25.872a3.371,3.371,0,1,0,3.37,3.37,3.371,3.371,0,0,0-3.37-3.37" transform="translate(-4.601 -20.672)" fill="#fff"/>
  </g>
</svg>
