<svg xmlns="http://www.w3.org/2000/svg" width="121.114" height="73.105" viewBox="0 0 121.114 73.105">
  <g id="Grupo_34431" data-name="Grupo 34431" transform="translate(-9594 -4963)">
    <rect id="Rectángulo_18532" data-name="Rectángulo 18532" width="121.115" height="73.106" rx="5" transform="translate(9594 4963)" fill="none"/>
    <g id="HotGo_Blanco" data-name="HotGo Blanco" transform="translate(9655.408 5000.182)">
      <g id="Grupo_34429" data-name="Grupo 34429" transform="translate(-46.409 -9.182)">
        <path id="Trazado_87051" data-name="Trazado 87051" d="M3.867,26.355v7.486H0V16.512H3.867V23.23h7.027V16.512h3.755V33.841H10.894V26.355Z" transform="translate(0 -15.714)" fill="#fff"/>
        <path id="Trazado_87052" data-name="Trazado 87052" d="M1249.667,0c2.343,0,8.515,1,8.515,9.182s-6.172,9.182-8.515,9.182-8.52-1-8.52-9.182S1247.319,0,1249.667,0Zm0,15.276c2,0,4.81-1.212,4.81-6.094s-2.813-6.1-4.81-6.1-4.816,1.215-4.816,6.1S1247.665,15.276,1249.667,15.276Z" transform="translate(-1181.147)" fill="#fff"/>
        <path id="Trazado_87053" data-name="Trazado 87053" d="M887.284,8.263h-3.71v0h-4.292v3.188h4.078a4.556,4.556,0,0,1-4.565,3.82c-2,0-4.812-1.212-4.812-6.094s2.813-6.1,4.812-6.1a4.565,4.565,0,0,1,4.577,3.869h3.766C886.125.81,880.909,0,878.794,0c-2.345,0-8.516,1-8.516,9.182s6.171,9.182,8.516,9.182,8.518-1,8.518-9.182C887.312,8.863,887.3,8.561,887.284,8.263Z" transform="translate(-828.207 0)" fill="#fff"/>
        <path id="Trazado_87054" data-name="Trazado 87054" d="M609.161,14.21v.4a7.013,7.013,0,0,1,2.738,2.791h1.971V31.538h3.756V17.406h4.6v-3.2Z" transform="translate(-579.713 -13.523)" fill="#fff"/>
        <path id="Trazado_87055" data-name="Trazado 87055" d="M328.64,0c2.343,0,8.515,1,8.515,9.182s-6.172,9.182-8.515,9.182-8.518-1-8.518-9.182S326.294,0,328.64,0Zm0,15.276c2,0,4.815-1.212,4.815-6.094s-2.818-6.1-4.815-6.1-4.815,1.215-4.815,6.1S326.64,15.276,328.64,15.276Z" transform="translate(-304.647)" fill="#fff"/>
        <path id="Trazado_87056" data-name="Trazado 87056" d="M1625.612,16.044a11.065,11.065,0,0,1,3.7,8.215,13.832,13.832,0,0,1-3.738,8.967l14.233-8.78Z" transform="translate(-1546.99 -15.268)" fill="#fff"/>
      </g>
    </g>
  </g>
</svg>
