<svg id="Grupo_32730" data-name="Grupo 32730" xmlns="http://www.w3.org/2000/svg" width="121.114" height="73.105" viewBox="0 0 121.114 73.105">
  <g id="Grupo_32673" data-name="Grupo 32673" transform="translate(5.647 30.117)">
    <path id="Trazado_42373" data-name="Trazado 42373" d="M106.29,12.328a.245.245,0,0,0-.211-.391h-.32v.8h.151v-.313h.111l.172.313h.174l-.19-.335A.233.233,0,0,0,106.29,12.328Zm-.223-.048h-.157v-.194h.157c.077,0,.116.032.116.1S106.144,12.28,106.067,12.28Zm-.046-.7a.755.755,0,1,0,.755.755A.755.755,0,0,0,106.021,11.584Zm0,1.363a.608.608,0,1,1,.608-.608A.609.609,0,0,1,106.021,12.947ZM105.85,8.18H103.56v3.149h-3.091V8.18H97.32V5.089h3.149V1.94h3.091V5.089h4.007Zm-7.84,1.3v3.429H87.931V.356H98.01V3.785H91.717v1.3h4.63V8.18h-4.63v1.3ZM76.189.356h10.77V3.785H83.49v9.127H79.7V3.785H76.189Zm-6.333,0L64.884,12.912H68.9l.453-1.364h4.391l.453,1.364H78.2L73.233.356Zm.328,8.676,1.36-4.1,1.36,4.1Zm-4.455-2.4c-.015,3.4-1.381,6.634-6.052,6.634-4.6,0-6.259-3.237-6.274-6.634C53.417,3.237,54.932,0,59.678,0h0c4.9,0,5.678,3.237,5.691,4.22H61.544s-.164-1.245-1.857-1.245c-1.379,0-2.462.857-2.462,3.659,0,2.952,1.3,3.66,2.457,3.66a2.121,2.121,0,0,0,2.228-2.13H59.566V5.524h6.163Zm-13.1,2.477c0,2.324-1.682,4.157-5.587,4.157-5.273,0-5.669-3.237-5.682-4.22H45.18c0,.538.314,1.245,1.857,1.245,1.4,0,1.8-.539,1.8-1.045,0-2.054-7.162-.091-7.162-5.463,0-.887.72-3.785,5.339-3.785,4.545,0,5.238,2.968,5.238,3.925H48.613c0-.4-.273-1.135-1.655-1.135-1.228,0-1.655.447-1.655.994C45.3,5.8,52.624,3.785,52.624,9.111ZM36.452.356h3.786V12.913H36.452L32.665,6.634v6.278H28.879V.356h3.786l3.786,6.278ZM21.171,0C16.35,0,14.8,3.237,14.783,6.634c.015,3.4,1.567,6.634,6.388,6.634s6.373-3.237,6.388-6.634C27.544,3.237,25.992,0,21.171,0Zm0,10.294c-1.228,0-2.538-.707-2.538-3.66s1.309-3.66,2.538-3.66,2.538.707,2.538,3.66S22.4,10.294,21.171,10.294ZM9.676.356h3.786V12.913H9.676ZM3.786,9.484H8.5v3.429H0V.356H3.786Z" transform="translate(0)" fill="#fff"/>
  </g>
  <rect id="Rectángulo_18532" data-name="Rectángulo 18532" width="121.115" height="73.106" rx="5" transform="translate(0)" fill="none"/>
</svg>
