<svg xmlns="http://www.w3.org/2000/svg" width="412.113" height="50.219" viewBox="0 0 412.113 50.219">
  <g id="Grupo_35086" data-name="Grupo 35086" transform="translate(-8446 -5815)">
    <g id="Grupo_35085" data-name="Grupo 35085" transform="translate(8446 5815)">
      <g id="Grupo_35066" data-name="Grupo 35066" transform="translate(111.754)">
        <rect id="Rectángulo_18532" data-name="Rectángulo 18532" width="81.904" height="49.437" rx="5" fill="none"/>
        <g id="EkzKVN" transform="translate(6.316 17.686)">
          <g id="Grupo_16319" data-name="Grupo 16319" transform="translate(0 0)">
            <path id="Trazado_22262" data-name="Trazado 22262" d="M1154.049,1048.29c0-.835-.011-1.671.005-2.505a3.417,3.417,0,0,1,.123-.972,1.166,1.166,0,0,1,1.327-.888,1.145,1.145,0,0,1,1.116,1.135c.044.63.027,1.265.021,1.9,0,.389.114.464.5.34,2.015-.642,3.709-.16,4.731,1.307a4.545,4.545,0,0,1-.077,5.386,4.325,4.325,0,0,1-5.006,1.3,4.4,4.4,0,0,1-2.735-4.342c-.029-.885,0-1.771,0-2.656Zm2.584,3a1.74,1.74,0,0,0,1.812,1.879,1.89,1.89,0,0,0-.014-3.77A1.739,1.739,0,0,0,1156.634,1051.293Z" transform="translate(-1135.155 -1043.579)" fill="#fff"/>
            <path id="Trazado_22263" data-name="Trazado 22263" d="M1029.682,1048.414c0-1.086-.012-2.173.005-3.259a1.211,1.211,0,0,1,1.159-1.329,1.234,1.234,0,0,1,1.371,1.125,10.274,10.274,0,0,1,.07,1.661c-.006.515.131.649.672.492a3.958,3.958,0,0,1,5.186,2.939,4.33,4.33,0,1,1-8.386,2.154,11.906,11.906,0,0,1-.076-2.268C1029.671,1049.424,1029.681,1048.919,1029.682,1048.414Zm4.28.917a1.778,1.778,0,0,0-1.772,1.872,1.781,1.781,0,1,0,1.772-1.872Z" transform="translate(-1029.666 -1043.499)" fill="#fff"/>
            <path id="Trazado_22264" data-name="Trazado 22264" d="M1100.653,1069.727a14.194,14.194,0,0,1-.011,1.664,1.256,1.256,0,0,1-2,.988.917.917,0,0,0-.908-.06,3.991,3.991,0,0,1-5.5-2.568,4.329,4.329,0,0,1,2.96-5.557,4.277,4.277,0,0,1,5.386,3.417A10.623,10.623,0,0,1,1100.653,1069.727Zm-6.051-1.389a1.751,1.751,0,1,0,1.741-1.858A1.683,1.683,0,0,0,1094.6,1068.339Z" transform="translate(-1082.56 -1060.658)" fill="#fff"/>
            <path id="Trazado_22265" data-name="Trazado 22265" d="M1216.949,1068.287c.586-1.289,1.081-2.445,1.633-3.573a1.225,1.225,0,0,1,2.067-.377,1.313,1.313,0,0,1,.119,1.618c-.708,1.594-1.424,3.183-2.135,4.775q-.88,1.973-1.757,3.948c-.224.5-.5.944-1.136.971a1.236,1.236,0,0,1-1.265-1.726,15.43,15.43,0,0,1,.862-1.938,1.479,1.479,0,0,0-.019-1.564c-.719-1.276-1.389-2.581-2.078-3.875-.13-.245-.268-.489-.375-.744a1.236,1.236,0,0,1,.544-1.743,1.2,1.2,0,0,1,1.648.637c.523.952,1,1.927,1.506,2.891C1216.655,1067.764,1216.755,1067.936,1216.949,1068.287Z" transform="translate(-1184.919 -1060.547)" fill="#fff"/>
            <path id="Trazado_22266" data-name="Trazado 22266" d="M1393.278,1072.563a4.119,4.119,0,0,1-2.544-.943,1.235,1.235,0,0,1-.3-1.748,1.175,1.175,0,0,1,1.686-.212,2.284,2.284,0,0,0,1.643.428c.153-.024.323-.055.364-.222.055-.231-.137-.311-.308-.355-.44-.115-.887-.2-1.327-.315a2.627,2.627,0,0,1-2.2-2.615,2.726,2.726,0,0,1,2.273-2.581,4.151,4.151,0,0,1,3.395.669,1.221,1.221,0,0,1,.445,1.658,1.149,1.149,0,0,1-1.639.407,2.557,2.557,0,0,0-1.438-.4c-.173.02-.4.011-.428.228s.184.277.353.319c.49.125.989.217,1.474.36a2.483,2.483,0,0,1,2.01,2.432,2.693,2.693,0,0,1-1.99,2.648A4.626,4.626,0,0,1,1393.278,1072.563Z" transform="translate(-1335.442 -1060.512)" fill="#fff"/>
            <path id="Trazado_22267" data-name="Trazado 22267" d="M1273.965,1050.184c0-.505-.021-1.011.005-1.515.034-.65,0-1.159-.727-1.534a1.051,1.051,0,0,1,.124-1.86,1.476,1.476,0,0,0,.771-1.028,3.4,3.4,0,0,1,3.518-2.533,1.193,1.193,0,0,1,.253,2.363c-.355.108-.777.056-1.037.393a.656.656,0,0,0-.161.4c.016.18.213.177.364.191a3.4,3.4,0,0,1,.525.056,1.12,1.12,0,0,1,.943,1.2,1.018,1.018,0,0,1-1.068,1.059c-.777-.015-.923.335-.9,1.012.041,1.236.021,2.475.007,3.713-.011,1-.523,1.6-1.329,1.609-.771.006-1.277-.633-1.285-1.634C1273.961,1051.447,1273.966,1050.815,1273.965,1050.184Z" transform="translate(-1235.825 -1041.706)" fill="#fff"/>
            <path id="Trazado_22268" data-name="Trazado 22268" d="M1442.4,1058.142a3.039,3.039,0,0,1-3-2.6,17.916,17.916,0,0,1-.111-2.95.859.859,0,0,0-.509-.9,1.123,1.123,0,0,1,0-2.085.889.889,0,0,0,.508-.91,3.121,3.121,0,0,1,.078-.75,1.26,1.26,0,0,1,1.367-1.047,1.209,1.209,0,0,1,1.144,1.2,2.848,2.848,0,0,1,.009.53c-.051.541.107.827.727.875a1.144,1.144,0,0,1-.073,2.283c-.491.015-.672.213-.656.693.024.732.011,1.465.006,2.2a.739.739,0,0,0,.722.867c.927.125,1.387.623,1.338,1.335A1.442,1.442,0,0,1,1442.4,1058.142Z" transform="translate(-1376.058 -1046.11)" fill="#fff"/>
            <path id="Trazado_22269" data-name="Trazado 22269" d="M1344.832,1068.238c0-.935-.012-1.87,0-2.805.018-1.086.753-1.654,1.759-1.29a1.791,1.791,0,0,0,1.3-.03,3.1,3.1,0,0,1,2.5.128,1.1,1.1,0,0,1,.66,1.306,1.019,1.019,0,0,1-1.175.834c-.4-.016-.81-.036-1.213-.02-.946.037-1.324.4-1.347,1.363-.027,1.111,0,2.224-.014,3.335-.011.975-.45,1.486-1.24,1.475s-1.229-.536-1.239-1.491C1344.823,1070.108,1344.832,1069.173,1344.832,1068.238Z" transform="translate(-1296.968 -1060.537)" fill="#fff"/>
            <path id="Trazado_22270" data-name="Trazado 22270" d="M1320.227,1068.387c0,.984.016,1.968,0,2.952a1.243,1.243,0,1,1-2.479,0q-.026-2.989,0-5.979a1.191,1.191,0,0,1,1.191-1.286,1.207,1.207,0,0,1,1.285,1.284C1320.246,1066.368,1320.226,1067.377,1320.227,1068.387Z" transform="translate(-1273.987 -1060.679)" fill="#fff"/>
            <path id="Trazado_22271" data-name="Trazado 22271" d="M1320.311,1043.06a1.232,1.232,0,0,1-2.462.082,1.191,1.191,0,0,1,1.18-1.287A1.225,1.225,0,0,1,1320.311,1043.06Z" transform="translate(-1274.085 -1041.832)" fill="#fff"/>
          </g>
        </g>
      </g>
      <g id="Grupo_35083" data-name="Grupo 35083">
        <rect id="Rectángulo_18532-2" data-name="Rectángulo 18532" width="81.904" height="49.437" rx="5" fill="none"/>
        <g id="edye_calado" data-name="edye calado" transform="translate(16.763 10.244)">
          <g id="Grupo_19717" data-name="Grupo 19717" transform="translate(0 0)">
            <path id="Trazado_42096" data-name="Trazado 42096" d="M52.735,55.2a1.176,1.176,0,0,0-1.227,1.264,1.341,1.341,0,0,0,1.337,1.414,1.322,1.322,0,0,0,1.4-1.349A1.39,1.39,0,0,0,52.735,55.2Z" transform="translate(-35.866 -38.438)" fill="#fff"/>
            <path id="Trazado_42097" data-name="Trazado 42097" d="M23.82,49.37c-.242-1.036-.811-1.475-1.612-1.295-.921.215-1.285.854-1.085,1.981Z" transform="translate(-14.672 -33.449)" fill="#fff"/>
            <path id="Trazado_42098" data-name="Trazado 42098" d="M140.309,50.969c-.935-.165-1.514.294-1.765,1.411l2.754.4C141.473,51.735,141.117,51.11,140.309,50.969Z" transform="translate(-96.473 -35.469)" fill="#fff"/>
            <g id="Grupo_19716" data-name="Grupo 19716" transform="translate(0 5.477)">
              <path id="Trazado_42099" data-name="Trazado 42099" d="M136.877,63.977a5.737,5.737,0,0,0,2.668.35,5.953,5.953,0,0,0,.635-.092.26.26,0,0,1,.3.148.26.26,0,0,0-.305-.154,6.054,6.054,0,0,1-.635.091,5.741,5.741,0,0,1-2.668-.349,1.5,1.5,0,0,1-1.045-1.219A1.482,1.482,0,0,0,136.877,63.977Z" transform="translate(-94.583 -49.173)" fill="none"/>
              <path id="Trazado_42100" data-name="Trazado 42100" d="M140.309,50.969c-.935-.165-1.515.288-1.765,1.411l2.754.4C141.473,51.735,141.117,51.11,140.309,50.969Z" transform="translate(-96.473 -40.945)" fill="none"/>
              <path id="Trazado_42101" data-name="Trazado 42101" d="M121.9,48.246a5.843,5.843,0,0,1,1.5-3.018c.065-.066.132-.129.2-.191a4.531,4.531,0,0,1,2.219-1.109c2.655-.5,4.694.713,5.431,2.656-.736-1.943-2.776-3.156-5.434-2.663a4.533,4.533,0,0,0-2.219,1.108c-.069.066-.136.125-.2.191a5.838,5.838,0,0,0-1.5,3.018,5.651,5.651,0,0,0,.125,2.61A5.652,5.652,0,0,1,121.9,48.246Z" transform="translate(-84.812 -35.985)" fill="none"/>
              <path id="Trazado_42102" data-name="Trazado 42102" d="M50,24.636c-.941.037-.958.054-.982,1.016-.033,1.455-.039,2.912-.056,4.431a1.751,1.751,0,0,1-.226-.08A4.4,4.4,0,0,0,43,31.313a4.994,4.994,0,0,0-.935,3.105,7.823,7.823,0,0,0,.14,1.33c.01.053.022.105.034.158a4.312,4.312,0,0,0,4.469,3.619,15.087,15.087,0,0,0,2.467-.558c-.151.683.382.772.952.78.887.007,1.774-.026,2.66,0,.476.015.582-.18.594-.624q.014-.414.025-.827.1-3.5.212-6.99.066-2.114.134-4.226c0-.142.016-.283.016-.424,0-.056.007-.276.015-.556,0-.172.016-.343.016-.516.006-.206.012-.415.012-.631V24.59c-1.021,0-2.043,0-3.065.022Q50.377,24.621,50,24.636Z" transform="translate(-29.291 -22.6)" fill="none"/>
              <path id="Trazado_42103" data-name="Trazado 42103" d="M15.724,48.044a5.938,5.938,0,0,1-3.15,1.032A1.4,1.4,0,0,1,11,47.929c-.023-.142.035-.17.125-.155a2.137,2.137,0,0,1,.362.115c1.418.559,4.042-.375,4.505-1.24a.509.509,0,0,0,.067-.317c-.554-3.564-4.027-5.245-7.314-3.09A4.548,4.548,0,0,0,7.01,45.379c-1.042,2.645.157,6.331,3.041,7.157a6.074,6.074,0,0,0,4.422-.456,5.166,5.166,0,0,0,1.9-1.429,2.223,2.223,0,0,0,.154-1.343C16.431,48.529,16.105,47.78,15.724,48.044Z" transform="translate(-4.623 -34.921)" fill="none"/>
              <path id="Trazado_42104" data-name="Trazado 42104" d="M91.007,40.422c-.088-.015-.275.185-.323.319-.222.624-.434,1.261-.649,1.9-.1.288-.193.581-.291.873l-.19.574-.326,1c-.074-.314-.111-.469-.148-.624l-.007-.026q-.25-1.05-.5-2.1-.181-.75-.361-1.5c-.059-.249-.15-.428-.464-.374-1.033.175-2.07.345-3.131.518-.3.049-.7.123-1.006.173a1.746,1.746,0,0,0,.152.5c.051.148.1.3.152.447q.306.89.609,1.781.528,1.541,1.063,3.078.392,1.12.8,2.233a1.511,1.511,0,0,1-.01,1.3c-.494,1.037-.953,2.091-1.443,3.173a13.012,13.012,0,0,0,3.495,1.478c.74.191.747.192,1.043-.482q1.886-4.283,3.75-8.575l.624-1.432c.15-.349.293-.7.437-1.058.191-.466.373-.943.565-1.441l.1-.266.264-.669C93.753,40.937,92.38,40.664,91.007,40.422Z" transform="translate(-58.222 -33.624)" fill="none"/>
              <path id="Trazado_42105" data-name="Trazado 42105" d="M48.556,28.666A6.319,6.319,0,0,0,46.99,25.8,6.864,6.864,0,0,0,40.572,24a6.493,6.493,0,0,0-.832.22c-.107.036-.256-.045-.356-.079-.157-.052-.321-.086-.481-.124-1.484-.359-2.979-.659-4.476-.955-.384-.076-.768-.172-1.157-.213a.69.69,0,0,1-.125-.007,2.2,2.2,0,0,0-1.916.623,2.371,2.371,0,0,0-2.032-.571c-.9.152-1.791.3-2.724.452l.071-2.255c0-.215.008-.417.01-.631v-.3l.022-1.8s-4.911-.35-5.942-.314a2.937,2.937,0,0,0-2.214.776,2.988,2.988,0,0,0-.718,2.219c-.013.6-.022,1.2-.029,1.805a6.287,6.287,0,0,0-1.9.2,7.356,7.356,0,0,0-3.808,2.651A8.672,8.672,0,0,0,9.632,23.9a7.119,7.119,0,0,0-8.309,2.356A6.954,6.954,0,0,0,.009,30.083a7.985,7.985,0,0,0,2.728,6.5c2.849,2.284,7.556,1.575,10.129-.813.022-.021.268-.262.267-.263a6.155,6.155,0,0,0,3.7,1.48,6.423,6.423,0,0,0,1.293-.064,3.373,3.373,0,0,0,.51-.1c.077-.023.262-.125.342-.073a3.455,3.455,0,0,0,1.857.464c.852.012,1.7,0,2.556,0,.374,0,1.509-.029,1.7-.466-.074.166-.15.334-.226.5l-.742,1.642A27.287,27.287,0,0,0,27.3,40.631a8.876,8.876,0,0,0,3.482,1.061,2.278,2.278,0,0,0,.968-.21,2.749,2.749,0,0,0,1.323-1.5c.749-1.659,1.448-3.339,2.193-5,.044-.1.344-.605.3-.7a6.224,6.224,0,0,0,1.85,2.383,8.023,8.023,0,0,0,4.976,1.712c.236,0,.476-.011.714-.031a6.927,6.927,0,0,0,3.26-.94A4.029,4.029,0,0,0,47.836,35.1,4.877,4.877,0,0,0,48,33.2a2.927,2.927,0,0,0,.542-1.116A7.233,7.233,0,0,0,48.556,28.666Zm-36.8,5.1A5.166,5.166,0,0,1,9.85,35.2a6.074,6.074,0,0,1-4.422.456c-2.884-.825-4.083-4.512-3.041-7.157a4.548,4.548,0,0,1,1.732-2.138c3.287-2.155,6.76-.474,7.314,3.09a.509.509,0,0,1-.067.317c-.463.865-3.088,1.8-4.505,1.24a2.139,2.139,0,0,0-.362-.115c-.09-.015-.149.013-.125.155a1.4,1.4,0,0,0,1.578,1.147,5.938,5.938,0,0,0,3.15-1.032c.381-.264.707.486.807,1.264A2.223,2.223,0,0,1,11.754,33.767ZM24.524,20.39c0,.216-.006.425-.012.631,0,.173-.012.344-.016.516-.008.279-.012.5-.015.556,0,.141-.012.282-.016.424q-.067,2.112-.134,4.226-.111,3.5-.212,6.99-.011.414-.025.827c-.012.444-.118.639-.594.624-.886-.026-1.773.007-2.66,0-.571-.009-1.1-.1-.952-.78a15.085,15.085,0,0,1-2.467.558,4.312,4.312,0,0,1-4.469-3.619c-.012-.052-.023-.1-.034-.158a7.822,7.822,0,0,1-.14-1.33,4.993,4.993,0,0,1,.935-3.105,4.4,4.4,0,0,1,5.734-1.31,1.751,1.751,0,0,0,.226.08c.017-1.519.023-2.976.056-4.431.024-.962.042-.979.982-1.016q.374-.015.749-.023c1.022-.025,2.044-.022,3.065-.022ZM36.732,26.3l-.1.266c-.192.5-.374.975-.565,1.442-.144.357-.287.709-.437,1.058L35,30.5q-1.865,4.291-3.75,8.575c-.3.674-.3.673-1.043.482a13.012,13.012,0,0,1-3.495-1.478c.489-1.082.948-2.136,1.443-3.173a1.511,1.511,0,0,0,.01-1.3q-.408-1.113-.8-2.233Q26.832,29.842,26.3,28.3q-.3-.891-.609-1.781c-.051-.15-.1-.3-.152-.447a1.746,1.746,0,0,1-.152-.5c.307-.05.7-.125,1.006-.173,1.062-.173,2.1-.343,3.131-.518.314-.053.405.125.464.374q.18.749.361,1.5.25,1.048.5,2.1l.007.026c.037.155.074.31.148.624l.326-1,.19-.574c.1-.292.193-.585.291-.873.215-.642.427-1.278.649-1.9.048-.134.235-.334.323-.319,1.373.242,2.746.515,4.211.8Zm9.834,5.346c-.1.4-.807.618-1.674.633a4.778,4.778,0,0,1-3.146-.955,2.16,2.16,0,0,0-.289-.25c-.077-.049-.137-.057-.176.1a1.329,1.329,0,0,0-.033.441,1.5,1.5,0,0,0,1.045,1.219,5.74,5.74,0,0,0,2.668.349,6.05,6.05,0,0,0,.635-.091.26.26,0,0,1,.305.154,2.838,2.838,0,0,1-.7,2.506,5.186,5.186,0,0,1-2.309.584,6.059,6.059,0,0,1-4.255-1.28,4.282,4.282,0,0,1-1.43-2.154,5.651,5.651,0,0,1-.125-2.61,5.838,5.838,0,0,1,1.5-3.018c.065-.066.132-.125.2-.191A4.533,4.533,0,0,1,41,25.974c2.657-.494,4.7.72,5.434,2.663A5.059,5.059,0,0,1,46.566,31.651Z" transform="translate(0 -18.036)" fill="#fff"/>
              <path id="Trazado_42106" data-name="Trazado 42106" d="M141.131,55.952c-.1.4-.807.624-1.674.633a4.778,4.778,0,0,1-3.146-.955,2.116,2.116,0,0,0-.289-.25c-.077-.049-.141-.045-.176.095a1.319,1.319,0,0,0-.03.448,1.329,1.329,0,0,1,.033-.441c.039-.152.1-.144.176-.1a2.158,2.158,0,0,1,.289.25,4.778,4.778,0,0,0,3.146.955c.867-.015,1.576-.231,1.674-.633A5.058,5.058,0,0,0,141,52.944,5.042,5.042,0,0,1,141.131,55.952Z" transform="translate(-94.567 -42.344)" fill="#153188"/>
              <path id="Trazado_42107" data-name="Trazado 42107" d="M130.517,69.834a5.174,5.174,0,0,1-2.309.584,6.06,6.06,0,0,1-4.255-1.28,4.281,4.281,0,0,1-1.428-2.148,4.282,4.282,0,0,0,1.43,2.154,6.059,6.059,0,0,0,4.255,1.28,5.186,5.186,0,0,0,2.309-.584,2.838,2.838,0,0,0,.7-2.506A2.846,2.846,0,0,1,130.517,69.834Z" transform="translate(-85.318 -52.124)" fill="#153188"/>
            </g>
            <path id="Trazado_42108" data-name="Trazado 42108" d="M37.464,31.9a.806.806,0,1,0-.806-.806A.805.805,0,0,0,37.464,31.9Z" transform="translate(-25.526 -21.09)" fill="#fff"/>
            <path id="Trazado_42109" data-name="Trazado 42109" d="M40.71,23.879a1.4,1.4,0,1,0-1.4-1.4A1.4,1.4,0,0,0,40.71,23.879Z" transform="translate(-27.374 -14.681)" fill="#fff"/>
            <path id="Trazado_42110" data-name="Trazado 42110" d="M32.728,11.9a2,2,0,1,0-2-2A2,2,0,0,0,32.728,11.9Z" transform="translate(-21.395 -5.495)" fill="#fff"/>
            <path id="Trazado_42111" data-name="Trazado 42111" d="M41.109,2.4a1.2,1.2,0,1,0-1.2-1.2A1.2,1.2,0,0,0,41.109,2.4Z" transform="translate(-27.791 0)" fill="#fff"/>
          </g>
        </g>
      </g>
      <g id="Grupo_35067" data-name="Grupo 35067" transform="translate(224.438 0)">
        <rect id="Rectángulo_18532-3" data-name="Rectángulo 18532" width="82.05" height="49.526" rx="5" fill="none"/>
        <g id="Grupo_22158" data-name="Grupo 22158" transform="translate(13.306 9.61)">
          <path id="Trazado_42240" data-name="Trazado 42240" d="M44.557-378.069c-.5.023-1.006.043-1.509.056-.1,0-.124.026-.123.125,0,1.013,0,2.026,0,3.039,0,.228.007.457-.006.684a1.114,1.114,0,0,1-1.266,1.178,1.009,1.009,0,0,1-.983-.745,1.867,1.867,0,0,1-.082-.562c0-1.156,0-2.312,0-3.467,0-.13-.033-.15-.155-.144-.55.026-1.1.073-1.651.065v4.082a1.338,1.338,0,0,1,.084.378,2.317,2.317,0,0,0,1.646,1.848,4.061,4.061,0,0,0,2.4.01,2.323,2.323,0,0,0,1.608-1.578,4.24,4.24,0,0,0,.193-1.348c0-1.156,0-2.312.006-3.467C44.726-378.056,44.676-378.075,44.557-378.069Z" transform="translate(-38.788 390)" fill="#fff"/>
          <path id="Trazado_42241" data-name="Trazado 42241" d="M232.48-372.954c-.116,0-.138-.04-.138-.147,0-1.541,0-3.082.006-4.624,0-.121-.035-.151-.145-.155-.5-.019-1-.04-1.494-.071-.12-.008-.136.03-.136.136q0,3.147,0,6.294c0,.107.02.142.136.142.909-.006,1.817,0,2.726,0l1.912,0v-1.542C234.391-372.937,233.436-372.949,232.48-372.954Z" transform="translate(-179.797 389.912)" fill="#fff"/>
          <path id="Trazado_42242" data-name="Trazado 42242" d="M140.848-423.106c0-.008.012-.014.007-.024h-.828c0,.011,0,.017.008.025Z" transform="translate(-113.223 423.13)" fill="#fff"/>
          <path id="Trazado_42243" data-name="Trazado 42243" d="M143.352-423.107c0-.008.01-.014.005-.023h-.2c0,.008,0,.016,0,.024Z" transform="translate(-115.526 423.13)" fill="#fff"/>
          <path id="Trazado_42244" data-name="Trazado 42244" d="M139.469-423.1a.153.153,0,0,0,0-.025h-.2c0,.009,0,.016.005.023Z" transform="translate(-112.667 423.13)" fill="#fff"/>
          <path id="Trazado_42245" data-name="Trazado 42245" d="M90.246-413.263a13.6,13.6,0,0,1,.667-1.445,13.427,13.427,0,0,1,4.613-5.084,12.977,12.977,0,0,1,7.714-2.059,13.256,13.256,0,0,1,3.7.675,14.161,14.161,0,0,1,6.167,4.076,13.983,13.983,0,0,1,2.632,4.3c.038.1.081.144.191.135.142-.011.285,0,.428,0,.166,0,.166,0,.114-.153a14.888,14.888,0,0,0-3.969-6.2,14.865,14.865,0,0,0-9.549-4.089.121.121,0,0,1,0-.024h-.171a.055.055,0,0,1,0,.023h-.008c0,.007,0,.015,0,.02a.153.153,0,0,1-.186-.019h-.011c0,.007,0,.016-.007.022a2.5,2.5,0,0,1-.8,0c-.008,0,0-.014-.006-.021h-.011a.156.156,0,0,1-.187.018c-.007-.005,0-.013,0-.02h-.008a.115.115,0,0,1,0-.023h-.171a.063.063,0,0,1,0,.025,15.082,15.082,0,0,0-13.41,10c.721-.016,1.438-.034,2.155-.047C90.211-413.151,90.224-413.207,90.246-413.263Z" transform="translate(-74.95 423.13)" fill="#fff"/>
          <path id="Trazado_42246" data-name="Trazado 42246" d="M71.693-378.807c0-.1-.022-.126-.125-.122-.5.02-1,.032-1.5.043-.1,0-.141.033-.14.147.005,1.075,0,2.15,0,3.225a.3.3,0,0,1-.022.17l-.163-.217L67.4-378.7c-.04-.053-.072-.1-.156-.1-.48.018-.959.033-1.438.042-.1,0-.128.03-.127.13q0,3.2,0,6.408c0,.1.033.124.129.123.49,0,.98-.006,1.47,0,.118,0,.149-.029.148-.148-.005-1.113,0-2.226,0-3.339,0-.047-.018-.1.025-.146q1.307,1.771,2.6,3.529a.213.213,0,0,0,.2.1q.656-.009,1.313,0c.1,0,.133-.021.133-.13,0-1.075,0-2.15,0-3.225C71.691-376.572,71.689-377.69,71.693-378.807Z" transform="translate(-58.56 390.632)" fill="#fff"/>
          <path id="Trazado_42247" data-name="Trazado 42247" d="M159.88-374.873c-.052-.083-.049-.113.045-.162a2.09,2.09,0,0,0,1.085-1.294,2.748,2.748,0,0,0,.093-1.045,2.138,2.138,0,0,0-1.209-1.838,2.986,2.986,0,0,0-1.348-.31c-.985-.006-1.97,0-2.954,0-.1,0-.137.019-.137.131q.006,3.361,0,6.722c0,.1.018.138.13.136q.764-.01,1.527,0c.119,0,.137-.039.136-.145,0-.618,0-1.237-.005-1.855,0-.117.035-.141.143-.137a5.341,5.341,0,0,0,.584,0,.229.229,0,0,1,.25.15c.326.632.66,1.26.99,1.89.027.05.041.1.119.1.656,0,1.312,0,1.994,0l-.094-.157Q160.556-373.785,159.88-374.873Zm-.574-1.91a.755.755,0,0,1-.646.548,9.851,9.851,0,0,1-1.351.033c-.08,0-.06-.057-.06-.1,0-.252,0-.5,0-.755s0-.494,0-.741c0-.056,0-.1.078-.1.413.01.827-.022,1.239.015A.82.82,0,0,1,159.306-376.783Z" transform="translate(-124.568 391.07)" fill="#fff"/>
          <path id="Trazado_42248" data-name="Trazado 42248" d="M131.823-372.538q2.455-.005,4.909,0c.093,0,.118-.023.117-.116-.005-.452-.008-.9,0-1.356,0-.136-.022-.182-.173-.181-1,.008-2.007,0-3.011.006-.1,0-.152-.012-.148-.135.01-.275.011-.552,0-.827-.005-.129.034-.156.158-.155.894.006,1.788,0,2.683.005.107,0,.136-.027.134-.134-.006-.418-.007-.837,0-1.256,0-.12-.032-.148-.149-.147-.9.005-1.8,0-2.7.005-.1,0-.131-.024-.128-.126.007-.262.01-.523,0-.785,0-.12.028-.147.147-.146,1,.005,2.007,0,3.011,0,.086,0,.123-.012.121-.112q-.009-.706,0-1.413c0-.109-.04-.12-.132-.12q-2.412,0-4.824,0c-.112,0-.141.028-.141.141,0,1.118,0,2.236,0,3.354s0,2.245,0,3.368C131.7-372.57,131.718-372.537,131.823-372.538Z" transform="translate(-107.102 391.071)" fill="#fff"/>
          <path id="Trazado_42249" data-name="Trazado 42249" d="M183.421-376.422a6.076,6.076,0,0,0-1.256-.447,3.054,3.054,0,0,1-.9-.34.4.4,0,0,1-.227-.424.415.415,0,0,1,.354-.326,1.461,1.461,0,0,1,.567-.011,3.106,3.106,0,0,1,1.4.6c.083.06.113.05.166-.033.238-.372.48-.741.73-1.105.066-.1.055-.141-.032-.213a3.785,3.785,0,0,0-2.474-.87,3.287,3.287,0,0,0-.834.091,2.074,2.074,0,0,0-1.619,2.528,1.909,1.909,0,0,0,1.018,1.255,5.613,5.613,0,0,0,1.392.528,2.927,2.927,0,0,1,.8.294.4.4,0,0,1,.21.393.41.41,0,0,1-.281.361,1.119,1.119,0,0,1-.405.068,3.012,3.012,0,0,1-1.949-.721c-.142-.113-.141-.114-.254.033l-.723.937c-.154.2-.156.2.041.366a4.2,4.2,0,0,0,3.509.913,2.045,2.045,0,0,0,1.821-1.792A1.821,1.821,0,0,0,183.421-376.422Z" transform="translate(-141.867 391.115)" fill="#fff"/>
          <path id="Trazado_42250" data-name="Trazado 42250" d="M206.868-374.772l-1.521-3.8c-.026-.064-.039-.126-.14-.127q-.748-.009-1.5-.038c-.1,0-.136.037-.17.122q-1.076,2.695-2.157,5.387l-.5,1.25c.018.009.026.017.034.017.58,0,1.161,0,1.741,0,.079,0,.092-.048.112-.1.13-.336.262-.671.387-1.009a.127.127,0,0,1,.143-.1q1.114.006,2.227,0a.127.127,0,0,1,.142.1c.124.333.256.663.379,1a.147.147,0,0,0,.164.113c.557,0,1.113,0,1.67,0,.032,0,.064,0,.093-.006.015-.043-.009-.07-.021-.1Zm-3.157.148.717-1.883.7,1.883Z" transform="translate(-157.968 390.49)" fill="#fff"/>
          <path id="Trazado_42251" data-name="Trazado 42251" d="M107.932-379.379q-.358,1.177-.724,2.351c-.194.627-.388,1.254-.584,1.887-.049-.024-.049-.068-.061-.1q-.35-1-.7-2-.371-1.067-.742-2.134c-.019-.054-.031-.1-.11-.1-.622,0-1.245,0-1.9,0,.027.082.038.117.051.152q1.251,3.341,2.5,6.682a.144.144,0,0,0,.165.108q.728-.007,1.455,0a.158.158,0,0,0,.18-.127q1.057-2.965,2.122-5.928l.333-.932h-.159c-.556,0-1.113.013-1.669.011C107.991-379.507,107.96-379.468,107.932-379.379Z" transform="translate(-86.086 391.064)" fill="#fff"/>
          <path id="Trazado_42252" data-name="Trazado 42252" d="M95.046-379.166c-.537.017-1.073.026-1.61.033-.084,0-.1.028-.1.1q0,3.324,0,6.648c0,.092.029.107.112.107.518,0,1.037-.005,1.555,0,.108,0,.142-.022.141-.137,0-1.1,0-2.2,0-3.3s0-2.225,0-3.338C95.142-379.11,95.156-379.17,95.046-379.166Z" transform="translate(-78.894 390.806)" fill="#fff"/>
          <path id="Trazado_42253" data-name="Trazado 42253" d="M184.479-345.287h-1.907v-1.907h-1.544v1.907H179.12v1.544h1.907v1.907h1.544v-1.907h1.907Z" transform="translate(-141.967 367.298)" fill="#fff"/>
          <path id="Trazado_42254" data-name="Trazado 42254" d="M104.283-337.525a15.442,15.442,0,0,1-3.7-.107,13.574,13.574,0,0,1-4.191-1.309,13.164,13.164,0,0,1-5.688-5.561,14.513,14.513,0,0,1-.887-1.953c-.018-.048-.019-.112-.1-.111-.437,0-.873,0-1.3,0-.021.051.007.085.018.119a14.066,14.066,0,0,0,3.26,5.372,14.583,14.583,0,0,0,9.284,4.43,15.537,15.537,0,0,0,5.347-.395,14.286,14.286,0,0,0,6.6-3.631l-.908-.046A13.071,13.071,0,0,1,104.283-337.525Z" transform="translate(-75.268 366.836)" fill="#fff"/>
        </g>
      </g>
      <ellipse id="Elipse_390" data-name="Elipse 390" cx="3.262" cy="3.262" rx="3.262" ry="3.262" transform="translate(94.059 21.419)" fill="#fff"/>
      <ellipse id="Elipse_398" data-name="Elipse 398" cx="3.262" cy="3.262" rx="3.262" ry="3.262" transform="translate(205.813 21.419)" fill="#fff"/>
    </g>
    <g id="Grupo_35084" data-name="Grupo 35084" transform="translate(8756.289 5815)">
      <ellipse id="Elipse_418" data-name="Elipse 418" cx="3.262" cy="3.262" rx="3.262" ry="3.262" transform="translate(0 21.419)" fill="#fff"/>
      <g id="Grupo_35082" data-name="Grupo 35082" transform="translate(18.626)">
        <rect id="Rectángulo_18532-4" data-name="Rectángulo 18532" width="83.198" height="50.219" rx="5" fill="none"/>
        <g id="Grupo_22160" data-name="Grupo 22160" transform="translate(10.106 17.383)">
          <path id="Trazado_42620" data-name="Trazado 42620" d="M0,11.763A5.528,5.528,0,0,1,5.678,6.132a5.214,5.214,0,0,1,5.306,3.636l-2.506.619A2.829,2.829,0,0,0,5.693,8.545a3.027,3.027,0,0,0-3.063,3.2,3.079,3.079,0,0,0,3.063,3.233,2.788,2.788,0,0,0,2.785-1.81l2.506.634a5.163,5.163,0,0,1-5.26,3.589A5.539,5.539,0,0,1,0,11.763" transform="translate(0 -5.348)" fill="#fff"/>
          <rect id="Rectángulo_18371" data-name="Rectángulo 18371" width="2.475" height="7.89" transform="translate(14.65 3.94)" fill="#fff"/>
          <path id="Trazado_42621" data-name="Trazado 42621" d="M176.223,7.827V18.656h-2.088l-4.873-6.2v6.2h-2.568V7.827h2.089l4.873,6.2v-6.2Z" transform="translate(-145.374 -6.826)" fill="#fff"/>
          <path id="Trazado_42622" data-name="Trazado 42622" d="M283.987,13.242c0,3.14-2.027,5.414-5.12,5.414h-5V7.827h5c3.047,0,5.12,2.2,5.12,5.415m-2.6-.047c0-1.9-1.129-3.063-2.584-3.063h-2.4v6.219h2.4c1.454,0,2.584-1.253,2.584-3.156" transform="translate(-238.844 -6.826)" fill="#fff"/>
          <path id="Trazado_42623" data-name="Trazado 42623" d="M433.259,10.147v1.888h4.858v2.243h-4.858v2.057h5.631v2.321h-8.137V7.827h8.153v2.32Z" transform="translate(-375.663 -6.826)" fill="#fff"/>
          <path id="Trazado_42624" data-name="Trazado 42624" d="M114.2,1.655A1.655,1.655,0,1,1,112.547,0,1.655,1.655,0,0,1,114.2,1.655" transform="translate(-96.71 0)" fill="#fff"/>
          <rect id="Rectángulo_18372" data-name="Rectángulo 18372" width="2.475" height="7.89" transform="translate(48.793 0.715)" fill="#fff"/>
          <path id="Trazado_42625" data-name="Trazado 42625" d="M379.678,72.1a1.655,1.655,0,1,0,1.655,1.655,1.655,1.655,0,0,0-1.655-1.655" transform="translate(-329.677 -62.875)" fill="#fff"/>
          <path id="Trazado_42626" data-name="Trazado 42626" d="M9.464,115.588v1.441H9.088v-.182a.562.562,0,0,1-.461.222c-.379,0-.57-.254-.57-.641v-.84h.376v.769c0,.219.1.362.308.362s.347-.165.347-.421v-.709Z" transform="translate(-7.027 -100.805)" fill="#fff"/>
          <path id="Trazado_42627" data-name="Trazado 42627" d="M23.361,115.914v.843h-.376v-.772c0-.219-.1-.359-.308-.359s-.347.165-.347.419v.712h-.376v-1.441h.376v.182a.572.572,0,0,1,.464-.222c.376,0,.567.253.567.638" transform="translate(-19.146 -100.533)" fill="#fff"/>
          <path id="Trazado_42628" data-name="Trazado 42628" d="M43.511,115.9v.857h-.376v-.777c0-.217-.08-.353-.276-.353s-.3.151-.3.4v.735h-.379v-.777c0-.214-.077-.353-.27-.353s-.311.154-.311.407v.723h-.376v-1.441h.376v.171a.523.523,0,0,1,.427-.211.482.482,0,0,1,.433.216.6.6,0,0,1,.487-.216.55.55,0,0,1,.57.624" transform="translate(-35.947 -100.533)" fill="#fff"/>
          <path id="Trazado_42629" data-name="Trazado 42629" d="M63.114,115.588v1.441h-.376v-.182a.562.562,0,0,1-.461.222c-.379,0-.57-.254-.57-.641v-.84h.376v.769c0,.219.1.362.308.362s.347-.165.347-.421v-.709Z" transform="translate(-53.815 -100.805)" fill="#fff"/>
          <path id="Trazado_42630" data-name="Trazado 42630" d="M77.011,115.914v.843h-.376v-.772c0-.219-.1-.359-.308-.359s-.347.165-.347.419v.712H75.6v-1.441h.376v.182a.572.572,0,0,1,.464-.222c.376,0,.567.253.567.638" transform="translate(-65.935 -100.533)" fill="#fff"/>
          <path id="Trazado_42631" data-name="Trazado 42631" d="M90.253,110.6v2.079h-.379V112.5a.573.573,0,0,1-.464.216.762.762,0,0,1,0-1.521.571.571,0,0,1,.464.214V110.6Zm-.367,1.356a.406.406,0,0,0-.41-.421.425.425,0,0,0,0,.849.409.409,0,0,0,.41-.427" transform="translate(-77.354 -96.454)" fill="#fff"/>
          <path id="Trazado_42632" data-name="Trazado 42632" d="M103.063,116.036a.771.771,0,1,1,.772.76.747.747,0,0,1-.772-.76m1.176,0a.4.4,0,1,0-.4.419.4.4,0,0,0,.4-.419" transform="translate(-89.882 -100.533)" fill="#fff"/>
          <path id="Trazado_42633" data-name="Trazado 42633" d="M123.681,110.6v2.079H123.3V112.5a.573.573,0,0,1-.464.216.762.762,0,0,1,0-1.521.571.571,0,0,1,.464.214V110.6Zm-.367,1.356a.406.406,0,0,0-.41-.421.425.425,0,0,0,0,.849.409.409,0,0,0,.41-.427" transform="translate(-106.507 -96.454)" fill="#fff"/>
          <path id="Trazado_42634" data-name="Trazado 42634" d="M136.491,116.036a.73.73,0,0,1,.755-.76.759.759,0,0,1,.735.874h-1.119a.375.375,0,0,0,.419.327.368.368,0,0,0,.35-.191l.339.1a.787.787,0,0,1-1.478-.35m1.131-.123a.353.353,0,0,0-.379-.319.37.37,0,0,0-.382.319Z" transform="translate(-119.035 -100.533)" fill="#fff"/>
          <path id="Trazado_42635" data-name="Trazado 42635" d="M155.22,116.036a.73.73,0,0,1,.755-.76.759.759,0,0,1,.735.874H155.59a.375.375,0,0,0,.419.327.368.368,0,0,0,.35-.191l.339.1a.787.787,0,0,1-1.478-.35m1.131-.123a.353.353,0,0,0-.379-.319.37.37,0,0,0-.382.319Z" transform="translate(-135.369 -100.533)" fill="#fff"/>
          <path id="Trazado_42636" data-name="Trazado 42636" d="M170.568,115.914v.843h-.376v-.772c0-.219-.1-.359-.308-.359s-.348.165-.348.419v.712h-.376v-1.441h.376v.182a.572.572,0,0,1,.464-.222c.376,0,.567.253.567.638" transform="translate(-147.527 -100.533)" fill="#fff"/>
          <path id="Trazado_42637" data-name="Trazado 42637" d="M182.87,113.8a.866.866,0,0,1-.336.068.451.451,0,0,1-.481-.515v-.618h-.242v-.33h.242v-.467h.379v.467h.421v.33h-.421v.618a.16.16,0,0,0,.177.182.351.351,0,0,0,.171-.04Z" transform="translate(-158.558 -97.62)" fill="#fff"/>
          <path id="Trazado_42638" data-name="Trazado 42638" d="M192.973,115.392v.353c-.308-.048-.476.094-.476.481v.627h-.376v-1.441h.376v.214a.433.433,0,0,1,.476-.234" transform="translate(-167.55 -100.629)" fill="#fff"/>
          <path id="Trazado_42639" data-name="Trazado 42639" d="M199.382,116.036a.73.73,0,0,1,.755-.76.759.759,0,0,1,.735.874h-1.119a.375.375,0,0,0,.419.327.368.368,0,0,0,.35-.191l.339.1a.787.787,0,0,1-1.478-.35m1.131-.123a.353.353,0,0,0-.379-.319.37.37,0,0,0-.382.319Z" transform="translate(-173.882 -100.533)" fill="#fff"/>
          <path id="Trazado_42640" data-name="Trazado 42640" d="M212.913,113.8a.866.866,0,0,1-.336.068.451.451,0,0,1-.481-.515v-.618h-.242v-.33h.242v-.467h.379v.467h.422v.33h-.422v.618a.16.16,0,0,0,.177.182.351.351,0,0,0,.171-.04Z" transform="translate(-184.76 -97.62)" fill="#fff"/>
          <path id="Trazado_42641" data-name="Trazado 42641" d="M220.94,116.036a.73.73,0,0,1,.755-.76.759.759,0,0,1,.735.874H221.31a.375.375,0,0,0,.419.327.368.368,0,0,0,.35-.191l.339.1a.787.787,0,0,1-1.478-.35m1.131-.123a.353.353,0,0,0-.379-.319.37.37,0,0,0-.382.319Z" transform="translate(-192.684 -100.533)" fill="#fff"/>
          <path id="Trazado_42642" data-name="Trazado 42642" d="M236.288,115.914v.843h-.376v-.772c0-.219-.1-.359-.308-.359s-.348.165-.348.419v.712h-.376v-1.441h.376v.182a.573.573,0,0,1,.464-.222c.376,0,.567.253.567.638" transform="translate(-204.842 -100.533)" fill="#fff"/>
          <path id="Trazado_42643" data-name="Trazado 42643" d="M248.4,110.793a.225.225,0,1,1,.225.222.22.22,0,0,1-.225-.222m.031.424h.379v1.441h-.379Z" transform="translate(-216.631 -96.435)" fill="#fff"/>
          <path id="Trazado_42644" data-name="Trazado 42644" d="M256.839,115.9v.857h-.376v-.777c0-.217-.08-.353-.276-.353s-.3.151-.3.4v.735H255.5v-.777c0-.214-.077-.353-.27-.353s-.311.154-.311.407v.723h-.376v-1.441h.376v.171a.523.523,0,0,1,.427-.211.482.482,0,0,1,.433.216.6.6,0,0,1,.487-.216.55.55,0,0,1,.57.624" transform="translate(-221.992 -100.533)" fill="#fff"/>
          <path id="Trazado_42645" data-name="Trazado 42645" d="M274.99,110.793a.225.225,0,1,1,.225.222.22.22,0,0,1-.225-.222m.031.424h.379v1.441h-.379Z" transform="translate(-239.821 -96.435)" fill="#fff"/>
          <path id="Trazado_42646" data-name="Trazado 42646" d="M280.446,116.036a.73.73,0,0,1,.755-.76.7.7,0,0,1,.743.74.694.694,0,0,1-.009.134h-1.119a.376.376,0,0,0,.419.327.368.368,0,0,0,.35-.191l.339.1a.787.787,0,0,1-1.478-.35m1.131-.123a.353.353,0,0,0-.379-.319.371.371,0,0,0-.382.319Z" transform="translate(-244.579 -100.533)" fill="#fff"/>
          <path id="Trazado_42647" data-name="Trazado 42647" d="M295.795,115.914v.843h-.376v-.772c0-.219-.1-.359-.308-.359s-.348.165-.348.419v.712h-.376v-1.441h.376v.182a.573.573,0,0,1,.464-.222c.376,0,.567.253.567.638" transform="translate(-256.738 -100.533)" fill="#fff"/>
          <path id="Trazado_42648" data-name="Trazado 42648" d="M308.1,113.8a.865.865,0,0,1-.336.068.451.451,0,0,1-.481-.515v-.618h-.242v-.33h.242v-.467h.379v.467h.422v.33h-.422v.618a.16.16,0,0,0,.177.182.35.35,0,0,0,.171-.04Z" transform="translate(-267.77 -97.62)" fill="#fff"/>
          <path id="Trazado_42649" data-name="Trazado 42649" d="M316.123,116.036a.771.771,0,1,1,.772.76.747.747,0,0,1-.772-.76m1.176,0a.4.4,0,1,0-.4.419.4.4,0,0,0,.4-.419" transform="translate(-275.694 -100.533)" fill="#fff"/>
          <path id="Trazado_42650" data-name="Trazado 42650" d="M335.61,110.793a.225.225,0,1,1,.225.222.22.22,0,0,1-.225-.222m.031.424h.379v1.441h-.379Z" transform="translate(-292.688 -96.435)" fill="#fff"/>
          <path id="Trazado_42651" data-name="Trazado 42651" d="M343.164,115.914v.843h-.376v-.772c0-.219-.1-.359-.308-.359s-.348.165-.348.419v.712h-.376v-1.441h.376v.182a.573.573,0,0,1,.464-.222c.376,0,.567.253.567.638" transform="translate(-298.049 -100.533)" fill="#fff"/>
          <path id="Trazado_42652" data-name="Trazado 42652" d="M356.407,110.6v2.079h-.379V112.5a.573.573,0,0,1-.464.216.762.762,0,0,1,0-1.521.571.571,0,0,1,.464.214V110.6Zm-.368,1.356a.406.406,0,0,0-.41-.421.425.425,0,0,0,0,.849.409.409,0,0,0,.41-.427" transform="translate(-309.469 -96.454)" fill="#fff"/>
          <path id="Trazado_42653" data-name="Trazado 42653" d="M369.216,116.036a.73.73,0,0,1,.755-.76.759.759,0,0,1,.735.874h-1.119a.375.375,0,0,0,.419.327.367.367,0,0,0,.35-.191l.339.1a.787.787,0,0,1-1.478-.35m1.131-.123a.353.353,0,0,0-.379-.319.37.37,0,0,0-.382.319Z" transform="translate(-321.996 -100.533)" fill="#fff"/>
          <path id="Trazado_42654" data-name="Trazado 42654" d="M384.709,116.036a.722.722,0,0,1-.709.76.579.579,0,0,1-.467-.216v.775h-.376v-2.039h.376v.174a.577.577,0,0,1,.467-.214.72.72,0,0,1,.709.76m-.37,0a.4.4,0,0,0-.4-.422.425.425,0,0,0,0,.849.4.4,0,0,0,.4-.427" transform="translate(-334.154 -100.533)" fill="#fff"/>
          <path id="Trazado_42655" data-name="Trazado 42655" d="M396.831,116.036a.73.73,0,0,1,.755-.76.76.76,0,0,1,.735.874H397.2a.375.375,0,0,0,.419.327.368.368,0,0,0,.35-.191l.339.1a.787.787,0,0,1-1.478-.35m1.131-.123a.353.353,0,0,0-.379-.319.37.37,0,0,0-.382.319Z" transform="translate(-346.079 -100.533)" fill="#fff"/>
          <path id="Trazado_42656" data-name="Trazado 42656" d="M412.18,115.914v.843H411.8v-.772c0-.219-.1-.359-.308-.359s-.347.165-.347.419v.712h-.376v-1.441h.376v.182a.572.572,0,0,1,.464-.222c.376,0,.567.253.567.638" transform="translate(-358.238 -100.533)" fill="#fff"/>
          <path id="Trazado_42657" data-name="Trazado 42657" d="M425.422,110.6v2.079h-.379V112.5a.573.573,0,0,1-.464.216.762.762,0,0,1,0-1.521.571.571,0,0,1,.464.214V110.6Zm-.367,1.356a.406.406,0,0,0-.41-.421.425.425,0,0,0,0,.849.409.409,0,0,0,.41-.427" transform="translate(-369.658 -96.454)" fill="#fff"/>
          <path id="Trazado_42658" data-name="Trazado 42658" d="M438.655,110.793a.225.225,0,1,1,.225.222.22.22,0,0,1-.225-.222m.031.424h.379v1.441h-.379Z" transform="translate(-382.554 -96.435)" fill="#fff"/>
          <path id="Trazado_42659" data-name="Trazado 42659" d="M444.112,116.036a.73.73,0,0,1,.755-.76.76.76,0,0,1,.735.874h-1.119a.375.375,0,0,0,.419.327.368.368,0,0,0,.35-.191l.339.1a.787.787,0,0,1-1.478-.35m1.131-.123a.353.353,0,0,0-.379-.319.37.37,0,0,0-.382.319Z" transform="translate(-387.314 -100.533)" fill="#fff"/>
          <path id="Trazado_42660" data-name="Trazado 42660" d="M459.46,115.914v.843h-.376v-.772c0-.219-.1-.359-.308-.359s-.347.165-.347.419v.712h-.376v-1.441h.376v.182a.572.572,0,0,1,.464-.222c.376,0,.567.253.567.638" transform="translate(-399.472 -100.533)" fill="#fff"/>
          <path id="Trazado_42661" data-name="Trazado 42661" d="M471.762,113.8a.865.865,0,0,1-.336.068.451.451,0,0,1-.481-.515v-.618H470.7v-.33h.242v-.467h.379v.467h.421v.33h-.421v.618a.16.16,0,0,0,.176.182.352.352,0,0,0,.171-.04Z" transform="translate(-410.504 -97.62)" fill="#fff"/>
          <path id="Trazado_42662" data-name="Trazado 42662" d="M479.789,116.036a.73.73,0,0,1,.755-.76.759.759,0,0,1,.735.874h-1.119a.375.375,0,0,0,.419.327.368.368,0,0,0,.35-.191l.339.1a.787.787,0,0,1-1.478-.35m1.131-.123a.353.353,0,0,0-.379-.319.37.37,0,0,0-.382.319Z" transform="translate(-418.428 -100.533)" fill="#fff"/>
        </g>
      </g>
    </g>
  </g>
</svg>
