<svg id="Grupo_32687" data-name="Grupo 32687" xmlns="http://www.w3.org/2000/svg" xmlns:xlink="http://www.w3.org/1999/xlink" width="122.262" height="73.798" viewBox="0 0 122.262 73.798">
  <defs>
    <clipPath id="clip-path">
      <rect id="Rect치ngulo_10197" data-name="Rect치ngulo 10197" width="75.376" height="46.924" fill="none"/>
    </clipPath>
  </defs>
  <rect id="Rect치ngulo_18532" data-name="Rect치ngulo 18532" width="122.262" height="73.798" rx="5" transform="translate(0)" fill="none"/>
  <g id="paramount_Blanco" data-name="paramount + Blanco" transform="translate(23.131 13.218)">
    <g id="paramount_Blanco-2" data-name="paramount + Blanco" transform="translate(0 0)" clip-path="url(#clip-path)">
      <path id="Trazado_25772" data-name="Trazado 25772" d="M364.312,247.728c-.182-.074-.488-.422.017-1.366L365.5,243.9c.033-.074-.05-.166-.107-.108l-1.026,1.035a17.726,17.726,0,0,0-1.473,2.193l-1.241,2.069a.166.166,0,0,1,.149.248l-1.142,1.912c-.281.472.224.811.29.7,1.788-2.889,2.831-2.657,2.831-2.657l.6-1.382a.142.142,0,0,0,0-.111.141.141,0,0,0-.078-.079" transform="translate(-330.733 -223.601)" fill="#fff"/>
      <path id="Trazado_25773" data-name="Trazado 25773" d="M249.348,0a18.549,18.549,0,0,0-14.923,29.564,3.869,3.869,0,0,0,1.523-1.225l3.451-4.42a.7.7,0,0,1,.273-.215l.521-.223,5.678-7.2.828-.646,1.689-2.359a.7.7,0,0,1,.157-.157l.737-.538a.53.53,0,0,1,.612-.008l.894.629a3.518,3.518,0,0,1,1.134,1.308l3.592,6.307a.563.563,0,0,0,.281.273,4.927,4.927,0,0,1,2.053,1.415c.43.463,2.309,2.574,4.949,5.843a3.741,3.741,0,0,0,1.49,1.208A18.551,18.551,0,0,0,249.348,0M235.8,19.574l-1.2-.389-.745,1.026V18.945l-1.2-.389,1.2-.389V16.893l.745,1.026,1.2-.389-.745,1.026Zm-.281,4.138-.389,1.2-.389-1.2h-1.266l1.026-.745-.4-1.2,1.026.745,1.026-.745-.389,1.2,1.026.745Zm.24-9.576.389,1.2-1.026-.745-1.026.745.389-1.2-1.026-.745h1.266l.389-1.2.389,1.2h1.266Zm2.028-2.723-.745-1.026-1.2.389.745-1.026-.745-1.026,1.2.389.745-1.026V9.353l1.2.389-1.2.389Zm3.162-4.428-.389,1.208-.389-1.208H238.9l1.026-.745-.389-1.2,1.026.745,1.026-.745-.389,1.2,1.026.745Zm3.981-2.028-.745,1.026V4.718l-1.2-.389,1.2-.389V2.673l.745,1.026,1.2-.389-.745,1.026.745,1.026ZM249.977,3.8l.389,1.2-1.026-.745L248.313,5l.389-1.2-1.026-.745h1.266l.389-1.2.389,1.2h1.266Zm4.536.919V5.984l-.745-1.026-1.2.389.745-1.026-.745-1.026,1.2.389.745-1.026V3.94l1.2.389ZM262.9,17.53l1.2.389.745-1.026v1.266l1.2.389-1.2.389V20.2l-.745-1.026-1.2.389.745-1.026Zm-4.759-9.336-.389-1.2h-1.266l1.026-.745-.389-1.2,1.026.745,1.026-.745-.389,1.2,1.026.745h-1.275Zm2.773,3.22V10.147l-1.2-.389,1.2-.389V8.1l.745,1.026,1.2-.389-.745,1.026.745,1.026-1.2-.389Zm2.268,1.978.389-1.2.389,1.2h1.266l-1.026.745.389,1.2-1.026-.745-1.026.745.389-1.2-1.026-.745Zm.778,10.321-.381,1.2-.389-1.2H261.92l1.026-.745-.4-1.2,1.026.745,1.026-.745-.389,1.2,1.026.745Z" transform="translate(-211.697)" fill="#fff"/>
      <path id="Trazado_25774" data-name="Trazado 25774" d="M426.124,181.9a1.189,1.189,0,0,0-.041-1.142l-.819-2.21c-.116-.281.132-.455.3-.265a24.545,24.545,0,0,1,1.953,2.533l.761,1.266c.662.042,2.475.091,4.221.091a4.987,4.987,0,0,1-.488-.563c-2.98-3.7-4.875-5.761-4.892-5.777a3.341,3.341,0,0,0-1.349-.993l-.215-.1v.563a.068.068,0,0,1-.133.033l-4.387-7.706v-.025a2.469,2.469,0,0,0-.786-.91l-.43-.3-2.094,4.825a.455.455,0,0,1,.414.629l-1.937,4.469h1.771a5.274,5.274,0,0,1,2,.4l.472.19a14.772,14.772,0,0,0-1.415,4.436,3.176,3.176,0,0,0,.116.819H422.4l-.141-.9a34.736,34.736,0,0,0,3.865.637" transform="translate(-381.752 -152.628)" fill="#fff"/>
      <path id="Trazado_25775" data-name="Trazado 25775" d="M19.257,361.428c0-2.988-3.17-4.428-6.928-4.428-4.022,0-7.722,1.788-9.071,4.552a5.24,5.24,0,0,0-.571,2.375,3.575,3.575,0,0,0,.571,2.019,3.542,3.542,0,0,0,3.137,1.4c1.871,0,3.344-1.026,3.344-2.806a.488.488,0,0,0-.555-.5c-.579,0-.6.331-.579.5a2.207,2.207,0,0,1-2.243,2.516c-1.664,0-2.351-1.407-2.351-2.922,0-3.087,2.326-5.132,4.743-6.017A9.659,9.659,0,0,1,12.3,357.5c2.74,0,4.983,1.051,4.983,3.874a4.7,4.7,0,0,1-4.345,4.536l.1-.314a17.324,17.324,0,0,1,2.044-5.024,3.86,3.86,0,0,1,.265-.356l-.141-.166a5.759,5.759,0,0,0-.6.414c-4.536,3.542-4.676,13.5-10.718,13.5a4.669,4.669,0,0,1-.62-.041,2.114,2.114,0,0,1-1.921-2.227c0-.232.083-.555.083-.737a.6.6,0,0,0-.6-.621H.767c-.538,0-.761.431-.778,1.035-.041,1.755,1.258,2.781,3.261,2.971.223.017.439.025.679.025,4.718,0,7.606-3.567,8.84-7.9a10.382,10.382,0,0,0,1.837-.389c2.185-.612,4.651-2.078,4.651-4.66" transform="translate(0.011 -327.452)" fill="#fff"/>
      <path id="Trazado_25776" data-name="Trazado 25776" d="M230.208,423.1h-1.655l-.381.869-.654,1.465h-.778l-.232.5h.8l-.96,2.144c-.7,1.506-1.771,2.988-2.392,2.988-.141,0-.224-.058-.224-.19a1.968,1.968,0,0,1,.19-.654c.149-.389.513-1.117.745-1.606a7.885,7.885,0,0,0,.9-2.334.933.933,0,0,0-1.026-.968,3.185,3.185,0,0,0-2.086,1.117l.414-.993h-1.556l-1.275,2.9c-.513,1.026-1.548,2.723-2.2,2.723-.141,0-.19-.083-.19-.224a1.164,1.164,0,0,1,.1-.356l.819-1.912,1.374-3.162h-1.688l-1.341,3.079c-.414.952-1.465,2.574-2.144,2.574a.215.215,0,0,1-.232-.19v-.058a2.307,2.307,0,0,1,.224-.7l.7-1.548,1.448-3.162h-1.672l-.331.72a1.623,1.623,0,0,1-1.324,1.051.558.558,0,0,1-.538-.248,1.649,1.649,0,0,0-1.771-1.63,3.577,3.577,0,0,0-3.013,1.813,9.264,9.264,0,0,0-.993,2.2c-.6.985-1.217,1.747-1.713,1.747-.124,0-.207-.066-.207-.232a2.72,2.72,0,0,1,.224-.679l1.076-2.342a4.557,4.557,0,0,0,.513-1.664.853.853,0,0,0-.91-.861,3.329,3.329,0,0,0-2.326,1.2,1.583,1.583,0,0,0,.025-.356.746.746,0,0,0-.844-.844,3.009,3.009,0,0,0-2.144,1.2l.439-1.076H199.89l-1.283,2.905c-.612,1.366-1.589,2.723-2.144,2.723-.124,0-.207-.066-.207-.232a7.286,7.286,0,0,1,.4-1.175l1.705-3.857c.124-.29-.7-.472-1.73-.472a4.941,4.941,0,0,0-2.963,1.2,2.675,2.675,0,0,1-1.192.7c-.207,0-.149-.058-.149-.124,0-.232.571-.9.571-1.407,0-.232-.124-.389-.447-.389a3,3,0,0,0-1.854,1.192l.439-1.068h-1.49l-1.283,2.905c-.613,1.366-1.622,2.8-2.169,2.8-.124,0-.207-.066-.207-.232a5.987,5.987,0,0,1,.43-1.233l1.705-3.874c.124-.29-.7-.472-1.73-.472a5.112,5.112,0,0,0-3.816,2.1,6.755,6.755,0,0,0-1.481,3.36,1.133,1.133,0,0,0,1.233,1.3,3.11,3.11,0,0,0,2.1-1.283,2.758,2.758,0,0,0-.058.331c0,.555.224.952.9.952a2.873,2.873,0,0,0,2.02-1.283l-.513,1.175h1.614l1.589-3.609c.53-1.175,1.117-1.788,1.283-1.788s.083.025.083.066a2.477,2.477,0,0,0-.248.761c0,.306.166.538.612.538a1.813,1.813,0,0,0,1.076-.389,5.959,5.959,0,0,0-1.366,3.22,1.133,1.133,0,0,0,1.233,1.3,3.275,3.275,0,0,0,2.127-1.382,3.377,3.377,0,0,0-.025.389.9.9,0,0,0,.927.993c.621,0,1.242-.43,1.937-1.275l-.513,1.159h1.664L200.2,428.5c.662-1.49,1.564-2.293,2-2.293a.2.2,0,0,1,.223.182v.042a1.49,1.49,0,0,1-.141.48l-2.185,5.049h1.7l1.548-3.509c.662-1.506,1.4-2.243,1.953-2.243.166,0,.232.083.232.265a1.507,1.507,0,0,1-.149.554l-1.5,3.178a2.95,2.95,0,0,0-.248.969c0,.488.265.91,1.01.91.968,0,1.705-.737,2.533-1.829v.232a1.644,1.644,0,0,0,1.837,1.63c1.523,0,2.756-1.051,3.5-2.723a5.9,5.9,0,0,0,.538-1.871,1.052,1.052,0,0,0,.538.108,1.458,1.458,0,0,0,.72-.182l-.265.571c-.306.637-.637,1.341-.9,1.937a3.119,3.119,0,0,0-.29,1.117.935.935,0,0,0,1.01,1.026,3.4,3.4,0,0,0,2.268-1.54h.017a2.555,2.555,0,0,0-.066.571c0,.5.149.969.844.969a3.049,3.049,0,0,0,2.036-1.316l-.513,1.159h1.672l1.341-3.046c.762-1.713,1.523-2.756,2.226-2.756a.232.232,0,0,1,.232.207v.041a8.845,8.845,0,0,1-.786,1.871c-.372.795-.613,1.275-.786,1.705a3.253,3.253,0,0,0-.29,1.15.857.857,0,0,0,.944.927,3.691,3.691,0,0,0,2.475-1.647,3.441,3.441,0,0,0-.19,1.051,1.313,1.313,0,0,0,1.4,1.457,2.592,2.592,0,0,0,1.506-.5,6.9,6.9,0,0,0,1.581-1.713l-.29-.273a6.175,6.175,0,0,1-1.3,1.44,1.406,1.406,0,0,1-.861.331c-.348,0-.571-.182-.571-.621a5.693,5.693,0,0,1,.53-1.838c.017-.016.472-1.034.9-2.019.356-.828.72-1.631.786-1.8h1.093l.223-.5h-1.076Zm-47.177,7.979c-.232,0-.4-.083-.4-.389a7.632,7.632,0,0,1,1.539-3.427,2.953,2.953,0,0,1,2.2-1.4l-1.051,2.351c-.786,1.771-1.647,2.864-2.284,2.864m10.346,0a.359.359,0,0,1-.414-.389,7.631,7.631,0,0,1,1.539-3.427,2.953,2.953,0,0,1,2.2-1.4l-1.068,2.351c-.8,1.812-1.614,2.864-2.268,2.864m18.366-4.577a10.963,10.963,0,0,1-1.755,4.37c-.373.521-.7.679-.968.679s-.5-.314-.439-.786a10.6,10.6,0,0,1,1.7-4.039c.43-.6.72-.844,1.051-.844s.43.273.414.621" transform="translate(-166.014 -388.081)" fill="#fff"/>
      <path id="Trazado_25777" data-name="Trazado 25777" d="M794.874,412.318,796.4,408.8h-1.8l-1.523,3.518h-3.832l-.637,1.473h3.832l-1.523,3.517h1.8l1.523-3.517h3.832l.637-1.473Z" transform="translate(-723.33 -374.965)" fill="#fff"/>
    </g>
  </g>
</svg>
