<svg xmlns="http://www.w3.org/2000/svg" width="121.114" height="73.105" viewBox="0 0 121.114 73.105">
  <g id="Grupo_34433" data-name="Grupo 34433" transform="translate(-9718 -4865)">
    <rect id="Rectángulo_18532" data-name="Rectángulo 18532" width="121.115" height="73.106" rx="5" transform="translate(9718 4865)" fill="none"/>
    <g id="Grupo_34432" data-name="Grupo 34432" transform="translate(9736 4884)">
      <g id="Grupo_32029" data-name="Grupo 32029" transform="translate(58.693 32.446)">
        <g id="Grupo_32028" data-name="Grupo 32028">
          <path id="Trazado_85296" data-name="Trazado 85296" d="M254.223,369.418l1.029.339a2.171,2.171,0,0,1-.326.788,1.451,1.451,0,0,1-.554.478,1.91,1.91,0,0,1-.84.161,2.274,2.274,0,0,1-1.013-.2,1.666,1.666,0,0,1-.677-.69,2.5,2.5,0,0,1-.285-1.266,2.271,2.271,0,0,1,.5-1.579,2.128,2.128,0,0,1,2.548-.236,1.868,1.868,0,0,1,.61.972l-1.037.252a1.015,1.015,0,0,0-.113-.277.7.7,0,0,0-.241-.226.644.644,0,0,0-.319-.079.678.678,0,0,0-.612.35,1.6,1.6,0,0,0-.16.816,1.661,1.661,0,0,0,.192.945.633.633,0,0,0,.538.254.626.626,0,0,0,.51-.206A1.336,1.336,0,0,0,254.223,369.418Z" transform="translate(-251.557 -366.9)" fill="#fff"/>
          <path id="Trazado_85297" data-name="Trazado 85297" d="M255.4,366.962h1.176v4.144H255.4Z" transform="translate(-251.037 -366.892)" fill="#fff"/>
          <path id="Trazado_85298" data-name="Trazado 85298" d="M257.233,366.962h1.1l1.431,2.292v-2.292h1.106v4.144h-1.106l-1.423-2.275v2.275h-1.1Z" transform="translate(-250.788 -366.892)" fill="#fff"/>
          <path id="Trazado_85299" data-name="Trazado 85299" d="M261.164,366.962h3.145v.886H262.34v.659h1.827v.845H262.34v.816h2.027v.939h-3.2Z" transform="translate(-250.256 -366.892)" fill="#fff"/>
          <path id="Trazado_85300" data-name="Trazado 85300" d="M266.182,366.962h1.544l.595,2.522.592-2.522h1.543v4.144h-.962v-3.16l-.74,3.16h-.871l-.739-3.16v3.16h-.962Z" transform="translate(-249.577 -366.892)" fill="#fff"/>
          <path id="Trazado_85301" data-name="Trazado 85301" d="M270.438,366.962h1.293l.672,1.275.654-1.275h1.281l-1.183,2.007,1.294,2.137H273.13l-.751-1.332-.749,1.332h-1.311l1.31-2.16Z" transform="translate(-249.017 -366.892)" fill="#fff"/>
        </g>
      </g>
      <g id="Grupo_32031" data-name="Grupo 32031" transform="translate(0 0)">
        <g id="Grupo_32030" data-name="Grupo 32030">
          <path id="Trazado_85302" data-name="Trazado 85302" d="M210.242,343.849a3.461,3.461,0,0,1-1.214,2.772A4.5,4.5,0,0,1,206,347.657a4.437,4.437,0,0,1-1.494-.225l.627,2.873-4.242.481-1.028-11.259a16.291,16.291,0,0,1,1.743-.337,13.415,13.415,0,0,1,1.839-.128,8.877,8.877,0,0,1,4.852,1.157A4.057,4.057,0,0,1,210.242,343.849Zm-3.84-1.14a1.065,1.065,0,0,0-.4-.852,1.52,1.52,0,0,0-1.012-.337,2.5,2.5,0,0,0-.707.128v3.261a4.64,4.64,0,0,0,1.51-.85A1.776,1.776,0,0,0,206.4,342.709Z" transform="translate(-199.863 -338.223)" fill="#fff"/>
          <path id="Trazado_85303" data-name="Trazado 85303" d="M213.984,350.551l-3.919.5V339.229l3.919-.337Z" transform="translate(-198.482 -338.246)" fill="#fff"/>
          <path id="Trazado_85304" data-name="Trazado 85304" d="M222.912,349.5a5.1,5.1,0,0,1-1.494,1.052,4.27,4.27,0,0,1-1.719.329,4.757,4.757,0,0,1-3.7-1.7,6.037,6.037,0,0,1-1.5-4.153,7.4,7.4,0,0,1,1.222-4.337,3.941,3.941,0,0,1,3.357-1.864,8.6,8.6,0,0,1,1.189.057,4.572,4.572,0,0,1,1.013.345v4.5a1.682,1.682,0,0,0-.932-.241,2.343,2.343,0,0,0-1.342.385,1.214,1.214,0,0,0-.57,1.06,1.129,1.129,0,0,0,.53.932,2.154,2.154,0,0,0,1.3.386,2,2,0,0,0,.715-.12,1.072,1.072,0,0,0,.522-.459Z" transform="translate(-197.882 -338.254)" fill="#fff"/>
          <path id="Trazado_85305" data-name="Trazado 85305" d="M233.328,349.331l-3.55,2.041-1.253-2.683-1.976.561L225.3,351.7l-3.373-1.976L226,338.323l2.748.819Zm-4.8-2.682-1.189-4.161-1.012,4.161Z" transform="translate(-196.876 -338.323)" fill="#fff"/>
          <path id="Trazado_85306" data-name="Trazado 85306" d="M243,347.241l-3.389,3.789-3.952-4.366-.916,3.9h-2.3l-.353-11.037a5.288,5.288,0,0,1,1.6-.627,8.717,8.717,0,0,1,2-.225,6.722,6.722,0,0,1,3.55.836,2.777,2.777,0,0,1,1.462,2.474,2.849,2.849,0,0,1-.595,1.743,5.257,5.257,0,0,1-1.687,1.406Zm-5.96-4.4a1.066,1.066,0,0,0-.418-.836,1.427,1.427,0,0,0-.948-.353,1.078,1.078,0,0,0-.562.162l.369,2.408h.274a1.209,1.209,0,0,0,.9-.4A1.366,1.366,0,0,0,237.044,342.841Z" transform="translate(-195.499 -338.275)" fill="#fff"/>
          <path id="Trazado_85307" data-name="Trazado 85307" d="M253.26,345.038a4.7,4.7,0,0,1-2.378,3.9,9.054,9.054,0,0,1-5.253,1.591,8.33,8.33,0,0,1-1.045-.063,4.973,4.973,0,0,1-.932-.209L241.9,339.9a9.686,9.686,0,0,1,4.595-1.189,7.544,7.544,0,0,1,4.4,1.157,5.209,5.209,0,0,1,1.928,2.57A7.618,7.618,0,0,1,253.26,345.038Zm-3.39-.771a1.627,1.627,0,0,0,.033-.321,1,1,0,0,0-.451-.852,4.144,4.144,0,0,0-2.345-.5l.225,3.583a2.955,2.955,0,0,0,1.767-.554A1.631,1.631,0,0,0,249.869,344.267Z" transform="translate(-194.171 -338.271)" fill="#fff"/>
          <path id="Trazado_85308" data-name="Trazado 85308" d="M256.773,350.551l-3.92.5V339.229l3.92-.337Z" transform="translate(-192.688 -338.246)" fill="#fff"/>
          <path id="Trazado_85309" data-name="Trazado 85309" d="M268.221,349.331l-3.55,2.041-1.254-2.683-1.976.561-1.254,2.455-3.373-1.976,4.081-11.406,2.747.819Zm-4.8-2.682-1.189-4.161-1.012,4.161Z" transform="translate(-192.152 -338.323)" fill="#fff"/>
        </g>
      </g>
      <g id="Grupo_32033" data-name="Grupo 32033" transform="translate(0.017 15.628)">
        <g id="Grupo_32032" data-name="Grupo 32032">
          <path id="Trazado_85310" data-name="Trazado 85310" d="M211.349,352.525l-2.908,12.547-5.109-6.759v5.3l-3.454-1.141.225-8.241,3.695-1.141,2.764,5.382V353.75Z" transform="translate(-199.878 -352.028)" fill="#fff"/>
          <path id="Trazado_85311" data-name="Trazado 85311" d="M221.033,363.674l-3.534-.081-.867-2.94h-1.559l-.481,2.76-4.483.995,2.764-12.321,4.321.739Zm-4.483-4.659-1.559-4.081-.787,4Z" transform="translate(-198.493 -352.087)" fill="#fff"/>
          <path id="Trazado_85312" data-name="Trazado 85312" d="M228.444,362.607a5.868,5.868,0,0,1-4.016,1.772,4.189,4.189,0,0,1-3.286-1.545,5.743,5.743,0,0,1-1.342-3.909,6.226,6.226,0,0,1,1.616-4.319,4.939,4.939,0,0,1,3.783-1.794,5.128,5.128,0,0,1,1.092.1,3.689,3.689,0,0,1,.98.4l-1.494,2.6a1.68,1.68,0,0,0-1.221-.611,1.51,1.51,0,0,0-1.253.787,3.408,3.408,0,0,0-.53,1.945,1.7,1.7,0,0,0,.5,1.284,1.791,1.791,0,0,0,1.3.483,2.017,2.017,0,0,0,1.991-1.447Z" transform="translate(-197.181 -351.989)" fill="#fff"/>
          <path id="Trazado_85313" data-name="Trazado 85313" d="M238.216,355.525l-3.117.065q-.192,2.045-.305,3.18t-.209,1.6c.439.053.8.092,1.084.112s.785.033,1.5.033l-.112,3.735h-.241q-.9,0-4.065-.305t-4.915-.53q0-.737.056-1.445a11.437,11.437,0,0,1,.217-1.462h2.33v-.674c0-.246,0-.514.016-.8q0-1.2-.024-1.911t-.12-1.446l-1.961.209-.225-2.446,10.089-1Z" transform="translate(-196.092 -352.039)" fill="#fff"/>
          <path id="Trazado_85314" data-name="Trazado 85314" d="M249.4,358.452a4.9,4.9,0,0,1-1.856,3.9,6.619,6.619,0,0,1-4.41,1.566,5.549,5.549,0,0,1-3.968-1.558,5.073,5.073,0,0,1-1.638-3.824,6.778,6.778,0,0,1,1.575-4.5,5.079,5.079,0,0,1,4.032-1.944v.434a6.288,6.288,0,0,1,4.676,1.687A5.764,5.764,0,0,1,249.4,358.452Zm-3.921.66a2.15,2.15,0,0,0-.434-1.382,1.766,1.766,0,0,0-1.462-.643l-.45.048v-.321a2.149,2.149,0,0,0-1.325.836,2.641,2.641,0,0,0-.49,1.622,1.992,1.992,0,0,0,.66,1.526,2.335,2.335,0,0,0,1.654.611,1.647,1.647,0,0,0,1.341-.619A2.573,2.573,0,0,0,245.482,359.111Z" transform="translate(-194.78 -352.087)" fill="#fff"/>
          <path id="Trazado_85315" data-name="Trazado 85315" d="M260.25,352.525l-2.908,12.547-5.109-6.759v5.3l-3.454-1.141.225-8.241,3.695-1.141,2.764,5.382V353.75Z" transform="translate(-193.257 -352.028)" fill="#fff"/>
          <path id="Trazado_85316" data-name="Trazado 85316" d="M269.934,363.674l-3.534-.081-.867-2.94h-1.559l-.481,2.76-4.483.995,2.764-12.321,4.321.739Zm-4.483-4.659-1.559-4.081-.787,4Z" transform="translate(-191.872 -352.087)" fill="#fff"/>
          <path id="Trazado_85317" data-name="Trazado 85317" d="M276.609,364.059l-7.246.321-.321-11.17,4.643-.4-.787,8.085,3.712-.176Z" transform="translate(-190.513 -351.989)" fill="#fff"/>
        </g>
      </g>
    </g>
  </g>
</svg>
