<svg xmlns="http://www.w3.org/2000/svg" xmlns:xlink="http://www.w3.org/1999/xlink" width="372.416" height="100.265" viewBox="0 0 372.416 100.265">
  <defs>
    <clipPath id="clip-path">
      <rect id="Rectángulo_9933" data-name="Rectángulo 9933" width="59.194" height="15.904" fill="rgba(0,0,0,0)"/>
    </clipPath>
    <clipPath id="clip-path-2">
      <rect id="Rectángulo_18610" data-name="Rectángulo 18610" width="42.474" height="26.582" fill="#fff"/>
    </clipPath>
    <clipPath id="clip-path-3">
      <rect id="Rectángulo_10197" data-name="Rectángulo 10197" width="50.812" height="31.632" fill="none"/>
    </clipPath>
    <clipPath id="clip-path-4">
      <rect id="Rectángulo_22890" data-name="Rectángulo 22890" width="34.881" height="36.95" fill="none"/>
    </clipPath>
  </defs>
  <g id="Grupo_35098" data-name="Grupo 35098" transform="translate(-8487.936 -6121)">
    <g id="Grupo_35096" data-name="Grupo 35096" transform="translate(8487.936 6121)">
      <g id="Grupo_32720" data-name="Grupo 32720" transform="translate(193.643)">
        <rect id="Rectángulo_18532" data-name="Rectángulo 18532" width="81.646" height="49.282" rx="5" transform="translate(0 0)" fill="none"/>
        <g id="Netflix_Logo_CMYK" transform="translate(11.031 16.918)">
          <g id="Netflix_Logo_CMYK-2" data-name="Netflix_Logo_CMYK" transform="translate(0 0)" clip-path="url(#clip-path)">
            <path id="Trazado_25345" data-name="Trazado 25345" d="M45.717,14.431q1.249.1,2.493.207V0H45.717ZM5.617,9,2.369,0H0V15.9q1.244-.178,2.493-.34V6.915L5.38,15.207q1.361-.158,2.729-.3V0H5.617Zm4.891,5.679q3.447-.311,6.923-.514v-2.46q-2.223.129-4.43.3V8.292c.967-.008,2.24-.037,3.364-.025V5.812c-.9,0-2.348.012-3.364.025V2.481h4.43V0H10.507Zm8.52-12.2h2.609V13.967q1.244-.046,2.493-.079V2.481h2.609V0H19.028Zm9.308,11.337h2.493V8.147H34.21V5.691H30.829V2.481h4.463V0H28.336ZM59.194,0H56.456l-1.8,4.185L53.03,0h-2.7l2.9,7.475-3.165,7.334q1.311.129,2.622.274l1.842-4.264,1.821,4.7q1.423.183,2.841.386h0L55.95,7.529ZM39.387,0H36.894V13.942q3.4.116,6.77.34V11.826q-2.132-.141-4.277-.241Z" fill="#fff"/>
          </g>
        </g>
      </g>
      <g id="Grupo_32721" data-name="Grupo 32721" transform="translate(0)">
        <rect id="Rectángulo_18532-2" data-name="Rectángulo 18532" width="81.646" height="49.282" rx="5" transform="translate(0 0)" fill="none"/>
        <g id="Grupo_20453" data-name="Grupo 20453" transform="translate(19.859 11.033)" clip-path="url(#clip-path-2)">
          <path id="Trazado_43170" data-name="Trazado 43170" d="M1.11,24.444a.45.45,0,0,1-.31-.09.42.42,0,0,1-.1-.318V13.159a.42.42,0,0,1,.1-.318.45.45,0,0,1,.31-.09H2.284a.421.421,0,0,1,.456.359l.114.424a3.607,3.607,0,0,1,1.182-.75,3.776,3.776,0,0,1,1.411-.277,3.027,3.027,0,0,1,2.5,1.158A4.89,4.89,0,0,1,8.872,16.8a5.705,5.705,0,0,1-.456,2.365,3.7,3.7,0,0,1-1.24,1.557,3.057,3.057,0,0,1-1.794.546,3.813,3.813,0,0,1-1.272-.212,3.058,3.058,0,0,1-1.027-.587v3.571a.446.446,0,0,1-.09.318.446.446,0,0,1-.318.09ZM4.681,19.47a1.527,1.527,0,0,0,1.345-.62,3.479,3.479,0,0,0,.432-1.957,3.571,3.571,0,0,0-.424-1.973,1.524,1.524,0,0,0-1.354-.62,3.1,3.1,0,0,0-1.6.44V19.03a3,3,0,0,0,1.6.44" transform="translate(-0.501 -8.92)" fill="#fff"/>
          <path id="Trazado_43171" data-name="Trazado 43171" d="M35.158,21.49a.352.352,0,0,1-.408-.408V13.565a.42.42,0,0,1,.1-.318.45.45,0,0,1,.31-.09h1.174a.422.422,0,0,1,.457.359L37,14.4a4.652,4.652,0,0,1,1.231-1.019,2.627,2.627,0,0,1,1.231-.3h.228a.478.478,0,0,1,.326.09.419.419,0,0,1,.1.318v1.37a.449.449,0,0,1-.089.31.419.419,0,0,1-.318.1q-.114,0-.293-.016c-.12-.011-.272-.016-.457-.016a4.864,4.864,0,0,0-.913.106,4.487,4.487,0,0,0-.913.269v5.479a.451.451,0,0,1-.09.31.42.42,0,0,1-.318.1Z" transform="translate(-24.783 -9.325)" fill="#fff"/>
          <path id="Trazado_43172" data-name="Trazado 43172" d="M58.213,2.544a1.417,1.417,0,0,1-.995-.342,1.2,1.2,0,0,1-.375-.93,1.2,1.2,0,0,1,.375-.93,1.616,1.616,0,0,1,1.989,0,1.2,1.2,0,0,1,.375.93,1.2,1.2,0,0,1-.375.93,1.418,1.418,0,0,1-.994.342m-.783,9.621a.352.352,0,0,1-.408-.408V4.24a.419.419,0,0,1,.1-.318.45.45,0,0,1,.31-.09H59a.445.445,0,0,1,.318.09.445.445,0,0,1,.09.318v7.518a.449.449,0,0,1-.09.31.419.419,0,0,1-.318.1Z" transform="translate(-40.539 0)" fill="#fff"/>
          <path id="Trazado_43173" data-name="Trazado 43173" d="M73.215,21.084a.352.352,0,0,1-.408-.408V13.159a.42.42,0,0,1,.1-.318.45.45,0,0,1,.31-.09h1.174a.421.421,0,0,1,.456.359l.131.44a7.032,7.032,0,0,1,1.557-.807,4.387,4.387,0,0,1,1.427-.237,2.194,2.194,0,0,1,2.071,1.043,6.678,6.678,0,0,1,1.566-.8,4.759,4.759,0,0,1,1.516-.245,2.374,2.374,0,0,1,1.769.636,2.42,2.42,0,0,1,.628,1.777v5.756a.45.45,0,0,1-.089.31.42.42,0,0,1-.318.1H83.537a.352.352,0,0,1-.408-.408V15.442q0-1.109-.994-1.109a4.134,4.134,0,0,0-1.778.424v5.92a.449.449,0,0,1-.09.31.419.419,0,0,1-.318.1H78.384a.352.352,0,0,1-.408-.408V15.442q0-1.109-.994-1.109a3.976,3.976,0,0,0-1.794.44v5.9a.45.45,0,0,1-.09.31.42.42,0,0,1-.318.1Z" transform="translate(-51.924 -8.92)" fill="#fff"/>
          <path id="Trazado_43174" data-name="Trazado 43174" d="M126.4,21.329A4.148,4.148,0,0,1,123.3,20.22a4.359,4.359,0,0,1-1.084-3.18,4.73,4.73,0,0,1,1.109-3.327,3.977,3.977,0,0,1,3.082-1.207,3.532,3.532,0,0,1,2.373.734,2.448,2.448,0,0,1,.856,1.957,2.1,2.1,0,0,1-.921,1.851,4.832,4.832,0,0,1-2.715.628,6.423,6.423,0,0,1-1.615-.179,2.214,2.214,0,0,0,.661,1.565,2.6,2.6,0,0,0,1.7.473,6.77,6.77,0,0,0,.889-.057,11.048,11.048,0,0,0,1.2-.252.612.612,0,0,1,.1-.025.513.513,0,0,1,.082-.008q.277,0,.277.375v.75a.676.676,0,0,1-.073.367.6.6,0,0,1-.286.188,7,7,0,0,1-2.528.457m-.538-5.12a2.215,2.215,0,0,0,1.207-.253.87.87,0,0,0,.375-.774q0-1.027-1.223-1.027-1.566,0-1.81,1.924a7.406,7.406,0,0,0,1.451.131" transform="translate(-87.158 -8.92)" fill="#fff"/>
          <path id="Trazado_43175" data-name="Trazado 43175" d="M38.392,65.715C33.742,69.146,27,70.971,21.2,70.971A31.121,31.121,0,0,1,.188,62.958c-.435-.393-.047-.93.476-.626a42.283,42.283,0,0,0,21.019,5.577,41.818,41.818,0,0,0,16.033-3.281c.786-.333,1.445.518.676,1.087" transform="translate(0 -44.389)" fill="#fff" fill-rule="evenodd"/>
          <path id="Trazado_43176" data-name="Trazado 43176" d="M126.133,61.426c-.595-.761-3.931-.361-5.431-.181-.454.055-.524-.342-.115-.63,2.662-1.87,7.023-1.33,7.531-.7s-.134,5-2.629,7.091c-.384.321-.749.149-.579-.274.562-1.4,1.818-4.54,1.223-5.3" transform="translate(-85.807 -42.309)" fill="#fff" fill-rule="evenodd"/>
        </g>
      </g>
      <g id="Grupo_32722" data-name="Grupo 32722" transform="translate(96.354)">
        <rect id="Rectángulo_18532-3" data-name="Rectángulo 18532" width="81.645" height="49.282" rx="5" transform="translate(0 0)" fill="none"/>
        <g id="Grupo_22155" data-name="Grupo 22155" transform="translate(7.357 19.124)">
          <path id="Trazado_42929" data-name="Trazado 42929" d="M60.485,25.8c0,.007,0,7.153,0,7.153a.183.183,0,0,1-.159.194h-.971a1.061,1.061,0,0,1-1.041-1.059V25.827a2.026,2.026,0,0,0-2.161-2.068A2.05,2.05,0,0,0,54,25.862v7.1a.175.175,0,0,1-.162.185h-.971a1.081,1.081,0,0,1-1.041-1.082v-6.23a2.16,2.16,0,0,0-4.317.007v7.13a.166.166,0,0,1-.162.176h-.971a1.042,1.042,0,0,1-1.037-1.041V25.828a4.069,4.069,0,0,1,4.324-4.212A4.349,4.349,0,0,1,52.906,22.9a4.354,4.354,0,0,1,3.244-1.294,4.068,4.068,0,0,1,4.335,4.2" transform="translate(-16.281 -21.602)" fill="#fff"/>
          <path id="Trazado_42930" data-name="Trazado 42930" d="M88.7,33.05a.086.086,0,0,1-.075.133l-1.734,0a1.231,1.231,0,0,1-1.154-.542l-1.775-2.618a.662.662,0,0,0-1.253,0l-1.775,2.618a1.23,1.23,0,0,1-1.154.542H78.047a.089.089,0,0,1-.073-.138L81.4,28a.893.893,0,0,0,0-.979l-3.422-5.052a.086.086,0,0,1,.073-.135h1.734a1.227,1.227,0,0,1,1.154.539L82.71,24.99a.663.663,0,0,0,1.253,0l1.775-2.618a1.228,1.228,0,0,1,1.154-.539h1.734a.088.088,0,0,1,.075.135l-3.423,5.052a.9.9,0,0,0,0,.979Z" transform="translate(-22.126 -21.642)" fill="#fff"/>
          <path id="Trazado_42931" data-name="Trazado 42931" d="M74.863,21.792h-.684a1.049,1.049,0,0,0-.908.523l-.253.441a5.226,5.226,0,0,0-3.31-1.15c-3.184,0-5.3,2.25-5.3,5.813,0,3.59,2.155,5.812,5.278,5.812a5.171,5.171,0,0,0,3.139-1.01,1.017,1.017,0,0,0,1.045.927h.992c.1,0,.175-.042.175-.139l0-11.043a.175.175,0,0,0-.175-.174m-5.2,9.275c-1.811,0-3.137-1.348-3.137-3.649s1.326-3.649,3.137-3.649S72.8,25.117,72.8,27.419s-1.326,3.649-3.137,3.649" transform="translate(-19.698 -21.602)" fill="#fff"/>
          <path id="Trazado_42932" data-name="Trazado 42932" d="M15.119,26.057h-2V21.833H9.937V33.188h3.18V28.782h2v4.406H18.2V21.833H15.119Z" transform="translate(-9.937 -21.643)" fill="#fff"/>
          <path id="Trazado_42933" data-name="Trazado 42933" d="M34.285,21.6a5.717,5.717,0,0,0-5.2,3.282,3.293,3.293,0,0,0-3.027-3.093H20.79V33.147H25.7a3.418,3.418,0,0,0,3.39-3.185,5.786,5.786,0,1,0,5.2-8.362m-9,8.9H23.726V28.583h1.561a.973.973,0,0,1,0,1.919m.006-4.264H23.732V24.319h1.561a.973.973,0,0,1,0,1.919m2.078,1.141a2.433,2.433,0,0,0,1.164-.715,5.257,5.257,0,0,0,.007,1.584,2.185,2.185,0,0,0-1.17-.869m6.915,2.891a2.891,2.891,0,1,1,2.891-2.891,2.891,2.891,0,0,1-2.891,2.891" transform="translate(-11.882 -21.601)" fill="#fff"/>
          <path id="Trazado_42934" data-name="Trazado 42934" d="M36.737,25.872a2.272,2.272,0,1,0,2.272,2.272,2.272,2.272,0,0,0-2.272-2.272" transform="translate(-14.333 -22.366)" fill="#fff"/>
        </g>
      </g>
      <g id="Grupo_32723" data-name="Grupo 32723" transform="translate(289.996 0)">
        <rect id="Rectángulo_18532-4" data-name="Rectángulo 18532" width="82.42" height="49.749" rx="5" transform="translate(0 0)" fill="none"/>
        <g id="paramount_Blanco" data-name="paramount + Blanco" transform="translate(15.593 8.91)">
          <g id="paramount_Blanco-2" data-name="paramount + Blanco" transform="translate(0 0)" clip-path="url(#clip-path-3)">
            <path id="Trazado_25772" data-name="Trazado 25772" d="M363.095,246.441c-.123-.05-.329-.285.011-.921l.792-1.657c.022-.05-.034-.112-.072-.073l-.692.7a11.956,11.956,0,0,0-.993,1.479l-.837,1.395a.112.112,0,0,1,.1.167l-.77,1.289c-.19.318.151.547.2.469,1.205-1.947,1.908-1.791,1.908-1.791l.4-.932a.1.1,0,0,0,0-.075.1.1,0,0,0-.053-.053" transform="translate(-340.459 -230.176)" fill="#fff"/>
            <path id="Trazado_25773" data-name="Trazado 25773" d="M243.3,0a12.5,12.5,0,0,0-10.06,19.93,2.608,2.608,0,0,0,1.027-.826l2.327-2.979a.474.474,0,0,1,.184-.145l.352-.151,3.828-4.854.558-.435,1.138-1.59a.473.473,0,0,1,.106-.106l.5-.363a.357.357,0,0,1,.413-.006l.6.424a2.372,2.372,0,0,1,.764.882l2.421,4.252a.379.379,0,0,0,.19.184,3.321,3.321,0,0,1,1.384.954c.29.312,1.557,1.735,3.337,3.939a2.522,2.522,0,0,0,1,.815A12.506,12.506,0,0,0,243.3,0M234.17,13.2l-.809-.262-.5.692v-.854l-.809-.262.809-.262v-.859l.5.692.809-.262-.5.692Zm-.19,2.79-.262.809-.262-.809H232.6l.692-.5-.268-.809.692.5.692-.5-.262.809.692.5Zm.162-6.455.262.809-.692-.5-.692.5.262-.809-.692-.5h.854l.262-.809.262.809h.854Zm1.367-1.836-.5-.692-.809.262.5-.692-.5-.692.809.262.5-.692V6.3l.809.262-.809.262Zm2.131-2.985-.262.815-.262-.815h-.854l.692-.5-.262-.809.692.5.692-.5-.262.809.692.5Zm2.684-1.367-.5.692V3.18l-.809-.262.809-.262V1.8l.5.692.809-.262-.5.692.5.692Zm3.4-.781.262.809-.692-.5-.692.5.262-.809-.692-.5h.854l.262-.809.262.809h.854Zm3.058.619v.854l-.5-.692-.809.262.5-.692-.5-.692.809.262.5-.692v.865l.809.262Zm5.652,8.637.809.262.5-.692v.854l.809.262-.809.262v.854l-.5-.692-.809.262.5-.692Zm-3.208-6.294-.262-.809h-.854l.692-.5-.262-.809.692.5.692-.5-.262.809.692.5H249.5Zm1.869,2.17V6.84l-.809-.262.809-.262V5.462l.5.692.809-.262-.5.692.5.692-.809-.262Zm1.529,1.333.262-.809.262.809H254l-.692.5.262.809-.692-.5-.692.5.262-.809-.692-.5Zm.524,6.958-.257.809-.262-.809h-.854l.692-.5-.268-.809.692.5.692-.5-.262.809.692.5Z" transform="translate(-217.922)" fill="#fff"/>
            <path id="Trazado_25774" data-name="Trazado 25774" d="M422.89,176.85a.8.8,0,0,0-.028-.77l-.552-1.49c-.078-.19.089-.307.2-.179a16.545,16.545,0,0,1,1.317,1.707l.513.854c.446.028,1.668.061,2.846.061a3.355,3.355,0,0,1-.329-.379c-2.009-2.494-3.286-3.883-3.3-3.894a2.252,2.252,0,0,0-.909-.67l-.145-.067v.379a.046.046,0,0,1-.089.022l-2.957-5.195v-.017a1.663,1.663,0,0,0-.53-.614l-.29-.2-1.412,3.253a.307.307,0,0,1,.279.424L416.2,173.09h1.194a3.555,3.555,0,0,1,1.35.268l.318.128a9.958,9.958,0,0,0-.954,2.991,2.142,2.142,0,0,0,.078.552h2.193l-.095-.608a23.423,23.423,0,0,0,2.606.43" transform="translate(-392.978 -157.116)" fill="#fff"/>
            <path id="Trazado_25775" data-name="Trazado 25775" d="M12.978,359.985c0-2.014-2.137-2.985-4.67-2.985-2.712,0-5.206,1.205-6.115,3.069a3.532,3.532,0,0,0-.385,1.6,2.41,2.41,0,0,0,.385,1.361,2.388,2.388,0,0,0,2.115.943c1.261,0,2.254-.692,2.254-1.891a.329.329,0,0,0-.374-.335c-.391,0-.4.223-.391.335a1.488,1.488,0,0,1-1.512,1.7c-1.121,0-1.585-.949-1.585-1.97a4.455,4.455,0,0,1,3.2-4.056,6.512,6.512,0,0,1,2.388-.419c1.847,0,3.359.709,3.359,2.611A3.168,3.168,0,0,1,8.715,363l.067-.212A11.679,11.679,0,0,1,10.16,359.4a2.614,2.614,0,0,1,.179-.24l-.095-.112a3.881,3.881,0,0,0-.4.279c-3.058,2.388-3.152,9.1-7.225,9.1A3.155,3.155,0,0,1,2.2,368.4,1.425,1.425,0,0,1,.9,366.9c0-.156.056-.374.056-.5a.407.407,0,0,0-.4-.418H.514c-.363,0-.513.29-.524.7-.028,1.183.848,1.875,2.2,2,.151.011.3.017.458.017,3.18,0,5.128-2.4,5.959-5.323a7,7,0,0,0,1.239-.262c1.473-.413,3.136-1.4,3.136-3.141" transform="translate(0.011 -337.081)" fill="#fff"/>
            <path id="Trazado_25776" data-name="Trazado 25776" d="M214.17,423.1h-1.116l-.257.586-.441.988h-.525l-.156.335h.541l-.647,1.445c-.469,1.016-1.194,2.014-1.612,2.014-.095,0-.151-.039-.151-.128a1.326,1.326,0,0,1,.128-.441c.1-.262.346-.753.5-1.082a5.316,5.316,0,0,0,.608-1.573.629.629,0,0,0-.692-.653,2.147,2.147,0,0,0-1.406.753l.279-.669h-1.049l-.859,1.958c-.346.692-1.043,1.836-1.484,1.836-.095,0-.128-.056-.128-.151a.786.786,0,0,1,.067-.24l.552-1.289.926-2.131h-1.138l-.9,2.076c-.279.642-.988,1.735-1.445,1.735a.145.145,0,0,1-.156-.128V428.3a1.556,1.556,0,0,1,.151-.469l.474-1.043.976-2.131h-1.127l-.223.486a1.094,1.094,0,0,1-.893.709.376.376,0,0,1-.363-.167,1.112,1.112,0,0,0-1.194-1.1,2.411,2.411,0,0,0-2.031,1.222,6.246,6.246,0,0,0-.669,1.484c-.4.664-.82,1.177-1.155,1.177-.084,0-.14-.045-.14-.156a1.835,1.835,0,0,1,.151-.457l.725-1.579a3.071,3.071,0,0,0,.346-1.121.575.575,0,0,0-.614-.58,2.244,2.244,0,0,0-1.568.809,1.068,1.068,0,0,0,.017-.24.5.5,0,0,0-.569-.569,2.028,2.028,0,0,0-1.445.809l.3-.725h-1.021l-.865,1.959c-.413.921-1.071,1.836-1.445,1.836-.084,0-.139-.045-.139-.156a4.914,4.914,0,0,1,.268-.792l1.149-2.6c.084-.2-.469-.318-1.166-.318a3.331,3.331,0,0,0-2,.809,1.8,1.8,0,0,1-.8.474c-.139,0-.1-.039-.1-.084,0-.156.385-.608.385-.949,0-.156-.084-.262-.3-.262a2.02,2.02,0,0,0-1.25.8l.3-.72h-1l-.865,1.959c-.413.921-1.094,1.886-1.462,1.886-.084,0-.139-.045-.139-.156a4.035,4.035,0,0,1,.29-.831l1.149-2.611c.084-.2-.469-.318-1.166-.318A3.446,3.446,0,0,0,181.993,426a4.554,4.554,0,0,0-1,2.265.764.764,0,0,0,.831.876,2.1,2.1,0,0,0,1.417-.865,1.862,1.862,0,0,0-.039.223c0,.374.151.642.608.642a1.937,1.937,0,0,0,1.361-.865l-.346.792h1.088l1.071-2.433c.357-.792.753-1.205.865-1.205s.056.017.056.045a1.669,1.669,0,0,0-.167.513c0,.206.112.363.413.363a1.222,1.222,0,0,0,.725-.262,4.017,4.017,0,0,0-.921,2.17.764.764,0,0,0,.831.876,2.208,2.208,0,0,0,1.434-.932,2.271,2.271,0,0,0-.017.262.609.609,0,0,0,.625.67c.418,0,.837-.29,1.306-.859l-.346.781h1.122l1.027-2.321c.446-1,1.054-1.546,1.35-1.546a.134.134,0,0,1,.151.123v.028a1,1,0,0,1-.095.324l-1.473,3.4h1.149l1.043-2.366c.446-1.016.943-1.512,1.317-1.512.112,0,.156.056.156.179a1.017,1.017,0,0,1-.1.374l-1.01,2.142a1.988,1.988,0,0,0-.167.653c0,.329.179.614.681.614.653,0,1.149-.5,1.707-1.233v.156a1.108,1.108,0,0,0,1.239,1.1,2.677,2.677,0,0,0,2.36-1.836,3.978,3.978,0,0,0,.363-1.261.71.71,0,0,0,.363.073.983.983,0,0,0,.485-.123l-.179.385c-.206.43-.43.9-.608,1.306a2.1,2.1,0,0,0-.2.753.63.63,0,0,0,.681.692,2.292,2.292,0,0,0,1.529-1.038h.011a1.722,1.722,0,0,0-.045.385c0,.335.1.653.569.653a2.055,2.055,0,0,0,1.373-.887l-.346.781h1.127l.9-2.053c.513-1.155,1.027-1.858,1.5-1.858a.156.156,0,0,1,.156.14v.028a5.962,5.962,0,0,1-.53,1.261c-.251.536-.413.859-.53,1.149a2.193,2.193,0,0,0-.2.776.578.578,0,0,0,.636.625,2.488,2.488,0,0,0,1.668-1.11,2.32,2.32,0,0,0-.128.708.885.885,0,0,0,.943.982,1.747,1.747,0,0,0,1.015-.335,4.653,4.653,0,0,0,1.066-1.155l-.2-.184a4.163,4.163,0,0,1-.876.971.948.948,0,0,1-.58.223c-.234,0-.385-.123-.385-.418a3.837,3.837,0,0,1,.357-1.239c.011-.011.318-.7.608-1.361.24-.558.485-1.1.53-1.211h.737l.151-.335H213.5Zm-31.8,5.379c-.156,0-.268-.056-.268-.262a5.144,5.144,0,0,1,1.038-2.31,1.991,1.991,0,0,1,1.484-.943l-.709,1.585c-.53,1.194-1.11,1.931-1.54,1.931m6.974,0a.242.242,0,0,1-.279-.262,5.144,5.144,0,0,1,1.038-2.31,1.991,1.991,0,0,1,1.484-.943l-.72,1.585c-.541,1.222-1.088,1.931-1.529,1.931m12.381-3.086a7.391,7.391,0,0,1-1.183,2.946c-.251.352-.469.457-.653.457s-.335-.212-.3-.53a7.146,7.146,0,0,1,1.149-2.723c.29-.4.485-.569.709-.569s.29.184.279.419" transform="translate(-170.896 -399.493)" fill="#fff"/>
            <path id="Trazado_25777" data-name="Trazado 25777" d="M792.829,411.171l1.027-2.371H792.64l-1.027,2.371h-2.583l-.43.993h2.583l-1.027,2.371h1.216l1.027-2.371h2.583l.43-.993Z" transform="translate(-744.6 -385.991)" fill="#fff"/>
          </g>
        </g>
      </g>
      <ellipse id="Elipse_422" data-name="Elipse 422" cx="3.277" cy="3.277" rx="3.277" ry="3.277" transform="translate(86.063 21.516)" fill="#fff"/>
      <ellipse id="Elipse_436" data-name="Elipse 436" cx="3.277" cy="3.277" rx="3.277" ry="3.277" transform="translate(182.417 21.516)" fill="#fff"/>
      <ellipse id="Elipse_437" data-name="Elipse 437" cx="3.277" cy="3.277" rx="3.277" ry="3.277" transform="translate(278.77 21.516)" fill="#fff"/>
    </g>
    <g id="Grupo_35097" data-name="Grupo 35097" transform="translate(8535.974 6170.58)">
      <g id="Grupo_32725" data-name="Grupo 32725" transform="translate(0 0.935)">
        <rect id="Rectángulo_18532-5" data-name="Rectángulo 18532" width="82.42" height="49.749" rx="5" transform="translate(0 0)" fill="none"/>
        <g id="Grupo_22158" data-name="Grupo 22158" transform="translate(13.366 9.653)">
          <path id="Trazado_42240" data-name="Trazado 42240" d="M44.583-378.069c-.505.023-1.01.044-1.516.056-.1,0-.124.026-.124.126,0,1.017,0,2.035,0,3.053,0,.229.007.459-.006.687a1.119,1.119,0,0,1-1.271,1.184,1.013,1.013,0,0,1-.987-.748,1.875,1.875,0,0,1-.082-.564c0-1.161,0-2.322,0-3.483,0-.13-.033-.151-.156-.145-.553.027-1.1.073-1.659.066v4.1a1.344,1.344,0,0,1,.085.379,2.327,2.327,0,0,0,1.654,1.856,4.08,4.08,0,0,0,2.411.01,2.334,2.334,0,0,0,1.615-1.585,4.258,4.258,0,0,0,.194-1.354c0-1.161,0-2.322.006-3.483C44.752-378.056,44.7-378.075,44.583-378.069Z" transform="translate(-38.788 390.053)" fill="#fff"/>
          <path id="Trazado_42241" data-name="Trazado 42241" d="M232.489-372.931c-.116,0-.139-.04-.138-.148,0-1.548,0-3.1.006-4.645,0-.121-.035-.151-.146-.156-.5-.019-1-.04-1.5-.071-.12-.008-.137.03-.137.137q0,3.161,0,6.322c0,.107.02.143.137.142.913-.006,1.825,0,2.738,0l1.921,0v-1.549C234.409-372.915,233.449-372.926,232.489-372.931Z" transform="translate(-179.569 389.966)" fill="#fff"/>
          <path id="Trazado_42242" data-name="Trazado 42242" d="M140.851-423.106c0-.008.012-.014.007-.024h-.831c0,.011,0,.017.008.025Z" transform="translate(-113.102 423.13)" fill="#fff"/>
          <path id="Trazado_42243" data-name="Trazado 42243" d="M143.353-423.107c0-.008.01-.014.005-.023h-.2c0,.008,0,.016,0,.024Z" transform="translate(-115.401 423.13)" fill="#fff"/>
          <path id="Trazado_42244" data-name="Trazado 42244" d="M139.47-423.1a.157.157,0,0,0,0-.025h-.2c0,.009,0,.016.005.023Z" transform="translate(-112.548 423.13)" fill="#fff"/>
          <path id="Trazado_42245" data-name="Trazado 42245" d="M90.257-413.219a13.661,13.661,0,0,1,.67-1.451,13.487,13.487,0,0,1,4.633-5.107,13.036,13.036,0,0,1,7.749-2.068,13.316,13.316,0,0,1,3.717.679,14.224,14.224,0,0,1,6.194,4.094,14.045,14.045,0,0,1,2.643,4.319c.038.1.081.144.192.135.143-.011.287,0,.43,0,.167,0,.167,0,.115-.154A14.954,14.954,0,0,0,112.613-419a14.931,14.931,0,0,0-9.592-4.107.122.122,0,0,1,0-.024h-.172a.055.055,0,0,1,0,.023h-.008c0,.007,0,.015,0,.021a.153.153,0,0,1-.187-.019h-.011c0,.007,0,.017-.007.022a2.518,2.518,0,0,1-.8,0c-.008,0,0-.014-.006-.021h-.011a.156.156,0,0,1-.188.018c-.007-.005,0-.013,0-.02h-.008a.115.115,0,0,1,0-.023h-.172a.063.063,0,0,1,0,.025,15.15,15.15,0,0,0-13.471,10.047c.724-.016,1.444-.034,2.164-.047C90.221-413.106,90.234-413.162,90.257-413.219Z" transform="translate(-74.891 423.13)" fill="#fff"/>
          <path id="Trazado_42246" data-name="Trazado 42246" d="M71.72-378.807c0-.1-.022-.127-.125-.122-.5.02-1,.032-1.5.043-.1,0-.141.033-.141.148.005,1.08,0,2.16,0,3.24a.3.3,0,0,1-.022.171l-.164-.218L67.409-378.7c-.04-.053-.072-.1-.156-.1-.482.018-.963.033-1.445.043-.1,0-.128.03-.128.13q0,3.219,0,6.437c0,.1.033.125.13.123.492,0,.985-.006,1.477,0,.118,0,.149-.029.149-.149-.005-1.118,0-2.236,0-3.354,0-.047-.018-.1.025-.147q1.313,1.779,2.614,3.544a.214.214,0,0,0,.2.1q.659-.009,1.319,0c.105,0,.134-.021.133-.131,0-1.08,0-2.16,0-3.24C71.718-376.561,71.716-377.684,71.72-378.807Z" transform="translate(-58.527 390.685)" fill="#fff"/>
          <path id="Trazado_42247" data-name="Trazado 42247" d="M159.9-374.852c-.052-.083-.049-.114.045-.163a2.1,2.1,0,0,0,1.09-1.3,2.76,2.76,0,0,0,.094-1.05,2.147,2.147,0,0,0-1.214-1.846,3,3,0,0,0-1.354-.311c-.989-.006-1.978,0-2.968,0-.1,0-.137.019-.137.132q.006,3.376,0,6.752c0,.1.018.138.131.137q.767-.01,1.534,0c.12,0,.138-.039.137-.145,0-.621,0-1.242-.005-1.864,0-.117.035-.142.143-.137a5.359,5.359,0,0,0,.587,0,.23.23,0,0,1,.251.151c.327.635.663,1.266.995,1.9.027.05.042.1.119.1.659,0,1.318,0,2,0l-.095-.158Q160.579-373.759,159.9-374.852Zm-.577-1.918a.758.758,0,0,1-.649.551,9.887,9.887,0,0,1-1.357.033c-.08,0-.06-.058-.06-.1,0-.253,0-.506,0-.758s0-.5,0-.744c0-.056,0-.1.078-.1.415.01.831-.022,1.244.015A.824.824,0,0,1,159.323-376.771Z" transform="translate(-124.429 391.122)" fill="#fff"/>
          <path id="Trazado_42248" data-name="Trazado 42248" d="M131.823-372.506q2.466-.005,4.931,0c.093,0,.119-.023.118-.117-.005-.454-.008-.908,0-1.362,0-.137-.022-.183-.174-.181-1.008.008-2.016,0-3.025.006-.1,0-.153-.012-.148-.136.01-.277.011-.554,0-.831-.005-.129.034-.156.159-.156.9.006,1.8,0,2.695.006.108,0,.136-.028.135-.135-.006-.42-.007-.841,0-1.261,0-.12-.032-.149-.15-.148-.9.005-1.806,0-2.709.005-.1,0-.131-.024-.129-.126.007-.263.01-.526,0-.788,0-.12.028-.148.147-.147,1.008.005,2.016,0,3.025,0,.086,0,.123-.012.122-.113q-.009-.709,0-1.419c0-.109-.041-.121-.132-.12q-2.423,0-4.845,0c-.112,0-.142.028-.141.141,0,1.123,0,2.246,0,3.369s0,2.255,0,3.383C131.7-372.538,131.718-372.506,131.823-372.506Z" transform="translate(-106.991 391.123)" fill="#fff"/>
          <path id="Trazado_42249" data-name="Trazado 42249" d="M183.441-376.408a6.1,6.1,0,0,0-1.262-.449,3.071,3.071,0,0,1-.905-.341.4.4,0,0,1-.228-.426.417.417,0,0,1,.356-.328,1.467,1.467,0,0,1,.569-.011,3.119,3.119,0,0,1,1.4.607c.083.061.113.05.167-.033.239-.374.482-.745.733-1.11.067-.1.056-.142-.032-.214a3.8,3.8,0,0,0-2.485-.874,3.3,3.3,0,0,0-.838.091,2.083,2.083,0,0,0-1.627,2.539,1.917,1.917,0,0,0,1.023,1.261,5.64,5.64,0,0,0,1.4.53,2.941,2.941,0,0,1,.8.295.4.4,0,0,1,.211.395.411.411,0,0,1-.283.363,1.123,1.123,0,0,1-.407.069,3.025,3.025,0,0,1-1.958-.724c-.142-.113-.142-.114-.256.033l-.726.941c-.155.2-.156.2.042.368a4.22,4.22,0,0,0,3.524.917,2.054,2.054,0,0,0,1.829-1.8A1.829,1.829,0,0,0,183.441-376.408Z" transform="translate(-141.7 391.167)" fill="#fff"/>
          <path id="Trazado_42250" data-name="Trazado 42250" d="M206.9-374.755l-1.528-3.817c-.026-.064-.04-.127-.141-.128q-.751-.009-1.5-.038c-.1,0-.137.037-.171.123q-1.081,2.706-2.166,5.411l-.5,1.255c.018.009.026.017.034.017.583,0,1.166,0,1.749,0,.08,0,.092-.048.112-.1.13-.337.263-.674.389-1.013a.128.128,0,0,1,.143-.1q1.118.006,2.237,0a.127.127,0,0,1,.142.1c.124.334.257.666.381,1a.147.147,0,0,0,.165.113c.559,0,1.118,0,1.677,0,.032,0,.064,0,.094-.006.015-.043-.009-.071-.021-.1Zm-3.171.149.72-1.891.7,1.891Z" transform="translate(-157.775 390.543)" fill="#fff"/>
          <path id="Trazado_42251" data-name="Trazado 42251" d="M107.954-379.379q-.36,1.182-.727,2.362c-.194.63-.39,1.26-.586,1.9-.049-.024-.05-.068-.061-.1q-.351-1-.7-2.01-.372-1.072-.745-2.144c-.019-.054-.031-.1-.111-.1-.625,0-1.25,0-1.907,0,.027.082.038.118.052.153q1.256,3.356,2.511,6.713a.144.144,0,0,0,.166.108q.731-.007,1.462,0a.159.159,0,0,0,.18-.127q1.062-2.979,2.132-5.955l.335-.936h-.16c-.559,0-1.118.013-1.676.011C108.013-379.507,107.981-379.468,107.954-379.379Z" transform="translate(-86.009 391.116)" fill="#fff"/>
          <path id="Trazado_42252" data-name="Trazado 42252" d="M95.054-379.166c-.539.017-1.078.027-1.617.033-.084,0-.1.028-.1.105q0,3.339,0,6.678c0,.093.029.108.113.108.521,0,1.041-.005,1.562,0,.108,0,.142-.022.141-.138,0-1.1,0-2.207,0-3.311s0-2.235,0-3.353C95.15-379.11,95.164-379.17,95.054-379.166Z" transform="translate(-78.829 390.858)" fill="#fff"/>
          <path id="Trazado_42253" data-name="Trazado 42253" d="M184.5-345.278h-1.916v-1.916h-1.551v1.916H179.12v1.551h1.916v1.916h1.551v-1.916H184.5Z" transform="translate(-141.8 367.389)" fill="#fff"/>
          <path id="Trazado_42254" data-name="Trazado 42254" d="M104.354-337.484a15.516,15.516,0,0,1-3.713-.108,13.637,13.637,0,0,1-4.21-1.315,13.223,13.223,0,0,1-5.714-5.586,14.576,14.576,0,0,1-.891-1.962c-.018-.048-.019-.112-.1-.111-.439,0-.877,0-1.311,0-.021.052.007.085.018.12a14.129,14.129,0,0,0,3.275,5.4,14.649,14.649,0,0,0,9.325,4.45,15.607,15.607,0,0,0,5.372-.4,14.351,14.351,0,0,0,6.63-3.648l-.912-.046A13.129,13.129,0,0,1,104.354-337.484Z" transform="translate(-75.209 366.928)" fill="#fff"/>
        </g>
      </g>
      <g id="Grupo_32726" data-name="Grupo 32726" transform="translate(96.261)">
        <rect id="Rectángulo_18532-6" data-name="Rectángulo 18532" width="83.573" height="50.445" rx="5" transform="translate(0 0)" fill="none"/>
        <g id="Grupo_22160" data-name="Grupo 22160" transform="translate(10.152 17.461)">
          <path id="Trazado_42620" data-name="Trazado 42620" d="M0,11.789A5.553,5.553,0,0,1,5.7,6.132a5.237,5.237,0,0,1,5.33,3.652l-2.518.621a2.842,2.842,0,0,0-2.8-1.849,3.041,3.041,0,0,0-3.077,3.217,3.093,3.093,0,0,0,3.077,3.248,2.8,2.8,0,0,0,2.8-1.818l2.518.637A5.186,5.186,0,0,1,5.75,17.445,5.564,5.564,0,0,1,0,11.789" transform="translate(0 -5.344)" fill="#fff"/>
          <rect id="Rectángulo_18371" data-name="Rectángulo 18371" width="2.486" height="7.926" transform="translate(14.716 3.958)" fill="#fff"/>
          <path id="Trazado_42621" data-name="Trazado 42621" d="M176.266,7.827V18.705h-2.1l-4.895-6.232v6.232h-2.58V7.827h2.1l4.895,6.231V7.827Z" transform="translate(-145.278 -6.822)" fill="#fff"/>
          <path id="Trazado_42622" data-name="Trazado 42622" d="M284.033,13.266c0,3.154-2.036,5.439-5.143,5.439H273.87V7.827h5.019c3.061,0,5.143,2.207,5.143,5.439m-2.61-.047c0-1.911-1.134-3.077-2.6-3.077h-2.408v6.247h2.408c1.461,0,2.6-1.259,2.6-3.17" transform="translate(-238.687 -6.821)" fill="#fff"/>
          <path id="Trazado_42623" data-name="Trazado 42623" d="M433.27,10.158v1.9h4.879v2.253H433.27v2.067h5.657V18.7h-8.174V7.827h8.19v2.331Z" transform="translate(-375.415 -6.821)" fill="#fff"/>
          <path id="Trazado_42624" data-name="Trazado 42624" d="M114.217,1.662A1.663,1.663,0,1,1,112.555,0a1.663,1.663,0,0,1,1.662,1.662" transform="translate(-96.646 0)" fill="#fff"/>
          <rect id="Rectángulo_18372" data-name="Rectángulo 18372" width="2.486" height="7.925" transform="translate(49.013 0.718)" fill="#fff"/>
          <path id="Trazado_42625" data-name="Trazado 42625" d="M379.686,72.1a1.663,1.663,0,1,0,1.663,1.663,1.663,1.663,0,0,0-1.663-1.663" transform="translate(-329.459 -62.834)" fill="#fff"/>
          <path id="Trazado_42626" data-name="Trazado 42626" d="M9.47,115.588v1.448H9.093v-.183a.565.565,0,0,1-.463.223c-.381,0-.572-.255-.572-.644v-.844h.378v.772c0,.22.1.363.309.363s.349-.166.349-.423v-.712Z" transform="translate(-7.022 -100.739)" fill="#fff"/>
          <path id="Trazado_42627" data-name="Trazado 42627" d="M23.367,115.917v.847H22.99v-.775c0-.22-.1-.36-.309-.36s-.349.166-.349.42v.715h-.378v-1.448h.378v.183a.575.575,0,0,1,.466-.223c.378,0,.569.255.569.641" transform="translate(-19.134 -100.467)" fill="#fff"/>
          <path id="Trazado_42628" data-name="Trazado 42628" d="M43.521,115.9v.861h-.378v-.781c0-.217-.08-.355-.277-.355s-.306.152-.306.4v.738h-.381v-.781c0-.215-.077-.355-.272-.355s-.312.155-.312.409v.727h-.378v-1.448H41.6v.172a.525.525,0,0,1,.429-.212.484.484,0,0,1,.435.217.6.6,0,0,1,.489-.217.553.553,0,0,1,.572.627" transform="translate(-35.923 -100.467)" fill="#fff"/>
          <path id="Trazado_42629" data-name="Trazado 42629" d="M63.12,115.588v1.448h-.378v-.183a.565.565,0,0,1-.463.223c-.381,0-.572-.255-.572-.644v-.844h.378v.772c0,.22.1.363.309.363s.349-.166.349-.423v-.712Z" transform="translate(-53.78 -100.739)" fill="#fff"/>
          <path id="Trazado_42630" data-name="Trazado 42630" d="M77.017,115.917v.847H76.64v-.775c0-.22-.1-.36-.309-.36s-.349.166-.349.42v.715H75.6v-1.448h.378v.183a.575.575,0,0,1,.466-.223c.378,0,.569.255.569.641" transform="translate(-65.891 -100.467)" fill="#fff"/>
          <path id="Trazado_42631" data-name="Trazado 42631" d="M90.26,110.6v2.089H89.88v-.177a.575.575,0,0,1-.466.217.766.766,0,0,1,0-1.528.573.573,0,0,1,.466.215V110.6Zm-.369,1.362a.408.408,0,0,0-.412-.423.427.427,0,0,0,0,.852.411.411,0,0,0,.412-.429" transform="translate(-77.303 -96.391)" fill="#fff"/>
          <path id="Trazado_42632" data-name="Trazado 42632" d="M103.063,116.04a.774.774,0,1,1,.775.764.751.751,0,0,1-.775-.764m1.182,0a.407.407,0,1,0-.406.421.4.4,0,0,0,.406-.421" transform="translate(-89.823 -100.467)" fill="#fff"/>
          <path id="Trazado_42633" data-name="Trazado 42633" d="M123.688,110.6v2.089h-.381v-.177a.575.575,0,0,1-.466.217.766.766,0,0,1,0-1.528.573.573,0,0,1,.466.215V110.6Zm-.369,1.362a.408.408,0,0,0-.412-.423.427.427,0,0,0,0,.852.411.411,0,0,0,.412-.429" transform="translate(-106.437 -96.391)" fill="#fff"/>
          <path id="Trazado_42634" data-name="Trazado 42634" d="M136.491,116.04a.733.733,0,0,1,.758-.764.763.763,0,0,1,.738.878h-1.124a.377.377,0,0,0,.421.329.37.37,0,0,0,.352-.192l.34.1a.791.791,0,0,1-1.485-.352m1.136-.123a.355.355,0,0,0-.381-.32.372.372,0,0,0-.383.32Z" transform="translate(-118.956 -100.467)" fill="#fff"/>
          <path id="Trazado_42635" data-name="Trazado 42635" d="M155.22,116.04a.733.733,0,0,1,.758-.764.762.762,0,0,1,.738.878h-1.124a.377.377,0,0,0,.421.329.369.369,0,0,0,.352-.192l.34.1a.791.791,0,0,1-1.485-.352m1.136-.123a.355.355,0,0,0-.381-.32.372.372,0,0,0-.383.32Z" transform="translate(-135.279 -100.467)" fill="#fff"/>
          <path id="Trazado_42636" data-name="Trazado 42636" d="M170.574,115.917v.847H170.2v-.775c0-.22-.1-.36-.309-.36s-.349.166-.349.42v.715h-.378v-1.448h.378v.183a.575.575,0,0,1,.466-.223c.378,0,.569.255.569.641" transform="translate(-147.429 -100.467)" fill="#fff"/>
          <path id="Trazado_42637" data-name="Trazado 42637" d="M182.874,113.806a.869.869,0,0,1-.338.069.453.453,0,0,1-.483-.518v-.621h-.243V112.4h.243v-.469h.38v.469h.423v.332h-.423v.621a.161.161,0,0,0,.177.183.352.352,0,0,0,.172-.04Z" transform="translate(-158.453 -97.555)" fill="#fff"/>
          <path id="Trazado_42638" data-name="Trazado 42638" d="M192.976,115.392v.355c-.309-.049-.478.094-.478.484v.63h-.378v-1.448h.378v.215a.435.435,0,0,1,.478-.235" transform="translate(-167.44 -100.563)" fill="#fff"/>
          <path id="Trazado_42639" data-name="Trazado 42639" d="M199.382,116.04a.733.733,0,0,1,.758-.764.763.763,0,0,1,.738.878h-1.124a.377.377,0,0,0,.421.329.369.369,0,0,0,.352-.192l.34.1a.791.791,0,0,1-1.485-.352m1.136-.123a.355.355,0,0,0-.381-.32.372.372,0,0,0-.383.32Z" transform="translate(-173.768 -100.467)" fill="#fff"/>
          <path id="Trazado_42640" data-name="Trazado 42640" d="M212.918,113.806a.869.869,0,0,1-.338.069.453.453,0,0,1-.483-.518v-.621h-.243V112.4h.243v-.469h.38v.469h.423v.332h-.423v.621a.161.161,0,0,0,.177.183.352.352,0,0,0,.172-.04Z" transform="translate(-184.638 -97.555)" fill="#fff"/>
          <path id="Trazado_42641" data-name="Trazado 42641" d="M220.94,116.04a.733.733,0,0,1,.758-.764.763.763,0,0,1,.738.878h-1.124a.377.377,0,0,0,.421.329.369.369,0,0,0,.352-.192l.34.1a.791.791,0,0,1-1.485-.352m1.136-.123a.355.355,0,0,0-.38-.32.372.372,0,0,0-.383.32Z" transform="translate(-192.556 -100.467)" fill="#fff"/>
          <path id="Trazado_42642" data-name="Trazado 42642" d="M236.294,115.917v.847h-.378v-.775c0-.22-.1-.36-.309-.36s-.349.166-.349.42v.715h-.378v-1.448h.378v.183a.575.575,0,0,1,.466-.223c.378,0,.569.255.569.641" transform="translate(-204.706 -100.467)" fill="#fff"/>
          <path id="Trazado_42643" data-name="Trazado 42643" d="M248.4,110.794a.226.226,0,1,1,.226.223.221.221,0,0,1-.226-.223m.031.426h.381v1.448h-.381Z" transform="translate(-216.488 -96.371)" fill="#fff"/>
          <path id="Trazado_42644" data-name="Trazado 42644" d="M256.849,115.9v.861h-.378v-.781c0-.217-.08-.355-.277-.355s-.306.152-.306.4v.738h-.381v-.781c0-.215-.077-.355-.272-.355s-.312.155-.312.409v.727h-.378v-1.448h.378v.172a.525.525,0,0,1,.429-.212.484.484,0,0,1,.435.217.6.6,0,0,1,.489-.217.553.553,0,0,1,.572.627" transform="translate(-221.845 -100.467)" fill="#fff"/>
          <path id="Trazado_42645" data-name="Trazado 42645" d="M274.99,110.794a.226.226,0,1,1,.226.223.221.221,0,0,1-.226-.223m.031.426h.381v1.448h-.381Z" transform="translate(-239.663 -96.371)" fill="#fff"/>
          <path id="Trazado_42646" data-name="Trazado 42646" d="M280.446,116.04a.733.733,0,0,1,.758-.764.706.706,0,0,1,.747.744.7.7,0,0,1-.009.134h-1.124a.377.377,0,0,0,.421.329.369.369,0,0,0,.352-.192l.34.1a.791.791,0,0,1-1.485-.352m1.136-.123a.355.355,0,0,0-.38-.32.372.372,0,0,0-.383.32Z" transform="translate(-244.418 -100.467)" fill="#fff"/>
          <path id="Trazado_42647" data-name="Trazado 42647" d="M295.8,115.917v.847h-.378v-.775c0-.22-.1-.36-.309-.36s-.349.166-.349.42v.715h-.378v-1.448h.378v.183a.575.575,0,0,1,.466-.223c.378,0,.569.255.569.641" transform="translate(-256.569 -100.467)" fill="#fff"/>
          <path id="Trazado_42648" data-name="Trazado 42648" d="M308.1,113.806a.869.869,0,0,1-.338.069.453.453,0,0,1-.484-.518v-.621h-.243V112.4h.243v-.469h.38v.469h.423v.332h-.423v.621a.161.161,0,0,0,.177.183.352.352,0,0,0,.172-.04Z" transform="translate(-267.594 -97.555)" fill="#fff"/>
          <path id="Trazado_42649" data-name="Trazado 42649" d="M316.123,116.04a.774.774,0,1,1,.775.764.751.751,0,0,1-.775-.764m1.182,0a.407.407,0,1,0-.406.421.4.4,0,0,0,.406-.421" transform="translate(-275.511 -100.467)" fill="#fff"/>
          <path id="Trazado_42650" data-name="Trazado 42650" d="M335.61,110.794a.226.226,0,1,1,.226.223.221.221,0,0,1-.226-.223m.031.426h.38v1.448h-.38Z" transform="translate(-292.495 -96.371)" fill="#fff"/>
          <path id="Trazado_42651" data-name="Trazado 42651" d="M343.17,115.917v.847h-.378v-.775c0-.22-.1-.36-.309-.36s-.349.166-.349.42v.715h-.378v-1.448h.378v.183a.575.575,0,0,1,.466-.223c.378,0,.569.255.569.641" transform="translate(-297.852 -100.467)" fill="#fff"/>
          <path id="Trazado_42652" data-name="Trazado 42652" d="M356.414,110.6v2.089h-.381v-.177a.575.575,0,0,1-.466.217.766.766,0,0,1,0-1.528.573.573,0,0,1,.466.215V110.6Zm-.369,1.362a.408.408,0,0,0-.412-.423.427.427,0,0,0,0,.852.411.411,0,0,0,.412-.429" transform="translate(-309.265 -96.391)" fill="#fff"/>
          <path id="Trazado_42653" data-name="Trazado 42653" d="M369.216,116.04a.733.733,0,0,1,.758-.764.762.762,0,0,1,.738.878h-1.124a.377.377,0,0,0,.421.329.369.369,0,0,0,.352-.192l.34.1a.791.791,0,0,1-1.485-.352m1.136-.123a.355.355,0,0,0-.381-.32.372.372,0,0,0-.383.32Z" transform="translate(-321.784 -100.467)" fill="#fff"/>
          <path id="Trazado_42654" data-name="Trazado 42654" d="M384.716,116.04a.725.725,0,0,1-.712.764.581.581,0,0,1-.469-.217v.778h-.378v-2.048h.378v.174a.579.579,0,0,1,.469-.215.724.724,0,0,1,.712.764m-.372,0a.4.4,0,0,0-.406-.423.427.427,0,0,0,0,.853.4.4,0,0,0,.406-.429" transform="translate(-333.934 -100.467)" fill="#fff"/>
          <path id="Trazado_42655" data-name="Trazado 42655" d="M396.831,116.04a.733.733,0,0,1,.758-.764.763.763,0,0,1,.738.878H397.2a.377.377,0,0,0,.421.329.369.369,0,0,0,.352-.192l.34.1a.791.791,0,0,1-1.485-.352m1.136-.123a.355.355,0,0,0-.38-.32.372.372,0,0,0-.384.32Z" transform="translate(-345.851 -100.467)" fill="#fff"/>
          <path id="Trazado_42656" data-name="Trazado 42656" d="M412.186,115.917v.847h-.378v-.775c0-.22-.1-.36-.309-.36s-.349.166-.349.42v.715h-.378v-1.448h.378v.183a.575.575,0,0,1,.466-.223c.378,0,.569.255.569.641" transform="translate(-358.002 -100.467)" fill="#fff"/>
          <path id="Trazado_42657" data-name="Trazado 42657" d="M425.429,110.6v2.089h-.381v-.177a.575.575,0,0,1-.466.217.766.766,0,0,1,0-1.528.573.573,0,0,1,.466.215V110.6Zm-.369,1.362a.408.408,0,0,0-.412-.423.427.427,0,0,0,0,.852.411.411,0,0,0,.412-.429" transform="translate(-369.414 -96.391)" fill="#fff"/>
          <path id="Trazado_42658" data-name="Trazado 42658" d="M438.655,110.794a.226.226,0,1,1,.226.223.221.221,0,0,1-.226-.223m.031.426h.38v1.448h-.38Z" transform="translate(-382.302 -96.371)" fill="#fff"/>
          <path id="Trazado_42659" data-name="Trazado 42659" d="M444.112,116.04a.733.733,0,0,1,.758-.764.763.763,0,0,1,.738.878h-1.124a.377.377,0,0,0,.421.329.37.37,0,0,0,.352-.192l.34.1a.791.791,0,0,1-1.485-.352m1.136-.123a.355.355,0,0,0-.381-.32.372.372,0,0,0-.383.32Z" transform="translate(-387.058 -100.467)" fill="#fff"/>
          <path id="Trazado_42660" data-name="Trazado 42660" d="M459.466,115.917v.847h-.378v-.775c0-.22-.1-.36-.309-.36s-.349.166-.349.42v.715h-.377v-1.448h.377v.183a.575.575,0,0,1,.466-.223c.378,0,.569.255.569.641" transform="translate(-399.208 -100.467)" fill="#fff"/>
          <path id="Trazado_42661" data-name="Trazado 42661" d="M471.767,113.806a.868.868,0,0,1-.338.069.453.453,0,0,1-.483-.518v-.621H470.7V112.4h.243v-.469h.38v.469h.423v.332h-.423v.621a.16.16,0,0,0,.177.183.353.353,0,0,0,.172-.04Z" transform="translate(-410.233 -97.555)" fill="#fff"/>
          <path id="Trazado_42662" data-name="Trazado 42662" d="M479.789,116.04a.733.733,0,0,1,.758-.764.762.762,0,0,1,.738.878h-1.124a.377.377,0,0,0,.421.329.369.369,0,0,0,.352-.192l.34.1a.791.791,0,0,1-1.485-.352m1.136-.123a.355.355,0,0,0-.381-.32.372.372,0,0,0-.383.32Z" transform="translate(-418.152 -100.467)" fill="#fff"/>
        </g>
      </g>
      <g id="Grupo_34972" data-name="Grupo 34972" transform="translate(193.549)">
        <rect id="Rectángulo_18532-7" data-name="Rectángulo 18532" width="82.79" height="49.972" rx="5" transform="translate(0 0)" fill="none"/>
        <g id="Grupo_34951" data-name="Grupo 34951" transform="translate(24.168 6.714)">
          <g id="Grupo_34950" data-name="Grupo 34950" clip-path="url(#clip-path-4)">
            <path id="Trazado_88249" data-name="Trazado 88249" d="M42.71,0l.035.121h-.254s1.586,5.633,1.677,5.906.292.328.729.456a6.277,6.277,0,0,1,3.925,5.936c0,4.254-3.378,5.663-6.927,5.76a.167.167,0,0,0-.118.155h-.107s-.137.016,0,.308,2.916,4.575,3.336,5.159c0,0,7.7.164,12.809-5.864S59.152.049,42.71,0" transform="translate(-30.673)" fill="#fff"/>
            <path id="Trazado_88250" data-name="Trazado 88250" d="M33.751,39.393A4.154,4.154,0,1,0,29.6,35.24a4.154,4.154,0,0,0,4.154,4.154" transform="translate(-21.818 -22.915)" fill="#fff"/>
            <path id="Trazado_88251" data-name="Trazado 88251" d="M3.947,101.549H2.655l-1.519,2.158v-2.158H0v4.969H1.136v-2.3l1.59,2.3H4.018L2.272,103.97Z" transform="translate(0 -74.857)" fill="#fff"/>
            <path id="Trazado_88252" data-name="Trazado 88252" d="M22.96,101.549H21.512l-1.69,4.969h1.242l.248-.781h1.846l.248.781h1.242Zm-1.306,3.124.582-1.824.582,1.824Z" transform="translate(-14.612 -74.858)" fill="#fff"/>
            <path id="Trazado_88253" data-name="Trazado 88253" d="M47.707,101.549H46.571v2.7l-1.917-2.7H43.8v4.969h1.136v-2.7l1.917,2.7h.852Z" transform="translate(-32.289 -74.857)" fill="#fff"/>
            <path id="Trazado_88254" data-name="Trazado 88254" d="M67.411,101.549H65.963l-1.69,4.969h1.242l.248-.781H67.61l.248.781H69.1ZM66.1,104.673l.582-1.824.582,1.824Z" transform="translate(-47.379 -74.858)" fill="#fff"/>
            <path id="Trazado_88255" data-name="Trazado 88255" d="M89.39,101.549H88.254v4.969h2.91v-1.093H89.39Z" transform="translate(-65.057 -74.857)" fill="#fff"/>
            <path id="Trazado_88256" data-name="Trazado 88256" d="M117.95,101.548h-1.988v4.969h1.988a2.486,2.486,0,0,0,0-4.969m0,3.876H117.1v-2.783h.852a1.393,1.393,0,0,1,0,2.783" transform="translate(-85.482 -74.857)" fill="#fff"/>
            <path id="Trazado_88257" data-name="Trazado 88257" d="M22.682,129.873H21.557v2.813h1.125a1.407,1.407,0,0,0,0-2.813m0,2.194H22.2v-1.575h.482a.789.789,0,0,1,0,1.575" transform="translate(-15.891 -95.737)" fill="#fff"/>
            <path id="Trazado_88258" data-name="Trazado 88258" d="M43.676,130.839a.962.962,0,0,0-.964-.965H41.586v2.813h.643v-.924h.305l.531.924h.691l-.6-1.033a.927.927,0,0,0,.519-.816m-.964.362h-.482v-.724h.482a.364.364,0,0,1,0,.724" transform="translate(-30.655 -95.738)" fill="#fff"/>
            <path id="Trazado_88259" data-name="Trazado 88259" d="M61.019,129.873H60.2l-.957,2.813h.7l.141-.442h1.045l.141.442h.7Zm-.739,1.768.33-1.033.33,1.033Z" transform="translate(-43.671 -95.737)" fill="#fff"/>
            <path id="Trazado_88260" data-name="Trazado 88260" d="M81.137,131.124l-.764-1.25h-.643v2.813h.643v-1.636l.727,1.194h.073l.727-1.194v1.636h.643v-2.813H81.9Z" transform="translate(-58.774 -95.738)" fill="#fff"/>
            <path id="Trazado_88261" data-name="Trazado 88261" d="M101.48,129.873l-.957,2.813h.7l.141-.442h1.045l.141.442h.7l-.957-2.813Zm.08,1.768.33-1.033.33,1.033Z" transform="translate(-74.101 -95.737)" fill="#fff"/>
          </g>
        </g>
      </g>
      <ellipse id="Elipse_438" data-name="Elipse 438" cx="3.277" cy="3.277" rx="3.277" ry="3.277" transform="translate(86.063 22.451)" fill="#fff"/>
      <ellipse id="Elipse_440" data-name="Elipse 440" cx="3.277" cy="3.277" rx="3.277" ry="3.277" transform="translate(183.259 22.451)" fill="#fff"/>
    </g>
  </g>
</svg>
