<svg xmlns="http://www.w3.org/2000/svg" xmlns:xlink="http://www.w3.org/1999/xlink" width="453.588" height="83.291" viewBox="0 0 453.588 83.291">
  <defs>
    <clipPath id="clip-path">
      <rect id="Rectángulo_22890" data-name="Rectángulo 22890" width="27.86" height="29.512" fill="none"/>
    </clipPath>
    <clipPath id="clip-path-2">
      <rect id="Rectángulo_9933" data-name="Rectángulo 9933" width="47.279" height="12.703" fill="rgba(0,0,0,0)"/>
    </clipPath>
    <clipPath id="clip-path-3">
      <rect id="Rectángulo_18610" data-name="Rectángulo 18610" width="33.925" height="21.231" fill="#fff"/>
    </clipPath>
    <clipPath id="clip-path-4">
      <rect id="Rectángulo_10197" data-name="Rectángulo 10197" width="40.585" height="25.265" fill="none"/>
    </clipPath>
  </defs>
  <g id="Grupo_35101" data-name="Grupo 35101" transform="translate(-8634 -6075)">
    <g id="Grupo_35099" data-name="Grupo 35099" transform="translate(40.762 -3)">
      <circle id="Elipse_412" data-name="Elipse 412" cx="2.884" cy="2.884" r="2.884" transform="translate(8734 6138)" fill="#fff"/>
      <g id="Grupo_32725" data-name="Grupo 32725" transform="translate(8662 6121)">
        <rect id="Rectángulo_18532" data-name="Rectángulo 18532" width="65.83" height="39.735" rx="5" transform="translate(0 0)" fill="none"/>
        <g id="Grupo_22158" data-name="Grupo 22158" transform="translate(10.676 7.71)">
          <path id="Trazado_42240" data-name="Trazado 42240" d="M43.417-378.069c-.4.019-.807.035-1.211.045-.08,0-.1.021-.1.1,0,.813,0,1.626,0,2.439,0,.183.006.367,0,.549a.894.894,0,0,1-1.016.945.809.809,0,0,1-.788-.6,1.5,1.5,0,0,1-.065-.451c0-.927,0-1.855,0-2.782,0-.1-.026-.12-.125-.115-.441.021-.882.058-1.325.053v3.275a1.074,1.074,0,0,1,.068.3,1.859,1.859,0,0,0,1.321,1.483,3.258,3.258,0,0,0,1.926.008,1.864,1.864,0,0,0,1.29-1.266,3.4,3.4,0,0,0,.155-1.081c0-.927,0-1.855,0-2.782C43.552-378.059,43.512-378.074,43.417-378.069Z" transform="translate(-38.788 387.641)" fill="#fff"/>
          <path id="Trazado_42241" data-name="Trazado 42241" d="M232.1-373.942c-.093,0-.111-.032-.11-.118,0-1.236,0-2.473,0-3.71,0-.1-.028-.121-.116-.124-.4-.015-.8-.032-1.2-.057-.1-.006-.109.024-.109.109q0,2.525,0,5.05c0,.086.016.114.109.114.729,0,1.458,0,2.187,0l1.534,0v-1.237C233.637-373.929,232.87-373.938,232.1-373.942Z" transform="translate(-189.835 387.548)" fill="#fff"/>
          <path id="Trazado_42242" data-name="Trazado 42242" d="M140.685-423.111c0-.006.009-.011.006-.019h-.664c0,.009,0,.014.006.02Z" transform="translate(-118.521 423.13)" fill="#fff"/>
          <path id="Trazado_42243" data-name="Trazado 42243" d="M143.314-423.112c0-.006.008-.011,0-.018h-.16c0,.006,0,.013,0,.019Z" transform="translate(-120.988 423.13)" fill="#fff"/>
          <path id="Trazado_42244" data-name="Trazado 42244" d="M139.43-423.11a.128.128,0,0,0,0-.02h-.16c0,.007,0,.013,0,.019Z" transform="translate(-117.926 423.13)" fill="#fff"/>
          <path id="Trazado_42245" data-name="Trazado 42245" d="M89.8-415.214a10.913,10.913,0,0,1,.535-1.159,10.772,10.772,0,0,1,3.7-4.079,10.412,10.412,0,0,1,6.189-1.652,10.635,10.635,0,0,1,2.969.542,11.361,11.361,0,0,1,4.948,3.27,11.218,11.218,0,0,1,2.111,3.449c.031.079.065.115.153.108.114-.009.229,0,.343,0,.133,0,.133,0,.092-.123a11.944,11.944,0,0,0-3.185-4.971,11.926,11.926,0,0,0-7.661-3.281.1.1,0,0,1,0-.02h-.137a.044.044,0,0,1,0,.018h-.006c0,.005,0,.012,0,.016a.122.122,0,0,1-.149-.016h-.009c0,.006,0,.013-.005.018a2.01,2.01,0,0,1-.642,0c-.006,0,0-.011,0-.016h-.008a.125.125,0,0,1-.15.014c-.005,0,0-.011,0-.016h-.006a.092.092,0,0,1,0-.019h-.137a.05.05,0,0,1,0,.02,12.1,12.1,0,0,0-10.759,8.025c.579-.013,1.153-.027,1.729-.037C89.768-415.124,89.779-415.169,89.8-415.214Z" transform="translate(-77.524 423.13)" fill="#fff"/>
          <path id="Trazado_42246" data-name="Trazado 42246" d="M70.5-378.832c0-.08-.017-.1-.1-.1-.4.016-.8.026-1.2.034-.083,0-.113.026-.113.118,0,.862,0,1.725,0,2.587a.241.241,0,0,1-.018.136l-.131-.174-1.883-2.519c-.032-.043-.058-.083-.125-.081-.385.014-.769.027-1.154.034-.079,0-.1.024-.1.1q0,2.571,0,5.141c0,.083.027.1.1.1.393,0,.786,0,1.179,0,.094,0,.119-.023.119-.119,0-.893,0-1.786,0-2.679,0-.037-.014-.08.02-.117q1.049,1.421,2.088,2.831a.171.171,0,0,0,.158.083q.527-.007,1.053,0c.084,0,.107-.017.107-.1,0-.863,0-1.725,0-2.588C70.5-377.038,70.5-377.935,70.5-378.832Z" transform="translate(-59.967 388.319)" fill="#fff"/>
          <path id="Trazado_42247" data-name="Trazado 42247" d="M159.006-375.793c-.042-.067-.039-.091.036-.13a1.677,1.677,0,0,0,.87-1.038,2.2,2.2,0,0,0,.075-.839,1.715,1.715,0,0,0-.97-1.474,2.4,2.4,0,0,0-1.082-.249c-.79,0-1.58,0-2.37,0-.082,0-.11.015-.11.105q0,2.7,0,5.393c0,.082.015.111.1.109q.613-.008,1.225,0c.1,0,.11-.032.109-.116,0-.5,0-.992,0-1.488,0-.094.028-.114.115-.11a4.277,4.277,0,0,0,.469,0,.184.184,0,0,1,.2.121c.261.507.53,1.011.795,1.516.021.04.033.078.1.078.526,0,1.052,0,1.6,0l-.076-.126Q159.548-374.92,159.006-375.793Zm-.461-1.532a.606.606,0,0,1-.519.44,7.9,7.9,0,0,1-1.084.026c-.064,0-.048-.046-.048-.08,0-.2,0-.4,0-.606s0-.4,0-.595c0-.045,0-.081.062-.079.331.008.664-.017.994.012A.658.658,0,0,1,158.545-377.325Z" transform="translate(-130.674 388.787)" fill="#fff"/>
          <path id="Trazado_42248" data-name="Trazado 42248" d="M131.8-373.919q1.969,0,3.939,0c.075,0,.095-.019.094-.093,0-.363-.006-.725,0-1.088,0-.109-.017-.146-.139-.145-.805.007-1.611,0-2.416,0-.082,0-.122-.01-.119-.109.008-.221.009-.443,0-.664,0-.1.027-.125.127-.124.717,0,1.435,0,2.152,0,.086,0,.109-.022.108-.108-.005-.336-.006-.672,0-1.008,0-.1-.025-.119-.12-.118-.721,0-1.442,0-2.164,0-.079,0-.1-.019-.1-.1.005-.21.008-.42,0-.63,0-.1.023-.118.118-.117.805,0,1.611,0,2.416,0,.069,0,.1-.009.1-.09q-.007-.567,0-1.133c0-.087-.032-.1-.106-.1q-1.935,0-3.87,0c-.09,0-.113.023-.113.113,0,.9,0,1.794,0,2.691s0,1.8,0,2.7C131.7-373.945,131.715-373.919,131.8-373.919Z" transform="translate(-111.965 388.789)" fill="#fff"/>
          <path id="Trazado_42249" data-name="Trazado 42249" d="M182.544-377.048a4.876,4.876,0,0,0-1.008-.359,2.454,2.454,0,0,1-.723-.273.321.321,0,0,1-.182-.34.333.333,0,0,1,.284-.262,1.172,1.172,0,0,1,.455-.009,2.491,2.491,0,0,1,1.12.484c.066.048.09.04.133-.026.191-.3.385-.595.585-.887.053-.078.044-.113-.026-.171a3.036,3.036,0,0,0-1.985-.7,2.636,2.636,0,0,0-.669.073,1.664,1.664,0,0,0-1.3,2.028,1.531,1.531,0,0,0,.817,1.007,4.505,4.505,0,0,0,1.117.423,2.35,2.35,0,0,1,.64.236.321.321,0,0,1,.168.315.329.329,0,0,1-.226.29.9.9,0,0,1-.325.055,2.416,2.416,0,0,1-1.564-.578c-.114-.09-.113-.091-.2.027l-.58.752c-.123.161-.125.163.033.294a3.371,3.371,0,0,0,2.815.732,1.641,1.641,0,0,0,1.461-1.438A1.461,1.461,0,0,0,182.544-377.048Z" transform="translate(-149.205 388.836)" fill="#fff"/>
          <path id="Trazado_42250" data-name="Trazado 42250" d="M205.685-375.556l-1.22-3.048c-.021-.051-.032-.1-.113-.1q-.6-.007-1.2-.03c-.082,0-.109.03-.136.1q-.863,2.162-1.73,4.322l-.4,1c.015.008.021.013.027.013.466,0,.931,0,1.4,0,.064,0,.074-.039.09-.081.1-.27.21-.539.311-.809a.1.1,0,0,1,.115-.078q.893,0,1.786,0a.1.1,0,0,1,.114.08c.1.267.205.532.3.8a.118.118,0,0,0,.132.09c.447,0,.893,0,1.34,0,.026,0,.051,0,.075,0,.012-.035-.007-.056-.017-.081Zm-2.533.119.575-1.51.558,1.51Z" transform="translate(-166.452 388.167)" fill="#fff"/>
          <path id="Trazado_42251" data-name="Trazado 42251" d="M106.98-379.407q-.287.944-.581,1.886c-.155.5-.311,1.006-.468,1.514-.039-.02-.04-.055-.049-.081q-.281-.8-.558-1.606l-.6-1.712c-.015-.043-.024-.079-.089-.079-.5,0-1,0-1.523,0,.022.066.031.094.041.122q1,2.681,2.005,5.361a.115.115,0,0,0,.132.087q.584-.006,1.168,0a.127.127,0,0,0,.144-.1q.848-2.379,1.7-4.756l.267-.748h-.127c-.446,0-.893.011-1.339.009C107.028-379.509,107-379.478,106.98-379.407Z" transform="translate(-89.453 388.782)" fill="#fff"/>
          <path id="Trazado_42252" data-name="Trazado 42252" d="M94.708-379.166c-.431.013-.861.021-1.292.027-.067,0-.08.022-.08.084q0,2.667,0,5.334c0,.074.023.086.09.086.416,0,.832,0,1.248,0,.086,0,.114-.018.113-.11,0-.881,0-1.763,0-2.644s0-1.785,0-2.678C94.785-379.121,94.8-379.169,94.708-379.166Z" transform="translate(-81.749 388.505)" fill="#fff"/>
          <path id="Trazado_42253" data-name="Trazado 42253" d="M183.419-345.664h-1.53v-1.53H180.65v1.53h-1.53v1.239h1.53v1.53h1.239v-1.53h1.53Z" transform="translate(-149.312 363.324)" fill="#fff"/>
          <path id="Trazado_42254" data-name="Trazado 42254" d="M101.144-339.312a12.39,12.39,0,0,1-2.965-.086,10.891,10.891,0,0,1-3.362-1.05,10.562,10.562,0,0,1-4.564-4.461,11.64,11.64,0,0,1-.712-1.567c-.014-.039-.015-.089-.083-.089-.35,0-.7,0-1.047,0-.017.041.006.068.015.1a11.285,11.285,0,0,0,2.615,4.31,11.7,11.7,0,0,0,7.448,3.554,12.465,12.465,0,0,0,4.29-.317,11.462,11.462,0,0,0,5.3-2.913l-.729-.036A10.487,10.487,0,0,1,101.144-339.312Z" transform="translate(-77.865 362.829)" fill="#fff"/>
        </g>
      </g>
      <g id="Grupo_32726" data-name="Grupo 32726" transform="translate(8828.938 6121)">
        <rect id="Rectángulo_18532-2" data-name="Rectángulo 18532" width="66.751" height="40.291" rx="5" transform="translate(0 0)" fill="none"/>
        <g id="Grupo_22160" data-name="Grupo 22160" transform="translate(8.108 13.946)">
          <path id="Trazado_42620" data-name="Trazado 42620" d="M0,10.65A4.435,4.435,0,0,1,4.555,6.132,4.183,4.183,0,0,1,8.813,9.049l-2.011.5A2.27,2.27,0,0,0,4.568,8.068,2.429,2.429,0,0,0,2.11,10.638a2.47,2.47,0,0,0,2.457,2.594A2.237,2.237,0,0,0,6.8,11.779l2.011.509a4.142,4.142,0,0,1-4.22,2.88A4.444,4.444,0,0,1,0,10.65" transform="translate(0 -5.503)" fill="#fff"/>
          <rect id="Rectángulo_18371" data-name="Rectángulo 18371" width="1.986" height="6.33" transform="translate(11.754 3.161)" fill="#fff"/>
          <path id="Trazado_42621" data-name="Trazado 42621" d="M174.339,7.827v8.688h-1.676l-3.91-4.977v4.977h-2.06V7.827h1.676l3.91,4.977V7.827Z" transform="translate(-149.589 -7.024)" fill="#fff"/>
          <path id="Trazado_42622" data-name="Trazado 42622" d="M281.987,12.171a4.033,4.033,0,0,1-4.108,4.344H273.87V7.827h4.009a4.021,4.021,0,0,1,4.108,4.344m-2.085-.037a2.177,2.177,0,0,0-2.073-2.458h-1.924v4.99h1.924c1.167,0,2.073-1.005,2.073-2.532" transform="translate(-245.768 -7.024)" fill="#fff"/>
          <path id="Trazado_42623" data-name="Trazado 42623" d="M432.764,9.689V11.2h3.9V13h-3.9v1.651h4.518v1.862h-6.529V7.827h6.541V9.689Z" transform="translate(-386.554 -7.024)" fill="#fff"/>
          <path id="Trazado_42624" data-name="Trazado 42624" d="M113.548,1.328A1.328,1.328,0,1,1,112.22,0a1.328,1.328,0,0,1,1.328,1.328" transform="translate(-99.513 0)" fill="#fff"/>
          <rect id="Rectángulo_18372" data-name="Rectángulo 18372" width="1.986" height="6.33" transform="translate(39.147 0.574)" fill="#fff"/>
          <path id="Trazado_42625" data-name="Trazado 42625" d="M379.351,72.1a1.328,1.328,0,1,0,1.328,1.328,1.328,1.328,0,0,0-1.328-1.328" transform="translate(-339.234 -64.698)" fill="#fff"/>
          <path id="Trazado_42626" data-name="Trazado 42626" d="M9.186,115.588v1.156h-.3V116.6a.451.451,0,0,1-.37.178c-.3,0-.457-.2-.457-.514v-.674h.3v.617c0,.176.08.29.247.29s.279-.133.279-.338v-.569Z" transform="translate(-7.23 -103.727)" fill="#fff"/>
          <path id="Trazado_42627" data-name="Trazado 42627" d="M23.083,115.788v.676h-.3v-.619c0-.176-.08-.288-.247-.288s-.279.132-.279.336v.571h-.3v-1.156h.3v.146a.459.459,0,0,1,.372-.178c.3,0,.455.2.455.512" transform="translate(-19.701 -103.447)" fill="#fff"/>
          <path id="Trazado_42628" data-name="Trazado 42628" d="M43.057,115.776v.688h-.3v-.624c0-.174-.064-.283-.222-.283s-.245.121-.245.318v.59h-.3v-.624c0-.171-.062-.283-.217-.283s-.249.123-.249.327v.58h-.3v-1.156h.3v.137a.42.42,0,0,1,.343-.169.387.387,0,0,1,.347.174.481.481,0,0,1,.391-.174.442.442,0,0,1,.457.5" transform="translate(-36.989 -103.447)" fill="#fff"/>
          <path id="Trazado_42629" data-name="Trazado 42629" d="M62.836,115.588v1.156h-.3V116.6a.451.451,0,0,1-.37.178c-.3,0-.457-.2-.457-.514v-.674h.3v.617c0,.176.08.29.247.29s.279-.133.279-.338v-.569Z" transform="translate(-55.375 -103.727)" fill="#fff"/>
          <path id="Trazado_42630" data-name="Trazado 42630" d="M76.733,115.788v.676h-.3v-.619c0-.176-.08-.288-.247-.288s-.279.132-.279.336v.571h-.3v-1.156h.3v.146a.459.459,0,0,1,.372-.178c.3,0,.455.2.455.512" transform="translate(-67.846 -103.447)" fill="#fff"/>
          <path id="Trazado_42631" data-name="Trazado 42631" d="M89.946,110.6v1.668h-.3v-.142a.46.46,0,0,1-.372.174.611.611,0,0,1,0-1.22.458.458,0,0,1,.372.171V110.6Zm-.295,1.088a.326.326,0,0,0-.329-.338.341.341,0,0,0,0,.681.328.328,0,0,0,.329-.343" transform="translate(-79.597 -99.25)" fill="#fff"/>
          <path id="Trazado_42632" data-name="Trazado 42632" d="M103.063,115.886a.618.618,0,1,1,.619.61.6.6,0,0,1-.619-.61m.944,0a.325.325,0,1,0-.324.336.319.319,0,0,0,.324-.336" transform="translate(-92.488 -103.447)" fill="#fff"/>
          <path id="Trazado_42633" data-name="Trazado 42633" d="M123.374,110.6v1.668h-.3v-.142a.46.46,0,0,1-.373.174.611.611,0,0,1,0-1.22.458.458,0,0,1,.373.171V110.6Zm-.295,1.088a.326.326,0,0,0-.329-.338.341.341,0,0,0,0,.681.328.328,0,0,0,.329-.343" transform="translate(-109.595 -99.25)" fill="#fff"/>
          <path id="Trazado_42634" data-name="Trazado 42634" d="M136.491,115.886a.585.585,0,0,1,.605-.61.609.609,0,0,1,.59.7h-.9a.3.3,0,0,0,.336.263.3.3,0,0,0,.281-.153l.272.08a.632.632,0,0,1-1.186-.281m.907-.1a.284.284,0,0,0-.3-.256.3.3,0,0,0-.306.256Z" transform="translate(-122.486 -103.447)" fill="#fff"/>
          <path id="Trazado_42635" data-name="Trazado 42635" d="M155.22,115.886a.586.586,0,0,1,.605-.61.609.609,0,0,1,.59.7h-.9a.3.3,0,0,0,.336.263.3.3,0,0,0,.281-.153l.272.08a.632.632,0,0,1-1.186-.281m.907-.1a.284.284,0,0,0-.3-.256.3.3,0,0,0-.306.256Z" transform="translate(-139.293 -103.447)" fill="#fff"/>
          <path id="Trazado_42636" data-name="Trazado 42636" d="M170.29,115.788v.676h-.3v-.619c0-.176-.08-.288-.247-.288s-.279.132-.279.336v.571h-.3v-1.156h.3v.146a.459.459,0,0,1,.372-.178c.3,0,.455.2.455.512" transform="translate(-151.803 -103.447)" fill="#fff"/>
          <path id="Trazado_42637" data-name="Trazado 42637" d="M182.66,113.43a.7.7,0,0,1-.27.055.362.362,0,0,1-.386-.414v-.5h-.194v-.265H182v-.375h.3v.375h.338v.265h-.338v.5a.128.128,0,0,0,.142.146.282.282,0,0,0,.137-.032Z" transform="translate(-163.155 -100.45)" fill="#fff"/>
          <path id="Trazado_42638" data-name="Trazado 42638" d="M192.8,115.391v.283c-.247-.039-.382.075-.382.386v.5h-.3v-1.156h.3v.171a.348.348,0,0,1,.382-.187" transform="translate(-172.408 -103.546)" fill="#fff"/>
          <path id="Trazado_42639" data-name="Trazado 42639" d="M199.382,115.886a.586.586,0,0,1,.606-.61.609.609,0,0,1,.59.7h-.9a.3.3,0,0,0,.336.263.3.3,0,0,0,.281-.153l.272.08a.632.632,0,0,1-1.186-.281m.907-.1a.283.283,0,0,0-.3-.256.3.3,0,0,0-.306.256Z" transform="translate(-178.923 -103.447)" fill="#fff"/>
          <path id="Trazado_42640" data-name="Trazado 42640" d="M212.7,113.43a.694.694,0,0,1-.27.055.362.362,0,0,1-.386-.414v-.5h-.194v-.265h.194v-.375h.3v.375h.338v.265h-.338v.5a.128.128,0,0,0,.142.146.281.281,0,0,0,.137-.032Z" transform="translate(-190.116 -100.45)" fill="#fff"/>
          <path id="Trazado_42641" data-name="Trazado 42641" d="M220.94,115.886a.586.586,0,0,1,.605-.61.609.609,0,0,1,.59.7h-.9a.3.3,0,0,0,.336.263.3.3,0,0,0,.281-.153l.272.08a.632.632,0,0,1-1.186-.281m.907-.1a.283.283,0,0,0-.3-.256.3.3,0,0,0-.306.256Z" transform="translate(-198.269 -103.447)" fill="#fff"/>
          <path id="Trazado_42642" data-name="Trazado 42642" d="M236.01,115.788v.676h-.3v-.619c0-.176-.08-.288-.247-.288s-.279.132-.279.336v.571h-.3v-1.156h.3v.146a.459.459,0,0,1,.372-.178c.3,0,.455.2.455.512" transform="translate(-210.78 -103.447)" fill="#fff"/>
          <path id="Trazado_42643" data-name="Trazado 42643" d="M248.4,110.751a.181.181,0,1,1,.18.178.177.177,0,0,1-.18-.178m.025.341h.3v1.156h-.3Z" transform="translate(-222.911 -99.231)" fill="#fff"/>
          <path id="Trazado_42644" data-name="Trazado 42644" d="M256.385,115.776v.688h-.3v-.624c0-.174-.064-.283-.222-.283s-.245.121-.245.318v.59h-.3v-.624c0-.171-.062-.283-.217-.283s-.249.123-.249.327v.58h-.3v-1.156h.3v.137a.42.42,0,0,1,.343-.169.387.387,0,0,1,.347.174.481.481,0,0,1,.391-.174.442.442,0,0,1,.457.5" transform="translate(-228.427 -103.447)" fill="#fff"/>
          <path id="Trazado_42645" data-name="Trazado 42645" d="M274.99,110.751a.181.181,0,1,1,.181.178.177.177,0,0,1-.181-.178m.025.341h.3v1.156h-.3Z" transform="translate(-246.773 -99.231)" fill="#fff"/>
          <path id="Trazado_42646" data-name="Trazado 42646" d="M280.446,115.886a.586.586,0,0,1,.606-.61.564.564,0,0,1,.6.594.554.554,0,0,1-.007.107h-.9a.3.3,0,0,0,.336.263.3.3,0,0,0,.281-.153l.272.08a.632.632,0,0,1-1.186-.281m.907-.1a.283.283,0,0,0-.3-.256.3.3,0,0,0-.306.256Z" transform="translate(-251.67 -103.447)" fill="#fff"/>
          <path id="Trazado_42647" data-name="Trazado 42647" d="M295.517,115.788v.676h-.3v-.619c0-.176-.08-.288-.247-.288s-.279.132-.279.336v.571h-.3v-1.156h.3v.146a.459.459,0,0,1,.372-.178c.3,0,.455.2.455.512" transform="translate(-264.181 -103.447)" fill="#fff"/>
          <path id="Trazado_42648" data-name="Trazado 42648" d="M307.888,113.43a.7.7,0,0,1-.27.055.362.362,0,0,1-.386-.414v-.5h-.194v-.265h.194v-.375h.3v.375h.338v.265h-.338v.5a.128.128,0,0,0,.142.146.281.281,0,0,0,.137-.032Z" transform="translate(-275.533 -100.45)" fill="#fff"/>
          <path id="Trazado_42649" data-name="Trazado 42649" d="M316.123,115.886a.618.618,0,1,1,.619.61.6.6,0,0,1-.619-.61m.944,0a.325.325,0,1,0-.324.336.319.319,0,0,0,.324-.336" transform="translate(-283.686 -103.447)" fill="#fff"/>
          <path id="Trazado_42650" data-name="Trazado 42650" d="M335.61,110.751a.181.181,0,1,1,.181.178.177.177,0,0,1-.181-.178m.025.341h.3v1.156h-.3Z" transform="translate(-301.173 -99.231)" fill="#fff"/>
          <path id="Trazado_42651" data-name="Trazado 42651" d="M342.886,115.788v.676h-.3v-.619c0-.176-.08-.288-.247-.288s-.279.132-.279.336v.571h-.3v-1.156h.3v.146a.459.459,0,0,1,.372-.178c.3,0,.455.2.455.512" transform="translate(-306.689 -103.447)" fill="#fff"/>
          <path id="Trazado_42652" data-name="Trazado 42652" d="M356.1,110.6v1.668h-.3v-.142a.46.46,0,0,1-.372.174.611.611,0,0,1,0-1.22.458.458,0,0,1,.372.171V110.6Zm-.295,1.088a.326.326,0,0,0-.329-.338.341.341,0,0,0,0,.681.328.328,0,0,0,.329-.343" transform="translate(-318.441 -99.25)" fill="#fff"/>
          <path id="Trazado_42653" data-name="Trazado 42653" d="M369.216,115.886a.586.586,0,0,1,.605-.61.609.609,0,0,1,.59.7h-.9a.3.3,0,0,0,.336.263.3.3,0,0,0,.281-.153l.272.08a.632.632,0,0,1-1.186-.281m.907-.1a.283.283,0,0,0-.3-.256.3.3,0,0,0-.306.256Z" transform="translate(-331.331 -103.447)" fill="#fff"/>
          <path id="Trazado_42654" data-name="Trazado 42654" d="M384.4,115.886a.579.579,0,0,1-.569.61.464.464,0,0,1-.375-.174v.621h-.3v-1.636h.3v.139a.463.463,0,0,1,.375-.171.578.578,0,0,1,.569.61m-.3,0a.318.318,0,0,0-.324-.338.341.341,0,0,0,0,.681.321.321,0,0,0,.324-.343" transform="translate(-343.841 -103.447)" fill="#fff"/>
          <path id="Trazado_42655" data-name="Trazado 42655" d="M396.831,115.886a.586.586,0,0,1,.605-.61.609.609,0,0,1,.59.7h-.9a.3.3,0,0,0,.336.263.3.3,0,0,0,.281-.153l.272.08a.632.632,0,0,1-1.186-.281m.907-.1a.283.283,0,0,0-.3-.256.3.3,0,0,0-.306.256Z" transform="translate(-356.112 -103.447)" fill="#fff"/>
          <path id="Trazado_42656" data-name="Trazado 42656" d="M411.9,115.788v.676h-.3v-.619c0-.176-.08-.288-.247-.288s-.279.132-.279.336v.571h-.3v-1.156h.3v.146a.459.459,0,0,1,.372-.178c.3,0,.455.2.455.512" transform="translate(-368.624 -103.447)" fill="#fff"/>
          <path id="Trazado_42657" data-name="Trazado 42657" d="M425.115,110.6v1.668h-.3v-.142a.459.459,0,0,1-.372.174.611.611,0,0,1,0-1.22.458.458,0,0,1,.372.171V110.6Zm-.295,1.088a.326.326,0,0,0-.329-.338.341.341,0,0,0,0,.681.328.328,0,0,0,.329-.343" transform="translate(-380.374 -99.25)" fill="#fff"/>
          <path id="Trazado_42658" data-name="Trazado 42658" d="M438.655,110.751a.181.181,0,1,1,.181.178.177.177,0,0,1-.181-.178m.025.341h.3v1.156h-.3Z" transform="translate(-393.645 -99.231)" fill="#fff"/>
          <path id="Trazado_42659" data-name="Trazado 42659" d="M444.112,115.886a.585.585,0,0,1,.606-.61.609.609,0,0,1,.59.7h-.9a.3.3,0,0,0,.336.263.3.3,0,0,0,.281-.153l.272.08a.632.632,0,0,1-1.186-.281m.907-.1a.284.284,0,0,0-.3-.256.3.3,0,0,0-.306.256Z" transform="translate(-398.542 -103.447)" fill="#fff"/>
          <path id="Trazado_42660" data-name="Trazado 42660" d="M459.182,115.788v.676h-.3v-.619c0-.176-.08-.288-.247-.288s-.279.132-.279.336v.571h-.3v-1.156h.3v.146a.459.459,0,0,1,.372-.178c.3,0,.455.2.455.512" transform="translate(-411.053 -103.447)" fill="#fff"/>
          <path id="Trazado_42661" data-name="Trazado 42661" d="M471.553,113.43a.694.694,0,0,1-.27.055.362.362,0,0,1-.386-.414v-.5H470.7v-.265h.194v-.375h.3v.375h.338v.265H471.2v.5a.128.128,0,0,0,.142.146.282.282,0,0,0,.137-.032Z" transform="translate(-422.405 -100.45)" fill="#fff"/>
          <path id="Trazado_42662" data-name="Trazado 42662" d="M479.789,115.886a.586.586,0,0,1,.606-.61.609.609,0,0,1,.59.7h-.9a.3.3,0,0,0,.336.263.3.3,0,0,0,.281-.153l.272.08a.632.632,0,0,1-1.186-.281m.907-.1a.283.283,0,0,0-.3-.256.3.3,0,0,0-.306.256Z" transform="translate(-430.558 -103.447)" fill="#fff"/>
        </g>
      </g>
      <g id="Grupo_34972" data-name="Grupo 34972" transform="translate(8911.938 6121)">
        <rect id="Rectángulo_18532-3" data-name="Rectángulo 18532" width="66.126" height="39.913" rx="5" transform="translate(0)" fill="none"/>
        <g id="Grupo_34951" data-name="Grupo 34951" transform="translate(19.303 5.362)">
          <g id="Grupo_34950" data-name="Grupo 34950" clip-path="url(#clip-path)">
            <path id="Trazado_88249" data-name="Trazado 88249" d="M42.488,0l.028.1h-.2s1.267,4.5,1.339,4.717.233.262.582.364A5.014,5.014,0,0,1,47.371,9.92c0,3.4-2.7,4.523-5.533,4.6a.133.133,0,0,0-.094.124h-.085s-.109.013,0,.246,2.329,3.654,2.664,4.12a14.127,14.127,0,0,0,10.231-4.683C58.63,9.512,55.621.039,42.488,0" transform="translate(-32.874)" fill="#fff"/>
            <path id="Trazado_88250" data-name="Trazado 88250" d="M32.915,37.721A3.318,3.318,0,1,0,29.6,34.4a3.318,3.318,0,0,0,3.318,3.318" transform="translate(-23.384 -24.56)" fill="#fff"/>
            <path id="Trazado_88251" data-name="Trazado 88251" d="M3.152,101.549H2.12L.907,103.273v-1.724H0v3.969H.907v-1.837l1.27,1.837H3.209l-1.395-2.036Z" transform="translate(0 -80.23)" fill="#fff"/>
            <path id="Trazado_88252" data-name="Trazado 88252" d="M22.328,101.549H21.171l-1.349,3.969h.992l.2-.624h1.474l.2.624h.992Zm-1.043,2.495.465-1.457.465,1.457Z" transform="translate(-15.661 -80.23)" fill="#fff"/>
            <path id="Trazado_88253" data-name="Trazado 88253" d="M46.921,101.549h-.907V103.7l-1.531-2.155H43.8v3.969h.907v-2.155l1.531,2.155h.68Z" transform="translate(-34.607 -80.23)" fill="#fff"/>
            <path id="Trazado_88254" data-name="Trazado 88254" d="M66.779,101.549H65.622l-1.349,3.969h.992l.2-.624h1.474l.2.624h.992Zm-1.043,2.495.465-1.457.465,1.457Z" transform="translate(-50.78 -80.23)" fill="#fff"/>
            <path id="Trazado_88255" data-name="Trazado 88255" d="M89.161,101.549h-.907v3.969h2.325v-.873H89.161Z" transform="translate(-69.726 -80.23)" fill="#fff"/>
            <path id="Trazado_88256" data-name="Trazado 88256" d="M117.55,101.548h-1.588v3.969h1.588a1.985,1.985,0,0,0,0-3.969m0,3.1h-.68v-2.223h.68a1.113,1.113,0,0,1,0,2.223" transform="translate(-91.617 -80.229)" fill="#fff"/>
            <path id="Trazado_88257" data-name="Trazado 88257" d="M22.456,129.873h-.9v2.247h.9a1.124,1.124,0,0,0,0-2.247m0,1.753h-.385v-1.258h.385a.63.63,0,0,1,0,1.258" transform="translate(-17.031 -102.608)" fill="#fff"/>
            <path id="Trazado_88258" data-name="Trazado 88258" d="M43.255,130.644a.768.768,0,0,0-.77-.77h-.9v2.247H42.1v-.738h.244l.424.738h.552l-.479-.825a.74.74,0,0,0,.414-.652m-.77.289H42.1v-.578h.385a.291.291,0,0,1,0,.578" transform="translate(-32.856 -102.609)" fill="#fff"/>
            <path id="Trazado_88259" data-name="Trazado 88259" d="M60.662,129.873h-.655l-.764,2.247H59.8l.112-.353h.835l.112.353h.562Zm-.591,1.412.263-.825.263.825Z" transform="translate(-46.806 -102.608)" fill="#fff"/>
            <path id="Trazado_88260" data-name="Trazado 88260" d="M80.854,130.872l-.61-1h-.514v2.247h.514v-1.306l.581.953h.058l.581-.953v1.306h.514v-2.247h-.514Z" transform="translate(-62.992 -102.609)" fill="#fff"/>
            <path id="Trazado_88261" data-name="Trazado 88261" d="M101.287,129.873l-.764,2.247h.562l.112-.353h.835l.112.353h.562l-.764-2.247Zm.064,1.412.263-.825.263.825Z" transform="translate(-79.42 -102.608)" fill="#fff"/>
          </g>
        </g>
      </g>
      <g id="Grupo_34978" data-name="Grupo 34978" transform="translate(8745.938 6121)">
        <rect id="Rectángulo_18532-4" data-name="Rectángulo 18532" width="66.402" height="40.08" rx="5" transform="translate(0 0)" fill="none"/>
        <g id="Grupo_32685" data-name="Grupo 32685" transform="translate(15.691 9.713)">
          <path id="Trazado_43304" data-name="Trazado 43304" d="M4.3,18.173H6.49v5.918H4.3v-.53a1.926,1.926,0,0,1-1.586.7,2.447,2.447,0,0,1-1.954-.886A3.334,3.334,0,0,1,0,21.133a3.325,3.325,0,0,1,.758-2.238A2.447,2.447,0,0,1,2.712,18a1.93,1.93,0,0,1,1.586.7ZM2.481,21.927a.985.985,0,0,0,.764.32.985.985,0,0,0,.764-.32,1.231,1.231,0,0,0,0-1.587.985.985,0,0,0-.764-.32.985.985,0,0,0-.764.32,1.231,1.231,0,0,0,0,1.587" transform="translate(0.898 -15.307)" fill="#fff"/>
          <path id="Trazado_43305" data-name="Trazado 43305" d="M53.456,18.007a1.976,1.976,0,0,1,1.557.664,2.934,2.934,0,0,1,.587,1.993V24.1H53.409V20.913q0-.794-.734-.794a.734.734,0,0,0-.6.249,1.04,1.04,0,0,0-.2.686V24.1H49.678V18.178h2.194v.58a1.832,1.832,0,0,1,1.584-.751" transform="translate(-41.343 -15.311)" fill="#fff"/>
          <path id="Trazado_43306" data-name="Trazado 43306" d="M95.6,2.416a1.175,1.175,0,0,1-.859-.361A1.174,1.174,0,0,1,94.709.394l.033-.033A1.171,1.171,0,0,1,95.6,0a1.159,1.159,0,0,1,.847.361,1.175,1.175,0,0,1,.033,1.661l-.033.033a1.164,1.164,0,0,1-.847.361m-1.1.451H96.69V8.784H94.5Z" transform="translate(-79.354 0)" fill="#fff"/>
          <path id="Trazado_43307" data-name="Trazado 43307" d="M123.122,18.007a2.052,2.052,0,0,1,1.611.645,2.692,2.692,0,0,1,.585,1.845v3.6h-2.2v-3.3q0-.675-.6-.675-.7,0-.7.877v3.1h-2.191v-3.3q0-.675-.6-.675-.7,0-.7.877v3.1h-2.191V18.178h2.191v.553a1.951,1.951,0,0,1,1.611-.724,1.6,1.6,0,0,1,1.481.734,2.149,2.149,0,0,1,1.7-.734" transform="translate(-97.852 -15.311)" fill="#fff"/>
          <path id="Trazado_43308" data-name="Trazado 43308" d="M183.84,21.882a1.2,1.2,0,0,0,1.208.592,1.55,1.55,0,0,0,1.006-.371l1.434,1.208a3.242,3.242,0,0,1-2.511.959,3.361,3.361,0,0,1-2.435-.886,2.947,2.947,0,0,1-.918-2.221,3.078,3.078,0,0,1,3.152-3.156,2.98,2.98,0,0,1,2.221.886,3.037,3.037,0,0,1,.869,2.222,3.155,3.155,0,0,1-.094.775Zm-.035-1.409H185.8a.9.9,0,0,0-.96-.711,1.022,1.022,0,0,0-1.033.713Z" transform="translate(-153.535 -15.311)" fill="#fff"/>
          <g id="Polígono_5" data-name="Polígono 5" transform="matrix(0.719, -0.695, 0.695, 0.719, 0, 13.797)" fill="#fff">
            <path d="M.96,0l.96,1.28H0Z" stroke="none"/>
            <path d="M 0.9599710702896118 4.76837158203125e-06 L 1.919941067695618 1.279964804649353 L 1.072883605957031e-06 1.279964804649353 L 0.9599710702896118 4.76837158203125e-06 Z" stroke="none" fill="#fff"/>
          </g>
          <g id="Polígono_6" data-name="Polígono 6" transform="translate(5.468 12.447) rotate(49)" fill="#fff">
            <path d="M.96,0l.96,1.28H0Z" stroke="none"/>
            <path d="M 0.9599593877792358 0 L 1.919919371604919 1.279940009117126 L -5.960464477539062e-07 1.279940009117126 L 0.9599593877792358 0 Z" stroke="none" fill="#fff"/>
          </g>
          <path id="Trazado_43309" data-name="Trazado 43309" d="M283.651,18.11a1.992,1.992,0,0,0-1.816.953v-.806h-.974v5.6h.974V20.889a1.911,1.911,0,0,1,.448-1.395,1.582,1.582,0,0,1,1.177-.457,1.366,1.366,0,0,1,1.019.376,1.441,1.441,0,0,1,.37,1.059v3.382h.975V20.418a2.34,2.34,0,0,0-.594-1.686,2.081,2.081,0,0,0-1.579-.622" transform="translate(-273.291 -5.646)" fill="#fff"/>
          <path id="Trazado_43310" data-name="Trazado 43310" d="M324.223,18.11a2.83,2.83,0,0,0-2.118.838,2.889,2.889,0,0,0-.817,2.106,2.859,2.859,0,0,0,.838,2.112,2.944,2.944,0,0,0,2.168.838,2.736,2.736,0,0,0,2.464-1.266l-.828-.471a1.752,1.752,0,0,1-1.614.819,2.143,2.143,0,0,1-1.338-.419,1.844,1.844,0,0,1-.692-1.161h4.693a2.857,2.857,0,0,0,.034-.437,3.022,3.022,0,0,0-.778-2.094,2.588,2.588,0,0,0-2.011-.864m-1.938,2.544a1.86,1.86,0,0,1,1.938-1.624,1.8,1.8,0,0,1,1.176.419,1.887,1.887,0,0,1,.628,1.209Z" transform="translate(-307.994 -5.646)" fill="#fff"/>
          <path id="Trazado_43311" data-name="Trazado 43311" d="M370.386,19.217a2.377,2.377,0,0,0-2.107-1.11,2.732,2.732,0,0,0-2.027.846,3,3,0,0,0,0,4.144,2.722,2.722,0,0,0,2.027.851,2.387,2.387,0,0,0,2.107-1.12v.8a1.627,1.627,0,0,1-.5,1.257,1.935,1.935,0,0,1-1.372.46,1.83,1.83,0,0,1-1.826-.942l-.851.482a2.345,2.345,0,0,0,1.033,1.008,3.492,3.492,0,0,0,1.624.353,3.077,3.077,0,0,0,2.017-.689,2.36,2.36,0,0,0,.838-1.932V18.254h-.963Zm-.572,3.226a2.009,2.009,0,1,1,.572-1.419,1.933,1.933,0,0,1-.572,1.419" transform="translate(-345.878 -5.643)" fill="#fff"/>
          <path id="Trazado_43312" data-name="Trazado 43312" d="M418.477,19.219a2.377,2.377,0,0,0-2.117-1.11,2.687,2.687,0,0,0-2.005.858,3.062,3.062,0,0,0,0,4.189,2.687,2.687,0,0,0,2.005.858,2.374,2.374,0,0,0,2.117-1.109v.95h.975v-5.6h-.975Zm-.571,3.265a2.03,2.03,0,0,1-2.835,0,2.067,2.067,0,0,1,0-2.857,2.03,2.03,0,0,1,2.835,0,2.07,2.07,0,0,1,0,2.857" transform="translate(-387.17 -5.646)" fill="#fff"/>
          <rect id="Rectángulo_18629" data-name="Rectángulo 18629" width="0.975" height="5.601" transform="translate(33.481 12.61)" fill="#fff"/>
          <path id="Trazado_43313" data-name="Trazado 43313" d="M463.337,3.995a.647.647,0,0,0,.646-.648.647.647,0,0,0-.191-.465.619.619,0,0,0-.455-.2.628.628,0,0,0-.471.2.647.647,0,0,0-.191.465.628.628,0,0,0,.188.462.641.641,0,0,0,.474.188" transform="translate(-429.36 7.596)" fill="#fff"/>
          <path id="Trazado_43314" data-name="Trazado 43314" d="M237.023,19.582l-1.971.3a2.993,2.993,0,0,0-2.124,0l-2.012-.3.362,2.175a2.968,2.968,0,0,0-.085.72,2.762,2.762,0,0,0,2.735,2.789h.055a2.723,2.723,0,0,0,1.983-.806,2.679,2.679,0,0,0,.817-1.983,2.974,2.974,0,0,0-.085-.72Zm-5.389,1.326-.148-.768.778.11Zm3.686,2.916a1.872,1.872,0,0,1-3.2-1.347,1.83,1.83,0,0,1,.541-1.348,1.909,1.909,0,0,1,2.662,0,1.947,1.947,0,0,1,0,2.694m.984-2.9-.639-.649.772-.125Z" transform="translate(-230.42 -6.91)" fill="#fff"/>
        </g>
      </g>
      <ellipse id="Elipse_424" data-name="Elipse 424" cx="2.885" cy="2.884" rx="2.885" ry="2.884" transform="translate(8817.938 6138)" fill="#fff"/>
      <ellipse id="Elipse_425" data-name="Elipse 425" cx="2.885" cy="2.884" rx="2.885" ry="2.884" transform="translate(8900.938 6138)" fill="#fff"/>
    </g>
    <g id="Grupo_35100" data-name="Grupo 35100">
      <g id="Grupo_32720" data-name="Grupo 32720" transform="translate(8788 6075)">
        <rect id="Rectángulo_18532-5" data-name="Rectángulo 18532" width="65.212" height="39.362" rx="5" transform="translate(0 0)" fill="none"/>
        <g id="Netflix_Logo_CMYK" transform="translate(8.811 13.512)">
          <g id="Netflix_Logo_CMYK-2" data-name="Netflix_Logo_CMYK" transform="translate(0 0)" clip-path="url(#clip-path-2)">
            <path id="Trazado_25345" data-name="Trazado 25345" d="M36.515,11.527q1,.076,1.991.166V0H36.515ZM4.486,7.19,1.892,0H0V12.7q.994-.142,1.991-.272V5.523L4.3,12.146q1.087-.126,2.18-.239V0H4.486Zm3.906,4.536q2.753-.248,5.53-.411V9.35q-1.776.1-3.538.242V6.623c.772-.007,1.789-.03,2.687-.02V4.642c-.719,0-1.875.01-2.687.02V1.981h3.538V0H8.392ZM15.2,1.981h2.084v9.174q.994-.036,1.991-.063V1.981h2.084V0H15.2Zm7.435,9.055h1.991V6.507h2.7V4.546h-2.7V1.981h3.565V0H22.632ZM47.279,0H45.092L43.651,3.343,42.356,0H40.2l2.316,5.97L39.99,11.828q1.047.1,2.094.219l1.471-3.406,1.454,3.754q1.136.146,2.27.308h0L44.688,6.013ZM31.459,0H29.467V11.136q2.713.093,5.407.272V9.446q-1.7-.113-3.416-.192Z" fill="#fff"/>
          </g>
        </g>
      </g>
      <g id="Grupo_32721" data-name="Grupo 32721" transform="translate(8634 6075)">
        <rect id="Rectángulo_18532-6" data-name="Rectángulo 18532" width="65.212" height="39.362" rx="5" transform="translate(0 0)" fill="none"/>
        <g id="Grupo_20453" data-name="Grupo 20453" transform="translate(15.862 8.812)" clip-path="url(#clip-path-3)">
          <path id="Trazado_43170" data-name="Trazado 43170" d="M1.028,22.041a.359.359,0,0,1-.248-.072A.335.335,0,0,1,.7,21.715V13.028a.336.336,0,0,1,.078-.254.359.359,0,0,1,.248-.072h.938a.337.337,0,0,1,.364.286l.091.339a2.881,2.881,0,0,1,.944-.6,3.016,3.016,0,0,1,1.127-.221,2.418,2.418,0,0,1,2,.925,3.906,3.906,0,0,1,.736,2.5,4.557,4.557,0,0,1-.364,1.889,2.952,2.952,0,0,1-.99,1.244A2.441,2.441,0,0,1,4.44,19.5a3.045,3.045,0,0,1-1.016-.169,2.443,2.443,0,0,1-.82-.469v2.852a.356.356,0,0,1-.072.254.356.356,0,0,1-.254.072ZM3.88,18.069a1.219,1.219,0,0,0,1.074-.495A2.779,2.779,0,0,0,5.3,16.011a2.853,2.853,0,0,0-.339-1.576A1.217,1.217,0,0,0,3.88,13.94a2.478,2.478,0,0,0-1.276.352v3.425a2.392,2.392,0,0,0,1.276.352" transform="translate(-0.541 -9.642)" fill="#fff"/>
          <path id="Trazado_43171" data-name="Trazado 43171" d="M35.076,19.8a.281.281,0,0,1-.326-.326v-6a.336.336,0,0,1,.078-.254.359.359,0,0,1,.248-.072h.938a.337.337,0,0,1,.365.286l.169.7a3.716,3.716,0,0,1,.983-.814,2.1,2.1,0,0,1,.984-.241H38.7a.381.381,0,0,1,.26.072.334.334,0,0,1,.078.254V14.5a.358.358,0,0,1-.071.247.335.335,0,0,1-.254.078q-.091,0-.234-.013c-.1-.008-.217-.013-.365-.013a3.885,3.885,0,0,0-.729.085,3.584,3.584,0,0,0-.729.215v4.376a.36.36,0,0,1-.072.247.335.335,0,0,1-.254.078Z" transform="translate(-26.789 -10.08)" fill="#fff"/>
          <path id="Trazado_43172" data-name="Trazado 43172" d="M57.937,2.032a1.132,1.132,0,0,1-.795-.274.955.955,0,0,1-.3-.743.955.955,0,0,1,.3-.743,1.291,1.291,0,0,1,1.589,0,.956.956,0,0,1,.3.743.956.956,0,0,1-.3.743,1.133,1.133,0,0,1-.794.274m-.625,7.684a.281.281,0,0,1-.326-.326v-6a.335.335,0,0,1,.078-.254.359.359,0,0,1,.247-.072h1.25a.355.355,0,0,1,.254.072.356.356,0,0,1,.072.254v6a.359.359,0,0,1-.072.247.334.334,0,0,1-.254.078Z" transform="translate(-43.82 0)" fill="#fff"/>
          <path id="Trazado_43173" data-name="Trazado 43173" d="M73.133,19.358a.281.281,0,0,1-.326-.326v-6a.336.336,0,0,1,.078-.254.359.359,0,0,1,.248-.072h.938a.337.337,0,0,1,.365.286l.1.352a5.617,5.617,0,0,1,1.244-.644,3.5,3.5,0,0,1,1.14-.189,1.753,1.753,0,0,1,1.654.833,5.334,5.334,0,0,1,1.25-.638,3.8,3.8,0,0,1,1.211-.2,1.9,1.9,0,0,1,1.413.508,1.933,1.933,0,0,1,.5,1.419v4.6a.36.36,0,0,1-.071.247.336.336,0,0,1-.254.078h-1.25a.281.281,0,0,1-.326-.326V14.851q0-.886-.794-.885a3.3,3.3,0,0,0-1.42.338v4.728a.359.359,0,0,1-.072.247.335.335,0,0,1-.254.078h-1.25a.281.281,0,0,1-.326-.326V14.851q0-.886-.794-.885a3.175,3.175,0,0,0-1.433.351v4.715a.36.36,0,0,1-.072.247.335.335,0,0,1-.254.078Z" transform="translate(-56.127 -9.642)" fill="#fff"/>
          <path id="Trazado_43174" data-name="Trazado 43174" d="M125.559,19.553a3.313,3.313,0,0,1-2.481-.886,3.482,3.482,0,0,1-.866-2.54,3.778,3.778,0,0,1,.885-2.657,3.177,3.177,0,0,1,2.462-.964,2.821,2.821,0,0,1,1.9.586,1.956,1.956,0,0,1,.684,1.563,1.674,1.674,0,0,1-.736,1.478,3.86,3.86,0,0,1-2.169.5,5.13,5.13,0,0,1-1.29-.143,1.768,1.768,0,0,0,.528,1.25,2.076,2.076,0,0,0,1.361.378,5.407,5.407,0,0,0,.71-.046,8.825,8.825,0,0,0,.957-.2.489.489,0,0,1,.078-.02.409.409,0,0,1,.065-.007q.221,0,.221.3v.6a.54.54,0,0,1-.058.293.479.479,0,0,1-.228.15,5.59,5.59,0,0,1-2.019.365m-.43-4.09a1.769,1.769,0,0,0,.964-.2.7.7,0,0,0,.3-.619q0-.821-.977-.821-1.251,0-1.446,1.537a5.915,5.915,0,0,0,1.159.1" transform="translate(-94.213 -9.642)" fill="#fff"/>
          <path id="Trazado_43175" data-name="Trazado 43175" d="M30.664,65.016a24.327,24.327,0,0,1-13.735,4.2,24.857,24.857,0,0,1-16.778-6.4c-.348-.314-.038-.743.38-.5a33.773,33.773,0,0,0,16.788,4.454,33.4,33.4,0,0,0,12.805-2.62c.628-.266,1.154.414.54.868" transform="translate(0 -47.983)" fill="#fff" fill-rule="evenodd"/>
          <path id="Trazado_43176" data-name="Trazado 43176" d="M124.963,61c-.475-.608-3.14-.288-4.337-.145-.363.044-.419-.273-.092-.5,2.126-1.493,5.61-1.062,6.015-.562s-.107,4-2.1,5.664c-.307.256-.6.119-.462-.219.449-1.12,1.452-3.626.977-4.235" transform="translate(-92.753 -45.735)" fill="#fff" fill-rule="evenodd"/>
        </g>
      </g>
      <g id="Grupo_32722" data-name="Grupo 32722" transform="translate(8711 6075)">
        <rect id="Rectángulo_18532-7" data-name="Rectángulo 18532" width="65.211" height="39.362" rx="5" transform="translate(0 0)" fill="none"/>
        <g id="Grupo_22155" data-name="Grupo 22155" transform="translate(5.876 15.275)">
          <path id="Trazado_42929" data-name="Trazado 42929" d="M57.436,24.957c0,.006,0,5.714,0,5.714a.146.146,0,0,1-.127.155h-.776a.847.847,0,0,1-.831-.846v-5a1.619,1.619,0,0,0-1.726-1.652,1.637,1.637,0,0,0-1.722,1.68v5.672a.139.139,0,0,1-.129.148h-.776a.863.863,0,0,1-.831-.864V24.985a1.725,1.725,0,0,0-3.448.005v5.695a.133.133,0,0,1-.129.14h-.776a.832.832,0,0,1-.829-.831V24.978a3.25,3.25,0,0,1,3.454-3.365,3.473,3.473,0,0,1,2.593,1.025,3.478,3.478,0,0,1,2.591-1.033,3.249,3.249,0,0,1,3.462,3.351" transform="translate(-22.129 -21.603)" fill="#fff"/>
          <path id="Trazado_42930" data-name="Trazado 42930" d="M86.539,30.792a.069.069,0,0,1-.06.106l-1.385,0a.983.983,0,0,1-.922-.433l-1.418-2.091a.529.529,0,0,0-1,0l-1.417,2.091a.982.982,0,0,1-.922.433H78.029a.071.071,0,0,1-.058-.11L80.7,26.757a.714.714,0,0,0,0-.782L77.971,21.94a.069.069,0,0,1,.058-.108h1.385a.98.98,0,0,1,.922.431l1.417,2.091a.529.529,0,0,0,1,0l1.418-2.091a.981.981,0,0,1,.922-.431H86.48a.07.07,0,0,1,.06.108l-2.734,4.035a.717.717,0,0,0,0,.782Z" transform="translate(-33.364 -21.681)" fill="#fff"/>
          <path id="Trazado_42931" data-name="Trazado 42931" d="M72.758,21.755h-.546a.838.838,0,0,0-.725.418l-.2.352a4.174,4.174,0,0,0-2.643-.918c-2.543,0-4.236,1.8-4.236,4.643,0,2.868,1.721,4.642,4.215,4.642a4.13,4.13,0,0,0,2.507-.806.813.813,0,0,0,.835.74h.792c.077,0,.14-.033.14-.111l0-8.82a.14.14,0,0,0-.14-.139M68.6,29.163c-1.446,0-2.506-1.076-2.506-2.914s1.059-2.915,2.506-2.915,2.506,1.076,2.506,2.915-1.059,2.914-2.506,2.914" transform="translate(-28.697 -21.603)" fill="#fff"/>
          <path id="Trazado_42932" data-name="Trazado 42932" d="M14.076,25.206h-1.6V21.833H9.937V30.9h2.54V27.383h1.6V30.9H16.54v-9.07H14.076Z" transform="translate(-9.937 -21.681)" fill="#fff"/>
          <path id="Trazado_42933" data-name="Trazado 42933" d="M31.569,21.6a4.566,4.566,0,0,0-4.156,2.621,2.63,2.63,0,0,0-2.418-2.47h-4.2v9.071h3.92a2.73,2.73,0,0,0,2.708-2.544A4.621,4.621,0,1,0,31.569,21.6M24.382,28.71H23.135V27.178h1.247a.777.777,0,0,1,0,1.533m0-3.406H23.14V23.772h1.247a.777.777,0,0,1,0,1.533m1.66.911a1.943,1.943,0,0,0,.93-.571,4.2,4.2,0,0,0,.005,1.265,1.745,1.745,0,0,0-.935-.694m5.523,2.309a2.309,2.309,0,1,1,2.309-2.309,2.309,2.309,0,0,1-2.309,2.309" transform="translate(-13.675 -21.601)" fill="#fff"/>
          <path id="Trazado_42934" data-name="Trazado 42934" d="M36.28,25.872a1.815,1.815,0,1,0,1.815,1.815,1.815,1.815,0,0,0-1.815-1.815" transform="translate(-18.385 -23.072)" fill="#fff"/>
        </g>
      </g>
      <g id="Grupo_32723" data-name="Grupo 32723" transform="translate(8865 6075)">
        <rect id="Rectángulo_18532-8" data-name="Rectángulo 18532" width="65.83" height="39.735" rx="5" transform="translate(0 0)" fill="none"/>
        <g id="paramount_Blanco" data-name="paramount + Blanco" transform="translate(12.455 7.117)">
          <g id="paramount_Blanco-2" data-name="paramount + Blanco" transform="translate(0 0)" clip-path="url(#clip-path-4)">
            <path id="Trazado_25772" data-name="Trazado 25772" d="M362.588,245.9c-.1-.04-.263-.227.009-.735l.633-1.324c.018-.04-.027-.089-.058-.058l-.553.557a9.555,9.555,0,0,0-.793,1.181l-.668,1.114a.089.089,0,0,1,.08.134l-.615,1.029c-.152.254.12.437.156.374.963-1.555,1.524-1.431,1.524-1.431l.321-.744a.076.076,0,0,0,0-.06.076.076,0,0,0-.042-.043" transform="translate(-344.508 -232.914)" fill="#fff"/>
            <path id="Trazado_25773" data-name="Trazado 25773" d="M240.787,0a9.987,9.987,0,0,0-8.035,15.918,2.083,2.083,0,0,0,.82-.66l1.858-2.38a.379.379,0,0,1,.147-.116l.281-.12,3.057-3.877.446-.348.909-1.27a.378.378,0,0,1,.085-.085l.4-.29a.285.285,0,0,1,.33,0l.481.339a1.894,1.894,0,0,1,.611.7l1.934,3.4a.3.3,0,0,0,.152.147,2.653,2.653,0,0,1,1.105.762c.232.25,1.243,1.386,2.665,3.146a2.014,2.014,0,0,0,.8.651A9.988,9.988,0,0,0,240.787,0m-7.3,10.539-.646-.209-.4.553V10.2l-.646-.209.646-.209V9.1l.4.553.646-.209-.4.553Zm-.152,2.228-.209.646-.209-.646h-.682l.553-.4-.214-.646.553.4.553-.4-.209.646.553.4Zm.129-5.156.209.646-.553-.4-.553.4.21-.646-.553-.4h.682l.209-.646.209.646h.682Zm1.092-1.466-.4-.553-.646.209.4-.553-.4-.553.646.209.4-.553v.682l.646.209-.646.209Zm1.7-2.384-.209.651-.209-.651h-.682l.553-.4-.209-.646.553.4.553-.4-.209.646.553.4Zm2.144-1.092-.4.553V2.54l-.646-.209.646-.209V1.439l.4.553.646-.209-.4.553.4.553Zm2.718-.624.209.646-.553-.4-.553.4.209-.646-.553-.4h.682L240.778,1l.209.646h.682Zm2.442.495v.682l-.4-.553-.646.209.4-.553-.4-.553.646.209.4-.553v.691l.646.209Zm4.514,6.9.646.209.4-.553v.682l.646.209-.646.209v.682l-.4-.553-.646.209.4-.553Zm-2.563-5.027-.209-.646h-.682l.553-.4-.209-.646.553.4.553-.4-.209.646.553.4h-.686Zm1.493,1.734V5.464l-.646-.209.646-.209V4.363l.4.553.646-.209-.4.553.4.553-.646-.209Zm1.221,1.065.209-.646.209.646h.682l-.553.4.209.646-.553-.4-.553.4.209-.646-.553-.4Zm.419,5.557-.2.646-.209-.646h-.682l.553-.4-.214-.646.553.4.553-.4-.209.646.553.4Z" transform="translate(-220.514)" fill="#fff"/>
            <path id="Trazado_25774" data-name="Trazado 25774" d="M421.543,174.747a.64.64,0,0,0-.022-.615l-.441-1.19c-.062-.151.071-.245.16-.143a13.214,13.214,0,0,1,1.052,1.364l.41.682c.357.022,1.332.049,2.273.049a2.685,2.685,0,0,1-.263-.3c-1.6-1.992-2.625-3.1-2.634-3.111a1.8,1.8,0,0,0-.726-.535l-.116-.053v.3a.037.037,0,0,1-.071.018l-2.362-4.149v-.013a1.329,1.329,0,0,0-.423-.49l-.232-.16L417.02,169a.245.245,0,0,1,.223.339l-1.043,2.406h.954a2.839,2.839,0,0,1,1.079.214l.254.1a7.954,7.954,0,0,0-.762,2.389,1.71,1.71,0,0,0,.062.441h1.751l-.076-.486a18.711,18.711,0,0,0,2.081.343" transform="translate(-397.652 -158.984)" fill="#fff"/>
            <path id="Trazado_25775" data-name="Trazado 25775" d="M10.364,359.384c0-1.609-1.707-2.384-3.73-2.384-2.166,0-4.158.963-4.884,2.451a2.821,2.821,0,0,0-.307,1.279,1.925,1.925,0,0,0,.307,1.087,1.907,1.907,0,0,0,1.689.753c1.007,0,1.8-.553,1.8-1.511a.263.263,0,0,0-.3-.267c-.312,0-.321.178-.312.267a1.188,1.188,0,0,1-1.208,1.355c-.9,0-1.266-.758-1.266-1.573a3.558,3.558,0,0,1,2.554-3.24,5.2,5.2,0,0,1,1.907-.334c1.475,0,2.683.566,2.683,2.086a2.53,2.53,0,0,1-2.34,2.442l.053-.169a9.328,9.328,0,0,1,1.1-2.705,2.088,2.088,0,0,1,.143-.192l-.076-.089a3.1,3.1,0,0,0-.321.223c-2.442,1.907-2.518,7.268-5.771,7.268a2.518,2.518,0,0,1-.334-.022,1.138,1.138,0,0,1-1.034-1.2c0-.125.045-.3.045-.4a.325.325,0,0,0-.321-.334H.408c-.29,0-.41.232-.419.557-.022.945.677,1.5,1.756,1.6.12.009.236.013.365.013,2.54,0,4.1-1.921,4.759-4.251a5.589,5.589,0,0,0,.989-.209c1.176-.33,2.5-1.119,2.5-2.509" transform="translate(0.011 -341.091)" fill="#fff"/>
            <path id="Trazado_25776" data-name="Trazado 25776" d="M207.493,423.1H206.6l-.2.468-.352.789h-.419l-.125.267h.432l-.517,1.154c-.374.811-.954,1.609-1.288,1.609-.076,0-.12-.031-.12-.1a1.059,1.059,0,0,1,.1-.352c.08-.209.276-.6.4-.864a4.246,4.246,0,0,0,.486-1.257.5.5,0,0,0-.553-.521,1.715,1.715,0,0,0-1.123.6l.223-.535h-.838l-.686,1.564c-.276.553-.833,1.466-1.185,1.466-.076,0-.1-.045-.1-.12a.628.628,0,0,1,.053-.192l.441-1.029.74-1.7h-.909L200.335,426c-.223.512-.789,1.386-1.154,1.386a.116.116,0,0,1-.125-.1v-.031a1.243,1.243,0,0,1,.12-.374l.379-.833.78-1.7h-.9l-.178.388a.874.874,0,0,1-.713.566.3.3,0,0,1-.29-.134.888.888,0,0,0-.954-.878,1.926,1.926,0,0,0-1.622.976,4.989,4.989,0,0,0-.535,1.185c-.321.53-.655.94-.923.94-.067,0-.111-.036-.111-.125a1.465,1.465,0,0,1,.12-.365l.579-1.261a2.454,2.454,0,0,0,.276-.9.459.459,0,0,0-.49-.463,1.792,1.792,0,0,0-1.252.646.851.851,0,0,0,.013-.192.4.4,0,0,0-.455-.455,1.62,1.62,0,0,0-1.154.646l.236-.579h-.816l-.691,1.564c-.33.735-.856,1.466-1.154,1.466-.067,0-.111-.036-.111-.125a3.924,3.924,0,0,1,.214-.633l.918-2.077c.067-.156-.374-.254-.931-.254a2.66,2.66,0,0,0-1.6.646,1.441,1.441,0,0,1-.642.379c-.111,0-.08-.031-.08-.067,0-.125.308-.486.308-.758,0-.125-.067-.209-.241-.209a1.613,1.613,0,0,0-1,.642l.236-.575h-.8l-.691,1.564c-.33.735-.873,1.506-1.168,1.506-.067,0-.111-.036-.111-.125a3.221,3.221,0,0,1,.232-.664l.918-2.086c.067-.156-.374-.254-.931-.254a2.752,2.752,0,0,0-2.054,1.132,3.638,3.638,0,0,0-.8,1.809.61.61,0,0,0,.664.7,1.674,1.674,0,0,0,1.132-.691,1.494,1.494,0,0,0-.031.178c0,.3.12.513.486.513a1.547,1.547,0,0,0,1.087-.691l-.276.633h.869l.856-1.943c.285-.633.6-.963.691-.963s.045.013.045.036a1.333,1.333,0,0,0-.134.41c0,.165.089.29.33.29a.976.976,0,0,0,.579-.21,3.209,3.209,0,0,0-.735,1.734.61.61,0,0,0,.664.7,1.764,1.764,0,0,0,1.145-.744,1.82,1.82,0,0,0-.013.209.486.486,0,0,0,.5.535c.334,0,.669-.232,1.043-.686l-.276.624h.9l.82-1.854c.357-.8.842-1.234,1.078-1.234a.107.107,0,0,1,.12.1v.022a.8.8,0,0,1-.076.258l-1.177,2.718h.918l.833-1.89c.357-.811.753-1.208,1.052-1.208.089,0,.125.045.125.143a.812.812,0,0,1-.08.3l-.807,1.711a1.588,1.588,0,0,0-.134.521c0,.263.143.49.544.49.521,0,.918-.4,1.364-.985v.125a.885.885,0,0,0,.989.878,2.138,2.138,0,0,0,1.885-1.466,3.177,3.177,0,0,0,.29-1.007.567.567,0,0,0,.29.058.785.785,0,0,0,.388-.1l-.143.307c-.165.343-.343.722-.486,1.043a1.679,1.679,0,0,0-.156.6.5.5,0,0,0,.544.553,1.831,1.831,0,0,0,1.221-.829h.009a1.374,1.374,0,0,0-.036.307c0,.267.08.521.455.521a1.641,1.641,0,0,0,1.1-.709l-.276.624h.9l.722-1.64c.41-.922.82-1.484,1.2-1.484a.125.125,0,0,1,.125.111v.022a4.762,4.762,0,0,1-.423,1.007c-.2.428-.33.686-.423.918a1.752,1.752,0,0,0-.156.619.461.461,0,0,0,.508.5,1.987,1.987,0,0,0,1.332-.887,1.853,1.853,0,0,0-.1.566.707.707,0,0,0,.753.784,1.4,1.4,0,0,0,.811-.267,3.716,3.716,0,0,0,.851-.922l-.156-.147a3.324,3.324,0,0,1-.7.775.757.757,0,0,1-.463.178c-.187,0-.307-.1-.307-.334a3.065,3.065,0,0,1,.285-.989c.009-.009.254-.557.486-1.087.192-.446.388-.878.423-.967h.588l.12-.267h-.579Zm-25.4,4.3c-.125,0-.214-.045-.214-.21a4.109,4.109,0,0,1,.829-1.845,1.59,1.59,0,0,1,1.185-.753l-.566,1.266c-.423.954-.887,1.542-1.23,1.542m5.571,0a.193.193,0,0,1-.223-.21,4.109,4.109,0,0,1,.829-1.845,1.59,1.59,0,0,1,1.185-.753l-.575,1.266c-.432.976-.869,1.542-1.221,1.542m9.889-2.464a5.9,5.9,0,0,1-.945,2.353c-.2.281-.374.365-.521.365s-.267-.169-.236-.423a5.708,5.708,0,0,1,.918-2.175c.232-.321.388-.455.566-.455s.232.147.223.334" transform="translate(-172.928 -404.245)" fill="#fff"/>
            <path id="Trazado_25777" data-name="Trazado 25777" d="M791.978,410.694l.82-1.894h-.971l-.82,1.894h-2.063l-.343.793h2.063l-.82,1.894h.971l.82-1.894H793.7l.343-.793Z" transform="translate(-753.456 -390.582)" fill="#fff"/>
          </g>
        </g>
      </g>
      <circle id="Elipse_410" data-name="Elipse 410" cx="3" cy="3" r="3" transform="translate(8856 6093)" fill="#fff"/>
      <circle id="Elipse_413" data-name="Elipse 413" cx="2.5" cy="2.5" r="2.5" transform="translate(8702 6093)" fill="#fff"/>
      <circle id="Elipse_414" data-name="Elipse 414" cx="2.5" cy="2.5" r="2.5" transform="translate(8779 6093)" fill="#fff"/>
      <circle id="Elipse_411" data-name="Elipse 411" cx="3" cy="3" r="3" transform="translate(8934 6093)" fill="#fff"/>
      <g id="Grupo_34976" data-name="Grupo 34976" transform="translate(8944 6075)">
        <rect id="Rectángulo_18532-9" data-name="Rectángulo 18532" width="65.713" height="39.664" rx="5" transform="translate(0 0)" fill="none"/>
        <g id="edye_calado" data-name="edye calado" transform="translate(13.449 8.219)">
          <g id="Grupo_19717" data-name="Grupo 19717" transform="translate(0 0)">
            <path id="Trazado_42096" data-name="Trazado 42096" d="M52.492,55.2a.943.943,0,0,0-.984,1.014A1.076,1.076,0,0,0,52.58,57.35a1.06,1.06,0,0,0,1.125-1.083A1.116,1.116,0,0,0,52.492,55.2Z" transform="translate(-38.959 -41.752)" fill="#fff"/>
            <path id="Trazado_42097" data-name="Trazado 42097" d="M23.276,49.106c-.194-.831-.651-1.184-1.293-1.039-.739.172-1.031.685-.87,1.589Z" transform="translate(-15.936 -36.333)" fill="#fff"/>
            <path id="Trazado_42098" data-name="Trazado 42098" d="M139.96,50.963c-.75-.132-1.215.236-1.416,1.132l2.21.324C140.894,51.577,140.608,51.076,139.96,50.963Z" transform="translate(-104.79 -38.527)" fill="#fff"/>
            <g id="Grupo_19716" data-name="Grupo 19716" transform="translate(0 4.394)">
              <path id="Trazado_42099" data-name="Trazado 42099" d="M136.67,63.735a4.6,4.6,0,0,0,2.141.281,4.778,4.778,0,0,0,.509-.074.208.208,0,0,1,.243.119.209.209,0,0,0-.245-.124,4.859,4.859,0,0,1-.509.073,4.606,4.606,0,0,1-2.141-.28,1.2,1.2,0,0,1-.838-.978A1.189,1.189,0,0,0,136.67,63.735Z" transform="translate(-102.737 -51.858)" fill="none"/>
              <path id="Trazado_42100" data-name="Trazado 42100" d="M139.96,50.962c-.75-.132-1.215.231-1.416,1.132l2.21.324C140.894,51.577,140.608,51.075,139.96,50.962Z" transform="translate(-104.79 -42.92)" fill="none"/>
              <path id="Trazado_42101" data-name="Trazado 42101" d="M121.877,47.37a4.688,4.688,0,0,1,1.2-2.421c.052-.053.106-.1.161-.153a3.94,3.94,0,0,1,6.138,1.242,3.941,3.941,0,0,0-6.14-1.247c-.055.053-.109.1-.161.153a4.684,4.684,0,0,0-1.2,2.421,4.534,4.534,0,0,0,.1,2.094A4.535,4.535,0,0,1,121.877,47.37Z" transform="translate(-92.124 -37.533)" fill="none"/>
              <path id="Trazado_42102" data-name="Trazado 42102" d="M48.433,24.627c-.755.029-.769.043-.788.815-.027,1.168-.031,2.336-.045,3.555a1.4,1.4,0,0,1-.181-.064,3.531,3.531,0,0,0-4.6,1.051,4.006,4.006,0,0,0-.75,2.491,6.277,6.277,0,0,0,.112,1.067c.008.043.018.085.027.126a3.459,3.459,0,0,0,3.586,2.9,12.1,12.1,0,0,0,1.98-.448c-.121.548.306.619.764.626.712.006,1.424-.021,2.134,0,.382.012.467-.144.477-.5q.011-.332.02-.664.082-2.8.17-5.608.053-1.7.107-3.391c0-.114.013-.227.013-.34,0-.045.006-.222.012-.446,0-.138.013-.275.013-.414,0-.165.01-.333.01-.507V24.59c-.819,0-1.639,0-2.459.018Q48.734,24.615,48.433,24.627Z" transform="translate(-31.816 -22.993)" fill="none"/>
              <path id="Trazado_42103" data-name="Trazado 42103" d="M13.928,46.905a4.764,4.764,0,0,1-2.527.828,1.126,1.126,0,0,1-1.266-.92c-.019-.114.028-.136.1-.124a1.715,1.715,0,0,1,.29.092,3.811,3.811,0,0,0,3.615-1,.408.408,0,0,0,.054-.254c-.445-2.859-3.231-4.208-5.868-2.479a3.649,3.649,0,0,0-1.39,1.715c-.836,2.122.126,5.08,2.44,5.742a4.873,4.873,0,0,0,3.548-.366A4.144,4.144,0,0,0,14.452,49a1.783,1.783,0,0,0,.123-1.078C14.5,47.295,14.234,46.694,13.928,46.905Z" transform="translate(-5.022 -36.377)" fill="none"/>
              <path id="Trazado_42104" data-name="Trazado 42104" d="M89.546,40.422c-.071-.012-.221.149-.259.256-.178.5-.348,1.012-.521,1.527-.078.231-.155.466-.233.7l-.152.461-.261.8c-.059-.252-.089-.377-.119-.5l-.005-.021q-.2-.842-.4-1.683-.145-.6-.289-1.2c-.047-.2-.12-.343-.372-.3-.829.141-1.66.277-2.512.416-.242.039-.561.1-.807.139a1.4,1.4,0,0,0,.122.4c.041.119.081.238.122.358q.246.714.489,1.429.424,1.236.853,2.469.314.9.642,1.792a1.213,1.213,0,0,1-.008,1.04c-.4.832-.765,1.678-1.158,2.546a10.44,10.44,0,0,0,2.8,1.186c.593.153.6.154.837-.387q1.513-3.436,3.009-6.88l.5-1.149c.12-.28.235-.562.351-.849.153-.374.3-.756.453-1.157l.083-.213.211-.536C91.749,40.835,90.647,40.616,89.546,40.422Z" transform="translate(-63.242 -34.968)" fill="none"/>
              <path id="Trazado_42105" data-name="Trazado 42105" d="M38.957,26.565a5.07,5.07,0,0,0-1.256-2.3,5.507,5.507,0,0,0-5.149-1.444,5.209,5.209,0,0,0-.668.176c-.086.029-.205-.036-.286-.063-.126-.042-.257-.069-.386-.1-1.19-.288-2.39-.529-3.591-.766-.308-.061-.616-.138-.928-.171a.554.554,0,0,1-.1-.006,1.769,1.769,0,0,0-1.537.5,1.9,1.9,0,0,0-1.63-.458c-.723.122-1.437.239-2.186.362l.057-1.809c0-.172.006-.334.008-.507v-.239l.018-1.447s-3.94-.281-4.768-.252a2.356,2.356,0,0,0-1.776.623,2.4,2.4,0,0,0-.576,1.78c-.011.485-.018.964-.024,1.448a5.044,5.044,0,0,0-1.525.159A5.9,5.9,0,0,0,9.6,24.176a6.958,6.958,0,0,0-1.87-1.432,5.712,5.712,0,0,0-6.667,1.891A5.58,5.58,0,0,0,.007,27.7,6.407,6.407,0,0,0,2.2,32.916c2.286,1.833,6.063,1.264,8.126-.652.018-.017.215-.21.214-.211a4.938,4.938,0,0,0,2.971,1.187,5.153,5.153,0,0,0,1.038-.051,2.707,2.707,0,0,0,.41-.083c.062-.019.21-.1.274-.059a2.772,2.772,0,0,0,1.49.372c.684.009,1.367,0,2.05,0,.3,0,1.211-.023,1.368-.374-.06.133-.12.268-.181.4l-.595,1.317a21.893,21.893,0,0,0,2.538,1.4,7.121,7.121,0,0,0,2.794.851,1.828,1.828,0,0,0,.777-.169,2.206,2.206,0,0,0,1.062-1.2c.6-1.331,1.161-2.679,1.759-4.012.036-.084.276-.486.244-.559a4.994,4.994,0,0,0,1.484,1.912,6.437,6.437,0,0,0,3.992,1.374c.189,0,.382-.009.573-.025a5.558,5.558,0,0,0,2.615-.754,3.232,3.232,0,0,0,1.178-1.856,3.913,3.913,0,0,0,.133-1.527,2.348,2.348,0,0,0,.435-.9A5.8,5.8,0,0,0,38.957,26.565ZM9.43,30.657A4.144,4.144,0,0,1,7.9,31.8a4.873,4.873,0,0,1-3.548.366c-2.314-.662-3.276-3.62-2.44-5.742A3.649,3.649,0,0,1,3.3,24.712c2.637-1.729,5.424-.38,5.868,2.479a.408.408,0,0,1-.054.254,3.811,3.811,0,0,1-3.615,1,1.717,1.717,0,0,0-.29-.092c-.073-.012-.119.01-.1.124a1.126,1.126,0,0,0,1.266.92,4.764,4.764,0,0,0,2.527-.828c.306-.211.567.39.647,1.015A1.783,1.783,0,0,1,9.43,30.657ZM19.676,19.924c0,.173,0,.341-.01.507,0,.139-.009.276-.013.414-.006.224-.01.4-.012.446,0,.113-.009.226-.013.34q-.054,1.695-.107,3.391-.089,2.8-.17,5.608-.009.332-.02.664c-.01.356-.1.512-.477.5-.711-.021-1.423.006-2.134,0-.458-.007-.885-.078-.764-.626a12.1,12.1,0,0,1-1.98.448,3.459,3.459,0,0,1-3.586-2.9c-.009-.042-.019-.084-.027-.126a6.276,6.276,0,0,1-.112-1.067A4.006,4.006,0,0,1,11,25.027a3.531,3.531,0,0,1,4.6-1.051,1.4,1.4,0,0,0,.181.064c.014-1.219.018-2.387.045-3.555.019-.772.033-.786.788-.815q.3-.012.6-.019c.82-.02,1.64-.018,2.459-.018Zm9.795,4.746-.083.213c-.154.4-.3.782-.453,1.157-.115.287-.23.569-.351.849l-.5,1.149q-1.5,3.443-3.009,6.88c-.237.541-.243.54-.837.387a10.44,10.44,0,0,1-2.8-1.186c.392-.868.761-1.714,1.158-2.546a1.213,1.213,0,0,0,.008-1.04q-.327-.893-.642-1.792-.429-1.233-.853-2.469-.243-.715-.489-1.429c-.041-.12-.081-.24-.122-.358a1.4,1.4,0,0,1-.122-.4c.246-.04.565-.1.807-.139.852-.139,1.683-.275,2.512-.416.252-.043.325.1.372.3q.144.6.289,1.2.2.841.4,1.683l.005.021c.03.124.06.249.119.5l.261-.8.152-.461c.078-.234.155-.469.233-.7.172-.515.343-1.026.521-1.527.038-.107.188-.268.259-.256,1.1.194,2.2.413,3.378.643Zm7.89,4.289c-.079.323-.648.5-1.343.508a3.833,3.833,0,0,1-2.524-.766,1.732,1.732,0,0,0-.232-.2c-.061-.039-.11-.046-.141.076a1.067,1.067,0,0,0-.027.354,1.2,1.2,0,0,0,.838.978,4.605,4.605,0,0,0,2.141.28,4.854,4.854,0,0,0,.509-.073.209.209,0,0,1,.245.124,2.277,2.277,0,0,1-.561,2.01,4.161,4.161,0,0,1-1.853.468A4.861,4.861,0,0,1,31,31.691a3.436,3.436,0,0,1-1.147-1.728,4.534,4.534,0,0,1-.1-2.094,4.684,4.684,0,0,1,1.2-2.421c.052-.053.106-.1.161-.153a3.941,3.941,0,0,1,6.14,1.247A4.059,4.059,0,0,1,37.36,28.959Z" transform="translate(0 -18.036)" fill="#fff"/>
              <path id="Trazado_42106" data-name="Trazado 42106" d="M140.078,55.357c-.079.322-.648.5-1.343.508a3.833,3.833,0,0,1-2.524-.766,1.7,1.7,0,0,0-.232-.2c-.061-.039-.114-.036-.142.076a1.058,1.058,0,0,0-.024.359,1.066,1.066,0,0,1,.027-.354c.031-.122.08-.115.141-.076a1.732,1.732,0,0,1,.232.2,3.833,3.833,0,0,0,2.524.766c.7-.012,1.265-.185,1.343-.508a4.058,4.058,0,0,0-.107-2.418A4.046,4.046,0,0,1,140.078,55.357Z" transform="translate(-102.72 -44.439)" fill="#153188"/>
              <path id="Trazado_42107" data-name="Trazado 42107" d="M128.937,69.272a4.151,4.151,0,0,1-1.853.468,4.862,4.862,0,0,1-3.414-1.027,3.434,3.434,0,0,1-1.145-1.723,3.436,3.436,0,0,0,1.147,1.728,4.861,4.861,0,0,0,3.414,1.027,4.161,4.161,0,0,0,1.853-.468,2.277,2.277,0,0,0,.561-2.01A2.284,2.284,0,0,1,128.937,69.272Z" transform="translate(-92.673 -55.063)" fill="#153188"/>
            </g>
            <path id="Trazado_42108" data-name="Trazado 42108" d="M37.3,31.58a.647.647,0,1,0-.647-.647A.646.646,0,0,0,37.3,31.58Z" transform="translate(-27.727 -22.908)" fill="#fff"/>
            <path id="Trazado_42109" data-name="Trazado 42109" d="M40.433,23.326A1.121,1.121,0,1,0,39.312,22.2,1.121,1.121,0,0,0,40.433,23.326Z" transform="translate(-29.734 -15.947)" fill="#fff"/>
            <path id="Trazado_42110" data-name="Trazado 42110" d="M32.332,11.1A1.607,1.607,0,1,0,30.725,9.5,1.607,1.607,0,0,0,32.332,11.1Z" transform="translate(-23.239 -5.968)" fill="#fff"/>
            <path id="Trazado_42111" data-name="Trazado 42111" d="M40.872,1.923a.962.962,0,1,0-.961-.962A.961.961,0,0,0,40.872,1.923Z" transform="translate(-30.187 0)" fill="#fff"/>
          </g>
        </g>
      </g>
      <g id="Grupo_32679" data-name="Grupo 32679" transform="translate(9021 6075)">
        <rect id="Rectángulo_18532-10" data-name="Rectángulo 18532" width="66.588" height="40.192" rx="5" transform="translate(0 0)" fill="none"/>
        <g id="EkzKVN" transform="translate(5.135 14.378)">
          <g id="Grupo_16319" data-name="Grupo 16319" transform="translate(0 0)">
            <path id="Trazado_22262" data-name="Trazado 22262" d="M1154.048,1047.471c0-.679-.009-1.358,0-2.037a2.791,2.791,0,0,1,.1-.79.948.948,0,0,1,1.079-.722.931.931,0,0,1,.908.923c.036.512.022,1.028.017,1.542,0,.317.092.377.408.277a3.184,3.184,0,0,1,3.847,1.062,3.7,3.7,0,0,1-.063,4.379,3.516,3.516,0,0,1-4.07,1.056,3.574,3.574,0,0,1-2.224-3.53c-.024-.719,0-1.44,0-2.16Zm2.1,2.442a1.415,1.415,0,0,0,1.474,1.528,1.536,1.536,0,0,0-.012-3.065A1.413,1.413,0,0,0,1156.149,1049.913Z" transform="translate(-1138.687 -1043.641)" fill="#fff"/>
            <path id="Trazado_22263" data-name="Trazado 22263" d="M1029.679,1047.555c0-.883-.009-1.766,0-2.649a.985.985,0,0,1,.942-1.081,1,1,0,0,1,1.114.915,8.314,8.314,0,0,1,.057,1.35c-.005.419.107.528.546.4a3.218,3.218,0,0,1,4.217,2.39,3.521,3.521,0,1,1-6.818,1.752,9.689,9.689,0,0,1-.062-1.844C1029.67,1048.376,1029.678,1047.966,1029.679,1047.555Zm3.48.746a1.446,1.446,0,0,0-1.441,1.522,1.448,1.448,0,1,0,1.441-1.522Z" transform="translate(-1029.666 -1043.559)" fill="#fff"/>
            <path id="Trazado_22264" data-name="Trazado 22264" d="M1099.04,1068.666a11.5,11.5,0,0,1-.009,1.353,1.021,1.021,0,0,1-1.627.8.745.745,0,0,0-.738-.049,3.244,3.244,0,0,1-4.473-2.088,3.519,3.519,0,0,1,2.406-4.517,3.477,3.477,0,0,1,4.379,2.778A8.629,8.629,0,0,1,1099.04,1068.666Zm-4.919-1.129a1.424,1.424,0,1,0,1.416-1.51A1.368,1.368,0,0,0,1094.121,1067.537Z" transform="translate(-1084.331 -1061.292)" fill="#fff"/>
            <path id="Trazado_22265" data-name="Trazado 22265" d="M1216.158,1067.47c.476-1.048.878-1.988,1.327-2.9a1,1,0,0,1,1.681-.307,1.068,1.068,0,0,1,.1,1.315c-.575,1.3-1.158,2.588-1.735,3.883q-.716,1.6-1.428,3.21c-.182.408-.405.768-.923.789a1,1,0,0,1-1.029-1.4,12.579,12.579,0,0,1,.7-1.576,1.2,1.2,0,0,0-.015-1.271c-.585-1.038-1.13-2.1-1.689-3.151-.106-.2-.218-.4-.305-.6a1.006,1.006,0,0,1,.443-1.417.979.979,0,0,1,1.34.518c.426.774.817,1.567,1.224,2.35C1215.919,1067.045,1216,1067.185,1216.158,1067.47Z" transform="translate(-1190.117 -1061.178)" fill="#fff"/>
            <path id="Trazado_22266" data-name="Trazado 22266" d="M1392.7,1070.939a3.35,3.35,0,0,1-2.068-.766,1,1,0,0,1-.245-1.421.955.955,0,0,1,1.371-.172,1.856,1.856,0,0,0,1.336.348c.124-.02.263-.045.3-.181.045-.187-.111-.253-.25-.289-.358-.093-.721-.163-1.079-.256a2.135,2.135,0,0,1-1.791-2.126,2.216,2.216,0,0,1,1.848-2.1,3.373,3.373,0,0,1,2.76.543.993.993,0,0,1,.362,1.349.935.935,0,0,1-1.333.331,2.077,2.077,0,0,0-1.169-.324c-.141.016-.322.009-.348.185s.15.225.287.26c.4.1.8.176,1.2.293a2.019,2.019,0,0,1,1.634,1.977,2.19,2.19,0,0,1-1.618,2.153A3.763,3.763,0,0,1,1392.7,1070.939Z" transform="translate(-1345.679 -1061.141)" fill="#fff"/>
            <path id="Trazado_22267" data-name="Trazado 22267" d="M1273.736,1048.6c0-.411-.017-.822,0-1.232.028-.529,0-.943-.591-1.247a.855.855,0,0,1,.1-1.512,1.2,1.2,0,0,0,.626-.836,2.768,2.768,0,0,1,2.86-2.06.97.97,0,0,1,.206,1.921c-.289.088-.632.045-.844.319a.536.536,0,0,0-.131.328c.013.146.173.144.3.155a2.81,2.81,0,0,1,.427.046.911.911,0,0,1,.766.976.828.828,0,0,1-.868.861c-.632-.012-.75.272-.732.823.034,1,.017,2.012.006,3.018-.009.813-.425,1.3-1.08,1.308-.627,0-1.038-.515-1.045-1.329C1273.732,1049.626,1273.736,1049.112,1273.736,1048.6Z" transform="translate(-1242.727 -1041.706)" fill="#fff"/>
            <path id="Trazado_22268" data-name="Trazado 22268" d="M1441.595,1056.04a2.471,2.471,0,0,1-2.44-2.11,14.639,14.639,0,0,1-.09-2.4.7.7,0,0,0-.414-.728.913.913,0,0,1,0-1.7.723.723,0,0,0,.413-.74,2.526,2.526,0,0,1,.064-.61,1.025,1.025,0,0,1,1.112-.851.983.983,0,0,1,.93.978,2.3,2.3,0,0,1,.007.431c-.041.44.087.672.591.712a.93.93,0,0,1-.06,1.856c-.4.012-.546.173-.533.564.019.595.009,1.191,0,1.787a.6.6,0,0,0,.587.7c.753.1,1.128.506,1.087,1.085A1.172,1.172,0,0,1,1441.595,1056.04Z" transform="translate(-1387.655 -1046.258)" fill="#fff"/>
            <path id="Trazado_22269" data-name="Trazado 22269" d="M1344.831,1067.428c0-.76-.01-1.52,0-2.281.015-.883.613-1.345,1.431-1.049a1.454,1.454,0,0,0,1.059-.024,2.52,2.52,0,0,1,2.035.1.892.892,0,0,1,.536,1.061.829.829,0,0,1-.956.678c-.329-.012-.658-.029-.986-.016-.769.03-1.076.329-1.1,1.108-.022.9,0,1.808-.011,2.711-.008.792-.366,1.208-1.008,1.2s-1-.436-1.007-1.212C1344.824,1068.949,1344.831,1068.188,1344.831,1067.428Z" transform="translate(-1305.917 -1061.168)" fill="#fff"/>
            <path id="Trazado_22270" data-name="Trazado 22270" d="M1319.76,1067.58c0,.8.013,1.6,0,2.4a1.011,1.011,0,1,1-2.016,0q-.021-2.43,0-4.861a.969.969,0,0,1,.968-1.046.981.981,0,0,1,1.045,1.044C1319.776,1065.939,1319.76,1066.76,1319.76,1067.58Z" transform="translate(-1282.167 -1061.313)" fill="#fff"/>
            <path id="Trazado_22271" data-name="Trazado 22271" d="M1319.85,1042.834a1,1,0,0,1-2,.067.968.968,0,0,1,.96-1.046A1,1,0,0,1,1319.85,1042.834Z" transform="translate(-1282.269 -1041.837)" fill="#fff"/>
          </g>
        </g>
      </g>
      <circle id="Elipse_426" data-name="Elipse 426" cx="2.5" cy="2.5" r="2.5" transform="translate(9013 6093)" fill="#fff"/>
    </g>
  </g>
</svg>
