<svg xmlns="http://www.w3.org/2000/svg" xmlns:xlink="http://www.w3.org/1999/xlink" width="454.961" height="47.668" viewBox="0 0 454.961 47.668">
  <defs>
    <clipPath id="clip-path">
      <rect id="Rectángulo_18610" data-name="Rectángulo 18610" width="40.136" height="25.119" fill="#fff"/>
    </clipPath>
    <clipPath id="clip-path-2">
      <rect id="Rectángulo_22890" data-name="Rectángulo 22890" width="32.961" height="34.915" fill="none"/>
    </clipPath>
  </defs>
  <g id="Grupo_35089" data-name="Grupo 35089" transform="translate(-8465 -5879)">
    <g id="Grupo_35087" data-name="Grupo 35087" transform="translate(8465 5879)">
      <g id="Grupo_32692" data-name="Grupo 32692" transform="translate(0 0)">
        <rect id="Rectángulo_18532" data-name="Rectángulo 18532" width="77.152" height="46.569" rx="5" transform="translate(0 0)" fill="none"/>
        <g id="Grupo_20453" data-name="Grupo 20453" transform="translate(18.766 10.426)" clip-path="url(#clip-path)">
          <path id="Trazado_43170" data-name="Trazado 43170" d="M1.087,23.787A.425.425,0,0,1,.794,23.7.4.4,0,0,1,.7,23.4V13.123a.4.4,0,0,1,.092-.3.425.425,0,0,1,.293-.085H2.2a.4.4,0,0,1,.431.339l.108.4a3.408,3.408,0,0,1,1.117-.709,3.568,3.568,0,0,1,1.333-.262A2.861,2.861,0,0,1,7.551,13.6a4.621,4.621,0,0,1,.871,2.958,5.391,5.391,0,0,1-.431,2.234,3.493,3.493,0,0,1-1.171,1.471,2.888,2.888,0,0,1-1.7.516,3.6,3.6,0,0,1-1.2-.2,2.89,2.89,0,0,1-.971-.555V23.4a.422.422,0,0,1-.085.3.421.421,0,0,1-.3.085Zm3.374-4.7A1.443,1.443,0,0,0,5.733,18.5a3.287,3.287,0,0,0,.408-1.849,3.375,3.375,0,0,0-.4-1.865A1.44,1.44,0,0,0,4.462,14.2a2.932,2.932,0,0,0-1.51.416v4.053a2.83,2.83,0,0,0,1.51.416" transform="translate(-0.512 -9.117)" fill="#fff"/>
          <path id="Trazado_43171" data-name="Trazado 43171" d="M35.135,21.027a.333.333,0,0,1-.385-.385v-7.1a.4.4,0,0,1,.092-.3.425.425,0,0,1,.293-.085h1.109a.4.4,0,0,1,.432.339l.2.832a4.4,4.4,0,0,1,1.163-.963,2.482,2.482,0,0,1,1.164-.285h.216a.451.451,0,0,1,.308.085.4.4,0,0,1,.092.3v1.294a.424.424,0,0,1-.085.293.4.4,0,0,1-.3.093q-.108,0-.277-.015c-.113-.01-.257-.015-.431-.015a4.6,4.6,0,0,0-.863.1,4.24,4.24,0,0,0-.863.254v5.177a.426.426,0,0,1-.085.293.4.4,0,0,1-.3.092Z" transform="translate(-25.331 -9.532)" fill="#fff"/>
          <path id="Trazado_43172" data-name="Trazado 43172" d="M58.138,2.4a1.339,1.339,0,0,1-.94-.324,1.129,1.129,0,0,1-.355-.878A1.129,1.129,0,0,1,57.2.323a1.527,1.527,0,0,1,1.88,0,1.131,1.131,0,0,1,.355.878,1.131,1.131,0,0,1-.355.878,1.34,1.34,0,0,1-.94.324M57.4,11.5a.333.333,0,0,1-.385-.385v-7.1a.4.4,0,0,1,.092-.3.425.425,0,0,1,.293-.085h1.479a.42.42,0,0,1,.3.085.421.421,0,0,1,.085.3v7.1a.424.424,0,0,1-.085.293.4.4,0,0,1-.3.092Z" transform="translate(-41.436 0)" fill="#fff"/>
          <path id="Trazado_43173" data-name="Trazado 43173" d="M73.192,20.612a.333.333,0,0,1-.385-.385v-7.1a.4.4,0,0,1,.092-.3.425.425,0,0,1,.293-.085H74.3a.4.4,0,0,1,.431.339l.124.416a6.645,6.645,0,0,1,1.471-.762,4.145,4.145,0,0,1,1.348-.224,2.074,2.074,0,0,1,1.957.986,6.31,6.31,0,0,1,1.479-.755,4.5,4.5,0,0,1,1.433-.231,2.243,2.243,0,0,1,1.672.6,2.287,2.287,0,0,1,.593,1.679v5.44a.426.426,0,0,1-.085.293.4.4,0,0,1-.3.092H82.946a.333.333,0,0,1-.385-.385V15.281q0-1.048-.94-1.048a3.907,3.907,0,0,0-1.68.4v5.594a.424.424,0,0,1-.085.293.4.4,0,0,1-.3.092H78.077a.333.333,0,0,1-.385-.385V15.281q0-1.048-.94-1.048a3.757,3.757,0,0,0-1.7.416v5.578a.425.425,0,0,1-.085.293.4.4,0,0,1-.3.092Z" transform="translate(-53.073 -9.117)" fill="#fff"/>
          <path id="Trazado_43174" data-name="Trazado 43174" d="M126.172,20.843a3.92,3.92,0,0,1-2.935-1.048,4.119,4.119,0,0,1-1.025-3,4.47,4.47,0,0,1,1.048-3.144,3.758,3.758,0,0,1,2.912-1.14,3.337,3.337,0,0,1,2.242.693,2.314,2.314,0,0,1,.809,1.849,1.981,1.981,0,0,1-.871,1.749,4.566,4.566,0,0,1-2.566.593,6.07,6.07,0,0,1-1.526-.169,2.092,2.092,0,0,0,.624,1.479,2.456,2.456,0,0,0,1.61.447,6.4,6.4,0,0,0,.84-.054,10.44,10.44,0,0,0,1.132-.239.578.578,0,0,1,.092-.023.485.485,0,0,1,.077-.008q.261,0,.262.355v.709a.639.639,0,0,1-.069.347.566.566,0,0,1-.27.177,6.614,6.614,0,0,1-2.388.432m-.508-4.838a2.093,2.093,0,0,0,1.14-.239.822.822,0,0,0,.355-.732q0-.971-1.156-.971-1.479,0-1.711,1.818a7,7,0,0,0,1.371.123" transform="translate(-89.087 -9.117)" fill="#fff"/>
          <path id="Trazado_43175" data-name="Trazado 43175" d="M36.278,65.524c-4.394,3.243-10.764,4.967-16.25,4.967A29.408,29.408,0,0,1,.178,62.918c-.411-.372-.044-.879.45-.591A39.956,39.956,0,0,0,20.49,67.6a39.516,39.516,0,0,0,15.15-3.1c.743-.315,1.366.49.639,1.027" transform="translate(0 -45.372)" fill="#fff" fill-rule="evenodd"/>
          <path id="Trazado_43176" data-name="Trazado 43176" d="M125.813,61.31c-.562-.719-3.715-.341-5.132-.171-.429.052-.5-.323-.109-.595,2.516-1.767,6.637-1.257,7.116-.665s-.127,4.729-2.484,6.7c-.363.3-.708.141-.547-.259.531-1.325,1.718-4.29,1.155-5.01" transform="translate(-87.706 -43.246)" fill="#fff" fill-rule="evenodd"/>
        </g>
      </g>
      <g id="Grupo_32694" data-name="Grupo 32694" transform="translate(95.469 0)">
        <rect id="Rectángulo_18532-2" data-name="Rectángulo 18532" width="77.882" height="47.01" rx="5" transform="translate(0 0)" fill="none"/>
        <g id="Grupo_22158" data-name="Grupo 22158" transform="translate(14.143 9.724)">
          <path id="Trazado_42240" data-name="Trazado 42240" d="M43.928-378.069c-.448.021-.9.039-1.344.049-.089,0-.11.023-.11.111,0,.9,0,1.805,0,2.708,0,.2.006.407-.005.61a.992.992,0,0,1-1.128,1.05.9.9,0,0,1-.875-.664,1.664,1.664,0,0,1-.073-.5c0-1.03,0-2.059,0-3.089,0-.116-.029-.134-.138-.128-.49.024-.98.065-1.471.058v3.637a1.192,1.192,0,0,1,.075.337,2.064,2.064,0,0,0,1.467,1.646,3.618,3.618,0,0,0,2.138.009,2.07,2.07,0,0,0,1.432-1.406,3.777,3.777,0,0,0,.172-1.2c0-1.03,0-2.06,0-3.089C44.078-378.058,44.034-378.074,43.928-378.069Z" transform="translate(-38.788 388.698)" fill="#fff"/>
          <path id="Trazado_42241" data-name="Trazado 42241" d="M232.272-373.5c-.1,0-.123-.035-.123-.131,0-1.373,0-2.746.005-4.12,0-.107-.031-.134-.129-.138-.444-.017-.888-.036-1.331-.063-.107-.007-.122.027-.122.122q0,2.8,0,5.607c0,.1.018.127.122.126.809,0,1.619,0,2.428,0l1.7,0v-1.374C233.975-373.484,233.124-373.494,232.272-373.5Z" transform="translate(-185.335 388.608)" fill="#fff"/>
          <path id="Trazado_42242" data-name="Trazado 42242" d="M140.758-423.109c0-.007.01-.012.007-.021h-.737c0,.01,0,.015.007.023Z" transform="translate(-116.146 423.13)" fill="#fff"/>
          <path id="Trazado_42243" data-name="Trazado 42243" d="M143.331-423.11c0-.007.009-.012,0-.02h-.178c0,.007,0,.014,0,.021Z" transform="translate(-118.539 423.13)" fill="#fff"/>
          <path id="Trazado_42244" data-name="Trazado 42244" d="M139.447-423.108a.139.139,0,0,0,0-.023h-.178c0,.008,0,.014,0,.021Z" transform="translate(-115.569 423.13)" fill="#fff"/>
          <path id="Trazado_42245" data-name="Trazado 42245" d="M90-414.339a12.121,12.121,0,0,1,.594-1.287,11.963,11.963,0,0,1,4.109-4.529,11.562,11.562,0,0,1,6.873-1.834,11.809,11.809,0,0,1,3.3.6,12.616,12.616,0,0,1,5.494,3.631,12.458,12.458,0,0,1,2.345,3.83c.034.088.072.128.17.12.127-.01.254,0,.381,0,.148,0,.148,0,.1-.137a13.264,13.264,0,0,0-3.536-5.52,13.243,13.243,0,0,0-8.507-3.643.109.109,0,0,1,0-.022h-.153a.049.049,0,0,1,0,.02h-.007c0,.006,0,.014,0,.018a.136.136,0,0,1-.166-.017h-.01c0,.006,0,.015-.006.02a2.231,2.231,0,0,1-.713,0c-.007,0,0-.012-.005-.018h-.009a.139.139,0,0,1-.167.016c-.006,0,0-.012,0-.018h-.007a.1.1,0,0,1,0-.021H99.92a.056.056,0,0,1,0,.022A13.437,13.437,0,0,0,87.971-414.2c.643-.015,1.281-.03,1.92-.042C89.967-414.24,89.979-414.289,90-414.339Z" transform="translate(-76.37 423.13)" fill="#fff"/>
          <path id="Trazado_42246" data-name="Trazado 42246" d="M71.037-378.821c0-.088-.019-.112-.111-.109-.444.018-.889.028-1.333.038-.092,0-.125.029-.125.131,0,.958,0,1.916,0,2.873a.268.268,0,0,1-.02.151l-.146-.193-2.092-2.8c-.036-.047-.064-.092-.139-.089-.427.016-.854.03-1.282.038-.088,0-.114.027-.113.115q0,2.855,0,5.709c0,.093.03.111.115.109.436,0,.873-.005,1.31,0,.1,0,.133-.026.132-.132,0-.991,0-1.983,0-2.975,0-.041-.016-.089.022-.13q1.165,1.578,2.318,3.144a.19.19,0,0,0,.175.093q.585-.008,1.17,0c.093,0,.119-.019.118-.116,0-.958,0-1.916,0-2.873C71.035-376.829,71.034-377.825,71.037-378.821Z" transform="translate(-59.336 389.356)" fill="#fff"/>
          <path id="Trazado_42247" data-name="Trazado 42247" d="M159.4-375.381c-.046-.074-.044-.1.04-.144a1.862,1.862,0,0,0,.967-1.153,2.449,2.449,0,0,0,.083-.931,1.9,1.9,0,0,0-1.077-1.637,2.662,2.662,0,0,0-1.2-.276c-.877-.006-1.755,0-2.632,0-.091,0-.122.017-.122.117q0,2.995,0,5.989c0,.091.016.123.116.121q.68-.009,1.361,0c.106,0,.122-.035.121-.129,0-.551,0-1.1,0-1.653,0-.1.031-.126.127-.122a4.757,4.757,0,0,0,.521,0,.2.2,0,0,1,.223.134c.29.563.588,1.123.882,1.684.024.045.037.086.106.086.584,0,1.169,0,1.776,0l-.084-.14Q160-374.411,159.4-375.381Zm-.512-1.7a.673.673,0,0,1-.576.488,8.778,8.778,0,0,1-1.2.029c-.071,0-.053-.051-.053-.089,0-.224,0-.448,0-.673s0-.44,0-.66c0-.05,0-.089.069-.088.368.009.737-.019,1.1.013A.73.73,0,0,1,158.886-377.082Z" transform="translate(-127.937 389.81)" fill="#fff"/>
          <path id="Trazado_42248" data-name="Trazado 42248" d="M131.809-373.3q2.187,0,4.374,0c.083,0,.105-.021.1-.1,0-.4-.007-.805,0-1.208,0-.122-.019-.162-.154-.161-.894.007-1.788,0-2.683.005-.091,0-.136-.011-.132-.12.009-.245.01-.492,0-.737,0-.115.03-.139.141-.138.8.005,1.593,0,2.39,0,.1,0,.121-.024.119-.12-.006-.373-.007-.746,0-1.119,0-.107-.028-.132-.133-.131-.8,0-1.6,0-2.4,0-.087,0-.117-.022-.114-.112.006-.233.009-.466,0-.7,0-.107.025-.131.131-.13.894,0,1.788,0,2.683,0,.076,0,.109-.01.108-.1q-.008-.629,0-1.259c0-.1-.036-.107-.117-.107q-2.149,0-4.3,0c-.1,0-.126.025-.125.125,0,1,0,1.992,0,2.988s0,2,0,3C131.7-373.328,131.716-373.3,131.809-373.3Z" transform="translate(-109.785 389.812)" fill="#fff"/>
          <path id="Trazado_42249" data-name="Trazado 42249" d="M182.937-376.767a5.417,5.417,0,0,0-1.119-.4,2.722,2.722,0,0,1-.8-.3.357.357,0,0,1-.2-.378.37.37,0,0,1,.316-.291,1.3,1.3,0,0,1,.5-.01,2.766,2.766,0,0,1,1.244.538c.074.054.1.045.148-.029.212-.332.427-.661.65-.985.059-.086.049-.126-.029-.19a3.372,3.372,0,0,0-2.2-.775,2.93,2.93,0,0,0-.743.081,1.848,1.848,0,0,0-1.443,2.252,1.7,1.7,0,0,0,.907,1.119,5,5,0,0,0,1.24.47,2.607,2.607,0,0,1,.711.262.356.356,0,0,1,.187.35.365.365,0,0,1-.251.322,1,1,0,0,1-.361.061,2.683,2.683,0,0,1-1.736-.642c-.126-.1-.126-.1-.227.03l-.644.835c-.137.178-.139.181.037.326a3.743,3.743,0,0,0,3.126.813,1.822,1.822,0,0,0,1.622-1.6A1.623,1.623,0,0,0,182.937-376.767Z" transform="translate(-145.915 389.858)" fill="#fff"/>
          <path id="Trazado_42250" data-name="Trazado 42250" d="M206.216-375.2l-1.355-3.385c-.023-.057-.035-.112-.125-.114q-.667-.008-1.333-.034c-.091,0-.121.033-.151.109q-.959,2.4-1.921,4.8l-.447,1.114c.016.008.023.015.03.015.517,0,1.034,0,1.551,0,.071,0,.082-.043.1-.091.115-.3.233-.6.345-.9a.113.113,0,0,1,.127-.087q.992,0,1.984,0a.113.113,0,0,1,.126.088c.11.3.228.591.338.888a.131.131,0,0,0,.146.1c.5,0,.992,0,1.488,0,.028,0,.057,0,.083-.005.013-.038-.008-.063-.019-.09Zm-2.813.132.639-1.677.62,1.677Z" transform="translate(-162.648 389.208)" fill="#fff"/>
          <path id="Trazado_42251" data-name="Trazado 42251" d="M107.407-379.395q-.319,1.049-.645,2.095c-.172.559-.346,1.118-.52,1.681-.043-.022-.044-.061-.054-.09q-.312-.891-.62-1.783-.33-.951-.661-1.9c-.017-.048-.027-.088-.1-.087-.555,0-1.109,0-1.692,0,.024.073.034.1.046.136q1.114,2.977,2.227,5.954a.128.128,0,0,0,.147.1q.648-.007,1.3,0a.141.141,0,0,0,.16-.113q.942-2.642,1.891-5.281l.3-.83h-.142c-.5,0-.991.012-1.487.01C107.46-379.508,107.431-379.474,107.407-379.395Z" transform="translate(-87.943 389.805)" fill="#fff"/>
          <path id="Trazado_42252" data-name="Trazado 42252" d="M94.859-379.166c-.478.015-.956.024-1.434.03-.075,0-.088.025-.088.093q0,2.962,0,5.923c0,.082.025.1.1.1.462,0,.924,0,1.386,0,.1,0,.126-.019.125-.122,0-.979,0-1.957,0-2.936s0-1.983,0-2.974C94.945-379.117,94.957-379.169,94.859-379.166Z" transform="translate(-80.469 389.536)" fill="#fff"/>
          <path id="Trazado_42253" data-name="Trazado 42253" d="M183.894-345.495h-1.7v-1.7h-1.376v1.7h-1.7v1.376h1.7v1.7H182.2v-1.7h1.7Z" transform="translate(-146.019 365.106)" fill="#fff"/>
          <path id="Trazado_42254" data-name="Trazado 42254" d="M102.551-338.511a13.761,13.761,0,0,1-3.293-.1,12.094,12.094,0,0,1-3.734-1.166,11.728,11.728,0,0,1-5.068-4.954,12.932,12.932,0,0,1-.79-1.74c-.016-.043-.017-.1-.093-.1-.389,0-.778,0-1.163,0-.019.046.006.076.016.106a12.531,12.531,0,0,0,2.9,4.786,12.992,12.992,0,0,0,8.271,3.947,13.842,13.842,0,0,0,4.764-.352,12.728,12.728,0,0,0,5.88-3.235l-.809-.041A11.645,11.645,0,0,1,102.551-338.511Z" transform="translate(-76.701 364.626)" fill="#fff"/>
        </g>
      </g>
      <g id="Grupo_32695" data-name="Grupo 32695" transform="translate(192.138 0)">
        <rect id="Rectángulo_18532-3" data-name="Rectángulo 18532" width="78.56" height="47.418" rx="5" transform="translate(0 0)" fill="none"/>
        <g id="Grupo_32685" data-name="Grupo 32685" transform="translate(18.564 11.492)">
          <path id="Trazado_43304" data-name="Trazado 43304" d="M5.086,18.2H7.679v7H5.086v-.627a2.279,2.279,0,0,1-1.877.826A2.9,2.9,0,0,1,.9,24.357,3.945,3.945,0,0,1,0,21.706a3.934,3.934,0,0,1,.9-2.648A2.9,2.9,0,0,1,3.209,18a2.283,2.283,0,0,1,1.877.826Zm-2.15,4.441a1.165,1.165,0,0,0,.9.378,1.166,1.166,0,0,0,.9-.378,1.457,1.457,0,0,0,0-1.878,1.166,1.166,0,0,0-.9-.378,1.165,1.165,0,0,0-.9.378,1.457,1.457,0,0,0,0,1.878" transform="translate(1.062 -14.813)" fill="#fff"/>
          <path id="Trazado_43305" data-name="Trazado 43305" d="M54.148,18.007a2.338,2.338,0,0,1,1.843.786,3.471,3.471,0,0,1,.694,2.357v4.06H54.092V21.445q0-.939-.868-.939a.868.868,0,0,0-.707.295,1.23,1.23,0,0,0-.242.812v3.6h-2.6v-7h2.6V18.9a2.167,2.167,0,0,1,1.874-.888" transform="translate(-39.818 -14.818)" fill="#fff"/>
          <path id="Trazado_43306" data-name="Trazado 43306" d="M95.824,2.858a1.391,1.391,0,0,1-1.016-.427A1.389,1.389,0,0,1,94.769.467l.039-.039A1.386,1.386,0,0,1,95.824,0a1.371,1.371,0,0,1,1,.427,1.39,1.39,0,0,1,.039,1.965l-.039.039a1.377,1.377,0,0,1-1,.427m-1.3.533h2.592v7H94.521Z" transform="translate(-76.603 0)" fill="#fff"/>
          <path id="Trazado_43307" data-name="Trazado 43307" d="M124.4,18.007a2.428,2.428,0,0,1,1.906.764A3.185,3.185,0,0,1,127,20.954V25.21h-2.6V21.3q0-.8-.715-.8-.825,0-.826,1.037V25.21h-2.592V21.3q0-.8-.715-.8-.828,0-.827,1.037V25.21h-2.592v-7h2.592v.655a2.309,2.309,0,0,1,1.906-.856,1.9,1.9,0,0,1,1.752.868,2.542,2.542,0,0,1,2.017-.868" transform="translate(-94.505 -14.818)" fill="#fff"/>
          <path id="Trazado_43308" data-name="Trazado 43308" d="M184.246,22.591a1.422,1.422,0,0,0,1.429.7,1.834,1.834,0,0,0,1.19-.439l1.7,1.429a3.836,3.836,0,0,1-2.97,1.134,3.976,3.976,0,0,1-2.881-1.048,3.487,3.487,0,0,1-1.086-2.627,3.641,3.641,0,0,1,3.729-3.734,3.525,3.525,0,0,1,2.627,1.048,3.594,3.594,0,0,1,1.028,2.628,3.732,3.732,0,0,1-.111.917Zm-.042-1.667h2.357a1.068,1.068,0,0,0-1.136-.841,1.209,1.209,0,0,0-1.222.843Z" transform="translate(-148.393 -14.818)" fill="#fff"/>
          <g id="Polígono_5" data-name="Polígono 5" transform="matrix(0.719, -0.695, 0.695, 0.719, 0, 16.324)" fill="#fff">
            <path d="M1.136,0,2.271,1.514H0Z" stroke="none"/>
            <path d="M 1.135727763175964 -3.695487976074219e-06 L 2.271457672119141 1.514316201210022 L -2.145767211914062e-06 1.514316201210022 L 1.135727763175964 -3.695487976074219e-06 Z" stroke="none" fill="#fff"/>
          </g>
          <g id="Polígono_6" data-name="Polígono 6" transform="translate(6.469 14.725) rotate(49)" fill="#fff">
            <path d="M1.136,0,2.271,1.514H0Z" stroke="none"/>
            <path d="M 1.135714888572693 -1.192092895507812e-07 L 2.271424770355225 1.514279961585999 L 5.006790161132812e-06 1.514279961585999 L 1.135714888572693 -1.192092895507812e-07 Z" stroke="none" fill="#fff"/>
          </g>
          <path id="Trazado_43309" data-name="Trazado 43309" d="M284.161,18.11a2.357,2.357,0,0,0-2.148,1.127v-.954h-1.152v6.623h1.152V21.4a2.261,2.261,0,0,1,.53-1.65,1.872,1.872,0,0,1,1.393-.54,1.616,1.616,0,0,1,1.205.445,1.7,1.7,0,0,1,.437,1.253v4h1.153V20.84a2.768,2.768,0,0,0-.7-1.994,2.462,2.462,0,0,0-1.868-.736" transform="translate(-271.905 -3.364)" fill="#fff"/>
          <path id="Trazado_43310" data-name="Trazado 43310" d="M324.761,18.11a3.348,3.348,0,0,0-2.506.991,3.418,3.418,0,0,0-.966,2.491,3.382,3.382,0,0,0,.991,2.5,3.483,3.483,0,0,0,2.564.991,3.237,3.237,0,0,0,2.915-1.5l-.98-.558A2.073,2.073,0,0,1,324.87,24a2.535,2.535,0,0,1-1.583-.5,2.181,2.181,0,0,1-.819-1.374h5.552a3.377,3.377,0,0,0,.04-.517,3.576,3.576,0,0,0-.92-2.478,3.062,3.062,0,0,0-2.379-1.022m-2.293,3.009a2.2,2.2,0,0,1,2.293-1.921,2.126,2.126,0,0,1,1.391.5,2.233,2.233,0,0,1,.743,1.431Z" transform="translate(-305.56 -3.364)" fill="#fff"/>
          <path id="Trazado_43311" data-name="Trazado 43311" d="M371.3,19.421a2.812,2.812,0,0,0-2.493-1.313,3.232,3.232,0,0,0-2.4,1,3.552,3.552,0,0,0,0,4.9,3.22,3.22,0,0,0,2.4,1.007,2.824,2.824,0,0,0,2.493-1.326v.942a1.925,1.925,0,0,1-.591,1.487,2.289,2.289,0,0,1-1.623.544,2.165,2.165,0,0,1-2.161-1.115l-1.007.57a2.775,2.775,0,0,0,1.223,1.193,4.131,4.131,0,0,0,1.922.417,3.64,3.64,0,0,0,2.386-.815,2.792,2.792,0,0,0,.991-2.286V18.281H371.3Zm-.676,3.817a2.377,2.377,0,1,1,.676-1.679,2.287,2.287,0,0,1-.676,1.679" transform="translate(-342.3 -3.361)" fill="#fff"/>
          <path id="Trazado_43312" data-name="Trazado 43312" d="M419.384,19.423a2.812,2.812,0,0,0-2.5-1.313,3.179,3.179,0,0,0-2.372,1.015,3.623,3.623,0,0,0,0,4.955,3.179,3.179,0,0,0,2.372,1.015,2.809,2.809,0,0,0,2.5-1.312v1.124h1.153V18.283h-1.153Zm-.675,3.863a2.4,2.4,0,0,1-3.354,0,2.446,2.446,0,0,1,0-3.38,2.4,2.4,0,0,1,3.354,0,2.449,2.449,0,0,1,0,3.38" transform="translate(-382.345 -3.364)" fill="#fff"/>
          <rect id="Rectángulo_18629" data-name="Rectángulo 18629" width="1.153" height="6.627" transform="translate(39.611 14.919)" fill="#fff"/>
          <path id="Trazado_43313" data-name="Trazado 43313" d="M463.458,4.235a.766.766,0,0,0,.764-.767.765.765,0,0,0-.226-.55.732.732,0,0,0-.539-.234.743.743,0,0,0-.558.232.765.765,0,0,0-.226.55.743.743,0,0,0,.222.546.759.759,0,0,0,.561.223" transform="translate(-423.26 9.478)" fill="#fff"/>
          <path id="Trazado_43314" data-name="Trazado 43314" d="M238.141,19.582l-2.332.356a3.541,3.541,0,0,0-2.512,0l-2.38-.353.429,2.573a3.512,3.512,0,0,0-.1.852,3.268,3.268,0,0,0,3.236,3.3h.065a3.221,3.221,0,0,0,2.346-.954,3.169,3.169,0,0,0,.966-2.346,3.518,3.518,0,0,0-.1-.851Zm-6.375,1.568-.175-.908.92.13Zm4.361,3.45a2.215,2.215,0,0,1-3.79-1.593,2.164,2.164,0,0,1,.641-1.594,2.259,2.259,0,0,1,3.149,0,2.3,2.3,0,0,1,0,3.187m1.164-3.428-.756-.768.913-.147Z" transform="translate(-230.329 -4.59)" fill="#fff"/>
        </g>
      </g>
      <circle id="Elipse_419" data-name="Elipse 419" cx="2.929" cy="2.929" r="2.929" transform="translate(82.999 20.506)" fill="#fff"/>
      <circle id="Elipse_427" data-name="Elipse 427" cx="2.929" cy="2.929" r="2.929" transform="translate(179.668 20.506)" fill="#fff"/>
      <ellipse id="Elipse_428" data-name="Elipse 428" cx="2.93" cy="2.929" rx="2.93" ry="2.929" transform="translate(276.337 20.506)" fill="#fff"/>
    </g>
    <g id="Grupo_35088" data-name="Grupo 35088" transform="translate(8748.172 5879)">
      <g id="Grupo_34957" data-name="Grupo 34957" transform="translate(92.818 0)">
        <rect id="Rectángulo_18532-4" data-name="Rectángulo 18532" width="78.972" height="47.668" rx="5" transform="translate(0)" fill="none"/>
        <g id="Grupo_22160" data-name="Grupo 22160" transform="translate(9.593 16.5)">
          <path id="Trazado_42620" data-name="Trazado 42620" d="M0,11.477A5.247,5.247,0,0,1,5.389,6.132a4.949,4.949,0,0,1,5.037,3.451l-2.379.587A2.685,2.685,0,0,0,5.4,8.423,2.873,2.873,0,0,0,2.5,11.463,2.923,2.923,0,0,0,5.4,14.532a2.647,2.647,0,0,0,2.643-1.718l2.379.6a4.9,4.9,0,0,1-4.993,3.407A5.258,5.258,0,0,1,0,11.477" transform="translate(0 -5.387)" fill="#fff"/>
          <rect id="Rectángulo_18371" data-name="Rectángulo 18371" width="2.35" height="7.489" transform="translate(13.906 3.74)" fill="#fff"/>
          <path id="Trazado_42621" data-name="Trazado 42621" d="M175.739,7.827V18.106h-1.982l-4.625-5.888v5.888h-2.438V7.827h1.982l4.626,5.888V7.827Z" transform="translate(-146.457 -6.877)" fill="#fff"/>
          <path id="Trazado_42622" data-name="Trazado 42622" d="M283.473,12.967c0,2.981-1.924,5.139-4.86,5.139H273.87V7.827h4.743c2.893,0,4.86,2.085,4.86,5.14m-2.467-.044c0-1.806-1.072-2.908-2.452-2.908h-2.276v5.9h2.276c1.38,0,2.452-1.189,2.452-3" transform="translate(-240.623 -6.877)" fill="#fff"/>
          <path id="Trazado_42623" data-name="Trazado 42623" d="M433.132,10.03v1.792h4.611V13.95h-4.611V15.9h5.345v2.2h-7.724V7.827h7.739v2.2Z" transform="translate(-378.461 -6.877)" fill="#fff"/>
          <path id="Trazado_42624" data-name="Trazado 42624" d="M114.034,1.571A1.571,1.571,0,1,1,112.463,0a1.571,1.571,0,0,1,1.571,1.571" transform="translate(-97.43 0)" fill="#fff"/>
          <rect id="Rectángulo_18372" data-name="Rectángulo 18372" width="2.349" height="7.489" transform="translate(46.315 0.679)" fill="#fff"/>
          <path id="Trazado_42625" data-name="Trazado 42625" d="M379.594,72.1a1.571,1.571,0,1,0,1.571,1.571,1.571,1.571,0,0,0-1.571-1.571" transform="translate(-332.133 -63.344)" fill="#fff"/>
          <path id="Trazado_42626" data-name="Trazado 42626" d="M9.392,115.588v1.368H9.036v-.173a.534.534,0,0,1-.438.211c-.36,0-.541-.241-.541-.608v-.8h.357v.73c0,.208.095.343.292.343s.33-.157.33-.4v-.673Z" transform="translate(-7.079 -101.556)" fill="#fff"/>
          <path id="Trazado_42627" data-name="Trazado 42627" d="M23.289,115.882v.8h-.357v-.733c0-.208-.095-.341-.292-.341s-.33.157-.33.4v.676h-.357v-1.368h.357v.173a.543.543,0,0,1,.441-.211c.357,0,.538.241.538.606" transform="translate(-19.289 -101.282)" fill="#fff"/>
          <path id="Trazado_42628" data-name="Trazado 42628" d="M43.394,115.868v.814h-.357v-.738c0-.206-.076-.335-.262-.335s-.289.143-.289.376v.7h-.36v-.738c0-.2-.073-.335-.257-.335s-.295.146-.295.387v.687h-.357v-1.368h.357v.162a.5.5,0,0,1,.406-.2.457.457,0,0,1,.411.205.569.569,0,0,1,.462-.205.522.522,0,0,1,.541.592" transform="translate(-36.214 -101.282)" fill="#fff"/>
          <path id="Trazado_42629" data-name="Trazado 42629" d="M63.042,115.588v1.368h-.357v-.173a.534.534,0,0,1-.438.211c-.36,0-.541-.241-.541-.608v-.8h.357v.73c0,.208.095.343.292.343s.33-.157.33-.4v-.673Z" transform="translate(-54.216 -101.556)" fill="#fff"/>
          <path id="Trazado_42630" data-name="Trazado 42630" d="M76.939,115.882v.8h-.357v-.733c0-.208-.095-.341-.292-.341s-.33.157-.33.4v.676H75.6v-1.368h.357v.173a.543.543,0,0,1,.441-.211c.357,0,.538.241.538.606" transform="translate(-66.426 -101.282)" fill="#fff"/>
          <path id="Trazado_42631" data-name="Trazado 42631" d="M90.174,110.6v1.974h-.36v-.168a.544.544,0,0,1-.441.205.723.723,0,0,1,0-1.444.542.542,0,0,1,.441.2v-.77Zm-.349,1.287a.385.385,0,0,0-.389-.4.4.4,0,0,0,0,.806.388.388,0,0,0,.389-.405" transform="translate(-77.93 -97.173)" fill="#fff"/>
          <path id="Trazado_42632" data-name="Trazado 42632" d="M103.063,116a.731.731,0,1,1,.733.722.709.709,0,0,1-.733-.722m1.116,0a.384.384,0,1,0-.384.4.377.377,0,0,0,.384-.4" transform="translate(-90.552 -101.282)" fill="#fff"/>
          <path id="Trazado_42633" data-name="Trazado 42633" d="M123.6,110.6v1.974h-.36v-.168a.544.544,0,0,1-.441.205.723.723,0,0,1,0-1.444.542.542,0,0,1,.441.2v-.77Zm-.349,1.287a.385.385,0,0,0-.389-.4.4.4,0,0,0,0,.806.388.388,0,0,0,.389-.405" transform="translate(-107.3 -97.173)" fill="#fff"/>
          <path id="Trazado_42634" data-name="Trazado 42634" d="M136.491,116a.693.693,0,0,1,.716-.722.721.721,0,0,1,.7.83h-1.062a.356.356,0,0,0,.4.311.349.349,0,0,0,.333-.181l.322.095a.747.747,0,0,1-1.4-.333m1.073-.116a.335.335,0,0,0-.36-.3.352.352,0,0,0-.362.3Z" transform="translate(-119.922 -101.282)" fill="#fff"/>
          <path id="Trazado_42635" data-name="Trazado 42635" d="M155.22,116a.693.693,0,0,1,.716-.722.72.72,0,0,1,.7.83h-1.062a.356.356,0,0,0,.4.311.349.349,0,0,0,.333-.181l.322.095a.747.747,0,0,1-1.4-.333m1.073-.116a.335.335,0,0,0-.36-.3.352.352,0,0,0-.362.3Z" transform="translate(-136.377 -101.282)" fill="#fff"/>
          <path id="Trazado_42636" data-name="Trazado 42636" d="M170.5,115.882v.8h-.357v-.733c0-.208-.095-.341-.292-.341s-.33.157-.33.4v.676h-.357v-1.368h.357v.173a.543.543,0,0,1,.441-.211c.357,0,.538.241.538.606" transform="translate(-148.626 -101.282)" fill="#fff"/>
          <path id="Trazado_42637" data-name="Trazado 42637" d="M182.816,113.7a.821.821,0,0,1-.319.065.428.428,0,0,1-.457-.489v-.587h-.23v-.314h.23v-.443h.36v.443h.4v.314h-.4v.587a.152.152,0,0,0,.168.173.333.333,0,0,0,.162-.038Z" transform="translate(-159.739 -98.347)" fill="#fff"/>
          <path id="Trazado_42638" data-name="Trazado 42638" d="M192.929,115.392v.335c-.292-.046-.451.089-.451.457v.595h-.357v-1.368h.357v.2a.411.411,0,0,1,.451-.222" transform="translate(-168.798 -101.379)" fill="#fff"/>
          <path id="Trazado_42639" data-name="Trazado 42639" d="M199.382,116a.693.693,0,0,1,.716-.722.721.721,0,0,1,.7.83h-1.062a.356.356,0,0,0,.4.311.349.349,0,0,0,.333-.181l.322.095a.747.747,0,0,1-1.4-.333m1.073-.116a.335.335,0,0,0-.36-.3.352.352,0,0,0-.362.3Z" transform="translate(-175.178 -101.282)" fill="#fff"/>
          <path id="Trazado_42640" data-name="Trazado 42640" d="M212.86,113.7a.821.821,0,0,1-.319.065.428.428,0,0,1-.457-.489v-.587h-.23v-.314h.23v-.443h.359v.443h.4v.314h-.4v.587a.152.152,0,0,0,.168.173.333.333,0,0,0,.162-.038Z" transform="translate(-186.136 -98.347)" fill="#fff"/>
          <path id="Trazado_42641" data-name="Trazado 42641" d="M220.94,116a.693.693,0,0,1,.716-.722.72.72,0,0,1,.7.83h-1.062a.356.356,0,0,0,.4.311.349.349,0,0,0,.333-.181l.322.095a.747.747,0,0,1-1.4-.333m1.073-.116a.335.335,0,0,0-.36-.3.351.351,0,0,0-.362.3Z" transform="translate(-194.119 -101.282)" fill="#fff"/>
          <path id="Trazado_42642" data-name="Trazado 42642" d="M236.217,115.882v.8h-.357v-.733c0-.208-.095-.341-.292-.341s-.33.157-.33.4v.676h-.357v-1.368h.357v.173a.543.543,0,0,1,.441-.211c.357,0,.538.241.538.606" transform="translate(-206.367 -101.282)" fill="#fff"/>
          <path id="Trazado_42643" data-name="Trazado 42643" d="M248.4,110.782a.214.214,0,1,1,.213.211.209.209,0,0,1-.213-.211m.03.4h.36v1.368h-.36Z" transform="translate(-218.244 -97.153)" fill="#fff"/>
          <path id="Trazado_42644" data-name="Trazado 42644" d="M256.722,115.868v.814h-.357v-.738c0-.206-.076-.335-.262-.335s-.289.143-.289.376v.7h-.36v-.738c0-.2-.073-.335-.257-.335s-.295.146-.295.387v.687h-.357v-1.368h.357v.162a.5.5,0,0,1,.406-.2.457.457,0,0,1,.411.205.569.569,0,0,1,.462-.205.522.522,0,0,1,.541.592" transform="translate(-223.645 -101.282)" fill="#fff"/>
          <path id="Trazado_42645" data-name="Trazado 42645" d="M274.99,110.782a.214.214,0,1,1,.214.211.209.209,0,0,1-.214-.211m.03.4h.36v1.368h-.36Z" transform="translate(-241.607 -97.153)" fill="#fff"/>
          <path id="Trazado_42646" data-name="Trazado 42646" d="M280.446,116a.693.693,0,0,1,.716-.722.667.667,0,0,1,.706.7.658.658,0,0,1-.008.127H280.8a.356.356,0,0,0,.4.311.349.349,0,0,0,.332-.181l.322.095a.747.747,0,0,1-1.4-.333m1.073-.116a.335.335,0,0,0-.359-.3.352.352,0,0,0-.362.3Z" transform="translate(-246.401 -101.282)" fill="#fff"/>
          <path id="Trazado_42647" data-name="Trazado 42647" d="M295.723,115.882v.8h-.357v-.733c0-.208-.095-.341-.292-.341s-.33.157-.33.4v.676h-.357v-1.368h.357v.173a.544.544,0,0,1,.441-.211c.357,0,.538.241.538.606" transform="translate(-258.651 -101.282)" fill="#fff"/>
          <path id="Trazado_42648" data-name="Trazado 42648" d="M308.044,113.7a.822.822,0,0,1-.319.065.428.428,0,0,1-.457-.489v-.587h-.23v-.314h.23v-.443h.359v.443h.4v.314h-.4v.587a.152.152,0,0,0,.168.173.332.332,0,0,0,.162-.038Z" transform="translate(-269.765 -98.347)" fill="#fff"/>
          <path id="Trazado_42649" data-name="Trazado 42649" d="M316.123,116a.731.731,0,1,1,.733.722.709.709,0,0,1-.733-.722m1.117,0a.384.384,0,1,0-.384.4.377.377,0,0,0,.384-.4" transform="translate(-277.747 -101.282)" fill="#fff"/>
          <path id="Trazado_42650" data-name="Trazado 42650" d="M335.61,110.782a.214.214,0,1,1,.214.211.209.209,0,0,1-.214-.211m.03.4H336v1.368h-.359Z" transform="translate(-294.868 -97.153)" fill="#fff"/>
          <path id="Trazado_42651" data-name="Trazado 42651" d="M343.092,115.882v.8h-.357v-.733c0-.208-.094-.341-.292-.341s-.33.157-.33.4v.676h-.357v-1.368h.357v.173a.543.543,0,0,1,.441-.211c.357,0,.538.241.538.606" transform="translate(-300.269 -101.282)" fill="#fff"/>
          <path id="Trazado_42652" data-name="Trazado 42652" d="M356.328,110.6v1.974h-.36v-.168a.544.544,0,0,1-.441.205.723.723,0,0,1,0-1.444.542.542,0,0,1,.441.2v-.77Zm-.349,1.287a.385.385,0,0,0-.389-.4.4.4,0,0,0,0,.806.388.388,0,0,0,.389-.405" transform="translate(-311.774 -97.173)" fill="#fff"/>
          <path id="Trazado_42653" data-name="Trazado 42653" d="M369.216,116a.693.693,0,0,1,.716-.722.721.721,0,0,1,.7.83h-1.062a.356.356,0,0,0,.4.311.349.349,0,0,0,.332-.181l.322.095a.747.747,0,0,1-1.4-.333m1.073-.116a.335.335,0,0,0-.36-.3.352.352,0,0,0-.362.3Z" transform="translate(-324.395 -101.282)" fill="#fff"/>
          <path id="Trazado_42654" data-name="Trazado 42654" d="M384.63,116a.685.685,0,0,1-.673.722.549.549,0,0,1-.444-.205v.735h-.357v-1.936h.357v.165a.547.547,0,0,1,.444-.2.684.684,0,0,1,.673.722m-.352,0a.376.376,0,0,0-.384-.4.4.4,0,0,0,0,.806.379.379,0,0,0,.384-.405" transform="translate(-336.643 -101.282)" fill="#fff"/>
          <path id="Trazado_42655" data-name="Trazado 42655" d="M396.831,116a.693.693,0,0,1,.716-.722.721.721,0,0,1,.7.83h-1.063a.356.356,0,0,0,.4.311.349.349,0,0,0,.332-.181l.322.095a.747.747,0,0,1-1.4-.333m1.073-.116a.335.335,0,0,0-.359-.3.352.352,0,0,0-.362.3Z" transform="translate(-348.657 -101.282)" fill="#fff"/>
          <path id="Trazado_42656" data-name="Trazado 42656" d="M412.109,115.882v.8h-.357v-.733c0-.208-.095-.341-.292-.341s-.33.157-.33.4v.676h-.357v-1.368h.357v.173a.543.543,0,0,1,.441-.211c.357,0,.538.241.538.606" transform="translate(-360.907 -101.282)" fill="#fff"/>
          <path id="Trazado_42657" data-name="Trazado 42657" d="M425.343,110.6v1.974h-.36v-.168a.544.544,0,0,1-.441.205.723.723,0,0,1,0-1.444.542.542,0,0,1,.441.2v-.77Zm-.349,1.287a.385.385,0,0,0-.389-.4.4.4,0,0,0,0,.806.388.388,0,0,0,.389-.405" transform="translate(-372.412 -97.173)" fill="#fff"/>
          <path id="Trazado_42658" data-name="Trazado 42658" d="M438.655,110.782a.214.214,0,1,1,.214.211.209.209,0,0,1-.214-.211m.03.4h.359v1.368h-.359Z" transform="translate(-385.404 -97.153)" fill="#fff"/>
          <path id="Trazado_42659" data-name="Trazado 42659" d="M444.112,116a.693.693,0,0,1,.716-.722.721.721,0,0,1,.7.83h-1.062a.356.356,0,0,0,.4.311.349.349,0,0,0,.332-.181l.322.095a.747.747,0,0,1-1.4-.333m1.073-.116a.336.336,0,0,0-.36-.3.351.351,0,0,0-.362.3Z" transform="translate(-390.199 -101.282)" fill="#fff"/>
          <path id="Trazado_42660" data-name="Trazado 42660" d="M459.388,115.882v.8h-.357v-.733c0-.208-.095-.341-.292-.341s-.33.157-.33.4v.676h-.357v-1.368h.357v.173a.543.543,0,0,1,.441-.211c.357,0,.538.241.538.606" transform="translate(-402.448 -101.282)" fill="#fff"/>
          <path id="Trazado_42661" data-name="Trazado 42661" d="M471.709,113.7a.82.82,0,0,1-.319.065.428.428,0,0,1-.457-.489v-.587h-.23v-.314h.23v-.443h.359v.443h.4v.314h-.4v.587a.152.152,0,0,0,.168.173.334.334,0,0,0,.162-.038Z" transform="translate(-413.562 -98.347)" fill="#fff"/>
          <path id="Trazado_42662" data-name="Trazado 42662" d="M479.789,116a.693.693,0,0,1,.716-.722.721.721,0,0,1,.7.83H480.14a.356.356,0,0,0,.4.311.349.349,0,0,0,.332-.181l.322.095a.747.747,0,0,1-1.4-.333m1.073-.116a.335.335,0,0,0-.36-.3.351.351,0,0,0-.362.3Z" transform="translate(-421.545 -101.282)" fill="#fff"/>
        </g>
      </g>
      <g id="Grupo_34959" data-name="Grupo 34959" transform="translate(0)">
        <rect id="Rectángulo_18532-5" data-name="Rectángulo 18532" width="78.233" height="47.221" rx="5" fill="none"/>
        <g id="Grupo_34951" data-name="Grupo 34951" transform="translate(22.837 6.344)">
          <g id="Grupo_34950" data-name="Grupo 34950" clip-path="url(#clip-path-2)">
            <path id="Trazado_88249" data-name="Trazado 88249" d="M42.649,0l.034.115h-.24s1.5,5.323,1.585,5.581.276.31.689.431a5.931,5.931,0,0,1,3.709,5.609c0,4.019-3.192,5.351-6.546,5.443a.157.157,0,0,0-.111.146h-.1s-.129.015,0,.291,2.756,4.323,3.152,4.875c0,0,7.281.155,12.1-5.541S58.186.046,42.649,0" transform="translate(-31.275)" fill="#fff"/>
            <path id="Trazado_88250" data-name="Trazado 88250" d="M33.522,38.936A3.925,3.925,0,1,0,29.6,35.011a3.925,3.925,0,0,0,3.925,3.925" transform="translate(-22.246 -23.365)" fill="#fff"/>
            <path id="Trazado_88251" data-name="Trazado 88251" d="M3.73,101.549H2.509l-1.436,2.039v-2.039H0v4.7H1.073v-2.174l1.5,2.174H3.8l-1.65-2.408Z" transform="translate(0 -76.327)" fill="#fff"/>
            <path id="Trazado_88252" data-name="Trazado 88252" d="M22.787,101.549H21.419l-1.6,4.7H21l.235-.738h1.744l.235.738h1.174ZM21.553,104.5l.55-1.724.55,1.724Z" transform="translate(-14.899 -76.327)" fill="#fff"/>
            <path id="Trazado_88253" data-name="Trazado 88253" d="M47.492,101.549H46.419V104.1l-1.811-2.549h-.8v4.7h1.073V103.7l1.811,2.549h.8Z" transform="translate(-32.923 -76.327)" fill="#fff"/>
            <path id="Trazado_88254" data-name="Trazado 88254" d="M67.238,101.549H65.87l-1.6,4.7h1.174l.235-.738h1.744l.235.738h1.174ZM66,104.5l.55-1.724.55,1.724Z" transform="translate(-48.309 -76.327)" fill="#fff"/>
            <path id="Trazado_88255" data-name="Trazado 88255" d="M89.327,101.549H88.254v4.7H91v-1.033H89.327Z" transform="translate(-66.334 -76.327)" fill="#fff"/>
            <path id="Trazado_88256" data-name="Trazado 88256" d="M117.84,101.548h-1.878v4.7h1.878a2.349,2.349,0,0,0,0-4.7m0,3.663h-.8v-2.63h.8a1.317,1.317,0,0,1,0,2.63" transform="translate(-87.16 -76.326)" fill="#fff"/>
            <path id="Trazado_88257" data-name="Trazado 88257" d="M22.62,129.873H21.557v2.659H22.62a1.33,1.33,0,0,0,0-2.659m0,2.074h-.456v-1.489h.456a.745.745,0,0,1,0,1.489" transform="translate(-16.203 -97.616)" fill="#fff"/>
            <path id="Trazado_88258" data-name="Trazado 88258" d="M43.561,130.785a.909.909,0,0,0-.911-.912H41.586v2.658h.608v-.874h.289l.5.874h.653l-.566-.976a.876.876,0,0,0,.49-.771m-.911.342h-.456v-.684h.456a.344.344,0,0,1,0,.684" transform="translate(-31.257 -97.617)" fill="#fff"/>
            <path id="Trazado_88259" data-name="Trazado 88259" d="M60.922,129.873h-.774l-.9,2.659h.665l.133-.418h.988l.133.418h.665Zm-.7,1.671.311-.976.311.976Z" transform="translate(-44.529 -97.616)" fill="#fff"/>
            <path id="Trazado_88260" data-name="Trazado 88260" d="M81.06,131.055l-.722-1.181h-.608v2.658h.608v-1.546l.687,1.128h.069l.687-1.128v1.546h.608v-2.658h-.608Z" transform="translate(-59.928 -97.617)" fill="#fff"/>
            <path id="Trazado_88261" data-name="Trazado 88261" d="M101.427,129.873l-.9,2.659h.665l.133-.418h.988l.133.418h.665l-.9-2.659Zm.076,1.671.311-.976.311.976Z" transform="translate(-75.556 -97.616)" fill="#fff"/>
          </g>
        </g>
      </g>
      <ellipse id="Elipse_429" data-name="Elipse 429" cx="2.929" cy="2.93" rx="2.929" ry="2.93" transform="translate(82.524 19.918)" fill="#fff"/>
    </g>
  </g>
</svg>
