<svg xmlns="http://www.w3.org/2000/svg" xmlns:xlink="http://www.w3.org/1999/xlink" width="448.535" height="48.067" viewBox="0 0 448.535 48.067">
  <defs>
    <clipPath id="clip-path">
      <rect id="Rectángulo_10197" data-name="Rectángulo 10197" width="48.417" height="30.141" fill="none"/>
    </clipPath>
    <clipPath id="clip-path-2">
      <rect id="Rectángulo_22890" data-name="Rectángulo 22890" width="33.237" height="35.208" fill="none"/>
    </clipPath>
  </defs>
  <g id="Grupo_35093" data-name="Grupo 35093" transform="translate(-8613 -5968.748)">
    <g id="Grupo_35091" data-name="Grupo 35091" transform="translate(8613 5969)">
      <g id="Grupo_32703" data-name="Grupo 32703" transform="translate(90.92)">
        <rect id="Rectángulo_18532" data-name="Rectángulo 18532" width="78.535" height="47.404" rx="5" transform="translate(0 0)" fill="none"/>
        <g id="Grupo_22158" data-name="Grupo 22158" transform="translate(12.736 9.198)">
          <path id="Trazado_42240" data-name="Trazado 42240" d="M44.31-378.069c-.481.022-.963.042-1.444.053-.1,0-.119.025-.118.12,0,.97,0,1.939,0,2.909,0,.218.007.437-.006.655a1.066,1.066,0,0,1-1.212,1.128.966.966,0,0,1-.94-.713,1.787,1.787,0,0,1-.078-.538c0-1.106,0-2.213,0-3.319,0-.124-.031-.143-.149-.138-.527.025-1.053.07-1.581.063v3.907a1.281,1.281,0,0,1,.081.362,2.218,2.218,0,0,0,1.576,1.769,3.887,3.887,0,0,0,2.3.009,2.224,2.224,0,0,0,1.539-1.51,4.058,4.058,0,0,0,.184-1.29c0-1.106,0-2.213.005-3.319C44.471-378.057,44.424-378.074,44.31-378.069Z" transform="translate(-38.788 389.488)" fill="#fff"/>
          <path id="Trazado_42241" data-name="Trazado 42241" d="M232.4-373.168c-.111,0-.132-.038-.132-.141,0-1.475,0-2.95.006-4.426,0-.115-.033-.144-.139-.148-.477-.018-.954-.038-1.43-.068-.115-.007-.131.029-.131.131q0,3.012,0,6.024c0,.1.019.136.131.136.87-.005,1.739,0,2.609,0l1.83,0v-1.476C234.228-373.152,233.313-373.163,232.4-373.168Z" transform="translate(-181.973 389.4)" fill="#fff"/>
          <path id="Trazado_42242" data-name="Trazado 42242" d="M140.812-423.107c0-.008.011-.013.007-.023h-.792c0,.01,0,.016.007.024Z" transform="translate(-114.371 423.13)" fill="#fff"/>
          <path id="Trazado_42243" data-name="Trazado 42243" d="M143.344-423.108c0-.007.01-.013.005-.022h-.191c0,.008,0,.015,0,.023Z" transform="translate(-116.71 423.13)" fill="#fff"/>
          <path id="Trazado_42244" data-name="Trazado 42244" d="M139.46-423.106a.149.149,0,0,0,0-.024h-.191c0,.009,0,.015.005.022Z" transform="translate(-113.807 423.13)" fill="#fff"/>
          <path id="Trazado_42245" data-name="Trazado 42245" d="M90.149-413.686a13.019,13.019,0,0,1,.638-1.383,12.852,12.852,0,0,1,4.415-4.866,12.422,12.422,0,0,1,7.384-1.971,12.689,12.689,0,0,1,3.542.647,13.554,13.554,0,0,1,5.9,3.9,13.384,13.384,0,0,1,2.519,4.115c.037.095.077.137.183.129.136-.01.273,0,.41,0,.159,0,.159,0,.11-.147a14.25,14.25,0,0,0-3.8-5.93,14.228,14.228,0,0,0-9.139-3.914.117.117,0,0,1,0-.023h-.164a.052.052,0,0,1,0,.022h-.007c0,.006,0,.015,0,.02a.146.146,0,0,1-.178-.019h-.01c0,.007,0,.016-.006.021a2.4,2.4,0,0,1-.766,0c-.008,0,0-.013-.006-.02h-.01a.149.149,0,0,1-.179.017c-.007,0,0-.013,0-.019h-.007a.109.109,0,0,1,0-.022h-.164a.06.06,0,0,1,0,.024,14.436,14.436,0,0,0-12.836,9.574c.69-.016,1.376-.032,2.062-.045C90.115-413.579,90.128-413.632,90.149-413.686Z" transform="translate(-75.508 423.13)" fill="#fff"/>
          <path id="Trazado_42246" data-name="Trazado 42246" d="M71.435-378.813c0-.095-.021-.121-.119-.117-.477.019-.955.03-1.432.041-.1,0-.135.032-.134.141,0,1.029,0,2.058,0,3.087a.288.288,0,0,1-.021.163l-.156-.208-2.247-3.005c-.038-.051-.069-.1-.149-.1-.459.017-.918.032-1.377.041-.095,0-.122.029-.122.124q0,3.067,0,6.133c0,.1.032.119.123.118.469,0,.938-.006,1.407,0,.113,0,.142-.028.142-.142,0-1.065,0-2.131,0-3.2,0-.045-.017-.1.024-.14q1.251,1.7,2.491,3.377a.2.2,0,0,0,.188.1q.628-.009,1.257,0c.1,0,.128-.02.127-.125,0-1.029,0-2.058,0-3.087C71.433-376.673,71.432-377.743,71.435-378.813Z" transform="translate(-58.865 390.131)" fill="#fff"/>
          <path id="Trazado_42247" data-name="Trazado 42247" d="M159.691-375.073c-.05-.079-.047-.108.043-.155a2,2,0,0,0,1.038-1.238,2.63,2.63,0,0,0,.089-1,2.046,2.046,0,0,0-1.157-1.759,2.86,2.86,0,0,0-1.29-.3c-.943-.006-1.885,0-2.828,0-.1,0-.131.018-.131.125q.005,3.217,0,6.434c0,.1.017.132.124.131q.731-.01,1.462,0c.114,0,.131-.038.13-.138,0-.592,0-1.184,0-1.776,0-.112.034-.135.137-.131a5.105,5.105,0,0,0,.559,0,.219.219,0,0,1,.24.144c.312.605.632,1.206.948,1.809.025.048.04.093.114.093.628,0,1.255,0,1.908,0l-.09-.15Q160.338-374.031,159.691-375.073Zm-.55-1.828a.723.723,0,0,1-.619.525,9.431,9.431,0,0,1-1.293.031c-.076,0-.057-.055-.057-.1,0-.241,0-.482,0-.723s0-.473,0-.709c0-.053,0-.1.074-.094.4.01.792-.021,1.186.014A.785.785,0,0,1,159.141-376.9Z" transform="translate(-125.891 390.575)" fill="#fff"/>
          <path id="Trazado_42248" data-name="Trazado 42248" d="M131.818-372.837q2.349-.005,4.7,0c.089,0,.113-.022.112-.111,0-.433-.007-.865,0-1.3,0-.131-.021-.174-.165-.173-.961.008-1.921,0-2.882.006-.1,0-.146-.012-.141-.129.01-.264.01-.528,0-.792,0-.123.033-.149.151-.148.856.006,1.712,0,2.568.005.1,0,.13-.026.128-.129-.006-.4-.007-.8,0-1.2,0-.115-.03-.142-.143-.141-.86,0-1.721,0-2.581,0-.094,0-.125-.023-.123-.12.007-.25.009-.5,0-.751,0-.115.027-.141.14-.14.96.005,1.921,0,2.882,0,.082,0,.117-.011.116-.108q-.009-.676,0-1.352c0-.1-.039-.115-.126-.115q-2.308,0-4.617,0c-.107,0-.135.027-.135.135,0,1.07,0,2.14,0,3.21s0,2.149,0,3.223C131.7-372.868,131.718-372.837,131.818-372.837Z" transform="translate(-108.156 390.577)" fill="#fff"/>
          <path id="Trazado_42249" data-name="Trazado 42249" d="M183.231-376.558a5.817,5.817,0,0,0-1.2-.428,2.925,2.925,0,0,1-.863-.325.383.383,0,0,1-.217-.406.4.4,0,0,1,.339-.312,1.4,1.4,0,0,1,.542-.011,2.972,2.972,0,0,1,1.336.578c.079.058.108.048.159-.031.228-.356.459-.71.7-1.058.064-.092.053-.135-.031-.2a3.622,3.622,0,0,0-2.368-.833,3.144,3.144,0,0,0-.8.087,1.985,1.985,0,0,0-1.55,2.42,1.827,1.827,0,0,0,.974,1.2,5.374,5.374,0,0,0,1.332.5,2.8,2.8,0,0,1,.763.281.383.383,0,0,1,.2.376.392.392,0,0,1-.269.346,1.069,1.069,0,0,1-.388.065,2.883,2.883,0,0,1-1.865-.69c-.136-.108-.135-.109-.244.032l-.692.9c-.147.192-.149.195.04.35a4.021,4.021,0,0,0,3.358.874,1.958,1.958,0,0,0,1.743-1.716A1.743,1.743,0,0,0,183.231-376.558Z" transform="translate(-143.457 390.621)" fill="#fff"/>
          <path id="Trazado_42250" data-name="Trazado 42250" d="M206.612-374.942l-1.456-3.637c-.025-.061-.038-.121-.134-.122q-.716-.009-1.432-.036c-.1,0-.13.035-.163.117q-1.03,2.579-2.064,5.156l-.48,1.2c.017.009.025.016.033.016.556,0,1.111,0,1.667,0,.076,0,.088-.046.107-.1.124-.322.25-.642.37-.965a.122.122,0,0,1,.137-.093q1.066.005,2.131,0a.121.121,0,0,1,.136.095c.119.319.245.635.363.954a.14.14,0,0,0,.157.108c.533,0,1.066,0,1.6,0,.031,0,.061,0,.089-.006.014-.041-.009-.067-.02-.1Zm-3.022.142.686-1.8.666,1.8Z" transform="translate(-159.807 389.987)" fill="#fff"/>
          <path id="Trazado_42251" data-name="Trazado 42251" d="M107.726-379.385q-.343,1.127-.693,2.251c-.185.6-.372,1.2-.559,1.806-.047-.023-.047-.065-.058-.1q-.335-.957-.666-1.916-.355-1.021-.71-2.043c-.018-.052-.029-.095-.106-.094-.6,0-1.192,0-1.817,0,.026.078.037.112.049.146q1.2,3.2,2.392,6.4a.138.138,0,0,0,.158.1q.7-.007,1.393,0a.151.151,0,0,0,.172-.121q1.012-2.838,2.031-5.674l.319-.892h-.152c-.532,0-1.065.013-1.6.011C107.783-379.508,107.752-379.471,107.726-379.385Z" transform="translate(-86.815 390.57)" fill="#fff"/>
          <path id="Trazado_42252" data-name="Trazado 42252" d="M94.973-379.166c-.514.016-1.027.025-1.541.032-.08,0-.1.026-.1.1q0,3.182,0,6.363c0,.089.027.1.107.1.5,0,.992,0,1.489,0,.1,0,.136-.021.135-.131,0-1.052,0-2.1,0-3.155s0-2.13,0-3.2C95.064-379.113,95.078-379.17,94.973-379.166Z" transform="translate(-79.513 390.307)" fill="#fff"/>
          <path id="Trazado_42253" data-name="Trazado 42253" d="M184.249-345.369h-1.826v-1.826h-1.478v1.826H179.12v1.478h1.826v1.826h1.478v-1.826h1.826Z" transform="translate(-143.559 366.437)" fill="#fff"/>
          <path id="Trazado_42254" data-name="Trazado 42254" d="M103.6-337.912a14.783,14.783,0,0,1-3.538-.1,12.994,12.994,0,0,1-4.011-1.253,12.6,12.6,0,0,1-5.444-5.322,13.888,13.888,0,0,1-.849-1.87c-.017-.046-.018-.107-.1-.106-.418,0-.836,0-1.249,0-.02.049.007.081.017.114a13.463,13.463,0,0,0,3.12,5.142,13.958,13.958,0,0,0,8.886,4.24,14.871,14.871,0,0,0,5.118-.378,13.674,13.674,0,0,0,6.317-3.476l-.869-.044A12.511,12.511,0,0,1,103.6-337.912Z" transform="translate(-75.831 365.968)" fill="#fff"/>
        </g>
      </g>
      <g id="Grupo_34963" data-name="Grupo 34963" transform="translate(181.84)">
        <rect id="Rectángulo_18532-2" data-name="Rectángulo 18532" width="79.218" height="47.815" rx="5" transform="translate(0 0)" fill="none"/>
        <g id="Grupo_32685" data-name="Grupo 32685" transform="translate(18.719 11.588)">
          <path id="Trazado_43304" data-name="Trazado 43304" d="M5.128,18.206H7.743v7.06H5.128v-.633a2.3,2.3,0,0,1-1.892.833A2.92,2.92,0,0,1,.9,24.41,3.978,3.978,0,0,1,0,21.737a3.967,3.967,0,0,1,.9-2.67A2.919,2.919,0,0,1,3.236,18a2.3,2.3,0,0,1,1.892.833ZM2.96,22.684a1.175,1.175,0,0,0,.911.382,1.176,1.176,0,0,0,.911-.382,1.469,1.469,0,0,0,0-1.894,1.176,1.176,0,0,0-.911-.382,1.175,1.175,0,0,0-.911.382,1.469,1.469,0,0,0,0,1.894" transform="translate(1.071 -14.787)" fill="#fff"/>
          <path id="Trazado_43305" data-name="Trazado 43305" d="M54.185,18.007a2.357,2.357,0,0,1,1.858.792,3.5,3.5,0,0,1,.7,2.377V25.27H54.129v-3.8q0-.947-.876-.947a.875.875,0,0,0-.713.3,1.24,1.24,0,0,0-.244.819V25.27H49.678V18.21H52.3V18.9a2.185,2.185,0,0,1,1.89-.9" transform="translate(-39.735 -14.791)" fill="#fff"/>
          <path id="Trazado_43306" data-name="Trazado 43306" d="M95.836,2.882a1.4,1.4,0,0,1-1.025-.431A1.4,1.4,0,0,1,94.772.47l.039-.039A1.4,1.4,0,0,1,95.836,0a1.383,1.383,0,0,1,1.01.43,1.4,1.4,0,0,1,.039,1.981l-.039.039a1.389,1.389,0,0,1-1.01.431m-1.314.538h2.614v7.06H94.522Z" transform="translate(-76.454 0)" fill="#fff"/>
          <path id="Trazado_43307" data-name="Trazado 43307" d="M124.471,18.007a2.449,2.449,0,0,1,1.921.77,3.211,3.211,0,0,1,.7,2.2V25.27h-2.619V21.332q0-.806-.721-.806-.832,0-.833,1.046v3.7H120.3V21.332q0-.806-.721-.806-.835,0-.833,1.046v3.7h-2.614V18.21h2.614v.66a2.328,2.328,0,0,1,1.922-.864,1.914,1.914,0,0,1,1.767.876,2.564,2.564,0,0,1,2.034-.876" transform="translate(-94.324 -14.791)" fill="#fff"/>
          <path id="Trazado_43308" data-name="Trazado 43308" d="M184.268,22.629a1.434,1.434,0,0,0,1.441.707,1.849,1.849,0,0,0,1.2-.442l1.71,1.441a3.868,3.868,0,0,1-3,1.144,4.01,4.01,0,0,1-2.905-1.057,3.516,3.516,0,0,1-1.095-2.649,3.672,3.672,0,0,1,3.76-3.765,3.555,3.555,0,0,1,2.649,1.057,3.624,3.624,0,0,1,1.037,2.65,3.763,3.763,0,0,1-.112.924Zm-.042-1.681H186.6a1.077,1.077,0,0,0-1.145-.848,1.219,1.219,0,0,0-1.232.85Z" transform="translate(-148.115 -14.791)" fill="#fff"/>
          <g id="Polígono_5" data-name="Polígono 5" transform="matrix(0.719, -0.695, 0.695, 0.719, 0, 16.46)" fill="#fff">
            <path d="M1.145,0,2.29,1.527H0Z" stroke="none"/>
            <path d="M 1.145240187644958 -2.026557922363281e-06 L 2.290480136871338 1.526997923851013 L 2.384185791015625e-07 1.526997923851013 L 1.145240187644958 -2.026557922363281e-06 Z" stroke="none" fill="#fff"/>
          </g>
          <g id="Polígono_6" data-name="Polígono 6" transform="translate(6.524 14.849) rotate(49)" fill="#fff">
            <path d="M1.145,0,2.29,1.527H0Z" stroke="none"/>
            <path d="M 1.145227074623108 1.430511474609375e-06 L 2.290457010269165 1.526961326599121 L -2.86102294921875e-06 1.526961326599121 L 1.145227074623108 1.430511474609375e-06 Z" stroke="none" fill="#fff"/>
          </g>
          <path id="Trazado_43309" data-name="Trazado 43309" d="M284.189,18.11a2.377,2.377,0,0,0-2.166,1.137v-.962h-1.162v6.679h1.162V21.426a2.28,2.28,0,0,1,.535-1.664,1.888,1.888,0,0,1,1.4-.545,1.63,1.63,0,0,1,1.215.448,1.719,1.719,0,0,1,.441,1.263v4.035h1.163v-4.1a2.791,2.791,0,0,0-.708-2.011,2.483,2.483,0,0,0-1.884-.742" transform="translate(-271.83 -3.241)" fill="#fff"/>
          <path id="Trazado_43310" data-name="Trazado 43310" d="M324.79,18.11a3.376,3.376,0,0,0-2.527,1,3.447,3.447,0,0,0-.974,2.512,3.41,3.41,0,0,0,1,2.52,3.512,3.512,0,0,0,2.586,1,3.264,3.264,0,0,0,2.939-1.51l-.988-.562a2.091,2.091,0,0,1-1.925.977,2.556,2.556,0,0,1-1.6-.5,2.2,2.2,0,0,1-.826-1.385h5.6a3.41,3.41,0,0,0,.04-.521,3.606,3.606,0,0,0-.928-2.5,3.088,3.088,0,0,0-2.4-1.031m-2.312,3.034a2.219,2.219,0,0,1,2.312-1.938,2.144,2.144,0,0,1,1.4.5,2.252,2.252,0,0,1,.75,1.443Z" transform="translate(-305.428 -3.241)" fill="#fff"/>
          <path id="Trazado_43311" data-name="Trazado 43311" d="M371.344,19.432a2.836,2.836,0,0,0-2.514-1.324,3.259,3.259,0,0,0-2.418,1.009,3.582,3.582,0,0,0,0,4.943,3.247,3.247,0,0,0,2.418,1.016,2.848,2.848,0,0,0,2.514-1.337v.949a1.941,1.941,0,0,1-.6,1.5,2.308,2.308,0,0,1-1.636.548,2.183,2.183,0,0,1-2.179-1.124l-1.016.575a2.8,2.8,0,0,0,1.233,1.2,4.166,4.166,0,0,0,1.938.421,3.671,3.671,0,0,0,2.406-.822,2.816,2.816,0,0,0,1-2.3v-6.4h-1.149Zm-.682,3.849a2.4,2.4,0,1,1,.682-1.693,2.306,2.306,0,0,1-.682,1.693" transform="translate(-342.106 -3.238)" fill="#fff"/>
          <path id="Trazado_43312" data-name="Trazado 43312" d="M419.433,19.434a2.835,2.835,0,0,0-2.526-1.324,3.206,3.206,0,0,0-2.392,1.023,3.653,3.653,0,0,0,0,5,3.206,3.206,0,0,0,2.392,1.023,2.833,2.833,0,0,0,2.526-1.323v1.133H420.6V18.284h-1.163Zm-.681,3.9a2.421,2.421,0,0,1-3.382,0,2.466,2.466,0,0,1,0-3.408,2.421,2.421,0,0,1,3.382,0,2.47,2.47,0,0,1,0,3.408" transform="translate(-382.083 -3.24)" fill="#fff"/>
          <rect id="Rectángulo_18629" data-name="Rectángulo 18629" width="1.163" height="6.682" transform="translate(39.942 15.044)" fill="#fff"/>
          <path id="Trazado_43313" data-name="Trazado 43313" d="M463.465,4.248a.772.772,0,0,0,.771-.773.771.771,0,0,0-.227-.555.738.738,0,0,0-.543-.236.75.75,0,0,0-.562.234.771.771,0,0,0-.227.555.749.749,0,0,0,.224.551.765.765,0,0,0,.566.225" transform="translate(-422.93 9.579)" fill="#fff"/>
          <path id="Trazado_43314" data-name="Trazado 43314" d="M238.2,19.582l-2.351.358a3.571,3.571,0,0,0-2.533,0l-2.4-.356.432,2.595a3.542,3.542,0,0,0-.1.86,3.3,3.3,0,0,0,3.263,3.328h.065a3.248,3.248,0,0,0,2.366-.962,3.2,3.2,0,0,0,.974-2.366,3.548,3.548,0,0,0-.1-.858Zm-6.429,1.582-.176-.916.928.131Zm4.4,3.479a2.234,2.234,0,0,1-3.821-1.606,2.182,2.182,0,0,1,.646-1.608,2.277,2.277,0,0,1,3.176,0,2.322,2.322,0,0,1,0,3.214m1.174-3.457-.762-.775.921-.149Z" transform="translate(-230.324 -4.464)" fill="#fff"/>
        </g>
      </g>
      <ellipse id="Elipse_421" data-name="Elipse 421" cx="3.122" cy="3.122" rx="3.122" ry="3.122" transform="translate(81.115 20.502)" fill="#fff"/>
      <g id="Grupo_35090" data-name="Grupo 35090" transform="translate(0)">
        <rect id="Rectángulo_18532-3" data-name="Rectángulo 18532" width="78.535" height="47.404" rx="5" fill="none"/>
        <g id="paramount_Blanco" data-name="paramount + Blanco" transform="translate(14.858 8.49)">
          <g id="paramount_Blanco-2" data-name="paramount + Blanco" transform="translate(0 0)" clip-path="url(#clip-path)">
            <path id="Trazado_25772" data-name="Trazado 25772" d="M362.976,246.315c-.117-.048-.314-.271.011-.877l.755-1.579c.021-.048-.032-.106-.069-.069l-.659.665a11.39,11.39,0,0,0-.946,1.409l-.8,1.329a.106.106,0,0,1,.1.16l-.734,1.228c-.181.3.144.521.186.447,1.149-1.855,1.818-1.707,1.818-1.707l.383-.888a.091.091,0,0,0,0-.072.09.09,0,0,0-.05-.051" transform="translate(-341.407 -230.818)" fill="#fff"/>
            <path id="Trazado_25773" data-name="Trazado 25773" d="M242.714,0a11.915,11.915,0,0,0-9.586,18.991,2.485,2.485,0,0,0,.978-.787l2.217-2.839a.452.452,0,0,1,.175-.138l.335-.144,3.647-4.625.532-.415L242.1,8.528a.45.45,0,0,1,.1-.1l.473-.346a.34.34,0,0,1,.393-.005l.574.4a2.26,2.26,0,0,1,.728.84l2.307,4.051a.362.362,0,0,0,.181.175,3.165,3.165,0,0,1,1.319.909c.276.3,1.483,1.653,3.179,3.753a2.4,2.4,0,0,0,.957.776A11.916,11.916,0,0,0,242.714,0m-8.7,12.574-.771-.25-.479.659v-.813l-.771-.25.771-.25v-.819l.479.659.771-.25-.478.659Zm-.181,2.658-.25.771-.25-.771h-.814l.659-.478-.255-.771.659.478.659-.478-.25.771.659.478Zm.154-6.151.25.771-.659-.478-.659.478.25-.771-.659-.478h.813l.25-.771.25.771h.813Zm1.3-1.749-.478-.659-.771.25.478-.659-.478-.659.771.25.478-.659v.813l.771.25-.771.25Zm2.031-2.844-.25.776-.25-.776H236l.659-.478-.25-.771.659.478.659-.478-.25.771.659.478Zm2.557-1.3-.478.659V3.03l-.771-.25.771-.25V1.717l.478.659.771-.25-.479.659.479.659Zm3.243-.744.25.771-.659-.478-.659.478.25-.771-.659-.478h.813l.25-.771.25.771h.813Zm2.913.59v.813l-.478-.659-.771.25.479-.659-.479-.659.771.25.478-.659v.824l.771.25Zm5.386,8.23.771.25.478-.659v.813l.771.25-.771.25v.813l-.478-.659-.771.25.478-.659Zm-3.057-6-.25-.771H247.3l.659-.478-.25-.771.659.478.659-.478-.25.771.659.478h-.819Zm1.781,2.068V6.518l-.771-.25.771-.25V5.2l.478.659.771-.25-.478.659.478.659-.771-.25ZM251.6,8.6l.25-.771.25.771h.813l-.659.478.25.771-.659-.478-.659.478.25-.771-.659-.478Zm.5,6.63-.245.771-.25-.771h-.813l.659-.478-.255-.771.659.478.659-.478-.25.771.659.478Z" transform="translate(-218.529)" fill="#fff"/>
            <path id="Trazado_25774" data-name="Trazado 25774" d="M422.575,176.358a.764.764,0,0,0-.027-.734l-.526-1.419c-.074-.181.085-.292.191-.17a15.765,15.765,0,0,1,1.255,1.627l.489.813c.425.027,1.59.058,2.712.058a3.193,3.193,0,0,1-.314-.361c-1.914-2.377-3.132-3.7-3.142-3.711a2.146,2.146,0,0,0-.867-.638l-.138-.064v.362a.044.044,0,0,1-.085.021l-2.818-4.95v-.016a1.585,1.585,0,0,0-.505-.585l-.276-.191-1.345,3.1a.292.292,0,0,1,.266.4l-1.244,2.871h1.138a3.387,3.387,0,0,1,1.287.255l.3.122a9.488,9.488,0,0,0-.909,2.85,2.041,2.041,0,0,0,.074.526h2.089l-.09-.58a22.322,22.322,0,0,0,2.483.409" transform="translate(-394.073 -157.553)" fill="#fff"/>
            <path id="Trazado_25775" data-name="Trazado 25775" d="M12.366,359.844c0-1.919-2.036-2.844-4.45-2.844-2.584,0-4.96,1.148-5.827,2.924a3.366,3.366,0,0,0-.367,1.526,2.3,2.3,0,0,0,.367,1.3,2.275,2.275,0,0,0,2.015.9c1.2,0,2.148-.659,2.148-1.8a.313.313,0,0,0-.356-.319c-.372,0-.383.213-.372.319a1.417,1.417,0,0,1-1.441,1.616c-1.069,0-1.51-.9-1.51-1.877a4.245,4.245,0,0,1,3.046-3.865,6.2,6.2,0,0,1,2.275-.4c1.76,0,3.2.675,3.2,2.488A3.018,3.018,0,0,1,8.3,362.721l.064-.2a11.128,11.128,0,0,1,1.313-3.227,2.487,2.487,0,0,1,.17-.229l-.09-.106a3.7,3.7,0,0,0-.383.266c-2.913,2.275-3,8.671-6.885,8.671a3.008,3.008,0,0,1-.4-.027,1.358,1.358,0,0,1-1.234-1.43c0-.149.053-.356.053-.473a.388.388,0,0,0-.383-.4H.489c-.346,0-.489.277-.5.665-.027,1.127.808,1.786,2.095,1.909.144.011.282.016.436.016,3.03,0,4.886-2.291,5.678-5.072a6.668,6.668,0,0,0,1.18-.25c1.4-.393,2.988-1.335,2.988-2.993" transform="translate(0.011 -338.02)" fill="#fff"/>
            <path id="Trazado_25776" data-name="Trazado 25776" d="M212.607,423.1h-1.063l-.245.558-.42.941h-.5l-.149.319h.516l-.617,1.377c-.447.968-1.138,1.919-1.536,1.919-.09,0-.144-.037-.144-.122a1.263,1.263,0,0,1,.122-.42c.1-.25.33-.718.478-1.031a5.065,5.065,0,0,0,.579-1.5.6.6,0,0,0-.659-.622,2.046,2.046,0,0,0-1.34.718l.266-.638h-1l-.819,1.866c-.33.659-.994,1.749-1.414,1.749-.09,0-.122-.053-.122-.144a.75.75,0,0,1,.064-.229l.526-1.228.883-2.031h-1.085l-.861,1.978c-.266.611-.941,1.654-1.377,1.654a.138.138,0,0,1-.149-.122v-.037a1.482,1.482,0,0,1,.144-.447l.452-.994.93-2.031h-1.074l-.213.463a1.043,1.043,0,0,1-.851.675.359.359,0,0,1-.346-.16,1.059,1.059,0,0,0-1.138-1.047,2.3,2.3,0,0,0-1.935,1.164,5.951,5.951,0,0,0-.638,1.414c-.383.633-.782,1.122-1.1,1.122-.08,0-.133-.043-.133-.149a1.748,1.748,0,0,1,.144-.436l.691-1.5a2.927,2.927,0,0,0,.33-1.069.548.548,0,0,0-.585-.553,2.138,2.138,0,0,0-1.494.771,1.017,1.017,0,0,0,.016-.229.479.479,0,0,0-.542-.542,1.933,1.933,0,0,0-1.377.771l.282-.691h-.973l-.824,1.866c-.393.877-1.021,1.749-1.377,1.749-.08,0-.133-.043-.133-.149a4.683,4.683,0,0,1,.255-.755l1.1-2.477c.08-.186-.447-.3-1.111-.3a3.174,3.174,0,0,0-1.9.771,1.719,1.719,0,0,1-.766.452c-.133,0-.1-.037-.1-.08,0-.149.367-.58.367-.9,0-.149-.08-.25-.287-.25a1.924,1.924,0,0,0-1.191.766l.282-.686h-.957l-.824,1.866c-.393.877-1.042,1.8-1.393,1.8-.08,0-.133-.043-.133-.149a3.845,3.845,0,0,1,.276-.792l1.1-2.488c.08-.186-.447-.3-1.111-.3a3.284,3.284,0,0,0-2.451,1.35,4.34,4.34,0,0,0-.952,2.158.728.728,0,0,0,.792.835,2,2,0,0,0,1.35-.824,1.771,1.771,0,0,0-.037.213c0,.356.144.611.58.611a1.846,1.846,0,0,0,1.3-.824l-.33.755h1.037l1.021-2.318c.34-.755.718-1.148.824-1.148s.053.016.053.043a1.591,1.591,0,0,0-.16.489c0,.2.106.346.393.346a1.165,1.165,0,0,0,.691-.25,3.828,3.828,0,0,0-.877,2.068.728.728,0,0,0,.792.835,2.1,2.1,0,0,0,1.366-.888,2.167,2.167,0,0,0-.016.25.58.58,0,0,0,.6.638c.4,0,.8-.277,1.244-.819l-.33.744h1.069l.978-2.212c.425-.957,1-1.473,1.287-1.473a.128.128,0,0,1,.144.117v.027a.957.957,0,0,1-.09.308l-1.4,3.243h1.1l.994-2.254c.425-.968.9-1.441,1.255-1.441.106,0,.149.053.149.17a.968.968,0,0,1-.1.356l-.962,2.042a1.894,1.894,0,0,0-.159.622c0,.314.17.585.649.585.622,0,1.1-.473,1.627-1.175v.149A1.056,1.056,0,0,0,199,428.89a2.551,2.551,0,0,0,2.249-1.749,3.791,3.791,0,0,0,.346-1.2.676.676,0,0,0,.346.069.937.937,0,0,0,.463-.117l-.17.367c-.2.409-.409.861-.58,1.244a2,2,0,0,0-.186.718.6.6,0,0,0,.649.659,2.184,2.184,0,0,0,1.457-.989h.011a1.641,1.641,0,0,0-.043.367c0,.319.1.622.542.622a1.958,1.958,0,0,0,1.308-.845l-.33.744h1.074l.861-1.956c.489-1.1.978-1.77,1.43-1.77a.149.149,0,0,1,.149.133v.026a5.68,5.68,0,0,1-.505,1.2c-.239.51-.393.819-.505,1.1a2.089,2.089,0,0,0-.186.739.55.55,0,0,0,.606.6,2.371,2.371,0,0,0,1.59-1.058,2.211,2.211,0,0,0-.122.675.843.843,0,0,0,.9.936,1.665,1.665,0,0,0,.968-.319,4.433,4.433,0,0,0,1.015-1.1l-.186-.175a3.967,3.967,0,0,1-.835.925.9.9,0,0,1-.553.213c-.223,0-.367-.117-.367-.4a3.656,3.656,0,0,1,.34-1.18c.011-.011.3-.664.579-1.3.229-.532.463-1.047.505-1.154h.7l.143-.319h-.691Zm-30.3,5.125c-.149,0-.255-.053-.255-.25a4.9,4.9,0,0,1,.989-2.2,1.9,1.9,0,0,1,1.414-.9l-.675,1.51c-.505,1.138-1.058,1.839-1.467,1.839m6.646,0a.231.231,0,0,1-.266-.25,4.9,4.9,0,0,1,.989-2.2,1.9,1.9,0,0,1,1.414-.9l-.686,1.51c-.516,1.164-1.037,1.839-1.457,1.839m11.8-2.94a7.042,7.042,0,0,1-1.127,2.807c-.239.335-.447.436-.622.436s-.319-.2-.282-.505a6.81,6.81,0,0,1,1.1-2.594c.276-.383.463-.542.675-.542s.276.175.266.4" transform="translate(-171.372 -400.606)" fill="#fff"/>
            <path id="Trazado_25777" data-name="Trazado 25777" d="M792.63,411.06l.978-2.26h-1.159l-.978,2.26h-2.462l-.409.946h2.462l-.978,2.259h1.159l.978-2.259h2.461l.409-.946Z" transform="translate(-746.674 -387.066)" fill="#fff"/>
          </g>
        </g>
      </g>
      <ellipse id="Elipse_430" data-name="Elipse 430" cx="3.122" cy="3.122" rx="3.122" ry="3.122" transform="translate(172.036 20.502)" fill="#fff"/>
      <ellipse id="Elipse_431" data-name="Elipse 431" cx="3.122" cy="3.122" rx="3.122" ry="3.122" transform="translate(263.848 20.502)" fill="#fff"/>
    </g>
    <g id="Grupo_35092" data-name="Grupo 35092" transform="translate(8889.052 5968.748)">
      <g id="Grupo_34964" data-name="Grupo 34964" transform="translate(93.595)">
        <rect id="Rectángulo_18532-4" data-name="Rectángulo 18532" width="78.888" height="47.616" rx="5" fill="none"/>
        <g id="Grupo_34951" data-name="Grupo 34951" transform="translate(23.029 6.397)">
          <g id="Grupo_34950" data-name="Grupo 34950" clip-path="url(#clip-path-2)">
            <path id="Trazado_88249" data-name="Trazado 88249" d="M42.658,0l.034.116h-.242s1.511,5.367,1.6,5.628.278.313.695.434a5.981,5.981,0,0,1,3.74,5.656c0,4.053-3.219,5.4-6.6,5.489a.159.159,0,0,0-.112.148h-.1s-.13.016,0,.294,2.779,4.36,3.178,4.916c0,0,7.342.156,12.205-5.587S58.325.046,42.658,0" transform="translate(-31.189)" fill="#fff"/>
            <path id="Trazado_88250" data-name="Trazado 88250" d="M33.555,39A3.958,3.958,0,1,0,29.6,35.044,3.958,3.958,0,0,0,33.555,39" transform="translate(-22.184 -23.3)" fill="#fff"/>
            <path id="Trazado_88251" data-name="Trazado 88251" d="M3.761,101.549H2.53l-1.448,2.056v-2.056H0v4.735H1.082v-2.192L2.6,106.284H3.828l-1.664-2.428Z" transform="translate(0 -76.116)" fill="#fff"/>
            <path id="Trazado_88252" data-name="Trazado 88252" d="M22.812,101.549h-1.38l-1.61,4.735h1.184l.237-.744H23l.237.744h1.184Zm-1.245,2.976.555-1.738.555,1.738Z" transform="translate(-14.858 -76.116)" fill="#fff"/>
            <path id="Trazado_88253" data-name="Trazado 88253" d="M47.523,101.549H46.44v2.57l-1.827-2.57H43.8v4.735h1.082v-2.57l1.826,2.57h.812Z" transform="translate(-32.832 -76.116)" fill="#fff"/>
            <path id="Trazado_88254" data-name="Trazado 88254" d="M67.263,101.549h-1.38l-1.61,4.735h1.184l.237-.744h1.759l.237.744h1.184Zm-1.244,2.976.555-1.738.554,1.738Z" transform="translate(-48.176 -76.116)" fill="#fff"/>
            <path id="Trazado_88255" data-name="Trazado 88255" d="M89.336,101.549H88.254v4.735h2.773v-1.042H89.336Z" transform="translate(-66.151 -76.116)" fill="#fff"/>
            <path id="Trazado_88256" data-name="Trazado 88256" d="M117.856,101.548h-1.894v4.735h1.894a2.369,2.369,0,0,0,0-4.735m0,3.693h-.812V102.59h.812a1.328,1.328,0,0,1,0,2.652" transform="translate(-86.919 -76.115)" fill="#fff"/>
            <path id="Trazado_88257" data-name="Trazado 88257" d="M22.629,129.873H21.557v2.681h1.072a1.341,1.341,0,0,0,0-2.681m0,2.091h-.46v-1.5h.46a.752.752,0,0,1,0,1.5" transform="translate(-16.158 -97.346)" fill="#fff"/>
            <path id="Trazado_88258" data-name="Trazado 88258" d="M43.577,130.793a.917.917,0,0,0-.919-.919H41.586v2.681H42.2v-.881h.291l.506.881h.659l-.571-.984a.883.883,0,0,0,.494-.777m-.919.345H42.2v-.689h.46a.347.347,0,0,1,0,.689" transform="translate(-31.171 -97.347)" fill="#fff"/>
            <path id="Trazado_88259" data-name="Trazado 88259" d="M60.936,129.873h-.781l-.912,2.681h.67l.134-.422h1l.134.422h.67Zm-.7,1.685.314-.984.314.984Z" transform="translate(-44.405 -97.346)" fill="#fff"/>
            <path id="Trazado_88260" data-name="Trazado 88260" d="M81.071,131.065l-.728-1.191h-.613v2.681h.613V131l.693,1.137h.069L81.8,131v1.559h.613v-2.681H81.8Z" transform="translate(-59.762 -97.347)" fill="#fff"/>
            <path id="Trazado_88261" data-name="Trazado 88261" d="M101.435,129.873l-.912,2.681h.67l.134-.422h1l.134.422h.67l-.912-2.681Zm.076,1.685.314-.984.314.984Z" transform="translate(-75.347 -97.346)" fill="#fff"/>
          </g>
        </g>
      </g>
      <g id="Grupo_32704" data-name="Grupo 32704" transform="translate(0)">
        <rect id="Rectángulo_18532-5" data-name="Rectángulo 18532" width="79.633" height="48.067" rx="5" transform="translate(0 0)" fill="none"/>
        <g id="Grupo_22160" data-name="Grupo 22160" transform="translate(9.673 16.638)">
          <path id="Trazado_42620" data-name="Trazado 42620" d="M0,11.522a5.291,5.291,0,0,1,5.434-5.39,4.991,4.991,0,0,1,5.079,3.48l-2.4.592A2.708,2.708,0,0,0,5.449,8.442a2.9,2.9,0,0,0-2.932,3.065A2.947,2.947,0,0,0,5.449,14.6a2.669,2.669,0,0,0,2.665-1.733l2.4.607a4.942,4.942,0,0,1-5.035,3.435A5.3,5.3,0,0,1,0,11.522" transform="translate(0 -5.381)" fill="#fff"/>
          <rect id="Rectángulo_18371" data-name="Rectángulo 18371" width="2.369" height="7.552" transform="translate(14.023 3.771)" fill="#fff"/>
          <path id="Trazado_42621" data-name="Trazado 42621" d="M175.814,7.827V18.192h-2l-4.664-5.938v5.938h-2.458V7.827h2l4.664,5.938V7.827Z" transform="translate(-146.288 -6.869)" fill="#fff"/>
          <path id="Trazado_42622" data-name="Trazado 42622" d="M283.554,13.01c0,3.006-1.94,5.182-4.9,5.182H273.87V7.827h4.783c2.917,0,4.9,2.1,4.9,5.183m-2.487-.045c0-1.821-1.081-2.932-2.473-2.932H276.3v5.953h2.295c1.392,0,2.473-1.2,2.473-3.021" transform="translate(-240.345 -6.869)" fill="#fff"/>
          <path id="Trazado_42623" data-name="Trazado 42623" d="M433.152,10.048v1.807H437.8V14h-4.649v1.969h5.39v2.221h-7.789V7.827h7.8v2.221Z" transform="translate(-378.024 -6.869)" fill="#fff"/>
          <path id="Trazado_42624" data-name="Trazado 42624" d="M114.061,1.584A1.584,1.584,0,1,1,112.476,0a1.584,1.584,0,0,1,1.584,1.584" transform="translate(-97.317 0)" fill="#fff"/>
          <rect id="Rectángulo_18372" data-name="Rectángulo 18372" width="2.369" height="7.552" transform="translate(46.703 0.685)" fill="#fff"/>
          <path id="Trazado_42625" data-name="Trazado 42625" d="M379.607,72.1a1.584,1.584,0,1,0,1.584,1.584,1.584,1.584,0,0,0-1.584-1.584" transform="translate(-331.748 -63.27)" fill="#fff"/>
          <path id="Trazado_42626" data-name="Trazado 42626" d="M9.4,115.588v1.379h-.36v-.175a.538.538,0,0,1-.442.213c-.363,0-.545-.243-.545-.613v-.8h.36v.736c0,.21.1.346.294.346s.333-.158.333-.4v-.679Z" transform="translate(-7.071 -101.438)" fill="#fff"/>
          <path id="Trazado_42627" data-name="Trazado 42627" d="M23.3,115.887v.807h-.36v-.739c0-.21-.1-.343-.294-.343s-.333.158-.333.4v.682h-.36v-1.38h.36v.175a.548.548,0,0,1,.444-.213c.36,0,.543.243.543.611" transform="translate(-19.266 -101.165)" fill="#fff"/>
          <path id="Trazado_42628" data-name="Trazado 42628" d="M43.412,115.873v.821h-.36v-.744c0-.207-.076-.338-.264-.338s-.292.144-.292.379v.7h-.363v-.744c0-.2-.074-.338-.259-.338s-.3.147-.3.39v.692h-.36v-1.379h.36v.164a.5.5,0,0,1,.409-.2.461.461,0,0,1,.414.207.574.574,0,0,1,.466-.207.527.527,0,0,1,.545.6" transform="translate(-36.172 -101.165)" fill="#fff"/>
          <path id="Trazado_42629" data-name="Trazado 42629" d="M63.054,115.588v1.379h-.36v-.175a.538.538,0,0,1-.442.213c-.363,0-.545-.243-.545-.613v-.8h.36v.736c0,.21.1.346.294.346s.333-.158.333-.4v-.679Z" transform="translate(-54.153 -101.438)" fill="#fff"/>
          <path id="Trazado_42630" data-name="Trazado 42630" d="M76.951,115.887v.807h-.36v-.739c0-.21-.1-.343-.294-.343s-.333.158-.333.4v.682H75.6v-1.38h.36v.175a.548.548,0,0,1,.444-.213c.36,0,.543.243.543.611" transform="translate(-66.349 -101.165)" fill="#fff"/>
          <path id="Trazado_42631" data-name="Trazado 42631" d="M90.187,110.6v1.99h-.363v-.169a.548.548,0,0,1-.444.207.729.729,0,0,1,0-1.456.546.546,0,0,1,.444.2V110.6Zm-.352,1.3a.388.388,0,0,0-.393-.4.407.407,0,0,0,0,.812.391.391,0,0,0,.393-.409" transform="translate(-77.84 -97.06)" fill="#fff"/>
          <path id="Trazado_42632" data-name="Trazado 42632" d="M103.063,116a.737.737,0,1,1,.739.728.715.715,0,0,1-.739-.728m1.126,0a.387.387,0,1,0-.387.4.38.38,0,0,0,.387-.4" transform="translate(-90.447 -101.165)" fill="#fff"/>
          <path id="Trazado_42633" data-name="Trazado 42633" d="M123.615,110.6v1.99h-.363v-.169a.548.548,0,0,1-.444.207.729.729,0,0,1,0-1.456.546.546,0,0,1,.444.2V110.6Zm-.352,1.3a.388.388,0,0,0-.393-.4.407.407,0,0,0,0,.812.391.391,0,0,0,.393-.409" transform="translate(-107.176 -97.06)" fill="#fff"/>
          <path id="Trazado_42634" data-name="Trazado 42634" d="M136.491,116a.7.7,0,0,1,.722-.728.727.727,0,0,1,.7.837h-1.071a.359.359,0,0,0,.4.313.352.352,0,0,0,.335-.183l.324.1a.754.754,0,0,1-1.415-.335m1.082-.117a.338.338,0,0,0-.363-.305.355.355,0,0,0-.365.305Z" transform="translate(-119.783 -101.165)" fill="#fff"/>
          <path id="Trazado_42635" data-name="Trazado 42635" d="M155.22,116a.7.7,0,0,1,.722-.728.726.726,0,0,1,.7.837h-1.071a.359.359,0,0,0,.4.313.352.352,0,0,0,.335-.183l.324.1A.754.754,0,0,1,155.22,116m1.082-.117a.338.338,0,0,0-.363-.305.354.354,0,0,0-.365.305Z" transform="translate(-136.219 -101.165)" fill="#fff"/>
          <path id="Trazado_42636" data-name="Trazado 42636" d="M170.508,115.887v.807h-.36v-.739c0-.21-.1-.343-.294-.343s-.333.158-.333.4v.682h-.36v-1.38h.36v.175a.548.548,0,0,1,.444-.213c.36,0,.543.243.543.611" transform="translate(-148.454 -101.165)" fill="#fff"/>
          <path id="Trazado_42637" data-name="Trazado 42637" d="M182.824,113.718a.828.828,0,0,1-.322.065.431.431,0,0,1-.461-.493V112.7h-.232v-.316h.232v-.447h.363v.447h.4v.316h-.4v.592a.153.153,0,0,0,.169.174.336.336,0,0,0,.164-.038Z" transform="translate(-159.554 -98.233)" fill="#fff"/>
          <path id="Trazado_42638" data-name="Trazado 42638" d="M192.936,115.392v.338c-.294-.046-.455.09-.455.461v.6h-.36v-1.38h.36v.2a.415.415,0,0,1,.455-.224" transform="translate(-168.603 -101.261)" fill="#fff"/>
          <path id="Trazado_42639" data-name="Trazado 42639" d="M199.382,116a.7.7,0,0,1,.722-.728.727.727,0,0,1,.7.837h-1.071a.359.359,0,0,0,.4.313.352.352,0,0,0,.335-.183l.324.1a.754.754,0,0,1-1.415-.335m1.082-.117a.338.338,0,0,0-.363-.305.355.355,0,0,0-.365.305Z" transform="translate(-174.975 -101.165)" fill="#fff"/>
          <path id="Trazado_42640" data-name="Trazado 42640" d="M212.868,113.718a.828.828,0,0,1-.322.065.431.431,0,0,1-.461-.493V112.7h-.232v-.316h.232v-.447h.363v.447h.4v.316h-.4v.592a.153.153,0,0,0,.169.174.335.335,0,0,0,.164-.038Z" transform="translate(-185.92 -98.233)" fill="#fff"/>
          <path id="Trazado_42641" data-name="Trazado 42641" d="M220.94,116a.7.7,0,0,1,.722-.728.727.727,0,0,1,.7.837h-1.071a.359.359,0,0,0,.4.313.352.352,0,0,0,.335-.183l.324.1A.754.754,0,0,1,220.94,116m1.082-.117a.338.338,0,0,0-.363-.305.354.354,0,0,0-.365.305Z" transform="translate(-193.894 -101.165)" fill="#fff"/>
          <path id="Trazado_42642" data-name="Trazado 42642" d="M236.228,115.887v.807h-.36v-.739c0-.21-.1-.343-.294-.343s-.333.158-.333.4v.682h-.36v-1.38h.36v.175a.548.548,0,0,1,.444-.213c.36,0,.543.243.543.611" transform="translate(-206.129 -101.165)" fill="#fff"/>
          <path id="Trazado_42643" data-name="Trazado 42643" d="M248.4,110.784a.215.215,0,1,1,.215.213.211.211,0,0,1-.215-.213m.03.406h.363v1.379h-.363Z" transform="translate(-217.992 -97.041)" fill="#fff"/>
          <path id="Trazado_42644" data-name="Trazado 42644" d="M256.741,115.873v.821h-.36v-.744c0-.207-.076-.338-.264-.338s-.292.144-.292.379v.7h-.363v-.744c0-.2-.074-.338-.259-.338s-.3.147-.3.39v.692h-.36v-1.379h.36v.164a.5.5,0,0,1,.409-.2.461.461,0,0,1,.414.207.573.573,0,0,1,.466-.207.527.527,0,0,1,.545.6" transform="translate(-223.386 -101.165)" fill="#fff"/>
          <path id="Trazado_42645" data-name="Trazado 42645" d="M274.99,110.784a.215.215,0,1,1,.215.213.211.211,0,0,1-.215-.213m.03.406h.363v1.379h-.363Z" transform="translate(-241.328 -97.041)" fill="#fff"/>
          <path id="Trazado_42646" data-name="Trazado 42646" d="M280.446,116a.7.7,0,0,1,.722-.728.673.673,0,0,1,.712.709.662.662,0,0,1-.008.128H280.8a.359.359,0,0,0,.4.313.352.352,0,0,0,.335-.183l.324.1a.754.754,0,0,1-1.415-.335m1.082-.117a.338.338,0,0,0-.362-.305.355.355,0,0,0-.365.305Z" transform="translate(-246.116 -101.165)" fill="#fff"/>
          <path id="Trazado_42647" data-name="Trazado 42647" d="M295.735,115.887v.807h-.36v-.739c0-.21-.1-.343-.294-.343s-.333.158-.333.4v.682h-.36v-1.38h.36v.175a.548.548,0,0,1,.444-.213c.36,0,.543.243.543.611" transform="translate(-258.351 -101.165)" fill="#fff"/>
          <path id="Trazado_42648" data-name="Trazado 42648" d="M308.052,113.718a.828.828,0,0,1-.322.065.431.431,0,0,1-.461-.493V112.7h-.232v-.316h.232v-.447h.363v.447h.4v.316h-.4v.592a.153.153,0,0,0,.169.174.335.335,0,0,0,.164-.038Z" transform="translate(-269.453 -98.233)" fill="#fff"/>
          <path id="Trazado_42649" data-name="Trazado 42649" d="M316.123,116a.738.738,0,1,1,.739.728.715.715,0,0,1-.739-.728m1.126,0a.387.387,0,1,0-.387.4.38.38,0,0,0,.387-.4" transform="translate(-277.426 -101.165)" fill="#fff"/>
          <path id="Trazado_42650" data-name="Trazado 42650" d="M335.61,110.784a.215.215,0,1,1,.215.213.211.211,0,0,1-.215-.213m.03.406H336v1.379h-.363Z" transform="translate(-294.527 -97.041)" fill="#fff"/>
          <path id="Trazado_42651" data-name="Trazado 42651" d="M343.1,115.887v.807h-.36v-.739c0-.21-.1-.343-.294-.343s-.333.158-.333.4v.682h-.36v-1.38h.36v.175a.548.548,0,0,1,.444-.213c.36,0,.542.243.542.611" transform="translate(-299.922 -101.165)" fill="#fff"/>
          <path id="Trazado_42652" data-name="Trazado 42652" d="M356.34,110.6v1.99h-.363v-.169a.548.548,0,0,1-.444.207.729.729,0,0,1,0-1.456.546.546,0,0,1,.444.2V110.6Zm-.352,1.3a.388.388,0,0,0-.393-.4.407.407,0,0,0,0,.812.391.391,0,0,0,.393-.409" transform="translate(-311.414 -97.06)" fill="#fff"/>
          <path id="Trazado_42653" data-name="Trazado 42653" d="M369.216,116a.7.7,0,0,1,.722-.728.726.726,0,0,1,.7.837H369.57a.359.359,0,0,0,.4.313.352.352,0,0,0,.335-.183l.324.1a.754.754,0,0,1-1.415-.335m1.082-.117a.338.338,0,0,0-.363-.305.355.355,0,0,0-.365.305Z" transform="translate(-324.019 -101.165)" fill="#fff"/>
          <path id="Trazado_42654" data-name="Trazado 42654" d="M384.643,116a.691.691,0,0,1-.679.728.554.554,0,0,1-.447-.207v.741h-.36v-1.952h.36v.166a.552.552,0,0,1,.447-.2.689.689,0,0,1,.679.728m-.354,0a.38.38,0,0,0-.387-.4.406.406,0,0,0,0,.812.383.383,0,0,0,.387-.409" transform="translate(-336.254 -101.165)" fill="#fff"/>
          <path id="Trazado_42655" data-name="Trazado 42655" d="M396.831,116a.7.7,0,0,1,.722-.728.727.727,0,0,1,.7.837h-1.071a.359.359,0,0,0,.4.313.352.352,0,0,0,.335-.183l.324.1a.754.754,0,0,1-1.415-.335m1.082-.117a.338.338,0,0,0-.362-.305.355.355,0,0,0-.365.305Z" transform="translate(-348.254 -101.165)" fill="#fff"/>
          <path id="Trazado_42656" data-name="Trazado 42656" d="M412.12,115.887v.807h-.36v-.739c0-.21-.1-.343-.294-.343s-.333.158-.333.4v.682h-.36v-1.38h.36v.175a.548.548,0,0,1,.444-.213c.36,0,.543.243.543.611" transform="translate(-360.489 -101.165)" fill="#fff"/>
          <path id="Trazado_42657" data-name="Trazado 42657" d="M425.355,110.6v1.99h-.363v-.169a.548.548,0,0,1-.444.207.729.729,0,0,1,0-1.456.546.546,0,0,1,.444.2V110.6ZM425,111.9a.389.389,0,0,0-.393-.4.407.407,0,0,0,0,.812A.392.392,0,0,0,425,111.9" transform="translate(-371.981 -97.06)" fill="#fff"/>
          <path id="Trazado_42658" data-name="Trazado 42658" d="M438.655,110.784a.215.215,0,1,1,.215.213.211.211,0,0,1-.215-.213m.03.406h.363v1.379h-.363Z" transform="translate(-384.958 -97.041)" fill="#fff"/>
          <path id="Trazado_42659" data-name="Trazado 42659" d="M444.112,116a.7.7,0,0,1,.722-.728.727.727,0,0,1,.7.837h-1.071a.359.359,0,0,0,.4.313.352.352,0,0,0,.335-.183l.324.1a.754.754,0,0,1-1.415-.335m1.082-.117a.338.338,0,0,0-.363-.305.354.354,0,0,0-.365.305Z" transform="translate(-389.747 -101.165)" fill="#fff"/>
          <path id="Trazado_42660" data-name="Trazado 42660" d="M459.4,115.887v.807h-.36v-.739c0-.21-.1-.343-.294-.343s-.333.158-.333.4v.682h-.36v-1.38h.36v.175a.548.548,0,0,1,.444-.213c.36,0,.543.243.543.611" transform="translate(-401.982 -101.165)" fill="#fff"/>
          <path id="Trazado_42661" data-name="Trazado 42661" d="M471.717,113.718a.828.828,0,0,1-.322.065.431.431,0,0,1-.461-.493V112.7H470.7v-.316h.232v-.447h.363v.447h.4v.316h-.4v.592a.153.153,0,0,0,.169.174.337.337,0,0,0,.164-.038Z" transform="translate(-413.083 -98.233)" fill="#fff"/>
          <path id="Trazado_42662" data-name="Trazado 42662" d="M479.789,116a.7.7,0,0,1,.722-.728.726.726,0,0,1,.7.837h-1.071a.359.359,0,0,0,.4.313.352.352,0,0,0,.335-.183l.324.1a.754.754,0,0,1-1.415-.335m1.082-.117a.338.338,0,0,0-.363-.305.354.354,0,0,0-.365.305Z" transform="translate(-421.057 -101.165)" fill="#fff"/>
        </g>
      </g>
      <ellipse id="Elipse_432" data-name="Elipse 432" cx="3.122" cy="3.122" rx="3.122" ry="3.122" transform="translate(83.789 20.502)" fill="#fff"/>
    </g>
  </g>
</svg>
