<svg id="Grupo_32670" data-name="Grupo 32670" xmlns="http://www.w3.org/2000/svg" xmlns:xlink="http://www.w3.org/1999/xlink" width="121.115" height="73.105" viewBox="0 0 121.115 73.105">
  <defs>
    <clipPath id="clip-path">
      <rect id="Rect치ngulo_18610" data-name="Rect치ngulo 18610" width="63.006" height="39.432" fill="#fff"/>
    </clipPath>
  </defs>
  <rect id="Rect치ngulo_18532" data-name="Rect치ngulo 18532" width="121.115" height="73.106" rx="5" transform="translate(0)" fill="none"/>
  <g id="Grupo_20453" data-name="Grupo 20453" transform="translate(29.46 16.367)" clip-path="url(#clip-path)">
    <path id="Trazado_43170" data-name="Trazado 43170" d="M1.307,30.214a.667.667,0,0,1-.46-.134A.623.623,0,0,1,.7,29.609V13.475A.623.623,0,0,1,.847,13a.667.667,0,0,1,.46-.133H3.049a.625.625,0,0,1,.677.532l.17.629a5.35,5.35,0,0,1,1.753-1.113,5.6,5.6,0,0,1,2.093-.411,4.491,4.491,0,0,1,3.713,1.718,7.254,7.254,0,0,1,1.367,4.644,8.463,8.463,0,0,1-.677,3.508,5.483,5.483,0,0,1-1.839,2.31,4.534,4.534,0,0,1-2.661.811,5.656,5.656,0,0,1-1.887-.314,4.536,4.536,0,0,1-1.524-.871v5.3a.662.662,0,0,1-.133.471.662.662,0,0,1-.472.134Zm5.3-7.378a2.265,2.265,0,0,0,2-.919,5.161,5.161,0,0,0,.641-2.9,5.3,5.3,0,0,0-.629-2.927A2.26,2.26,0,0,0,6.6,15.168a4.6,4.6,0,0,0-2.37.653v6.362a4.442,4.442,0,0,0,2.37.653" transform="translate(-0.403 -7.185)" fill="#fff"/>
    <path id="Trazado_43171" data-name="Trazado 43171" d="M35.355,25.558a.522.522,0,0,1-.605-.6V13.8a.623.623,0,0,1,.145-.471.667.667,0,0,1,.46-.133H37.1a.626.626,0,0,1,.677.532l.314,1.307a6.9,6.9,0,0,1,1.826-1.512,3.9,3.9,0,0,1,1.827-.448h.339a.708.708,0,0,1,.483.133.621.621,0,0,1,.145.471v2.032a.665.665,0,0,1-.133.46.622.622,0,0,1-.472.146q-.169,0-.435-.024c-.177-.016-.4-.024-.677-.024a7.215,7.215,0,0,0-1.355.157,6.656,6.656,0,0,0-1.354.4v8.128a.668.668,0,0,1-.133.46.623.623,0,0,1-.472.145Z" transform="translate(-19.964 -7.512)" fill="#fff"/>
    <path id="Trazado_43172" data-name="Trazado 43172" d="M58.875,3.774A2.1,2.1,0,0,1,57.4,3.266a1.773,1.773,0,0,1-.557-1.379A1.773,1.773,0,0,1,57.4.508a2.4,2.4,0,0,1,2.951,0,1.776,1.776,0,0,1,.557,1.379,1.776,1.776,0,0,1-.557,1.379,2.1,2.1,0,0,1-1.475.508M57.714,18.045a.522.522,0,0,1-.6-.6V6.289a.622.622,0,0,1,.145-.471.668.668,0,0,1,.46-.133h2.322a.66.66,0,0,1,.471.133.661.661,0,0,1,.134.471V17.441a.666.666,0,0,1-.134.46.621.621,0,0,1-.471.145Z" transform="translate(-32.657 0)" fill="#fff"/>
    <path id="Trazado_43173" data-name="Trazado 43173" d="M73.412,25.231a.522.522,0,0,1-.605-.6V13.475A.623.623,0,0,1,72.952,13a.667.667,0,0,1,.46-.133h1.742a.625.625,0,0,1,.677.532l.194.653a10.432,10.432,0,0,1,2.31-1.2,6.508,6.508,0,0,1,2.117-.351,3.255,3.255,0,0,1,3.072,1.548,9.9,9.9,0,0,1,2.322-1.185,7.059,7.059,0,0,1,2.25-.363,3.521,3.521,0,0,1,2.624.944,3.59,3.59,0,0,1,.931,2.636v8.539a.668.668,0,0,1-.133.46.623.623,0,0,1-.472.145H88.724a.523.523,0,0,1-.6-.6V16.861q0-1.645-1.475-1.645a6.133,6.133,0,0,0-2.637.628v8.781a.666.666,0,0,1-.133.46.622.622,0,0,1-.472.145H81.08a.522.522,0,0,1-.6-.6V16.861q0-1.645-1.475-1.645a5.9,5.9,0,0,0-2.661.653v8.757a.668.668,0,0,1-.133.46.623.623,0,0,1-.472.145Z" transform="translate(-41.828 -7.185)" fill="#fff"/>
    <path id="Trazado_43174" data-name="Trazado 43174" d="M128.428,25.594a6.153,6.153,0,0,1-4.608-1.645,6.466,6.466,0,0,1-1.608-4.717,7.016,7.016,0,0,1,1.645-4.935,5.9,5.9,0,0,1,4.572-1.79,5.239,5.239,0,0,1,3.52,1.088,3.632,3.632,0,0,1,1.27,2.9,3.109,3.109,0,0,1-1.367,2.746,7.168,7.168,0,0,1-4.028.931,9.528,9.528,0,0,1-2.4-.266,3.284,3.284,0,0,0,.98,2.322,3.856,3.856,0,0,0,2.528.7,10.044,10.044,0,0,0,1.319-.085,16.39,16.39,0,0,0,1.778-.374.908.908,0,0,1,.145-.037.761.761,0,0,1,.121-.012q.41,0,.411.557v1.113a1,1,0,0,1-.108.544.889.889,0,0,1-.424.278,10.383,10.383,0,0,1-3.749.677m-.8-7.6a3.286,3.286,0,0,0,1.79-.375,1.29,1.29,0,0,0,.557-1.149q0-1.524-1.814-1.524-2.323,0-2.685,2.855A10.985,10.985,0,0,0,127.63,18" transform="translate(-70.212 -7.185)" fill="#fff"/>
    <path id="Trazado_43175" data-name="Trazado 43175" d="M56.951,67.393c-6.9,5.091-16.9,7.8-25.51,7.8A46.165,46.165,0,0,1,.279,63.3c-.646-.583-.07-1.379.706-.928a62.724,62.724,0,0,0,31.18,8.273,62.033,62.033,0,0,0,23.783-4.867c1.166-.494,2.144.768,1,1.612" transform="translate(0 -35.759)" fill="#fff" fill-rule="evenodd"/>
    <path id="Trazado_43176" data-name="Trazado 43176" d="M128.945,62.441c-.882-1.129-5.832-.535-8.056-.269-.674.081-.778-.508-.171-.934,3.949-2.773,10.419-1.973,11.171-1.044s-.2,7.423-3.9,10.519c-.569.476-1.111.222-.859-.407.833-2.079,2.7-6.735,1.814-7.865" transform="translate(-69.124 -34.083)" fill="#fff" fill-rule="evenodd"/>
  </g>
</svg>
