<svg id="Grupo_32675" data-name="Grupo 32675" xmlns="http://www.w3.org/2000/svg" width="122.262" height="73.798" viewBox="0 0 122.262 73.798">
  <rect id="Rectángulo_18532" data-name="Rectángulo 18532" width="122.262" height="73.798" rx="5" transform="translate(0)" fill="none"/>
  <g id="Grupo_22158" data-name="Grupo 22158" transform="translate(19.827 14.319)">
    <path id="Trazado_42240" data-name="Trazado 42240" d="M47.384-378.069c-.749.035-1.5.065-2.248.083-.149,0-.185.038-.184.186.006,1.509,0,3.019,0,4.529,0,.34.011.681-.009,1.02a1.66,1.66,0,0,1-1.886,1.756A1.5,1.5,0,0,1,41.6-371.6a2.782,2.782,0,0,1-.122-.837c0-1.723,0-3.444.005-5.167,0-.193-.049-.223-.232-.215-.82.039-1.639.109-2.461.1v6.082a1.993,1.993,0,0,1,.125.563,3.452,3.452,0,0,0,2.453,2.753,6.051,6.051,0,0,0,3.577.015,3.462,3.462,0,0,0,2.4-2.351,6.317,6.317,0,0,0,.287-2.008c.006-1.722,0-3.445.008-5.167C47.636-378.049,47.562-378.077,47.384-378.069Z" transform="translate(-38.788 395.846)" fill="#fff"/>
    <path id="Trazado_42241" data-name="Trazado 42241" d="M233.415-370.5c-.173,0-.205-.059-.205-.219,0-2.3,0-4.593.009-6.89,0-.18-.052-.224-.216-.231-.742-.028-1.485-.059-2.227-.105-.178-.011-.2.045-.2.2q.006,4.689,0,9.378c0,.159.03.212.2.211,1.354-.008,2.707,0,4.061,0l2.849-.007v-2.3C236.263-370.48,234.839-370.5,233.415-370.5Z" transform="translate(-154.913 395.775)" fill="#fff"/>
    <path id="Trazado_42242" data-name="Trazado 42242" d="M141.25-423.095c0-.012.017-.02.011-.036h-1.233c-.007.016.006.025.011.038Z" transform="translate(-100.087 423.13)" fill="#fff"/>
    <path id="Trazado_42243" data-name="Trazado 42243" d="M143.448-423.1c0-.011.015-.02.008-.034h-.3c0,.012,0,.024.005.036Z" transform="translate(-101.983 423.13)" fill="#fff"/>
    <path id="Trazado_42244" data-name="Trazado 42244" d="M139.566-423.092a.235.235,0,0,0,0-.038h-.3c-.007.014,0,.023.008.035Z" transform="translate(-99.629 423.13)" fill="#fff"/>
    <path id="Trazado_42245" data-name="Trazado 42245" d="M91.361-408.428a20.259,20.259,0,0,1,.994-2.153,20.007,20.007,0,0,1,6.873-7.575,19.338,19.338,0,0,1,11.495-3.068,19.753,19.753,0,0,1,5.514,1.007,21.1,21.1,0,0,1,9.189,6.073,20.836,20.836,0,0,1,3.921,6.406c.057.147.12.214.285.2.212-.016.425,0,.638,0,.247,0,.248,0,.171-.229A22.184,22.184,0,0,0,124.526-417a22.15,22.15,0,0,0-14.228-6.093.183.183,0,0,1,0-.036h-.255a.081.081,0,0,1,0,.034h-.011c0,.01,0,.023-.007.03a.227.227,0,0,1-.277-.029h-.016c0,.011,0,.024-.01.033a3.735,3.735,0,0,1-1.192,0c-.012-.007-.005-.02-.009-.031H108.5a.232.232,0,0,1-.279.027c-.01-.008,0-.02-.007-.03h-.011a.171.171,0,0,1,0-.035h-.255a.093.093,0,0,1,0,.037,22.474,22.474,0,0,0-19.983,14.9c1.075-.024,2.142-.051,3.21-.069C91.309-408.261,91.329-408.344,91.361-408.428Z" transform="translate(-68.568 423.13)" fill="#fff"/>
    <path id="Trazado_42246" data-name="Trazado 42246" d="M74.64-378.747c0-.148-.032-.188-.186-.182-.743.03-1.486.047-2.229.064-.154,0-.21.049-.209.219.008,1.6,0,3.2,0,4.806a.448.448,0,0,1-.033.253c-.091-.121-.168-.222-.243-.323l-3.5-4.678c-.06-.079-.107-.154-.232-.15-.714.027-1.429.049-2.143.063-.147,0-.19.045-.19.193q.006,4.774,0,9.548c0,.155.049.185.192.183.73-.007,1.46-.009,2.19,0,.176,0,.222-.043.221-.221-.008-1.658,0-3.317,0-4.975,0-.069-.026-.148.037-.217q1.948,2.639,3.877,5.258a.318.318,0,0,0,.293.155q.978-.014,1.956,0c.156,0,.2-.032.2-.194-.007-1.6,0-3.2,0-4.806C74.637-375.416,74.635-377.082,74.64-378.747Z" transform="translate(-55.07 396.367)" fill="#fff"/>
    <path id="Trazado_42247" data-name="Trazado 42247" d="M162.049-372.593c-.077-.124-.073-.169.067-.241a3.114,3.114,0,0,0,1.617-1.928,4.094,4.094,0,0,0,.139-1.557,3.185,3.185,0,0,0-1.8-2.738,4.45,4.45,0,0,0-2.009-.462c-1.467-.009-2.935,0-4.4-.006-.152,0-.2.028-.2.2q.008,5.008,0,10.016c0,.152.027.205.194.2q1.138-.015,2.276,0c.178,0,.2-.059.2-.216-.007-.922,0-1.843-.007-2.765,0-.174.052-.211.213-.2a7.972,7.972,0,0,0,.871,0,.341.341,0,0,1,.373.224c.485.942.983,1.878,1.476,2.816.04.075.062.145.177.144.977-.005,1.954,0,2.971,0l-.141-.234Q163.056-370.972,162.049-372.593Zm-.856-2.846a1.125,1.125,0,0,1-.963.817,14.687,14.687,0,0,1-2.013.049c-.119,0-.089-.085-.089-.149,0-.375,0-.75,0-1.125s0-.736,0-1.1c0-.083-.006-.15.116-.147.615.015,1.232-.032,1.846.023A1.222,1.222,0,0,1,161.193-375.439Z" transform="translate(-109.43 396.728)" fill="#fff"/>
    <path id="Trazado_42248" data-name="Trazado 42248" d="M131.882-369.112q3.658-.008,7.315,0c.138,0,.176-.034.174-.173-.008-.673-.012-1.347,0-2.02,0-.2-.032-.271-.258-.269-1.5.012-2.991,0-4.487.009-.152,0-.227-.018-.22-.2.015-.41.016-.822,0-1.233-.008-.192.051-.232.235-.231,1.332.009,2.665,0,4,.008.16,0,.2-.041.2-.2-.01-.623-.011-1.247,0-1.871,0-.179-.047-.22-.222-.219-1.339.008-2.679,0-4.019.008-.146,0-.195-.036-.191-.187.01-.39.014-.78,0-1.169-.007-.178.042-.219.219-.218,1.5.008,2.991,0,4.487.007.128,0,.183-.017.181-.168q-.014-1.052,0-2.1c0-.162-.06-.179-.2-.179q-3.594.005-7.187,0c-.166,0-.21.042-.209.209.006,1.666,0,3.331,0,5s0,3.345,0,5.018C131.7-369.16,131.727-369.112,131.882-369.112Z" transform="translate(-95.046 396.729)" fill="#fff"/>
    <path id="Trazado_42249" data-name="Trazado 42249" d="M185.595-374.871a9.061,9.061,0,0,0-1.872-.666,4.554,4.554,0,0,1-1.343-.506.6.6,0,0,1-.338-.632.618.618,0,0,1,.528-.486,2.176,2.176,0,0,1,.845-.016,4.627,4.627,0,0,1,2.08.9c.123.09.168.075.247-.049.354-.555.715-1.1,1.087-1.647.1-.144.083-.21-.048-.317a5.639,5.639,0,0,0-3.686-1.3,4.891,4.891,0,0,0-1.242.136,3.091,3.091,0,0,0-2.413,3.767,2.844,2.844,0,0,0,1.517,1.871,8.366,8.366,0,0,0,2.074.786,4.365,4.365,0,0,1,1.189.437.6.6,0,0,1,.313.586.61.61,0,0,1-.419.538,1.666,1.666,0,0,1-.6.1,4.487,4.487,0,0,1-2.9-1.074c-.211-.168-.21-.17-.379.049q-.539.7-1.077,1.4c-.229.3-.232.3.062.545a6.26,6.26,0,0,0,5.228,1.36,3.048,3.048,0,0,0,2.714-2.671A2.714,2.714,0,0,0,185.595-374.871Z" transform="translate(-123.676 396.765)" fill="#fff"/>
    <path id="Trazado_42250" data-name="Trazado 42250" d="M209.8-372.829q-1.133-2.831-2.266-5.662c-.038-.095-.059-.188-.209-.19q-1.115-.013-2.23-.056c-.152-.005-.2.055-.253.183q-1.6,4.015-3.214,8.027l-.747,1.862c.027.014.039.025.051.025.865,0,1.73,0,2.595,0,.118,0,.137-.072.167-.151.193-.5.39-1,.577-1.5a.189.189,0,0,1,.213-.145q1.659.008,3.318,0a.189.189,0,0,1,.211.148c.185.5.381.988.564,1.485a.219.219,0,0,0,.245.168c.829-.007,1.659,0,2.488,0,.048,0,.095-.006.139-.009.022-.064-.014-.1-.032-.15Zm-4.7.221,1.068-2.805,1.037,2.805Z" transform="translate(-136.936 396.25)" fill="#fff"/>
    <path id="Trazado_42251" data-name="Trazado 42251" d="M110.292-379.312q-.534,1.754-1.079,3.5c-.288.935-.578,1.869-.87,2.811-.073-.036-.074-.1-.091-.15q-.521-1.49-1.037-2.982-.552-1.59-1.105-3.181c-.028-.081-.045-.148-.165-.146-.927.006-1.855,0-2.829,0,.041.122.057.175.077.227q1.863,4.979,3.725,9.957a.214.214,0,0,0,.246.161q1.084-.011,2.169,0a.235.235,0,0,0,.268-.189q1.576-4.418,3.162-8.833c.163-.456.326-.912.5-1.389h-.237c-.829.007-1.658.02-2.487.016C110.38-379.5,110.333-379.444,110.292-379.312Z" transform="translate(-77.739 396.723)" fill="#fff"/>
    <path id="Trazado_42252" data-name="Trazado 42252" d="M95.884-379.166c-.8.025-1.6.039-2.4.049-.125,0-.148.041-.148.156q0,4.953,0,9.906c0,.138.043.16.167.16.772-.006,1.545-.008,2.317,0,.161,0,.211-.033.21-.2-.007-1.637,0-3.274,0-4.911q0-2.487,0-4.974C96.027-379.083,96.048-379.171,95.884-379.166Z" transform="translate(-71.816 396.51)" fill="#fff"/>
    <path id="Trazado_42253" data-name="Trazado 42253" d="M187.1-344.352h-2.842v-2.842h-2.3v2.842H179.12v2.3h2.842v2.842h2.3v-2.842H187.1Z" transform="translate(-123.758 377.151)" fill="#fff"/>
    <path id="Trazado_42254" data-name="Trazado 42254" d="M112.064-333.094a23.015,23.015,0,0,1-5.507-.16,20.226,20.226,0,0,1-6.245-1.95,19.615,19.615,0,0,1-8.476-8.286,21.616,21.616,0,0,1-1.322-2.911c-.026-.072-.028-.166-.155-.165-.651.006-1.3,0-1.945,0-.031.077.01.126.027.177a20.96,20.96,0,0,0,4.858,8,21.73,21.73,0,0,0,13.833,6.6,23.151,23.151,0,0,0,7.968-.589,21.289,21.289,0,0,0,9.835-5.411l-1.354-.068A19.476,19.476,0,0,1,112.064-333.094Z" transform="translate(-68.83 376.771)" fill="#fff"/>
  </g>
</svg>
