<svg id="Grupo_38180" data-name="Grupo 38180" xmlns="http://www.w3.org/2000/svg" xmlns:xlink="http://www.w3.org/1999/xlink" width="33.953" height="33.953" viewBox="0 0 33.953 33.953">
  <defs>
    <linearGradient id="linear-gradient" x1="0.5" y1="-0.823" x2="0.5" y2="3.586" gradientUnits="objectBoundingBox">
      <stop offset="0" stop-color="#fff"/>
      <stop offset="1" stop-color="#ccc"/>
    </linearGradient>
    <linearGradient id="linear-gradient-4" x1="0.5" y1="-0.814" x2="0.5" y2="3.572" xlink:href="#linear-gradient"/>
    <linearGradient id="linear-gradient-6" x1="0.5" y1="-1.775" x2="0.5" y2="1.786" xlink:href="#linear-gradient"/>
    <linearGradient id="linear-gradient-7" x1="0.5" y1="-1.769" x2="0.5" y2="1.78" xlink:href="#linear-gradient"/>
    <linearGradient id="linear-gradient-8" x1="0.5" y1="0.68" x2="0.5" y2="3.484" xlink:href="#linear-gradient"/>
    <linearGradient id="linear-gradient-9" x1="0.5" y1="0.369" x2="0.5" y2="1.17" xlink:href="#linear-gradient"/>
  </defs>
  <path id="Trazado_86283" data-name="Trazado 86283" d="M16.977,0A16.977,16.977,0,1,1,0,16.977,16.977,16.977,0,0,1,16.977,0Z" transform="translate(0 0)"/>
  <g id="Grupo_4" data-name="Grupo 4" transform="translate(3.442 3.331)">
    <g id="Grupo_1" data-name="Grupo 1" transform="translate(3.327 13.102)">
      <path id="Trazado_1" data-name="Trazado 1" d="M90.776,112.837a1.329,1.329,0,0,0-1.261-1.447H87.485a.07.07,0,0,0-.065.065v4.463a.07.07,0,0,0,.065.065h.38a.07.07,0,0,0,.065-.065v-1.649h1.358l.825,1.633a.156.156,0,0,0,.121.081h.413a.076.076,0,0,0,.081-.081l-.857-1.682A1.355,1.355,0,0,0,90.776,112.837Zm-1.358.954H87.929V111.9h1.488c.469,0,.849.259.849.946S89.886,113.791,89.417,113.791Z" transform="translate(-87.42 -111.366)" fill="url(#linear-gradient)"/>
      <path id="Trazado_2" data-name="Trazado 2" d="M114.7,111.39h-2.911a.069.069,0,0,0-.065.065v4.463a.069.069,0,0,0,.065.065H114.7a.07.07,0,0,0,.065-.065v-.38a.07.07,0,0,0-.065-.065h-2.466V114.01h1.949a.07.07,0,0,0,.065-.065v-.38a.07.07,0,0,0-.065-.065h-1.941v-1.6H114.7a.07.07,0,0,0,.065-.065v-.38A.07.07,0,0,0,114.7,111.39Z" transform="translate(-107.722 -111.366)" fill="url(#linear-gradient)"/>
      <path id="Trazado_3" data-name="Trazado 3" d="M135.945,111.39h-2.029a.069.069,0,0,0-.065.065v4.463a.069.069,0,0,0,.065.065h.38a.069.069,0,0,0,.065-.065v-1.649h1.585a1.306,1.306,0,0,0,1.261-1.431A1.33,1.33,0,0,0,135.945,111.39Zm-.1,2.4H134.36V111.9h1.488c.469,0,.849.259.849.946S136.317,113.791,135.848,113.791Z" transform="translate(-126.199 -111.366)" fill="url(#linear-gradient)"/>
      <path id="Trazado_4" data-name="Trazado 4" d="M161.843,111.242a.146.146,0,0,0-.056.016l-1.9,4.091h-2.2v-4.019a.07.07,0,0,0-.065-.065h-.38a.069.069,0,0,0-.065.065v4.463a.069.069,0,0,0,.065.065h2.919a.068.068,0,0,0,.055-.035.267.267,0,0,0,.042-.046l.453-.97h2.264l.453.97a.156.156,0,0,0,.121.081h.364a.076.076,0,0,0,.081-.081l-2.094-4.52A.149.149,0,0,0,161.843,111.242Zm-.9,3.057.889-1.933.906,1.933Z" transform="translate(-145.681 -111.242)" fill="url(#linear-gradient-4)"/>
      <path id="Trazado_5" data-name="Trazado 5" d="M196.992,111.39h-.4a.156.156,0,0,0-.121.081l-1.375,2.224-1.367-2.224a.155.155,0,0,0-.121-.081h-.4a.076.076,0,0,0-.081.081l1.714,2.8v1.649a.069.069,0,0,0,.065.065h.38a.069.069,0,0,0,.065-.065v-1.649l1.714-2.8A.076.076,0,0,0,196.992,111.39Z" transform="translate(-175.712 -111.366)" fill="url(#linear-gradient)"/>
    </g>
    <g id="Grupo_3" data-name="Grupo 3" transform="translate(8.678 19.439)">
      <g id="Grupo_2" data-name="Grupo 2">
        <path id="Trazado_6" data-name="Trazado 6" d="M121.384,150.729h-1.372a.116.116,0,0,1-.12-.12v-.791a.116.116,0,0,1,.12-.12h3.874a.116.116,0,0,1,.12.12v.791a.116.116,0,0,1-.12.12h-1.372v4.535a.115.115,0,0,1-.12.12H121.5a.116.116,0,0,1-.12-.12Z" transform="translate(-119.892 -149.698)" fill="url(#linear-gradient-6)"/>
        <path id="Trazado_7" data-name="Trazado 7" d="M149.373,155.334l-2.693-5.516a.116.116,0,0,1,.12-.12h.971a.186.186,0,0,1,.16.12l1.592,3.314,1.592-3.314a.186.186,0,0,1,.16-.12h.971a.116.116,0,0,1,.12.12l-2.693,5.516a.2.2,0,0,1-.3,0Z" transform="translate(-142.265 -149.698)" fill="url(#linear-gradient-7)"/>
      </g>
    </g>
    <path id="Trazado_8" data-name="Trazado 8" d="M123.509,62.269c0-1.059,0-2.118,0-3.177a.439.439,0,0,0-.224-.431c-.154-.085-.272.019-.386.1q-2.149,1.516-4.294,3.036c0-.9,0-1.8,0-2.705a.439.439,0,0,0-.224-.431c-.154-.085-.272.019-.386.1q-2.2,1.549-4.388,3.1c-.3.213-.3.468,0,.681q2.211,1.575,4.424,3.149c.13.092.269.216.434.13s.136-.261.136-.415q0-1.4,0-2.8,2.165,1.542,4.331,3.083c.13.092.269.216.434.13s.136-.261.136-.415Q123.51,63.838,123.509,62.269Z" transform="translate(-105.781 -54.199)" fill="url(#linear-gradient-8)"/>
    <path id="Trazado_9" data-name="Trazado 9" d="M87.481,57.048a.577.577,0,0,1-.3-1.072A12.419,12.419,0,1,0,68.39,45.319,12.35,12.35,0,0,0,74.3,55.894a.577.577,0,1,1-.606.982A13.572,13.572,0,1,1,94.379,45.319a13.652,13.652,0,0,1-6.6,11.647A.574.574,0,0,1,87.481,57.048Z" transform="translate(-67.236 -31.747)" fill="url(#linear-gradient-9)"/>
  </g>
</svg>
