<?xml version="1.0" encoding="UTF-8"?>
<svg xmlns="http://www.w3.org/2000/svg" version="1.1" viewBox="0 0 120.5 21.4">
  <defs>
    <style>
      .cls-1 {
        isolation: isolate;
      }

      .cls-2 {
        fill: #fff;
      }
    </style>
  </defs>
  <!-- Generator: Adobe Illustrator 28.6.0, SVG Export Plug-In . SVG Version: 1.2.0 Build 709)  -->
  <g>
    <g id="Capa_1">
      <g id="Grupo_40433">
        <g id="Oferta" class="cls-1">
          <g class="cls-1">
            <path class="cls-2" d="M8.8,11.2c0,1-.2,1.8-.5,2.6s-.8,1.3-1.5,1.7-1.4.6-2.2.6-1.6-.2-2.2-.6-1.1-1-1.5-1.7c-.4-.7-.5-1.6-.5-2.5v-.5c0-1,.2-1.8.5-2.6.4-.7.9-1.3,1.5-1.7.6-.4,1.4-.6,2.2-.6s1.6.2,2.2.6c.6.4,1.1,1,1.5,1.7.4.7.5,1.6.5,2.6v.4ZM6.7,10.8c0-1-.2-1.8-.6-2.4s-.9-.8-1.6-.8-1.2.3-1.6.8c-.4.5-.6,1.3-.6,2.4v.5c0,1,.2,1.8.6,2.4s.9.8,1.6.8,1.2-.3,1.6-.8c.4-.5.6-1.3.6-2.4v-.5Z"/>
            <path class="cls-2" d="M10.7,16v-5.9h-1.1v-1.4h1.1v-.6c0-.8.2-1.5.7-1.9.5-.5,1.1-.7,2-.7s.6,0,1,.1v1.5c-.2,0-.4,0-.6,0-.7,0-1.1.3-1.1,1v.6h1.5v1.4h-1.5v5.9h-2Z"/>
            <path class="cls-2" d="M18.5,16.1c-1.1,0-2-.3-2.6-1s-1-1.6-1-2.7v-.2c0-.7.1-1.4.4-2,.3-.6.7-1,1.2-1.4.5-.3,1.1-.5,1.8-.5,1,0,1.8.3,2.4,1s.9,1.5.9,2.7v.8h-4.7c0,.5.3.9.6,1.2s.7.4,1.2.4c.8,0,1.4-.3,1.8-.8l1,1.1c-.3.4-.7.7-1.2,1-.5.2-1.1.4-1.7.4ZM18.3,10.1c-.4,0-.7.1-1,.4s-.4.6-.5,1.1h2.7v-.2c0-.4-.1-.8-.4-1s-.6-.4-1-.4Z"/>
            <path class="cls-2" d="M26.9,10.5c-.3,0-.5,0-.7,0-.7,0-1.2.3-1.5.8v4.8h-2v-7.4h1.9v.9c.5-.7,1-1,1.7-1s.4,0,.6,0v1.9Z"/>
            <path class="cls-2" d="M30.5,6.8v1.8h1.3v1.4h-1.3v3.7c0,.3,0,.5.2.6s.3.2.6.2.4,0,.6,0v1.5c-.4.1-.8.2-1.2.2-1.4,0-2.1-.7-2.1-2.1v-4h-1.1v-1.4h1.1v-1.8h2Z"/>
            <path class="cls-2" d="M37.2,16c0-.2-.2-.4-.2-.7-.5.5-1.1.8-1.9.8s-1.3-.2-1.8-.6-.7-.9-.7-1.6.3-1.4.9-1.8,1.4-.6,2.5-.6h.9v-.4c0-.3,0-.6-.3-.8s-.5-.3-.8-.3-.6,0-.8.2-.3.4-.3.7h-2c0-.4.1-.8.4-1.2s.6-.7,1.1-.9c.5-.2,1-.3,1.6-.3.9,0,1.6.2,2.2.7.5.5.8,1.1.8,1.9v3.2c0,.7.1,1.2.3,1.6h0c0,.1-2,.1-2,.1ZM35.5,14.6c.3,0,.6,0,.8-.2.2-.1.4-.3.5-.5v-1.3h-.7c-1,0-1.5.3-1.6,1h0c0,.4,0,.6.3.7s.4.2.7.2Z"/>
          </g>
        </g>
        <g id="walmart-ar21">
          <path id="Trazado_95752" class="cls-2" d="M110.6,7.2c.5,0,.9-.3,1-.6l.5-5.6c0-.6-.7-1-1.5-1s-1.5.5-1.5,1l.5,5.6c0,.3.5.6,1,.6M107.6,9c.3-.3.3-.8,0-1.1l-4.6-3.2c-.5-.3-1.2,0-1.6.8s-.3,1.5.1,1.8l5.1,2.4c.4,0,.8-.2,1-.6M113.7,9c.3.4.7.7,1,.5l5.1-2.4c.5-.5.6-1.2.1-1.8-.4-.7-1.1-1-1.6-.8l-4.6,3.2c-.3.3-.3.8,0,1.2M110.7,14.2c.5,0,.9.3,1,.6l.5,5.6c0,.6-.7,1-1.5,1s-1.5-.5-1.5-1l.5-5.6c0-.3.5-.6,1-.6M113.7,12.4c.3-.4.7-.7,1-.5l5.1,2.4c.5.5.6,1.2.1,1.8-.4.7-1.1,1-1.6.8l-4.6-3.2c-.3-.3-.3-.8,0-1.1M107.6,12.4c.3.3.2.8,0,1.1l-4.6,3.2c-.5.3-1.2,0-1.6-.8s-.3-1.5.1-1.8l5.1-2.4c.4,0,.8.1,1,.5"/>
          <g id="Grupo_39787">
            <path id="Trazado_95753" class="cls-2" d="M86.3,13c0,.1,0,.3,0,.4-.2.6-.8,1-1.4,1-.5,0-1-.3-1.1-.9,0,0,0-.1,0-.2,0-1.1,1.2-1.4,2.5-1.4v1ZM88.4,11.2c0-1.8-.8-3.3-3.3-3.3-1,0-2,.2-2.9.7l.4,1.4c.6-.4,1.4-.6,2.1-.6,1.3,0,1.5.7,1.5,1.2h0c-2.8.1-4.6,1.1-4.6,3.1,0,1.3,1,2.4,2.4,2.4,0,0,0,0,.1,0,.9,0,1.7-.3,2.3-1h0s.3,1.4,2.1.8c0-.6-.1-1.3-.1-1.9v-2.8M44.3,5.4l2.1,8.8c.3,1.4,1,2,2.8,1.6l1.1-4.7.7-3.2h0c.1,1.2.3,2,.6,3.2l.7,3.3c.2,1.1.9,1.8,2.7,1.4l2.8-10.4h-2.2l-.9,4.5-.7,3.5h0l-.6-3.4-1-4.6h-2.3l-1.1,4.5-.8,3.6h0c-.2-1.3-.4-2.5-.7-3.8l-.8-4.3h-2.3M62,13c0,.1,0,.3,0,.4-.2.6-.8,1-1.4,1-.5,0-1-.3-1.1-.9,0,0,0-.1,0-.2,0-1.1,1.2-1.4,2.5-1.4v1ZM64.1,11.2c0-1.8-.8-3.3-3.3-3.3-1,0-2,.2-2.9.7l.4,1.4c.6-.4,1.4-.6,2.1-.6,1.3,0,1.5.7,1.5,1.2h0c-2.8.1-4.6,1.1-4.6,3.1,0,1.3,1,2.4,2.4,2.4,0,0,0,0,.1,0,.9,0,1.7-.3,2.3-1h0s.3,1.4,2.1.8c0-.6-.1-1.3-.1-1.9v-2.8M67.6,13.6V5.4h-2.1v10.4h2.1v-2.2"/>
            <path id="Trazado_95754" class="cls-2" d="M95.3,5.4v7.7c0,.8.1,1.6.6,2.3.5.4,1.1.7,1.7.6.5,0,1,0,1.5-.2v-1.6c-.3,0-.6,0-.8,0-.7,0-1-.5-1-1.4v-2.9h1.8v-2h-1.8v-2.4h-2.1M89.8,8v7.8h2.2v-4c0-.2,0-.4,0-.6.1-.8.9-1.4,1.7-1.4.2,0,.4,0,.6,0v-2.1c-.2,0-.3,0-.5,0-1,0-1.8.7-2.1,1.6h0v-1.5h-1.9M69.1,8v7.8h2.1v-4.6c0-.2,0-.4.1-.6.2-.6.7-1,1.3-1,.9,0,1.3.7,1.3,1.8v4.4h2.1v-4.6c0-.2,0-.4,0-.6.2-.6.7-.9,1.3-.9.9,0,1.3.7,1.3,1.9v4.3h2.1v-4.6c0-2.4-1.2-3.4-2.6-3.4-.5,0-1.1.1-1.5.4-.4.3-.7.6-1,1h0c-.3-.9-1.2-1.4-2.1-1.4-.9,0-1.8.4-2.3,1.3h0v-1.1h-2"/>
          </g>
        </g>
      </g>
    </g>
  </g>
</svg>